<?xml version="1.0" encoding="UTF-8" standalone="no"?>
<svg
   id="svg2"
   height="109.09"
   width="260.36"
   version="1.1"
   sodipodi:docname="ARD alpha.svg"
   inkscape:version="1.1.1 (3bf5ae0d25, 2021-09-20)"
   xmlns:inkscape="http://www.inkscape.org/namespaces/inkscape"
   xmlns:sodipodi="http://sodipodi.sourceforge.net/DTD/sodipodi-0.dtd"
   xmlns="http://www.w3.org/2000/svg"
   xmlns:svg="http://www.w3.org/2000/svg"
   xmlns:rdf="http://www.w3.org/1999/02/22-rdf-syntax-ns#"
   xmlns:cc="http://creativecommons.org/ns#"
   xmlns:dc="http://purl.org/dc/elements/1.1/">
  <defs
     id="defs8" />
  <sodipodi:namedview
     id="namedview6"
     pagecolor="#ffffff"
     bordercolor="#666666"
     borderopacity="1.0"
     inkscape:pageshadow="2"
     inkscape:pageopacity="0.0"
     inkscape:pagecheckerboard="0"
     showgrid="false"
     inkscape:zoom="4"
     inkscape:cx="129.625"
     inkscape:cy="53.375"
     inkscape:window-width="1920"
     inkscape:window-height="1017"
     inkscape:window-x="-8"
     inkscape:window-y="-8"
     inkscape:window-maximized="1"
     inkscape:current-layer="svg2" />
  <metadata
     id="metadata8">
    <rdf:RDF>
      <cc:Work
         rdf:about="">
        <dc:format>image/svg+xml</dc:format>
        <dc:type
           rdf:resource="http://purl.org/dc/dcmitype/StillImage" />
        <dc:title />
      </cc:Work>
    </rdf:RDF>
  </metadata>
  <path
     id="text2987"
     style="text-align:start;"
     fill="#001a4b"
     d="m132.39,80.281,0,17.531,1.7812,0,0-17.531-1.7812,0zm12,0,0,5.5625c-0.81691-0.07208-1.4907-0.09375-2.1875-0.09375-3.7242,0-6.1562,2.3723-6.1562,6.625,0,3.4839,1.451,5.6562,4.4062,5.6562,1.9221,0,3.4522-1.1378,4.125-2.8438l0.0312,0.0312c-0.14416,0.7208-0.21875,1.873-0.21875,2.5938h1.7812v-17.531h-1.7812zm50.625,0,0,17.531,1.7812,0,0-6.25,4.7188,6.25,2.3438,0-5.125-6.5,4.75-5.4375-2.1875,0-4.5,5.375,0-10.969-1.7812,0zm44.406,0,0,17.531,1.7812,0,0-17.531-1.7812,0zm-111.19,1c-0.57256,0.11497-1,0.63009-1,1.2188,0,0.69678,0.55322,1.2188,1.25,1.2188,0.67275,0,1.25-0.52197,1.25-1.2188,0-0.67275-0.57725-1.2188-1.25-1.2188-0.0871,0-0.16821-0.01642-0.25,0zm-66.885,0.219c-1.8741,0-3.3828,0.02167-4.6562,0.09375v16.219h3.125v-6.6875h0.09375l4.5312,6.6875h3.875l-3.9062-5.4375c-0.40846-0.55262-0.85599-1.1806-1.3125-1.7812,2.4507-0.38443,4.125-2.1286,4.125-4.5312,0-3.3157-2.295-4.5625-5.875-4.5625zm14.375,0c-1.9942,0-3.9766,0.07695-5.25,0.125v16.156c1.3695,0.0481,2.8494,0.125,4.5312,0.125,5.2859,0,8.9375-2.8945,8.9375-8.4688,0-5.6944-3.1971-7.9375-8.2188-7.9375zm44.125,0.03125c-1.9462,0-3.426,0.03847-4.5312,0.0625v16.219c1.3936,0.024,2.9212,0.0937,3.9062,0.0937,5.1177,0,6.1875-3.121,6.1875-4.875,0-1.7299-1.0348-3.3896-3.4375-3.75v-0.0625c1.826-0.52859,3.0625-2.0658,3.0625-3.8438,0-2.3546-1.6556-3.8438-5.1875-3.8438zm-74.219,0.0625-5.6875,16.219,3.1562,0,1.125-3.3125,6.125,0,1.1562,3.3125,3.4375,0-5.7812-16.219-3.5312,0zm73.875,1.4375c2.8592,0,3.5938,1.1185,3.5938,2.6562,0,1.9221-1.4918,3.0625-4.375,3.0625-0.6247,0-1.0579-0.0072-1.5625-0.03125v-5.6562c0.69678-0.02403,1.5509-0.03125,2.3438-0.03125zm-58.477,1.03c1.9702,0,2.9375,0.75076,2.9375,2.3125,0,1.5137-1.1572,2.4688-3.0312,2.4688-0.48054,0-0.90876-0.0072-1.125-0.03125v-4.6875c0.31235-0.04805,0.76224-0.0625,1.2188-0.0625zm14.469,0.0625c3.7001,0,5.0625,2.0786,5.0625,5.5625,0,3.8443-2.1986,5.5625-5.25,5.5625-0.6247,0-1.2863-0.0529-1.7188-0.125v-10.938c0.50456-0.04805,1.1854-0.0625,1.9062-0.0625zm-28.25,1.0625,0.03125,0c0.19221,0.91302,0.43765,1.7048,0.75,2.5938l1.5,4.25h-4.5l1.4688-4.125c0.31235-0.93705,0.55779-1.8778,0.75-2.7188zm120.28,0.439c-2.0903,0-3.5772,1.1763-4.25,2.9062h-0.0625c0.12013-0.7208,0.1875-1.8874,0.1875-2.6562h-1.7812v11.938h1.8125v-5.75c0-2.8352,1.5179-4.9375,3.6562-4.9375,1.7299,0,2.2188,1.0947,2.2188,2.9688v7.7188h1.8125v-8.3438c0-2.1144-0.85469-3.8438-3.5938-3.8438zm54.219,0c-2.0903,0-3.6085,1.1763-4.2812,2.9062h-0.0625c0.12013-0.7208,0.21875-1.8874,0.21875-2.6562h-1.7812v11.938h1.7812v-5.75c0-2.8352,1.5179-4.9375,3.6562-4.9375,1.7299,0,2.25,1.0947,2.25,2.9688v7.7188h1.7812v-8.3438c0-2.1144-0.82344-3.8438-3.5625-3.8438zm-43.219,0.03125c-3.2436,0-5.1875,2.1262-5.1875,4.625,0,1.5377,0.57991,2.772,1.7812,3.4688-0.84094,0.38443-1.3125,1.1206-1.3125,1.9375,0,0.76886,0.44267,1.3824,1.1875,1.7188-1.1293,0.57664-2.0625,1.6978-2.0625,3.1875,0,2.2826,1.9414,3.5,4.9688,3.5,3.6761,0,6.2812-1.8834,6.2812-4.4062,0-2.0903-1.4051-3.3438-4-3.3438h-2.3438c-1.4897,0-2.1562-0.33447-2.1562-1.0312,0-0.43248,0.27433-0.84626,0.875-1.0625,0.43248,0.0961,1.1036,0.15625,1.6562,0.15625,3.4358,0,5.1875-1.9532,5.1875-4.5,0-1.1293-0.45947-2.0724-1.1562-2.625h2.1562v-1.4062h-4.0625c-0.6247-0.14416-1.1398-0.21875-1.8125-0.21875zm11.344,0c-3.0274,0-4.6875,1.5058-4.6875,3.5,0,4.2528,5.8438,2.4605,5.8438,5.3438,0,1.2494-1.2076,2.0312-2.9375,2.0312-0.93705,0-1.9186-0.19001-2.6875-0.40625l-0.0312,1.6562c0.7208,0.14416,1.6423,0.25,2.5312,0.25,3.1235,0,4.9688-1.6669,4.9688-3.7812,0-4.0605-5.8125-2.4221-5.8125-5.2812,0-1.1773,0.83979-1.875,2.5938-1.875,0.81691,0,1.7071,0.14196,2.5,0.40625l0.0312-1.5625c-0.74483-0.14416-1.5677-0.28125-2.3125-0.28125zm18.719,0c-1.6098,0-2.9957,0.40169-4.125,0.90625l0.15625,1.5625c1.0572-0.67275,2.503-1.0312,3.6562-1.0312,2.0663,0,2.7188,1.0105,2.7188,2.8125v1c-4.6612,0-7.25,1.72-7.25,4.2188,0,1.8981,1.3519,2.9062,3.25,2.9062,2.0423,0,3.5796-1.2051,4.1562-2.7188h0.0625c-0.12013,0.69678-0.125,1.587-0.125,2.5h1.7812c-0.048-1.0572-0.0625-2.3852-0.0625-3.5625v-4.6875c0-2.2585-0.92708-3.9062-4.2188-3.9062zm23.562,0c-1.6098,0-2.9957,0.40169-4.125,0.90625l0.15625,1.5625c1.0572-0.67275,2.503-1.0312,3.6562-1.0312,2.0663,0,2.7188,1.0105,2.7188,2.8125v1c-4.6612,0-7.25,1.72-7.25,4.2188,0,1.8981,1.3831,2.9062,3.2812,2.9062,2.0423,0,3.5796-1.2051,4.1562-2.7188h0.0312c-0.12013,0.69678-0.125,1.587-0.125,2.5h1.7812c-0.048-1.0572-0.0312-2.3852-0.0312-3.5625v-4.6875c0-2.2585-0.95833-3.9062-4.25-3.9062zm-104.62,0.21875,0,11.938,1.8125,0,0-11.938-1.8125,0zm21.625,0,0,8.3438c0,2.1144,0.85469,3.8438,3.5938,3.8438,2.0903,0,3.6085-1.1763,4.2812-2.9062l0.0312,0.0312c-0.12013,0.7208-0.1875,1.8561-0.1875,2.625h1.7812v-11.938h-1.8125v5.75c0,2.8352-1.4866,4.9375-3.625,4.9375-1.7299,0-2.25-1.0634-2.25-2.9375v-7.75h-1.8125zm29.281,1.1875c1.9702,0,3.1562,1.1091,3.1562,3.0312s-1.2798,2.9688-3.25,2.9688c-2.0182,0-3.1875-1.0226-3.1875-2.9688,0-1.754,1.2149-3.0312,3.2812-3.0312zm-36.406,0.09375c0.76886,0,1.5268,0.08904,2.3438,0.28125v4.2188c0,2.1144-1.1838,4.9062-3.5625,4.9062-1.9702,0-2.875-1.6215-2.875-4.3125,0-3.604,1.643-5.0938,4.0938-5.0938zm-23.312,2.9688c2.667,0,4.7812,0.6862,4.7812,2.9688,0,1.8981-1.2658,3.3125-4.125,3.3125-1.0572,0-1.7863-0.0842-2.2188-0.15625v-6.0938c0.38443-0.024,1.2742-0.0312,1.5625-0.0312zm92.281,2.0938,0,0.1875c0,2.0663-1.3856,4.1562-3.5,4.1562-1.1773,0-1.9688-0.70004-1.9688-1.7812,0-1.1533,0.97574-2.5625,5.4688-2.5625zm23.562,0,0,0.1875c0,2.0663-1.3856,4.1562-3.5,4.1562-1.1773,0-1.9375-0.70004-1.9375-1.7812,0-1.1533,0.94449-2.5625,5.4375-2.5625zm-58.125,5.6562c0.21624,0.024,0.54098,0.0312,0.78125,0.0312h2.4375c1.826,0,2.7188,0.75783,2.7188,2.0312,0,1.5858-1.5373,2.6875-4.1562,2.6875-1.9942,0-3.4688-0.80603-3.4688-2.3438,0-1.0091,0.65435-1.8777,1.6875-2.4062z" />
  <path
     id="_46617464"
     fill-rule="evenodd"
     fill="#db502b"
     d="m240.57,5c-8.1691,0-14.781,6.6317-14.781,14.781,0,8.1975,6.6121,14.844,14.781,14.844,8.1659,0,14.781-6.6463,14.781-14.844,0.01-8.149-6.61-14.781-14.78-14.781zm0,2.1875c6.9342,0,12.625,5.6401,12.625,12.594,0,7.0008-5.6908,12.688-12.625,12.688s-12.625-5.6867-12.625-12.688c0-6.9538,5.691-12.594,12.625-12.594zm-167.81,3.6565c-0.55996,0-1,0.45654-1,1v62.812c0,0.54346,0.44106,1,1,1h8.875c0.56016,0,1-0.45756,1-1v-62.812c0-0.54346-0.43984-1-1-1h-8.875zm67.658,0.031c-0.55996,0-1,0.45654-1,1v62.781c0,0.55793,0.44003,1,1,1h8.9062c0.55894,0,1-0.4431,1-1v-19.406c0-7.4174,4.343-13.719,9.875-13.719,4.0024,0,5.1875,2.6319,5.1875,7.0625l-0.0312,26.062c0,0.55793,0.45858,1,1,1h8.8438c0.54142,0,1-0.4431,1-1v-28.688c0-7.4039-3.0618-13.531-12.594-13.531-6.5453,0-11.405,3.1469-13.875,7.9062l-0.2-0.093c0.59946-2.4725,0.78125-6.0353,0.78125-8.5938v-19.781c0-0.54346-0.44106-1-1-1h-8.9062zm106.16,0.09375-14.938,5.375,0,3.6875,4.9375-1.7812,0,11.125,10-3.5625,0-14.844zm-215.85,19.937c-8.1879,0-16.046,8.0806-20.219,14.812-1.9426,3.4152-4.5386,8.8445-5.2812,14.219-0.74654,5.3588,0.12876,11.175,5.5,14.219,8.1329,4.6308,16.803,0.61403,22.875-4.0312,0.5455-0.3858,1.0901-0.87725,1.7188-1.4062,1.5587-1.3295,2.8784-2.635,3.9062-3.75,0.02893-0.04339,0.09585-0.11371,0.125-0.15625,1.2694-1.3295,2.5932-2.7794,3.9062-4.2812l0.15625,0.3125c4.4161,7.8893,10.233,15.483,19.094,14.812,1.0713-0.18556,1.049-1.106,1.0625-2.25,0.01448-2.2298-0.0625-7.25-0.0625-7.25,0.02893-0.79971-0.58269-1.2119-1.625-1.3125-0.48643-0.04258-1.4211-0.05523-1.9375-0.3125-2.3564-1.1574-3.4783-3.2907-5.4062-6.4062-1.2735-2.0585-2.4576-4.2957-3.6875-6.625,2.5024-3.073,12.313-15.469,12.312-15.469,2.759-3.774,1.233-4.032-1.281-4.032l-7.9688-0.03125c-1.1564,0.05703-1.9336,0.47139-2.2188,0.84375-0.67301,0.84309-1.7633,2.2917-2.9062,3.75-1.2289,1.6012-2.4042,3.1724-3.5938,4.6875-3.5013-5.6874-7.5781-10.344-14.469-10.344zm177.78,0.4375c-8.2024,0-16.012,8.0806-20.188,14.812-1.9579,3.4152-4.5522,8.8623-5.2812,14.25-0.74247,5.3588,0.1257,11.143,5.5,14.188,11.232,6.3877,23.484-3.6855,28.5-9.1875,0.35769-0.3858,0.5273-1.3225,0.125-1.9375l-4.7188-6.0625c-0.85675-1.0154-1.777-1.1295-2.9375,0-2.9858,2.9153-4.5888,5.3343-9.375,7.4062-3.516,1.5153-5.4843,0.7199-6.1875-0.4375-1.8294-2.9733,3.2611-11.257,3.875-12.344,3.9152-6.2734,8.0292-9.2777,10.656-9.4062,0.54448-0.02913,1.5439,0.2805,2.5312,1.2812,0.96959,0.97183,1.9934,2.4351,3.0938,4.25,2.2319,3.716,4.5499,8.5535,7.125,13.156,4.4014,7.8883,10.03,15.047,18.906,14.375,1.0568-0.17111,1.0312-1.0748,1.0312-2.2188,0.0145-2.2433-0.0625-7.2812-0.0625-7.2812,0.0436-0.78627-0.5659-1.1961-1.5938-1.2812-0.48642-0.04359-1.4211-0.06868-1.9375-0.3125-2.3708-1.1574-3.1958-2.8991-5.125-6-2.0451-3.3158-3.6711-7.3004-5.8438-11.188-4.4856-8.0614-8.8883-16.062-18.094-16.062zm-92.25,0.6875c-6.3877,0-10.892,2.9611-13.281,7.9062h-0.1875c0.24483-1.6294,0.37715-3.5982,0.40625-5.3125,0.0145-0.04359,0.00091-0.9375,0-0.9375,0-0.5569-0.42325-1-0.96875-1h-8.125c-0.55588,0-1,0.4431-1,1v63.344c0,0.5569,0.44412,1,1,1h8.875c0.55995,0,1.0312-0.4431,1.0312-1v-1.0938-20.5c1.8004,0.25727,3.3934,0.34375,5.4375,0.34375,14.635,0,22.312-9.2793,22.312-24-0.001-12.519-5.4525-19.75-15.5-19.75zm-3.1562,8.9375c4.9282,0,7.25,4.0828,7.25,12,0,10.476-4.5238,14.375-10.656,14.375-2.1987,0-3.9752-0.23567-5.6875-0.75v-11.75c0-7.2318,3.3907-13.875,9.0938-13.875zm-82.432,1.218c0.52696-0.02913,1.5439,0.28049,2.5312,1.2812,0.97285,0.97183,2.0861,2.4204,3.1875,4.25,0.51535,0.85654,1.0637,1.7782,1.5938,2.75-2.0017,2.4154-3.9419,4.6413-5.875,6.6562-2.9454,2.8729-5.0354,5.1915-9.7812,7.25-3.5158,1.5153-5.4574,0.70543-6.1562-0.4375-1.8149-2.9733,3.2611-11.288,3.875-12.375,3.9183-6.2736,8.0095-9.2465,10.625-9.375z" />
  <path
     style="fill:#ffffff;stroke-width:0.25"
     d="M 239.625,89.125 V 80.5 h 0.75 0.75 v 8.625 8.625 h -0.75 -0.75 z"
     id="path65" />
  <path
     style="fill:#ffffff;stroke-width:0.25"
     d="M 229.48623,97.740699 C 228.24662,97.367827 227.5,96.383908 227.5,95.123192 c 0,-2.071163 1.84417,-3.461981 5.23892,-3.951044 L 234.625,90.90043 v -1.219446 c 0,-1.014475 -0.12283,-1.342277 -0.73077,-1.950215 -0.629,-0.628999 -0.91623,-0.729241 -2.0625,-0.719796 -0.73245,0.006 -1.77429,0.16864 -2.3152,0.361344 -1.09419,0.389816 -1.39153,0.314049 -1.39153,-0.354581 0,-1.046813 5.19661,-1.601862 6.57012,-0.701754 1.44261,0.945386 1.54711,1.365589 1.6439,6.610408 l 0.089,4.82361 h -0.77651 c -0.76967,0 -0.77652,-0.01153 -0.77652,-1.306961 v -1.306961 l -0.7725,0.937176 c -1.24036,1.504772 -3.02001,2.147601 -4.61627,1.667445 z m 3.36746,-1.687119 c 1.03163,-0.770224 1.56988,-1.689551 1.70832,-2.917825 l 0.13203,-1.171363 -0.84702,0.131807 c -0.46586,0.07249 -1.38086,0.199819 -2.03333,0.282944 -1.64893,0.210075 -2.68995,1.113728 -2.68486,2.330581 0.002,0.503402 0.0865,1.037391 0.1875,1.186642 0.63301,0.935237 2.39065,1.013353 3.53736,0.157214 z"
     id="path104" />
  <path
     style="fill:#ffffff;stroke-width:0.25"
     d="M 215.875,91.875 V 86 h 0.75 c 0.74627,0 0.75,0.0072 0.75093,1.4375 l 9.4e-4,1.4375 0.46386,-0.760655 c 1.5081,-2.473033 4.62403,-3.139233 6.39688,-1.367682 L 225,87.508498 l 0.0768,5.120751 0.0768,5.120751 h -0.74914 -0.74914 l -0.0777,-4.772163 -0.0777,-4.772164 -0.73324,-0.630193 c -1.45821,-1.253266 -3.8531,-0.295033 -4.80991,1.92452 -0.25147,0.583341 -0.42341,2.104134 -0.51584,4.5625 l -0.13864,3.6875 h -0.71369 -0.71368 z"
     id="path143" />
  <path
     style="fill:#ffffff;stroke-width:0.25"
     d="m 205.75,97.617384 c -0.55,-0.19792 -1.02524,-0.36155 -1.05608,-0.36362 -0.22368,-0.01501 -0.81892,-1.617276 -0.81892,-2.204378 0,-0.939986 0.90363,-2.267071 1.96625,-2.887675 0.96024,-0.560809 3.25932,-1.152051 4.50221,-1.157806 L 211.18692,91 211.06938,89.582641 c -0.097,-1.169269 -0.24223,-1.524611 -0.82988,-2.030092 -0.64142,-0.551722 -0.87821,-0.600864 -2.37816,-0.493543 -0.91619,0.06555 -2.01918,0.295472 -2.45107,0.51093 l -0.78527,0.391742 v -0.691267 c 0,-0.596604 0.1455,-0.734904 1.0625,-1.009918 2.01317,-0.603764 3.73947,-0.621488 5.02775,-0.05162 1.76047,0.778741 1.90975,1.31872 1.90975,6.908098 V 97.75 h -0.78482 -0.78483 l 0.14805,-1.25 c 0.17083,-1.442442 -10e-4,-1.550193 -0.7034,-0.440122 -0.9553,1.510554 -3.00909,2.183984 -4.75,1.557506 z m 3.61914,-1.562993 c 0.78838,-0.573186 1.75586,-2.429334 1.75586,-3.368692 0,-0.658213 -0.0575,-0.699483 -0.8125,-0.583024 -0.44687,0.06893 -1.32241,0.189755 -1.94564,0.268495 -1.64013,0.207218 -2.67957,0.917571 -2.87618,1.965582 -0.18874,1.006065 0.18157,1.841573 0.96316,2.173145 0.74841,0.317491 2.1542,0.09784 2.9153,-0.455506 z"
     id="path182" />
  <path
     style="fill:#ffffff;stroke-width:0.25"
     d="M 195.125,89.125 V 80.5 h 0.75 0.75 v 5.375 c 0,2.95625 0.0861,5.375 0.19143,5.375 0.10528,0 1.17658,-1.18125 2.38067,-2.625 2.04953,-2.457476 2.24771,-2.625 3.10534,-2.625 h 0.91611 l -0.62499,0.6875 c -2.94954,3.244557 -3.9917,4.573387 -3.81506,4.864499 0.10779,0.177651 1.24424,1.644876 2.52545,3.260501 l 2.32947,2.9375 h -1.0009 c -0.99036,0 -1.02527,-0.03278 -3.31671,-3.114293 -1.27369,-1.71286 -2.40018,-3.11911 -2.50331,-3.125 -0.10312,-0.0059 -0.1875,1.395543 -0.1875,3.114293 v 3.125 h -0.75 -0.75 z"
     id="path221" />
  <path
     style="fill:#ffffff;stroke-width:0.25"
     d="m 186.29201,97.816662 c -0.73153,-0.07582 -0.92359,-0.188908 -0.8125,-0.478421 0.08,-0.208524 0.14549,-0.521882 0.14549,-0.696352 0,-0.241826 0.3079,-0.268544 1.29554,-0.11242 2.45612,0.388261 4.20446,-0.474733 4.20446,-2.075357 0,-0.954101 -0.70018,-1.509131 -2.72748,-2.162066 -2.21256,-0.712603 -3.02252,-1.573135 -3.02252,-3.211227 0,-0.945764 0.13488,-1.265702 0.82423,-1.95505 1.17686,-1.176863 3.09011,-1.630401 5.14452,-1.219519 0.60523,0.121047 0.78125,0.286746 0.78125,0.735455 0,0.562805 -0.0481,0.575168 -1.70035,0.436653 -2.08804,-0.175054 -3.17154,0.269257 -3.42047,1.402634 -0.29935,1.362911 0.3791,2.004705 3.03736,2.873268 1.88797,0.616877 2.58346,1.413534 2.58346,2.959243 0,1.105824 -0.10501,1.35026 -0.9375,2.182143 -0.69189,0.691389 -1.28458,1.011165 -2.2623,1.220589 -0.72865,0.156071 -1.51615,0.264854 -1.75,0.241739 -0.23386,-0.02311 -0.85629,-0.0867 -1.38319,-0.141312 z"
     id="path260" />
  <path
     style="fill:#ffffff;stroke-width:0.25"
     d="m 181.3125,85.816949 c 0.58438,-0.05263 1.54063,-0.05263 2.125,0 0.58438,0.05263 0.10625,0.0957 -1.0625,0.0957 -1.16875,0 -1.64687,-0.04306 -1.0625,-0.0957 z"
     id="path299" />
  <path
     style="fill:#ffffff;stroke-width:0.25"
     d="m 175.58351,103.62217 c -0.67582,-0.21729 -1.43822,-0.69798 -1.8125,-1.14279 -1.13139,-1.34459 -0.7383,-3.542233 0.8301,-4.640783 l 0.54805,-0.383871 -0.63708,-0.590426 c -0.35039,-0.324734 -0.63708,-0.771943 -0.63708,-0.993798 0,-0.531599 0.485,-1.424236 0.96682,-1.779429 0.33523,-0.247129 0.28566,-0.397246 -0.38253,-1.158264 -1.4505,-1.652027 -1.29066,-4.035261 0.38287,-5.708794 1.27487,-1.274866 2.23668,-1.476698 6.18632,-1.298171 3.3013,0.149222 3.34652,0.159192 3.34652,0.737711 0,0.528954 -0.11102,0.586445 -1.13248,0.586445 h -1.13249 l 0.55522,0.750968 c 0.40226,0.544088 0.55021,1.082729 0.53704,1.955247 -0.0424,2.81071 -1.84864,4.259417 -5.33979,4.282812 -0.92575,0.0062 -1.7679,0.141369 -1.9375,0.310973 -0.39244,0.392437 -0.38491,1.366716 0.0125,1.618403 0.17188,0.108851 1.62794,0.257468 3.23569,0.33026 3.32639,0.150603 4.05999,0.479891 4.67622,2.098993 0.66823,1.755694 -0.43937,3.707274 -2.66985,4.704284 -1.44541,0.64609 -4.10856,0.79849 -5.59605,0.32023 z m 4.63592,-1.14413 c 0.53319,-0.14805 1.24244,-0.54218 1.57611,-0.87585 0.50202,-0.50202 0.59354,-0.81113 0.53057,-1.791932 -0.069,-1.073913 -0.15831,-1.226321 -0.95111,-1.622369 -1.22702,-0.612967 -4.89928,-0.609611 -5.65824,0.0052 -1.6174,1.310143 -1.3691,3.383011 0.50282,4.197711 0.94862,0.41287 2.69035,0.45087 3.99985,0.0873 z m -0.51893,-9.494776 c 1.92862,-0.535561 2.63464,-3.430595 1.22215,-5.011439 -1.24882,-1.39767 -4.12728,-1.277929 -5.30612,0.22073 -0.69147,0.879052 -0.67827,3.00261 0.0242,3.895658 0.80196,1.019529 2.36811,1.364814 4.05978,0.895051 z"
     id="path338" />
  <path
     style="fill:#ffffff;stroke-width:0.25"
     d="M 161.625,91.875 V 86 h 0.83307 0.83307 l -0.0893,1.4375 c -0.0763,1.228119 -0.0429,1.368897 0.22943,0.966509 0.83969,-1.240744 1.6167,-2.001786 2.36155,-2.313002 1.7441,-0.728735 3.85782,-0.211573 4.65568,1.139106 0.36295,0.614418 0.42652,1.452189 0.42652,5.62096 V 97.75 h -0.75 -0.75 v -4.512415 c 0,-5.212932 -0.17045,-5.856204 -1.62398,-6.128888 -1.23093,-0.230925 -2.07978,0.04506 -3.01499,0.98027 -1.11341,1.113416 -1.35802,2.233053 -1.35964,6.223533 l -0.001,3.4375 h -0.875 -0.875 z"
     id="path377" />
  <path
     style="fill:#ffffff;stroke-width:0.25"
     d="m 151.25,97.662895 c -1.69912,-0.780645 -1.74203,-0.934823 -1.8268,-6.563518 L 149.34641,86 h 0.74914 0.74914 l 0.0777,4.743656 c 0.0745,4.551606 0.1007,4.766687 0.64709,5.3125 0.41973,0.419281 0.85859,0.568844 1.66917,0.568844 1.37811,0 2.31841,-0.651595 3.07389,-2.130108 0.50835,-0.994859 0.5625,-1.45675 0.5625,-4.797864 V 86 h 0.875 0.875 v 5.875 5.875 h -0.75 c -0.74484,0 -0.75,-0.0097 -0.75,-1.412509 v -1.41251 l -0.74507,1.028541 c -0.40979,0.565697 -1.08285,1.203213 -1.49569,1.416701 -1.09067,0.564008 -2.75239,0.697829 -3.63424,0.292672 z"
     id="path416" />
  <path
     style="fill:#ffffff;stroke-width:0.25"
     d="m 139,97.624266 c -1.31145,-0.463976 -2.0241,-1.325227 -2.52646,-3.053285 -0.72779,-2.503515 -0.0468,-5.618877 1.55646,-7.120219 1.15496,-1.081549 2.47321,-1.503978 4.64885,-1.48971 l 1.94615,0.01276 V 83.236908 80.5 h 0.75 0.75 v 8.625 8.625 h -0.75 c -0.74627,0 -0.75,-0.0072 -0.75093,-1.4375 l -9.3e-4,-1.4375 -0.46327,0.75 c -0.64479,1.043868 -1.34256,1.615761 -2.45581,2.012797 -1.19417,0.425892 -1.46585,0.424533 -2.70406,-0.01353 z m 3.61914,-1.569875 c 0.34697,-0.252264 0.88399,-0.954039 1.19336,-1.559499 0.49264,-0.964118 0.5625,-1.480466 0.5625,-4.157546 v -3.056709 l -1.13885,-0.170782 c -2.40844,-0.361167 -3.83833,0.278965 -4.81323,2.154781 -0.49764,0.957522 -0.56647,1.409009 -0.5,3.279954 0.0829,2.334668 0.48199,3.23661 1.72618,3.901558 0.74654,0.398984 2.13417,0.215952 2.97004,-0.391757 z"
     id="path455" />
  <path
     style="fill:#ffffff;stroke-width:0.25"
     d="M 132.625,89.125 V 80.5 h 0.75 0.75 v 8.625 8.625 h -0.75 -0.75 z"
     id="path494" />
  <path
     style="fill:#ffffff;stroke-width:0.25"
     d="m 127.68574,83.210744 c -0.71594,-0.715947 -0.0777,-1.821722 0.96247,-1.667435 0.75905,0.112592 1.18121,0.825763 0.8253,1.394191 -0.33632,0.537124 -1.36644,0.694569 -1.78777,0.273244 z"
     id="path533" />
  <path
     style="fill:#ffffff;stroke-width:0.25"
     d="M 127.625,91.875 V 86 h 0.75 0.75 v 5.875 5.875 h -0.75 -0.75 z"
     id="path572" />
  <path
     style="fill:#ffffff;stroke-width:0.25"
     d="M 115.375,89.775707 V 81.75 l 3.1875,0.0055 c 2.60119,0.0045 3.38199,0.09378 4.24484,0.485464 1.45735,0.66156 2.12579,1.782692 1.99149,3.340168 -0.12227,1.417804 -0.73806,2.352252 -2.00591,3.043877 -0.99185,0.541067 -1.1747,0.874452 -0.48042,0.875935 1.51525,0.0032 3.26989,2.442783 2.93014,4.0739 -0.31783,1.525921 -1.28748,2.841286 -2.55161,3.461354 -1.0062,0.493552 -1.66629,0.598258 -4.25353,0.674719 l -3.0625,0.09051 z m 6.44691,6.226813 c 1.2843,-0.582897 1.92723,-1.817832 1.7263,-3.315884 -0.23798,-1.77426 -1.33873,-2.439905 -4.34493,-2.627455 L 117.125,89.929522 V 93.214761 96.5 l 1.8125,-0.0055 c 1.2522,-0.0038 2.14386,-0.155884 2.88441,-0.49199 z m -0.28854,-7.660111 c 1.17711,-0.558573 1.59163,-1.244597 1.59163,-2.634095 0,-0.887154 -0.14983,-1.354705 -0.60306,-1.881873 -0.57037,-0.663411 -0.73302,-0.706138 -3,-0.788073 L 117.125,82.951735 V 85.850868 88.75 h 1.77472 c 1.1227,0 2.09028,-0.149744 2.63365,-0.407591 z"
     id="path611" />
  <path
     style="fill:#ffffff;stroke-width:0.25"
     d="M 70.625,89.777801 V 81.75 l 2.4375,-0.03102 c 3.93327,-0.05005 5.108428,0.05551 6.527806,0.586421 2.757873,1.03156 4.139177,3.390788 4.139177,7.069599 0,3.735306 -1.41661,6.152367 -4.402428,7.511551 -1.449928,0.660026 -1.864229,0.726003 -5.139555,0.818473 l -3.5625,0.100578 z m 7.399733,4.995841 c 1.728188,-0.784849 2.601266,-2.506044 2.598873,-5.123448 C 80.621704,87.570023 80.222677,86.297677 79.275,85.35 78.322635,84.397635 77.054287,84.003283 74.9375,84.001394 L 73.375,84 v 5.625 5.625 l 1.8125,-0.0055 c 1.223974,-0.0037 2.145235,-0.1566 2.837233,-0.470868 z"
     id="path650" />
  <path
     style="fill:#ffffff;stroke-width:0.25"
     d="m 56.875,89.776471 v -7.973528 l 2.0625,-0.10685 c 4.539375,-0.235166 6.83806,0.481739 7.71153,2.405041 1.180554,2.599477 -0.03833,5.225789 -2.848421,6.137477 l -0.949391,0.308014 0.597245,0.789188 c 1.433186,1.893782 4.426537,6.13115 4.426537,6.266175 0,0.08141 -0.759375,0.145729 -1.6875,0.142939 L 64.5,97.739854 62.277193,94.369927 C 61.054649,92.516467 59.957774,91 59.839693,91 59.721612,91 59.625,92.51875 59.625,94.375 V 97.75 H 58.25 56.875 Z m 5.746522,-1.214359 c 1.625883,-0.815461 1.988855,-2.615196 0.772709,-3.831343 C 62.746876,84.083415 62.490047,84 61.144231,84 H 59.625 v 2.5 2.5 l 1.0625,-4e-4 c 0.584375,-2.14e-4 1.454685,-0.197089 1.934022,-0.4375 z"
     id="path689" />
  <path
     style="fill:#ffffff;stroke-width:0.25"
     d="m 40.166667,97.535951 c 0.04583,-0.117727 1.311793,-3.717727 2.813245,-8 L 45.709823,81.75 h 1.707589 c 0.939173,0 1.707588,0.03958 1.707588,0.08796 0,0.04837 1.2375,3.55764 2.75,7.798365 1.5125,4.240725 2.75,7.806513 2.75,7.923974 0,0.11746 -0.697189,0.180071 -1.54931,0.139134 L 51.52638,97.625 51.025346,96.055594 50.524311,94.486189 47.275965,94.555594 44.027619,94.625 43.528174,96.1875 43.028729,97.75 h -1.472698 c -0.809984,0 -1.435198,-0.09632 -1.389364,-0.214049 z M 49.625,92.094399 c 0,-0.08558 -0.532832,-1.722908 -1.184072,-3.638504 -0.786675,-2.313975 -1.237664,-3.331536 -1.343754,-3.031898 -0.08783,0.248052 -0.582861,1.744753 -1.100079,3.326003 -0.517219,1.58125 -0.993316,3.015625 -1.057994,3.1875 -0.08899,0.236475 0.466703,0.3125 2.284152,0.3125 1.320961,0 2.401747,-0.07002 2.401747,-0.155601 z"
     id="path728" />
</svg>
