<?xml version="1.0" encoding="UTF-8"?>
<!DOCTYPE svg PUBLIC "-//W3C//DTD SVG 1.1//EN" "http://www.w3.org/Graphics/SVG/1.1/DTD/svg11.dtd">
<svg xmlns="http://www.w3.org/2000/svg" version="1.1" width="676px" height="232px" style="shape-rendering:geometricPrecision; text-rendering:geometricPrecision; image-rendering:optimizeQuality; fill-rule:evenodd; clip-rule:evenodd" xmlns:xlink="http://www.w3.org/1999/xlink">
<g><path style="opacity:0.998" fill="#3f67a2" d="M 17.5,-0.5 C 32.1667,-0.5 46.8333,-0.5 61.5,-0.5C 56.7714,13.6234 56.2714,27.9568 60,42.5C 61.963,50.8573 64.463,59.0239 67.5,67C 47.7272,77.822 30.2272,91.6554 15,108.5C 9.96918,115.022 4.80251,121.356 -0.5,127.5C -0.5,90.8333 -0.5,54.1667 -0.5,17.5C 2.5,8.5 8.5,2.5 17.5,-0.5 Z"/></g>
<g><path style="opacity:1" fill="#fdfdfe" d="M 61.5,-0.5 C 72.5,-0.5 83.5,-0.5 94.5,-0.5C 85.4575,3.38033 79.2909,10.047 76,19.5C 71.9784,31.7625 71.6451,44.0958 75,56.5C 75.1183,58.5733 76.1183,59.9067 78,60.5C 91.2186,54.5528 101.885,45.5528 110,33.5C 112.216,28.0204 113.716,22.3537 114.5,16.5C 114.35,9.19424 111.35,3.52757 105.5,-0.5C 116.5,-0.5 127.5,-0.5 138.5,-0.5C 147.63,29.5975 140.297,54.7641 116.5,75C 108.147,81.3584 99.8141,87.6918 91.5,94C 95.1711,103.017 98.8378,112.017 102.5,121C 117.028,118.719 131.694,118.052 146.5,119C 164.291,120.475 178.457,128.308 189,142.5C 199.246,167.511 192.413,186.344 168.5,199C 159.521,203.99 150.188,208.157 140.5,211.5C 140.167,212.167 139.833,212.833 139.5,213.5C 141.486,219.448 143.153,225.448 144.5,231.5C 141.5,231.5 138.5,231.5 135.5,231.5C 132.94,226.38 130.94,221.046 129.5,215.5C 112.858,218.948 96.0245,220.948 79,221.5C 57.4623,222.997 38.2956,217.164 21.5,204C 13.554,195.898 6.2207,187.398 -0.5,178.5C -0.5,161.5 -0.5,144.5 -0.5,127.5C 4.80251,121.356 9.96918,115.022 15,108.5C 30.2272,91.6554 47.7272,77.822 67.5,67C 64.463,59.0239 61.963,50.8573 60,42.5C 56.2714,27.9568 56.7714,13.6234 61.5,-0.5 Z"/></g>
<g><path style="opacity:1" fill="#4168a2" d="M 94.5,-0.5 C 98.1667,-0.5 101.833,-0.5 105.5,-0.5C 111.35,3.52757 114.35,9.19424 114.5,16.5C 113.716,22.3537 112.216,28.0204 110,33.5C 101.885,45.5528 91.2186,54.5528 78,60.5C 76.1183,59.9067 75.1183,58.5733 75,56.5C 71.6451,44.0958 71.9784,31.7625 76,19.5C 79.2909,10.047 85.4575,3.38033 94.5,-0.5 Z"/></g>
<g><path style="opacity:0.999" fill="#3f67a2" d="M 138.5,-0.5 C 180.5,-0.5 222.5,-0.5 264.5,-0.5C 264.5,76.8333 264.5,154.167 264.5,231.5C 224.5,231.5 184.5,231.5 144.5,231.5C 143.153,225.448 141.486,219.448 139.5,213.5C 139.833,212.833 140.167,212.167 140.5,211.5C 150.188,208.157 159.521,203.99 168.5,199C 192.413,186.344 199.246,167.511 189,142.5C 178.457,128.308 164.291,120.475 146.5,119C 131.694,118.052 117.028,118.719 102.5,121C 98.8378,112.017 95.1711,103.017 91.5,94C 99.8141,87.6918 108.147,81.3584 116.5,75C 140.297,54.7641 147.63,29.5975 138.5,-0.5 Z"/></g>
<g><path style="opacity:0.94" fill="#ffffff" d="M 285.5,-0.5 C 294.167,-0.5 302.833,-0.5 311.5,-0.5C 326.686,2.49179 333.686,11.8251 332.5,27.5C 333.913,44.5716 326.247,54.405 309.5,57C 301.507,57.4997 293.507,57.6664 285.5,57.5C 285.5,38.1667 285.5,18.8333 285.5,-0.5 Z M 293.5,6.5 C 319.111,2.74939 328.944,13.4161 323,38.5C 320.56,45.3084 315.727,49.1418 308.5,50C 303.511,50.4993 298.511,50.6659 293.5,50.5C 293.5,35.8333 293.5,21.1667 293.5,6.5 Z"/></g>
<g><path style="opacity:0.956" fill="#ffffff" d="M 534.5,-0.5 C 536.833,-0.5 539.167,-0.5 541.5,-0.5C 541.334,6.17499 541.5,12.8417 542,19.5C 547.311,14.854 553.477,13.354 560.5,15C 564.333,16.1667 566.833,18.6667 568,22.5C 568.5,34.1619 568.667,45.8286 568.5,57.5C 566.167,57.5 563.833,57.5 561.5,57.5C 561.666,47.1613 561.5,36.828 561,26.5C 559.601,22.7623 556.934,21.0956 553,21.5C 546.956,21.5397 543.29,24.5397 542,30.5C 541.5,39.4938 541.334,48.4938 541.5,57.5C 539.167,57.5 536.833,57.5 534.5,57.5C 534.5,38.1667 534.5,18.8333 534.5,-0.5 Z"/></g>
<g><path style="opacity:0.901" fill="#ffffff" d="M 429.5,2.5 C 432.167,2.5 434.833,2.5 437.5,2.5C 437.5,6.83333 437.5,11.1667 437.5,15.5C 440.167,15.5 442.833,15.5 445.5,15.5C 445.5,17.5 445.5,19.5 445.5,21.5C 442.833,21.5 440.167,21.5 437.5,21.5C 437.334,30.8393 437.5,40.1726 438,49.5C 440.381,50.435 442.881,50.7683 445.5,50.5C 445.5,52.8333 445.5,55.1667 445.5,57.5C 441.085,57.6946 436.751,57.1946 432.5,56C 431.299,55.0975 430.465,53.9308 430,52.5C 429.5,42.172 429.334,31.8387 429.5,21.5C 427.167,21.5 424.833,21.5 422.5,21.5C 422.5,19.5 422.5,17.5 422.5,15.5C 424.833,15.5 427.167,15.5 429.5,15.5C 429.5,11.1667 429.5,6.83333 429.5,2.5 Z"/></g>
<g><path style="opacity:0.921" fill="#ffffff" d="M 352.5,14.5 C 369.335,13.4298 377.335,21.4298 376.5,38.5C 366.145,38.1681 355.812,38.5014 345.5,39.5C 348.468,50.4343 355.134,53.6009 365.5,49C 366.872,47.7581 367.872,46.2581 368.5,44.5C 370.743,43.5258 373.076,43.1924 375.5,43.5C 373.905,53.2519 368.072,58.2519 358,58.5C 344.924,56.7546 338.09,49.2546 337.5,36C 338.107,25.5898 343.107,18.4231 352.5,14.5 Z M 352.5,21.5 C 360.558,19.8584 365.892,22.8584 368.5,30.5C 361.197,31.4973 353.863,31.8306 346.5,31.5C 346.971,27.2209 348.971,23.8876 352.5,21.5 Z"/></g>
<g><path style="opacity:0.918" fill="#ffffff" d="M 460.5,14.5 C 464.846,14.3343 469.179,14.501 473.5,15C 479.401,16.7725 482.734,20.7725 483.5,27C 480.773,27.8184 478.106,27.6517 475.5,26.5C 473.701,22.7059 470.701,21.0393 466.5,21.5C 458.331,21.1101 456.664,23.9434 461.5,30C 467.997,31.5398 474.33,33.5398 480.5,36C 481.667,37.1667 482.833,38.3333 484,39.5C 486.828,48.2832 483.995,54.1166 475.5,57C 466.851,59.4698 459.017,57.9698 452,52.5C 450.092,49.7935 449.259,46.7935 449.5,43.5C 451.857,43.3367 454.19,43.5034 456.5,44C 459.547,50.142 464.547,52.4754 471.5,51C 474.761,50.5739 476.428,48.7406 476.5,45.5C 476.314,43.4205 475.314,41.9205 473.5,41C 466.914,39.7707 460.581,37.7707 454.5,35C 449.604,29.6029 449.271,23.9362 453.5,18C 455.925,16.7874 458.259,15.6207 460.5,14.5 Z"/></g>
<g><path style="opacity:0.907" fill="#ffffff" d="M 503.5,14.5 C 510.221,13.7513 516.554,14.9179 522.5,18C 525.406,21.3106 527.073,25.144 527.5,29.5C 524.753,29.8134 522.086,29.48 519.5,28.5C 516.638,21.8419 511.638,19.6752 504.5,22C 497.556,28.0951 495.723,35.5951 499,44.5C 504.532,52.8737 510.866,53.5404 518,46.5C 519.009,44.9751 519.509,43.3084 519.5,41.5C 522.167,41.5 524.833,41.5 527.5,41.5C 524.313,55.6009 515.646,60.7675 501.5,57C 495.06,54.227 491.226,49.3937 490,42.5C 487.389,29.3941 491.889,20.0608 503.5,14.5 Z"/></g>
<g><path style="opacity:0.919" fill="#ffffff" d="M 590.5,14.5 C 607.438,13.4379 615.438,21.4379 614.5,38.5C 604.5,38.5 594.5,38.5 584.5,38.5C 585.689,49.6043 591.689,53.4376 602.5,50C 604.414,48.5867 605.747,46.7534 606.5,44.5C 614.536,41.6534 616.37,43.6534 612,50.5C 601.352,61.0076 590.685,61.0076 580,50.5C 573.833,37.8969 575.666,26.7303 585.5,17C 587.315,16.2432 588.981,15.4098 590.5,14.5 Z M 590.5,21.5 C 595.121,20.9927 599.454,21.826 603.5,24C 605.202,26.2354 606.202,28.7354 606.5,31.5C 599.167,31.5 591.833,31.5 584.5,31.5C 584.491,29.6916 584.991,28.0249 586,26.5C 587.707,24.9625 589.207,23.2959 590.5,21.5 Z"/></g>
<g><path style="opacity:0.918" fill="#ffffff" d="M 629.5,14.5 C 633.846,14.3343 638.179,14.501 642.5,15C 648.401,16.7725 651.734,20.7725 652.5,27C 649.773,27.8184 647.106,27.6517 644.5,26.5C 642.701,22.7059 639.701,21.0393 635.5,21.5C 627.331,21.1101 625.664,23.9434 630.5,30C 636.997,31.5398 643.33,33.5398 649.5,36C 650.667,37.1667 651.833,38.3333 653,39.5C 655.828,48.2832 652.995,54.1166 644.5,57C 635.851,59.4698 628.017,57.9698 621,52.5C 619.092,49.7935 618.259,46.7935 618.5,43.5C 620.857,43.3367 623.19,43.5034 625.5,44C 628.547,50.142 633.547,52.4754 640.5,51C 643.761,50.5739 645.428,48.7406 645.5,45.5C 645.314,43.4205 644.314,41.9205 642.5,41C 635.914,39.7707 629.581,37.7707 623.5,35C 618.604,29.6029 618.271,23.9362 622.5,18C 624.925,16.7874 627.259,15.6207 629.5,14.5 Z"/></g>
<g><path style="opacity:0.929" fill="#ffffff" d="M 382.5,15.5 C 385.167,15.5 387.833,15.5 390.5,15.5C 390.334,25.8387 390.5,36.172 391,46.5C 396.492,53.0898 402.158,53.0898 408,46.5C 408.862,44.913 409.529,43.2464 410,41.5C 410.5,32.8397 410.666,24.1731 410.5,15.5C 412.833,15.5 415.167,15.5 417.5,15.5C 417.5,29.5 417.5,43.5 417.5,57.5C 415.167,57.5 412.833,57.5 410.5,57.5C 411.187,51.4012 409.854,50.9012 406.5,56C 398.475,59.7267 391.309,58.56 385,52.5C 383.908,49.9556 383.241,47.2889 383,44.5C 382.5,34.8391 382.334,25.1724 382.5,15.5 Z"/></g>
<g><path style="opacity:0.961" fill="#ffffff" d="M 284.5,85.5 C 290.868,85.1703 297.202,85.5037 303.5,86.5C 307.765,98.7962 311.932,111.13 316,123.5C 320.155,111.214 324.155,98.8809 328,86.5C 334.076,85.5236 340.242,85.1903 346.5,85.5C 346.5,104.5 346.5,123.5 346.5,142.5C 342.5,142.5 338.5,142.5 334.5,142.5C 334.667,129.829 334.5,117.162 334,104.5C 329.723,117.165 325.556,129.832 321.5,142.5C 317.563,142.793 313.73,142.46 310,141.5C 305.803,129.908 301.803,118.241 298,106.5C 297.5,118.495 297.333,130.495 297.5,142.5C 293.167,142.5 288.833,142.5 284.5,142.5C 284.5,123.5 284.5,104.5 284.5,85.5 Z"/></g>
<g><path style="opacity:0.941" fill="#ffffff" d="M 445.5,85.5 C 449.5,85.5 453.5,85.5 457.5,85.5C 457.5,88.8333 457.5,92.1667 457.5,95.5C 453.5,95.5 449.5,95.5 445.5,95.5C 445.5,92.1667 445.5,88.8333 445.5,85.5 Z"/></g>
<g><path style="opacity:0.961" fill="#ffffff" d="M 466.5,85.5 C 470.5,85.5 474.5,85.5 478.5,85.5C 478.334,95.1724 478.5,104.839 479,114.5C 483.167,110.333 487.333,106.167 491.5,102C 496.418,101.805 501.251,101.305 506,100.5C 501.527,105.824 496.693,111.157 491.5,116.5C 496.546,125.43 502.213,133.93 508.5,142C 503.5,142.667 498.5,142.667 493.5,142C 489.957,136.414 486.291,130.914 482.5,125.5C 481.186,126.313 480.019,127.313 479,128.5C 478.501,133.155 478.334,137.821 478.5,142.5C 474.5,142.5 470.5,142.5 466.5,142.5C 466.5,123.5 466.5,104.5 466.5,85.5 Z"/></g>
<g><path style="opacity:1" fill="#4068a2" d="M 79.5,99.5 C 80.675,99.281 81.675,99.6143 82.5,100.5C 85.304,108.246 88.304,115.912 91.5,123.5C 80.1681,128.414 70.3348,135.414 62,144.5C 46.4981,168.622 52.6648,184.455 80.5,192C 97.4613,195.966 97.7946,194.632 81.5,188C 72.1643,179.993 70.9977,170.826 78,160.5C 84.0779,153.093 91.7445,148.093 101,145.5C 109.492,165.126 117.326,185.126 124.5,205.5C 124.291,206.086 123.957,206.586 123.5,207C 105.656,211.977 87.6556,212.643 69.5,209C 32.4872,197.478 21.6539,173.978 37,138.5C 48.2087,122.118 62.3753,109.118 79.5,99.5 Z"/></g>
<g><path style="opacity:0.934" fill="#ffffff" d="M 417.5,99.5 C 422.261,99.7935 426.928,100.627 431.5,102C 435.678,104.685 438.012,108.518 438.5,113.5C 434.5,113.5 430.5,113.5 426.5,113.5C 426.863,111.089 425.863,109.589 423.5,109C 420.833,108.333 418.167,108.333 415.5,109C 412.871,111.789 413.538,113.789 417.5,115C 423.212,116.511 428.879,118.178 434.5,120C 441.304,127.264 440.971,134.264 433.5,141C 426.379,143.46 419.045,144.126 411.5,143C 404.565,140.625 400.899,135.792 400.5,128.5C 404.5,128.5 408.5,128.5 412.5,128.5C 413.558,134.706 417.224,136.872 423.5,135C 428.833,132.333 428.833,129.667 423.5,127C 417.686,125.797 412.019,124.13 406.5,122C 400.924,117.305 400.091,111.805 404,105.5C 407.811,101.672 412.311,99.6724 417.5,99.5 Z"/></g>
<g><path style="opacity:0.965" fill="#ffffff" d="M 355.5,101.5 C 359.5,101.5 363.5,101.5 367.5,101.5C 367.334,110.506 367.5,119.506 368,128.5C 370.072,134.281 373.906,135.781 379.5,133C 380.701,132.097 381.535,130.931 382,129.5C 382.5,120.173 382.666,110.839 382.5,101.5C 386.5,101.5 390.5,101.5 394.5,101.5C 394.5,115.167 394.5,128.833 394.5,142.5C 390.833,142.5 387.167,142.5 383.5,142.5C 383.657,141.127 383.49,139.793 383,138.5C 379.676,142.244 375.509,143.911 370.5,143.5C 361.881,144.046 357.048,140.046 356,131.5C 355.5,121.506 355.334,111.506 355.5,101.5 Z"/></g>
<g><path style="opacity:0.974" fill="#ffffff" d="M 445.5,101.5 C 449.5,101.5 453.5,101.5 457.5,101.5C 457.5,115.167 457.5,128.833 457.5,142.5C 453.5,142.5 449.5,142.5 445.5,142.5C 445.5,128.833 445.5,115.167 445.5,101.5 Z"/></g>
<g><path style="opacity:1" fill="#4068a2" d="M 112.5,144.5 C 130.952,143.136 144.452,150.469 153,166.5C 158.596,184.642 152.429,196.976 134.5,203.5C 126.38,184.141 119.046,164.474 112.5,144.5 Z"/></g>
<g><path style="opacity:0.94" fill="#ffffff" d="M 284.5,173.5 C 298.167,173.5 311.833,173.5 325.5,173.5C 325.5,177.167 325.5,180.833 325.5,184.5C 316.5,184.5 307.5,184.5 298.5,184.5C 298.5,188.5 298.5,192.5 298.5,196.5C 306.167,196.5 313.833,196.5 321.5,196.5C 321.5,200.167 321.5,203.833 321.5,207.5C 313.833,207.5 306.167,207.5 298.5,207.5C 298.5,215.167 298.5,222.833 298.5,230.5C 293.833,230.5 289.167,230.5 284.5,230.5C 284.5,211.5 284.5,192.5 284.5,173.5 Z"/></g>
<g><path style="opacity:0.961" fill="#ffffff" d="M 543.5,173.5 C 547.5,173.5 551.5,173.5 555.5,173.5C 555.334,180.175 555.5,186.842 556,193.5C 562.262,187.07 569.429,185.903 577.5,190C 579.617,191.731 581.117,193.898 582,196.5C 582.5,207.828 582.667,219.162 582.5,230.5C 578.5,230.5 574.5,230.5 570.5,230.5C 570.666,220.828 570.5,211.161 570,201.5C 567.11,197.172 563.277,196.339 558.5,199C 557.283,200.648 556.45,202.481 556,204.5C 555.5,213.16 555.334,221.827 555.5,230.5C 551.5,230.5 547.5,230.5 543.5,230.5C 543.5,211.5 543.5,192.5 543.5,173.5 Z"/></g>
<g><path style="opacity:0.995" fill="#3f67a2" d="M -0.5,178.5 C 6.2207,187.398 13.554,195.898 21.5,204C 38.2956,217.164 57.4623,222.997 79,221.5C 96.0245,220.948 112.858,218.948 129.5,215.5C 130.94,221.046 132.94,226.38 135.5,231.5C 98.8333,231.5 62.1667,231.5 25.5,231.5C 12.9342,229.23 4.26749,222.23 -0.5,210.5C -0.5,199.833 -0.5,189.167 -0.5,178.5 Z"/></g>
<g><path style="opacity:0.94" fill="#ffffff" d="M 356.5,231.5 C 352.167,231.5 347.833,231.5 343.5,231.5C 332.231,226.645 327.398,217.978 329,205.5C 331.365,194.137 338.365,188.137 350,187.5C 358.317,187.501 364.317,191.168 368,198.5C 369.792,203 370.625,207.667 370.5,212.5C 360.478,212.168 350.478,212.501 340.5,213.5C 341.893,220.801 346.226,223.634 353.5,222C 358,217.534 363.333,216.367 369.5,218.5C 368.253,221.329 366.753,223.995 365,226.5C 362.318,228.585 359.484,230.252 356.5,231.5 Z M 348.5,196.5 C 354.041,196.377 357.041,199.043 357.5,204.5C 351.824,204.666 346.157,204.499 340.5,204C 341.5,202.333 342.5,200.667 343.5,199C 345.315,198.243 346.981,197.41 348.5,196.5 Z"/></g>
<g><path style="opacity:0.947" fill="#ffffff" d="M 397.5,187.5 C 399.5,187.5 401.5,187.5 403.5,187.5C 403.5,191.5 403.5,195.5 403.5,199.5C 398.161,197.96 393.661,199.294 390,203.5C 388.586,212.418 388.086,221.418 388.5,230.5C 384.5,230.5 380.5,230.5 376.5,230.5C 376.5,216.5 376.5,202.5 376.5,188.5C 380.167,188.5 383.833,188.5 387.5,188.5C 387.338,190.527 387.505,192.527 388,194.5C 390.505,191.147 393.671,188.814 397.5,187.5 Z"/></g>
<g><path style="opacity:0.958" fill="#ffffff" d="M 428.5,187.5 C 432.582,187.344 436.582,187.844 440.5,189C 443,190.167 444.833,192 446,194.5C 447.438,206.424 447.938,218.424 447.5,230.5C 443.5,230.5 439.5,230.5 435.5,230.5C 435.666,221.161 435.5,211.827 435,202.5C 434.288,199.05 432.122,197.384 428.5,197.5C 424.349,197.488 421.849,199.488 421,203.5C 420.5,212.494 420.334,221.494 420.5,230.5C 416.5,230.5 412.5,230.5 408.5,230.5C 408.5,216.5 408.5,202.5 408.5,188.5C 412.167,188.5 415.833,188.5 419.5,188.5C 419.34,190.199 419.506,191.866 420,193.5C 422.322,190.605 425.155,188.605 428.5,187.5 Z"/></g>
<g><path style="opacity:0.936" fill="#ffffff" d="M 480.5,231.5 C 475.5,231.5 470.5,231.5 465.5,231.5C 457.952,229.431 453.952,224.431 453.5,216.5C 457.5,216.5 461.5,216.5 465.5,216.5C 466.024,221.118 468.691,223.451 473.5,223.5C 476.857,223.494 479.19,221.994 480.5,219C 480.241,217.739 479.574,216.739 478.5,216C 472.225,213.847 465.892,211.847 459.5,210C 452.723,203.066 453.057,196.399 460.5,190C 467.717,187.145 475.051,186.812 482.5,189C 488.314,191.124 491.314,195.29 491.5,201.5C 487.5,201.5 483.5,201.5 479.5,201.5C 479.703,199.61 479.037,198.11 477.5,197C 473.187,194.788 469.52,195.621 466.5,199.5C 467.364,201.197 468.697,202.363 470.5,203C 476.314,204.203 481.981,205.87 487.5,208C 493.116,213.086 493.949,218.919 490,225.5C 487.157,228.163 483.991,230.163 480.5,231.5 Z"/></g>
<g><path style="opacity:0.948" fill="#ffffff" d="M 524.5,231.5 C 520.167,231.5 515.833,231.5 511.5,231.5C 498.778,226.057 493.945,216.391 497,202.5C 503.943,188.048 514.776,184.214 529.5,191C 536.009,196.69 538.676,203.856 537.5,212.5C 527.833,212.5 518.167,212.5 508.5,212.5C 509.116,219.95 513.116,223.117 520.5,222C 522.844,221.163 524.844,219.829 526.5,218C 530.167,217.333 533.833,217.333 537.5,218C 534.98,224.352 530.646,228.852 524.5,231.5 Z M 516.5,196.5 C 520.942,196.938 523.942,199.272 525.5,203.5C 519.833,204.833 514.167,204.833 508.5,203.5C 510.011,199.644 512.677,197.311 516.5,196.5 Z"/></g>
<g><path style="opacity:0.94" fill="#ffffff" d="M 616.5,231.5 C 612.167,231.5 607.833,231.5 603.5,231.5C 590.07,224.745 585.904,214.079 591,199.5C 598.068,188.145 607.901,184.978 620.5,190C 628.015,195.538 631.348,203.038 630.5,212.5C 620.833,212.5 611.167,212.5 601.5,212.5C 601.763,220.152 605.763,223.319 613.5,222C 615.555,221.313 617.221,220.146 618.5,218.5C 622.107,217.511 625.774,217.177 629.5,217.5C 627.91,224.755 623.577,229.422 616.5,231.5 Z M 608.5,196.5 C 613.678,196.508 617.011,199.008 618.5,204C 612.843,204.499 607.176,204.666 601.5,204.5C 602.428,200.574 604.761,197.907 608.5,196.5 Z"/></g>
<g><path style="opacity:0.958" fill="#ffffff" d="M 675.5,197.5 C 675.5,208.5 675.5,219.5 675.5,230.5C 671.5,230.5 667.5,230.5 663.5,230.5C 663.666,221.161 663.5,211.827 663,202.5C 662.288,199.05 660.122,197.384 656.5,197.5C 652.349,197.488 649.849,199.488 649,203.5C 648.5,212.494 648.334,221.494 648.5,230.5C 644.5,230.5 640.5,230.5 636.5,230.5C 636.5,216.5 636.5,202.5 636.5,188.5C 640.167,188.5 643.833,188.5 647.5,188.5C 646.813,194.599 648.146,195.099 651.5,190C 659.262,186.2 666.428,187.033 673,192.5C 673.757,194.315 674.59,195.981 675.5,197.5 Z"/></g>
</svg>
