<?xml version="1.0" encoding="UTF-8"?>
<!DOCTYPE svg PUBLIC "-//W3C//DTD SVG 1.1//EN" "http://www.w3.org/Graphics/SVG/1.1/DTD/svg11.dtd">
<svg xmlns="http://www.w3.org/2000/svg" version="1.1" width="617px" height="249px" style="shape-rendering:geometricPrecision; text-rendering:geometricPrecision; image-rendering:optimizeQuality; fill-rule:evenodd; clip-rule:evenodd" xmlns:xlink="http://www.w3.org/1999/xlink">
<g><path style="opacity:1" fill="#7b4105" d="M 69.5,38.5 C 64.466,39.3982 59.7994,41.0649 55.5,43.5C 52.646,43.9239 49.9793,44.9239 47.5,46.5C 46.914,46.2907 46.414,45.9574 46,45.5C 44.975,47.687 43.475,49.3536 41.5,50.5C 34.7776,55.5666 30.4442,62.2333 28.5,70.5C 27.8826,70.6107 27.3826,70.944 27,71.5C 25.103,69.9837 22.9363,69.317 20.5,69.5C 15.0399,62.6356 13.2066,54.9689 15,46.5C 17.7291,43.6007 20.5624,40.934 23.5,38.5C 30.0501,38.3034 36.0501,39.97 41.5,43.5C 39.3838,29.7985 45.0505,23.2985 58.5,24C 63.5474,27.3802 67.5474,31.7135 70.5,37C 69.944,37.3826 69.6107,37.8826 69.5,38.5 Z"/></g>
<g><path style="opacity:1" fill="#794007" d="M 67.5,41.5 C 68.609,41.5569 69.609,41.8902 70.5,42.5C 70.5,42.8333 70.5,43.1667 70.5,43.5C 70.082,48.8184 68.7487,53.8184 66.5,58.5C 65.4863,59.6737 64.153,60.3404 62.5,60.5C 60.5454,61.3235 58.5454,61.4901 56.5,61C 52.6994,58.3859 50.366,54.8859 49.5,50.5C 54.6536,45.9232 60.6536,42.9232 67.5,41.5 Z"/></g>
<g><path style="opacity:1" fill="#7b4108" d="M 47.5,52.5 C 50.2116,57.2705 52.8783,61.9372 55.5,66.5C 54.9087,71.0047 52.7421,74.6714 49,77.5C 48.5172,78.448 48.3505,79.448 48.5,80.5C 46.5,79.5 44.5,78.5 42.5,77.5C 40.9705,76.9332 39.4705,76.2666 38,75.5C 36.7903,67.5852 38.7903,60.5852 44,54.5C 44.8159,53.1772 45.9826,52.5106 47.5,52.5 Z"/></g>
<g><path style="opacity:1" fill="#ea5b17" d="M 99.5,75.5 C 101.443,77.1649 103.443,78.8316 105.5,80.5C 107.508,82.9272 110.174,83.9272 113.5,83.5C 122.805,82.8851 126.138,78.2184 123.5,69.5C 123.5,69.1667 123.5,68.8333 123.5,68.5C 123.369,67.6236 123.702,66.9569 124.5,66.5C 127.505,68.671 130.839,70.171 134.5,71C 142.09,72.2514 149.59,73.7514 157,75.5C 157.345,77.2009 156.678,78.5342 155,79.5C 153.91,82.579 154.743,84.9124 157.5,86.5C 158.891,85.3554 160.224,85.3554 161.5,86.5C 159.353,92.7879 156.687,98.7879 153.5,104.5C 150.64,108.355 147.64,112.188 144.5,116C 145.833,118.333 147.167,120.667 148.5,123C 150.854,123.847 153.188,124.68 155.5,125.5C 166.427,132.093 175.427,140.759 182.5,151.5C 176.964,153.091 171.297,154.258 165.5,155C 156.869,157.963 150.369,163.463 146,171.5C 142.685,176.463 140.185,181.796 138.5,187.5C 129.983,187.636 121.65,186.469 113.5,184C 104.81,180.24 95.81,177.24 86.5,175C 82.6997,173.021 79.3664,170.521 76.5,167.5C 79.8813,151.481 75.7147,137.814 64,126.5C 61.9935,125.331 59.8268,124.665 57.5,124.5C 67.4664,112.608 67.9664,100.275 59,87.5C 56.0394,84.2758 52.5394,81.9424 48.5,80.5C 48.3505,79.448 48.5172,78.448 49,77.5C 52.7421,74.6714 54.9087,71.0047 55.5,66.5C 57.8333,64.5 60.1667,62.5 62.5,60.5C 64.153,60.3404 65.4863,59.6737 66.5,58.5C 77.6819,52.3151 89.3485,51.1485 101.5,55C 101.833,55.3333 102.167,55.6667 102.5,56C 95.7467,61.5194 94.7467,68.0194 99.5,75.5 Z"/></g>
<g><path style="opacity:0.835" fill="#4d4946" d="M 23.5,38.5 C 20.5624,40.934 17.7291,43.6007 15,46.5C 13.2066,54.9689 15.0399,62.6356 20.5,69.5C 18.2475,69.0844 16.7475,67.751 16,65.5C 13.2286,59.4227 12.2286,53.0894 13,46.5C 15.8275,42.8252 19.3275,40.1585 23.5,38.5 Z"/></g>
<g><path style="opacity:1" fill="#8ea3a9" d="M 69.5,38.5 C 79.6596,37.0401 88.9929,39.0401 97.5,44.5C 97.1667,44.8333 96.8333,45.1667 96.5,45.5C 87.3664,39.3836 77.6997,38.0503 67.5,41.5C 60.6536,42.9232 54.6536,45.9232 49.5,50.5C 48.5,50.8333 47.8333,51.5 47.5,52.5C 45.9826,52.5106 44.8159,53.1772 44,54.5C 38.7903,60.5852 36.7903,67.5852 38,75.5C 39.4705,76.2666 40.9705,76.9332 42.5,77.5C 41.5449,79.7099 40.0449,80.0432 38,78.5C 37.7083,80.3261 37.875,82.1595 38.5,84C 38.3333,84.8333 38.1667,85.6667 38,86.5C 33.6909,75.161 35.0243,64.4943 42,54.5C 46.3986,50.5907 50.8986,46.924 55.5,43.5C 59.7994,41.0649 64.466,39.3982 69.5,38.5 Z"/></g>
<g><path style="opacity:1" fill="#403d3e" d="M 158.5,98.5 C 157.833,101.167 157.167,103.833 156.5,106.5C 156.368,103.993 155.368,103.326 153.5,104.5C 156.687,98.7879 159.353,92.7879 161.5,86.5C 160.224,85.3554 158.891,85.3554 157.5,86.5C 154.743,84.9124 153.91,82.579 155,79.5C 156.678,78.5342 157.345,77.2009 157,75.5C 149.59,73.7514 142.09,72.2514 134.5,71C 130.839,70.171 127.505,68.671 124.5,66.5C 123.702,66.9569 123.369,67.6236 123.5,68.5C 119.84,64.6093 116.173,64.6093 112.5,68.5C 111.833,68.1667 111.167,67.8333 110.5,67.5C 110.953,66.5416 111.619,65.7083 112.5,65C 114.895,64.3187 117.228,63.4853 119.5,62.5C 103.203,52.4857 96.536,56.819 99.5,75.5C 94.7467,68.0194 95.7467,61.5194 102.5,56C 102.167,55.6667 101.833,55.3333 101.5,55C 89.3485,51.1485 77.6819,52.3151 66.5,58.5C 68.7487,53.8184 70.082,48.8184 70.5,43.5C 71.4013,44.2905 72.0679,45.2905 72.5,46.5C 72.5,47.1667 72.5,47.8333 72.5,48.5C 70.9519,48.8212 70.2852,49.8212 70.5,51.5C 72.677,51.4139 74.677,50.7472 76.5,49.5C 77.548,50.3829 78.7147,51.0496 80,51.5C 81.9626,50.3746 83.796,49.0413 85.5,47.5C 88.1667,46.8333 90.8333,46.1667 93.5,45.5C 88.936,42.3655 83.936,41.1988 78.5,42C 79.8333,42.6667 81.1667,43.3333 82.5,44C 80.3225,45.2022 77.9892,45.7022 75.5,45.5C 75.1667,45.5 74.8333,45.5 74.5,45.5C 74.5,45.1667 74.5,44.8333 74.5,44.5C 75.2625,43.7321 76.2625,43.2321 77.5,43C 75.1565,41.5846 72.8232,41.4179 70.5,42.5C 69.609,41.8902 68.609,41.5569 67.5,41.5C 77.6997,38.0503 87.3664,39.3836 96.5,45.5C 96.8333,45.1667 97.1667,44.8333 97.5,44.5C 88.9929,39.0401 79.6596,37.0401 69.5,38.5C 69.6107,37.8826 69.944,37.3826 70.5,37C 67.5474,31.7135 63.5474,27.3802 58.5,24C 45.0505,23.2985 39.3838,29.7985 41.5,43.5C 36.0501,39.97 30.0501,38.3034 23.5,38.5C 24.3739,37.4749 25.5405,36.8082 27,36.5C 31.2646,37.5327 35.4312,38.866 39.5,40.5C 40.3587,34.9999 42.0253,29.8332 44.5,25C 49.2909,22.8009 54.2909,22.1342 59.5,23C 64.3555,26.3553 68.3555,30.522 71.5,35.5C 76.1315,36.3283 80.7982,36.8283 85.5,37C 93.7006,40.598 102.034,43.9313 110.5,47C 115.405,52.0691 119.738,57.5691 123.5,63.5C 125.493,65.4986 127.827,66.9986 130.5,68C 140.662,70.1657 150.828,72.3324 161,74.5C 164.944,71.3107 167.944,67.3107 170,62.5C 170.5,63 171,63.5 171.5,64C 169.849,68.9697 167.183,73.303 163.5,77C 163.833,77.1667 164.167,77.3333 164.5,77.5C 170.116,73.8847 175.45,69.8847 180.5,65.5C 181.521,66.0016 181.688,66.6683 181,67.5C 176.421,73.0744 170.921,77.5744 164.5,81C 169.986,80.7886 175.319,79.6219 180.5,77.5C 180.833,77.8333 181.167,78.1667 181.5,78.5C 176.262,82.6206 170.262,84.6206 163.5,84.5C 162.395,89.3753 160.728,94.042 158.5,98.5 Z M 72.5,46.5 C 74.9327,47.5477 74.9327,48.2144 72.5,48.5C 72.5,47.8333 72.5,47.1667 72.5,46.5 Z"/></g>
<g><path style="opacity:1" fill="#adc3cb" d="M 98.5,45.5 C 106.591,46.0463 112.591,49.8796 116.5,57C 115.5,57.6667 114.5,57.6667 113.5,57C 109.072,52.1531 104.072,48.3198 98.5,45.5 Z"/></g>
<g><path style="opacity:0.011" fill="#6e8777" d="M 74.5,44.5 C 73.1667,44.8333 73.1667,45.1667 74.5,45.5C 74.8333,46.8333 75.1667,46.8333 75.5,45.5C 77.9892,45.7022 80.3225,45.2022 82.5,44C 81.1667,43.3333 79.8333,42.6667 78.5,42C 83.936,41.1988 88.936,42.3655 93.5,45.5C 90.8333,46.1667 88.1667,46.8333 85.5,47.5C 83.796,49.0413 81.9626,50.3746 80,51.5C 78.7147,51.0496 77.548,50.3829 76.5,49.5C 74.677,50.7472 72.677,51.4139 70.5,51.5C 70.2852,49.8212 70.9519,48.8212 72.5,48.5C 74.9327,48.2144 74.9327,47.5477 72.5,46.5C 72.0679,45.2905 71.4013,44.2905 70.5,43.5C 70.5,43.1667 70.5,42.8333 70.5,42.5C 72.8232,41.4179 75.1565,41.5846 77.5,43C 76.2625,43.2321 75.2625,43.7321 74.5,44.5 Z"/></g>
<g><path style="opacity:0.49" fill="#4d3c35" d="M 49.5,50.5 C 50.366,54.8859 52.6994,58.3859 56.5,61C 58.5454,61.4901 60.5454,61.3235 62.5,60.5C 60.1667,62.5 57.8333,64.5 55.5,66.5C 52.8783,61.9372 50.2116,57.2705 47.5,52.5C 47.8333,51.5 48.5,50.8333 49.5,50.5 Z"/></g>
<g><path style="opacity:1" fill="#ef5b0d" d="M 110.5,67.5 C 106.815,70.1914 103.148,72.8581 99.5,75.5C 96.536,56.819 103.203,52.4857 119.5,62.5C 117.228,63.4853 114.895,64.3187 112.5,65C 111.619,65.7083 110.953,66.5416 110.5,67.5 Z"/></g>
<g><path style="opacity:1" fill="#141110" d="M 110.5,67.5 C 111.167,67.8333 111.833,68.1667 112.5,68.5C 116.254,69.8276 117.421,72.4942 116,76.5C 111.438,80.8233 107.605,80.1566 104.5,74.5C 104.167,75 103.833,75.5 103.5,76C 104.414,77.4064 105.08,78.9064 105.5,80.5C 103.443,78.8316 101.443,77.1649 99.5,75.5C 103.148,72.8581 106.815,70.1914 110.5,67.5 Z"/></g>
<g><path style="opacity:1" fill="#7196a6" d="M 41.5,50.5 C 42.2389,50.369 42.9056,50.5357 43.5,51C 38.6588,55.5133 35.4921,61.0133 34,67.5C 33.3408,74.5884 33.8408,81.5884 35.5,88.5C 33.5,88.5 31.5,88.5 29.5,88.5C 28.7588,82.5293 28.4255,76.5293 28.5,70.5C 30.4442,62.2333 34.7776,55.5666 41.5,50.5 Z"/></g>
<g><path style="opacity:1" fill="#421908" d="M 91.5,79.5 C 88.7378,78.6205 86.0711,77.4538 83.5,76C 80.7795,75.3985 78.1128,75.5651 75.5,76.5C 77.4065,73.6676 80.0732,72.8343 83.5,74C 86.4068,75.6091 89.0734,77.4424 91.5,79.5 Z"/></g>
<g><path style="opacity:1" fill="#e2e2e2" d="M 123.5,68.5 C 123.5,68.8333 123.5,69.1667 123.5,69.5C 123.057,81.7352 117.057,85.4019 105.5,80.5C 105.08,78.9064 104.414,77.4064 103.5,76C 103.833,75.5 104.167,75 104.5,74.5C 107.605,80.1566 111.438,80.8233 116,76.5C 117.421,72.4942 116.254,69.8276 112.5,68.5C 116.173,64.6093 119.84,64.6093 123.5,68.5 Z"/></g>
<g><path style="opacity:1" fill="#f35c0d" d="M 91.5,79.5 C 92.5981,80.397 92.5981,81.2303 91.5,82C 82.5667,85.594 75.4,91.4273 70,99.5C 68.5615,94.2375 68.2282,88.9042 69,83.5C 71.2993,81.2721 73.4659,78.9388 75.5,76.5C 78.1128,75.5651 80.7795,75.3985 83.5,76C 86.0711,77.4538 88.7378,78.6205 91.5,79.5 Z"/></g>
<g><path style="opacity:0.992" fill="#1f91bc" d="M 554.5,122.5 C 547.743,123.002 541.077,123.835 534.5,125C 461.16,129.123 387.827,133.29 314.5,137.5C 314.483,139.565 314.15,141.565 313.5,143.5C 301.502,143.903 289.502,144.237 277.5,144.5C 276.242,128.858 275.242,113.191 274.5,97.5C 366.815,91.8168 459.148,86.4834 551.5,81.5C 552.758,95.1434 553.758,108.81 554.5,122.5 Z"/></g>
<g><path style="opacity:1" fill="#2f383c" d="M 55.5,43.5 C 50.8986,46.924 46.3986,50.5907 42,54.5C 35.0243,64.4943 33.6909,75.161 38,86.5C 38.1667,85.6667 38.3333,84.8333 38.5,84C 37.875,82.1595 37.7083,80.3261 38,78.5C 40.0449,80.0432 41.5449,79.7099 42.5,77.5C 44.5,78.5 46.5,79.5 48.5,80.5C 52.5394,81.9424 56.0394,84.2758 59,87.5C 67.9664,100.275 67.4664,112.608 57.5,124.5C 56.5041,124.586 55.6708,124.252 55,123.5C 52.7871,124.802 50.4537,125.802 48,126.5C 48.7203,131.785 49.0536,137.118 49,142.5C 48.5229,137.069 46.8563,132.069 44,127.5C 39.9336,125.436 36.1003,123.103 32.5,120.5C 44.4094,124.535 50.4094,120.202 50.5,107.5C 48.9225,94.0692 41.5891,88.5692 28.5,91C 23.7011,95.8416 22.2011,101.675 24,108.5C 25.0086,110.025 25.5086,111.692 25.5,113.5C 24.8333,113.5 24.1667,113.5 23.5,113.5C 23.4403,110.659 22.7736,107.993 21.5,105.5C 20.7944,98.3238 22.2944,91.6571 26,85.5C 26.8275,81.1287 26.6609,76.7953 25.5,72.5C 23.6036,71.7255 21.937,70.7255 20.5,69.5C 22.9363,69.317 25.103,69.9837 27,71.5C 27.3826,70.944 27.8826,70.6107 28.5,70.5C 28.4255,76.5293 28.7588,82.5293 29.5,88.5C 31.5,88.5 33.5,88.5 35.5,88.5C 33.8408,81.5884 33.3408,74.5884 34,67.5C 35.4921,61.0133 38.6588,55.5133 43.5,51C 42.9056,50.5357 42.2389,50.369 41.5,50.5C 43.475,49.3536 44.975,47.687 46,45.5C 46.414,45.9574 46.914,46.2907 47.5,46.5C 49.9793,44.9239 52.646,43.9239 55.5,43.5 Z"/></g>
<g><path style="opacity:1" fill="#362d2c" d="M 123.5,69.5 C 126.138,78.2184 122.805,82.8851 113.5,83.5C 110.174,83.9272 107.508,82.9272 105.5,80.5C 117.057,85.4019 123.057,81.7352 123.5,69.5 Z"/></g>
<g><path style="opacity:1" fill="#271b18" d="M 75.5,76.5 C 73.4659,78.9388 71.2993,81.2721 69,83.5C 68.2282,88.9042 68.5615,94.2375 70,99.5C 75.4,91.4273 82.5667,85.594 91.5,82C 92.5981,81.2303 92.5981,80.397 91.5,79.5C 94.734,80.0056 95.4007,81.6722 93.5,84.5C 98.9813,89.7347 99.8147,95.7347 96,102.5C 87.9984,110.61 80.165,110.443 72.5,102C 71.5509,101.383 70.7175,101.549 70,102.5C 66.4253,96.0861 65.7586,89.4195 68,82.5C 70.0657,79.8929 72.5657,77.8929 75.5,76.5 Z"/></g>
<g><path style="opacity:1" fill="#e4e4e4" d="M 93.5,84.5 C 96.8142,89.8413 97.3142,95.508 95,101.5C 87.34,108.464 80.0066,108.131 73,100.5C 72.6554,98.7991 73.3221,97.4658 75,96.5C 76.9478,104.046 80.9478,105.379 87,100.5C 88.8923,94.9579 87.0589,91.4579 81.5,90C 84.6392,86.2634 88.6392,84.43 93.5,84.5 Z"/></g>
<g><path style="opacity:1" fill="#769eb0" d="M 32.5,120.5 C 29.1346,119.135 26.8013,116.801 25.5,113.5C 25.5086,111.692 25.0086,110.025 24,108.5C 22.2011,101.675 23.7011,95.8416 28.5,91C 41.5891,88.5692 48.9225,94.0692 50.5,107.5C 50.4094,120.202 44.4094,124.535 32.5,120.5 Z"/></g>
<g><path style="opacity:1" fill="#85310e" d="M 131.5,89.5 C 133.527,89.3379 135.527,89.5045 137.5,90C 128.246,93.423 118.913,94.0897 109.5,92C 115.833,91.6667 122.167,91.3333 128.5,91C 129.737,90.7679 130.737,90.2679 131.5,89.5 Z"/></g>
<g><path style="opacity:1" fill="#f9fbfb" d="M 498.5,94.5 C 500.5,94.5 502.5,94.5 504.5,94.5C 504.976,102.826 505.309,111.16 505.5,119.5C 501.774,119.823 498.107,119.489 494.5,118.5C 489.572,106.21 487.905,106.543 489.5,119.5C 486.572,120.484 483.572,120.817 480.5,120.5C 480.5,112.5 480.5,104.5 480.5,96.5C 484.119,95.7564 487.785,95.423 491.5,95.5C 492.343,99.5216 494.01,103.188 496.5,106.5C 497.71,103.341 497.71,100.174 496.5,97C 497.056,95.9889 497.722,95.1556 498.5,94.5 Z"/></g>
<g><path style="opacity:1" fill="#f9fbfb" d="M 466.5,96.5 C 469.5,96.5 472.5,96.5 475.5,96.5C 476.554,103.687 476.554,110.854 475.5,118C 474.728,119.221 473.728,120.221 472.5,121C 467.487,122.893 462.487,122.893 457.5,121C 456.333,120.5 455.5,119.667 455,118.5C 453.509,111.591 452.676,104.591 452.5,97.5C 455.5,97.5 458.5,97.5 461.5,97.5C 462.177,102.801 462.677,108.134 463,113.5C 463.71,114.973 464.876,115.64 466.5,115.5C 466.5,109.167 466.5,102.833 466.5,96.5 Z"/></g>
<g><path style="opacity:1" fill="#a8bfc7" d="M 39.5,86.5 C 48.1215,87.6161 53.9549,92.2828 57,100.5C 59.0478,110.398 55.7145,117.731 47,122.5C 46.5,122.333 46,122.167 45.5,122C 48,120.833 49.8333,119 51,116.5C 54.7329,103.633 50.5663,94.2997 38.5,88.5C 38.8627,87.8165 39.1961,87.1499 39.5,86.5 Z"/></g>
<g><path style="opacity:1" fill="#f7fafa" d="M 432.5,98.5 C 446.19,97.0228 451.69,103.023 449,116.5C 447.833,119 446,120.833 443.5,122C 437.884,123.162 432.218,123.996 426.5,124.5C 425.815,116.184 425.482,107.851 425.5,99.5C 428.059,99.8016 430.393,99.4682 432.5,98.5 Z"/></g>
<g><path style="opacity:1" fill="#f8fbfa" d="M 387.5,101.5 C 389.167,101.5 390.833,101.5 392.5,101.5C 392.5,103.5 392.5,105.5 392.5,107.5C 389.813,107.336 387.146,107.503 384.5,108C 383.663,109.011 383.33,110.178 383.5,111.5C 386.5,111.5 389.5,111.5 392.5,111.5C 392.5,113.167 392.5,114.833 392.5,116.5C 389.813,116.336 387.146,116.503 384.5,117C 383.202,119.395 384.035,120.562 387,120.5C 389.137,119.923 391.304,119.59 393.5,119.5C 393.5,121.833 393.5,124.167 393.5,126.5C 387.131,126.347 380.797,126.68 374.5,127.5C 374.705,119.133 374.371,110.8 373.5,102.5C 378.363,102.819 383.03,102.486 387.5,101.5 Z"/></g>
<g><path style="opacity:1" fill="#f7fafa" d="M 412.5,99.5 C 415.167,99.5 417.833,99.5 420.5,99.5C 420.543,107.848 420.876,116.181 421.5,124.5C 417.818,124.665 414.152,124.499 410.5,124C 409.045,120.304 407.212,116.804 405,113.5C 404.501,117.486 404.334,121.486 404.5,125.5C 401.833,125.5 399.167,125.5 396.5,125.5C 396.432,117.486 396.099,109.486 395.5,101.5C 399.225,101.405 402.891,101.238 406.5,101C 408.207,104.248 410.04,107.415 412,110.5C 412.499,106.848 412.665,103.182 412.5,99.5 Z"/></g>
<g><path style="opacity:1" fill="#6b290e" d="M 131.5,99.5 C 133.705,99.8459 133.872,100.513 132,101.5C 125.391,104.089 118.557,105.256 111.5,105C 118.497,104.052 125.164,102.219 131.5,99.5 Z"/></g>
<g><path style="opacity:1" fill="#693709" d="M 156.5,106.5 C 156.297,111.648 155.297,116.648 153.5,121.5C 153.752,123.073 154.418,124.406 155.5,125.5C 153.188,124.68 150.854,123.847 148.5,123C 147.167,120.667 145.833,118.333 144.5,116C 147.64,112.188 150.64,108.355 153.5,104.5C 155.368,103.326 156.368,103.993 156.5,106.5 Z"/></g>
<g><path style="opacity:1" fill="#f7fafa" d="M 356.5,102.5 C 359.518,102.335 362.518,102.502 365.5,103C 367.833,104 369.5,105.667 370.5,108C 369.056,109.064 367.389,109.564 365.5,109.5C 362.824,109.163 360.157,108.83 357.5,108.5C 357.5,109.5 357.5,110.5 357.5,111.5C 362.653,111.574 367.153,113.24 371,116.5C 372.378,120.942 371.212,124.442 367.5,127C 361.318,129.422 355.484,128.922 350,125.5C 348.887,124.24 348.72,123.073 349.5,122C 353.262,121.073 356.762,121.573 360,123.5C 363.12,122.407 363.287,120.907 360.5,119C 356.081,118.78 352.247,117.28 349,114.5C 347.718,108.053 350.218,104.053 356.5,102.5 Z"/></g>
<g><path style="opacity:1" fill="#f7fafa" d="M 517.5,93.5 C 521.182,93.3347 524.848,93.5014 528.5,94C 531.693,95.0255 533.026,97.1922 532.5,100.5C 528.441,100.434 524.441,100.267 520.5,100C 518.477,103.183 517.977,106.683 519,110.5C 520.808,112.396 522.975,112.896 525.5,112C 526.833,111.333 526.833,110.667 525.5,110C 524.552,109.517 523.552,109.351 522.5,109.5C 522.5,107.833 522.5,106.167 522.5,104.5C 526.406,103.643 530.24,103.643 534,104.5C 534.499,108.821 534.666,113.154 534.5,117.5C 530.146,117.979 525.812,118.646 521.5,119.5C 513.276,118.775 508.943,114.275 508.5,106C 508.493,99.4669 511.493,95.3003 517.5,93.5 Z"/></g>
<g><path style="opacity:1" fill="#fafcfb" d="M 313.5,113.5 C 315.5,113.5 317.5,113.5 319.5,113.5C 319.532,119.189 319.866,124.855 320.5,130.5C 317.921,130.917 315.754,130.25 314,128.5C 313.501,123.511 313.334,118.511 313.5,113.5 Z"/></g>
<g><path style="opacity:1" fill="#2691bb" d="M 434.5,103.5 C 438.87,104.041 440.87,106.541 440.5,111C 440.87,115.459 438.87,117.959 434.5,118.5C 434.5,113.5 434.5,108.5 434.5,103.5 Z"/></g>
<g><path style="opacity:1" fill="#f3f8f9" d="M 294.5,114.5 C 299.267,114.191 303.934,114.691 308.5,116C 312.712,128.636 308.045,133.803 294.5,131.5C 294.204,125.722 294.204,120.056 294.5,114.5 Z"/></g>
<g><path style="opacity:1" fill="#fafbfb" d="M 329.5,112.5 C 331.5,112.5 333.5,112.5 335.5,112.5C 335.5,113.833 335.5,115.167 335.5,116.5C 333.023,116.051 331.023,116.717 329.5,118.5C 331.396,119.466 333.396,119.799 335.5,119.5C 335.5,120.5 335.5,121.5 335.5,122.5C 333.023,122.051 331.023,122.717 329.5,124.5C 331.743,125.474 334.076,125.808 336.5,125.5C 336.5,126.833 336.5,128.167 336.5,129.5C 332.167,129.5 327.833,129.5 323.5,129.5C 323.5,124.167 323.5,118.833 323.5,113.5C 325.735,113.795 327.735,113.461 329.5,112.5 Z"/></g>
<g><path style="opacity:0.992" fill="#f06220" d="M 313.5,143.5 C 314.15,141.565 314.483,139.565 314.5,137.5C 387.827,133.29 461.16,129.123 534.5,125C 541.077,123.835 547.743,123.002 554.5,122.5C 564.815,121.733 575.148,121.399 585.5,121.5C 586.146,136.197 587.146,150.864 588.5,165.5C 588.392,166.442 588.059,167.275 587.5,168C 497.185,173.869 406.852,179.369 316.5,184.5C 315.611,170.829 314.611,157.162 313.5,143.5 Z"/></g>
<g><path style="opacity:1" fill="#2593be" d="M 300.5,118.5 C 303.734,118.237 305.068,119.737 304.5,123C 305.068,126.263 303.734,127.763 300.5,127.5C 300.5,124.5 300.5,121.5 300.5,118.5 Z"/></g>
<g><path style="opacity:1" fill="#fcfbf9" d="M 524.5,136.5 C 525.5,136.5 526.5,136.5 527.5,136.5C 528.141,142.477 528.641,148.477 529,154.5C 530,155.833 531,155.833 532,154.5C 532.499,148.509 532.666,142.509 532.5,136.5C 535.833,136.5 539.167,136.5 542.5,136.5C 542.666,143.175 542.5,149.842 542,156.5C 539.123,160.599 535.123,162.266 530,161.5C 525.215,162.564 521.882,160.897 520,156.5C 519.349,150.173 518.849,143.84 518.5,137.5C 520.735,137.795 522.735,137.461 524.5,136.5 Z"/></g>
<g><path style="opacity:1" fill="#fcfaf7" d="M 473.5,139.5 C 478.167,139.5 482.833,139.5 487.5,139.5C 487.884,147.831 488.218,156.164 488.5,164.5C 485.833,164.5 483.167,164.5 480.5,164.5C 480.436,160.78 479.936,157.114 479,153.5C 477.833,157.167 476.666,160.834 475.5,164.5C 473.161,165.724 470.828,165.724 468.5,164.5C 464.778,149.698 463.112,150.031 463.5,165.5C 461.167,165.5 458.833,165.5 456.5,165.5C 456.081,157.458 455.414,149.458 454.5,141.5C 458.795,140.339 463.129,140.172 467.5,141C 468.823,144.137 469.99,147.303 471,150.5C 473.075,147.166 473.909,143.499 473.5,139.5 Z"/></g>
<g><path style="opacity:1" fill="#fbf9f6" d="M 552.5,134.5 C 555.85,134.335 559.183,134.502 562.5,135C 566.485,136.274 567.152,138.274 564.5,141C 561.05,141.175 557.717,141.342 554.5,141.5C 558.896,143.35 563.229,145.35 567.5,147.5C 569.749,152.724 568.415,156.558 563.5,159C 558.5,161 553.5,161 548.5,159C 546.845,157.556 546.178,155.722 546.5,153.5C 550.059,153.284 553.559,153.618 557,154.5C 558.28,154.387 559.113,153.72 559.5,152.5C 554.985,150.683 550.485,148.683 546,146.5C 544.305,140.213 546.472,136.213 552.5,134.5 Z"/></g>
<g><path style="opacity:0.997" fill="#3a8cae" d="M 158.5,98.5 C 162.809,99.4852 166.809,101.319 170.5,104C 180.95,111.664 190.783,120.164 200,129.5C 201.879,131.527 203.046,133.86 203.5,136.5C 204.822,136.33 205.989,136.663 207,137.5C 208.565,139.465 209.732,141.631 210.5,144C 228.687,152.497 243.854,164.663 256,180.5C 260.466,189.287 262.799,198.621 263,208.5C 263.871,222.133 263.371,235.466 261.5,248.5C 178.5,248.5 95.5,248.5 12.5,248.5C 13.1292,241.003 13.7959,233.503 14.5,226C 13.0429,209.843 11.7095,193.676 10.5,177.5C 10.1306,167.238 12.2973,157.572 17,148.5C 18.2547,147.789 19.4214,146.956 20.5,146C 26.9955,147.955 33.6622,149.288 40.5,150C 36.2608,148.098 32.2608,145.765 28.5,143C 23.6184,141.787 19.4517,142.954 16,146.5C 9.67449,159.768 7.34116,173.768 9,188.5C 10.7537,201.617 11.9204,214.783 12.5,228C 12.6174,234.937 11.9507,241.77 10.5,248.5C 9.83333,248.5 9.16667,248.5 8.5,248.5C 5.99581,237.617 2.99581,226.95 -0.5,216.5C -0.5,191.5 -0.5,166.5 -0.5,141.5C 5.62496,130.594 11.7916,119.594 18,108.5C 18.7589,106.937 19.9256,105.937 21.5,105.5C 22.7736,107.993 23.4403,110.659 23.5,113.5C 22.2142,115.852 21.2142,118.352 20.5,121C 21.0943,123.79 22.2609,126.29 24,128.5C 30.7614,135.766 38.2614,142.099 46.5,147.5C 47.1408,148.482 47.8075,149.482 48.5,150.5C 47.9747,151.192 47.3081,151.692 46.5,152C 55.306,156.984 64.306,161.484 73.5,165.5C 74.5,166.167 75.5,166.833 76.5,167.5C 79.3664,170.521 82.6997,173.021 86.5,175C 95.81,177.24 104.81,180.24 113.5,184C 121.65,186.469 129.983,187.636 138.5,187.5C 140.734,187.38 142.901,187.713 145,188.5C 157.878,186.77 170.711,184.77 183.5,182.5C 185.109,193.166 188.775,202.999 194.5,212C 198.833,212.667 203.167,212.667 207.5,212C 212.436,211.145 216.936,209.978 221,208.5C 221.33,205.134 220.997,201.801 220,198.5C 216.974,195.974 213.807,193.64 210.5,191.5C 209.756,183.87 208.423,176.37 206.5,169C 208.007,164.325 210.007,159.825 212.5,155.5C 213.302,152.551 213.636,149.551 213.5,146.5C 208.929,145.023 204.262,144.523 199.5,145C 196.143,146.512 194.143,149.012 193.5,152.5C 189.629,152.815 185.962,152.482 182.5,151.5C 175.427,140.759 166.427,132.093 155.5,125.5C 154.418,124.406 153.752,123.073 153.5,121.5C 155.297,116.648 156.297,111.648 156.5,106.5C 157.167,103.833 157.833,101.167 158.5,98.5 Z"/></g>
<g><path style="opacity:1" fill="#7a4005" d="M 138.5,187.5 C 140.185,181.796 142.685,176.463 146,171.5C 150.369,163.463 156.869,157.963 165.5,155C 171.297,154.258 176.964,153.091 182.5,151.5C 185.962,152.482 189.629,152.815 193.5,152.5C 194.143,149.012 196.143,146.512 199.5,145C 204.262,144.523 208.929,145.023 213.5,146.5C 213.636,149.551 213.302,152.551 212.5,155.5C 210.007,159.825 208.007,164.325 206.5,169C 208.423,176.37 209.756,183.87 210.5,191.5C 213.807,193.64 216.974,195.974 220,198.5C 220.997,201.801 221.33,205.134 221,208.5C 216.936,209.978 212.436,211.145 207.5,212C 203.167,212.667 198.833,212.667 194.5,212C 188.775,202.999 185.109,193.166 183.5,182.5C 170.711,184.77 157.878,186.77 145,188.5C 142.901,187.713 140.734,187.38 138.5,187.5 Z"/></g>
<g><path style="opacity:1" fill="#7c2f0f" d="M 136.5,121.5 C 138.379,121.393 138.712,121.893 137.5,123C 127.208,129.326 116.208,130.993 104.5,128C 112.218,127.812 119.885,127.146 127.5,126C 130.84,124.997 133.84,123.497 136.5,121.5 Z"/></g>
<g><path style="opacity:1" fill="#7d4205" d="M 23.5,113.5 C 24.1667,113.5 24.8333,113.5 25.5,113.5C 26.8013,116.801 29.1346,119.135 32.5,120.5C 36.1003,123.103 39.9336,125.436 44,127.5C 46.8563,132.069 48.5229,137.069 49,142.5C 49.0536,137.118 48.7203,131.785 48,126.5C 50.4537,125.802 52.7871,124.802 55,123.5C 55.6708,124.252 56.5041,124.586 57.5,124.5C 59.8268,124.665 61.9935,125.331 64,126.5C 75.7147,137.814 79.8813,151.481 76.5,167.5C 75.5,166.833 74.5,166.167 73.5,165.5C 67.3249,160.53 60.6582,156.03 53.5,152C 51.114,150.113 49.9473,147.613 50,144.5C 49.5776,146.426 48.4109,147.426 46.5,147.5C 38.2614,142.099 30.7614,135.766 24,128.5C 22.2609,126.29 21.0943,123.79 20.5,121C 21.2142,118.352 22.2142,115.852 23.5,113.5 Z"/></g>
<g><path style="opacity:1" fill="#fcf8f5" d="M 496.5,138.5 C 501.099,138.2 505.599,138.533 510,139.5C 512.552,146.996 515.385,154.329 518.5,161.5C 516.833,161.833 515.167,162.167 513.5,162.5C 510.035,162.046 506.868,161.046 504,159.5C 501.78,159.545 500.28,160.545 499.5,162.5C 496.572,163.484 493.572,163.817 490.5,163.5C 492.658,155.202 494.658,146.868 496.5,138.5 Z"/></g>
<g><path style="opacity:1" fill="#f66826" d="M 502.5,144.5 C 504.554,147.008 505.554,150.008 505.5,153.5C 504.167,153.5 502.833,153.5 501.5,153.5C 501.368,150.43 501.701,147.43 502.5,144.5 Z"/></g>
<g><path style="opacity:1" fill="#fcf7f4" d="M 425.5,150.5 C 430.544,150.173 435.544,150.506 440.5,151.5C 442.007,153.969 441.673,156.135 439.5,158C 441.585,160.419 442.585,163.253 442.5,166.5C 440.5,166.5 438.5,166.5 436.5,166.5C 436.756,164.088 435.756,162.421 433.5,161.5C 432.534,163.396 432.201,165.396 432.5,167.5C 430.5,167.5 428.5,167.5 426.5,167.5C 426.468,161.811 426.134,156.145 425.5,150.5 Z"/></g>
<g><path style="opacity:1" fill="#19272c" d="M 12.5,248.5 C 11.8333,248.5 11.1667,248.5 10.5,248.5C 11.9507,241.77 12.6174,234.937 12.5,228C 11.9204,214.783 10.7537,201.617 9,188.5C 7.34116,173.768 9.67449,159.768 16,146.5C 19.4517,142.954 23.6184,141.787 28.5,143C 32.2608,145.765 36.2608,148.098 40.5,150C 33.6622,149.288 26.9955,147.955 20.5,146C 19.4214,146.956 18.2547,147.789 17,148.5C 12.2973,157.572 10.1306,167.238 10.5,177.5C 11.7095,193.676 13.0429,209.843 14.5,226C 13.7959,233.503 13.1292,241.003 12.5,248.5 Z"/></g>
<g><path style="opacity:1" fill="#fbf8f5" d="M 410.5,151.5 C 414.833,151.5 419.167,151.5 423.5,151.5C 423.5,152.833 423.5,154.167 423.5,155.5C 415.5,156.167 415.5,156.833 423.5,157.5C 423.5,158.833 423.5,160.167 423.5,161.5C 421.396,161.201 419.396,161.534 417.5,162.5C 419.743,163.474 422.076,163.808 424.5,163.5C 424.5,164.833 424.5,166.167 424.5,167.5C 420.143,167.586 415.81,167.92 411.5,168.5C 410.968,162.848 410.635,157.181 410.5,151.5 Z"/></g>
<g><path style="opacity:1" fill="#fcfbf9" d="M 358.5,154.5 C 360.833,154.5 363.167,154.5 365.5,154.5C 365.5,160.167 365.5,165.833 365.5,171.5C 363.5,171.5 361.5,171.5 359.5,171.5C 359.74,165.773 359.407,160.106 358.5,154.5 Z"/></g>
<g><path style="opacity:1" fill="#fbf7f3" d="M 391.5,152.5 C 395.846,152.334 400.179,152.501 404.5,153C 410.047,158.64 409.714,163.973 403.5,169C 399.848,169.499 396.182,169.665 392.5,169.5C 391.866,163.855 391.532,158.189 391.5,152.5 Z"/></g>
<g><path style="opacity:1" fill="#fcf7f3" d="M 346.5,154.5 C 349.5,154.5 352.5,154.5 355.5,154.5C 355.532,160.189 355.866,165.855 356.5,171.5C 351.728,172.397 349.395,170.397 349.5,165.5C 348.692,167.423 348.192,169.423 348,171.5C 346.301,172.406 344.467,172.739 342.5,172.5C 340.326,163.558 339.326,163.558 339.5,172.5C 337.833,172.5 336.167,172.5 334.5,172.5C 333.968,166.848 333.635,161.181 333.5,155.5C 336.5,155.5 339.5,155.5 342.5,155.5C 342.247,157.827 342.914,159.827 344.5,161.5C 345.086,161.291 345.586,160.957 346,160.5C 346.495,158.527 346.662,156.527 346.5,154.5 Z"/></g>
<g><path style="opacity:1" fill="#fcf9f5" d="M 367.5,153.5 C 372.5,153.5 377.5,153.5 382.5,153.5C 382.5,154.833 382.5,156.167 382.5,157.5C 381.178,157.33 380.011,157.663 379,158.5C 378.501,162.486 378.334,166.486 378.5,170.5C 376.5,170.5 374.5,170.5 372.5,170.5C 372.605,166.452 372.272,162.452 371.5,158.5C 370.167,158.5 368.833,158.5 367.5,158.5C 367.5,156.833 367.5,155.167 367.5,153.5 Z"/></g>
<g><path style="opacity:1" fill="#162027" d="M 73.5,165.5 C 64.306,161.484 55.306,156.984 46.5,152C 47.3081,151.692 47.9747,151.192 48.5,150.5C 47.8075,149.482 47.1408,148.482 46.5,147.5C 48.4109,147.426 49.5776,146.426 50,144.5C 49.9473,147.613 51.114,150.113 53.5,152C 60.6582,156.03 67.3249,160.53 73.5,165.5 Z"/></g>
<g><path style="opacity:1" fill="#f97437" d="M 397.5,155.5 C 398.822,155.33 399.989,155.663 401,156.5C 401.667,159.167 401.667,161.833 401,164.5C 400,165.833 399,165.833 398,164.5C 397.502,161.518 397.335,158.518 397.5,155.5 Z"/></g>
</svg>
