<?xml version="1.0" encoding="UTF-8" standalone="no"?>
<svg height="208.53455" width="472" xmlns="http://www.w3.org/2000/svg" xmlns:xlink="http://www.w3.org/1999/xlink">
   <linearGradient id="a" gradientUnits="userSpaceOnUse" x1="488.62546655" x2="488.62546655" y1="-4.61797969" y2="419.71294356">
      <stop offset="0" stop-color="#1c65ae"/>
      <stop offset=".5" stop-color="#219ed4"/>
      <stop offset=".60000002" stop-color="#196ea7"/>
      <stop offset="1" stop-color="#183975"/>
   </linearGradient>
   <linearGradient id="b" gradientUnits="userSpaceOnUse" x1="534.9695369" x2="534.9695369" y1="-6.9997613" y2="422.7438417">
      <stop offset="0" stop-color="#2c8ac8"/>
      <stop offset="1" stop-color="#21375f"/>
   </linearGradient>
   <g transform="matrix(.48603922 0 0 .48603922 2.4581739 2.4479434)">
      <path d="m916.69254 143.4717c-37.22309-13.46212-64.90646-4.91324-85.45424 13.84104l-.0282-.11265-.51846-1.15342c-17.96187-14.61426-32.85136-14.61426-32.85136-14.61426-38.94106-1.82678-93.8047 16.07107-93.8047 16.07107 0 0-20.40057-34.95209-43.23471-32.21128-22.83414 2.74082-18.57378 40.1905-18.57378 40.1905-52.6733-45.06021-186.77347-12.23829-186.77731-12.23829.93708-.34309 1.84983-.75274 2.7293-1.23407 28.31448-15.52701 36.53564-32.19721 36.53564-32.19721 5.93737 1.82679 43.38705-3.42569 45.89871-35.393745 2.5117-31.969334-24.20515-47.268477-40.87534-48.638244-16.67019-1.369767-30.14255 7.536278-30.14255 7.536278-7.99202-39.0473152-46.12658-33.111232-46.12658-33.111232-52.74755 10.504959-32.1972 56.630256-32.1972 56.630256-23.74817 21.693522-22.37713 42.015997-22.37713 42.015997-137.84975-127.267979-293.887948-107.7814458-293.887948-107.7814458-43.157896 1.1418991-77.1818795 24.6622038-74.89808142 50.6928938 2.28379812 26.03197 31.28444942 26.03197 31.28444942 26.03197 29.247722 0 31.130832-20.093327 31.130832-20.093327 62.415278-3.045491 100.169638 10.960695 100.169638 10.960695-11.57005 22.834141-15.22361 78.858884-15.22361 78.858884 0 0-94.384618 17.04912-90.731053 62.71612 3.653565 45.66956 89.514903 88.90682 89.514903 88.90682.30468 8.52584 9.79831 36.2297 33.79483 36.2297 23.99653 0 29.3911-14.61426 29.3911-14.61426 16.08004 5.42018 47.4733 3.65356 47.4733 3.65356v18.80549c2.56032 44.6864 48.26828 46.01649 48.26828 46.01649h477.70682c3.65356 6.40078 20.0562 29.71881 39.31615 29.71881 19.25994 0 23.93507-24.32808 24.23975-31.94373.30212-7.61308 22.00076-79.40551 22.00076-79.40551l-.0115-.15617c.63111-.17667 1.26095-.39301 1.89463-.57992 49.37945-14.55793 90.67216-48.80082 90.67216-96.48791 0-47.68708-44.30748-66.9099-44.30748-66.9099z" fill="none" stroke="url(#b)" stroke-width="6"/>
      <path d="m916.69254 143.4717c-37.22309-13.46212-64.90646-4.91324-85.45424 13.84104l-.0282-.11265-.51846-1.15342c-17.96187-14.61426-32.85136-14.61426-32.85136-14.61426-38.94106-1.82678-93.8047 16.07107-93.8047 16.07107 0 0-20.40057-34.95209-43.23471-32.21128-22.83414 2.74082-18.57378 40.1905-18.57378 40.1905-52.6733-45.06021-186.77347-12.23829-186.77731-12.23829.93708-.34309 1.84983-.75274 2.7293-1.23407 28.31448-15.52701 36.53564-32.19721 36.53564-32.19721 5.93737 1.82679 43.38705-3.42569 45.89871-35.393745 2.5117-31.969334-24.20515-47.268477-40.87534-48.638244-16.67019-1.369767-30.14255 7.536278-30.14255 7.536278-7.99202-39.0473152-46.12658-33.111232-46.12658-33.111232-52.74755 10.504959-32.1972 56.630256-32.1972 56.630256-23.74817 21.693522-22.37713 42.015997-22.37713 42.015997-137.84975-127.267979-293.887948-107.7814458-293.887948-107.7814458-43.157896 1.1418991-77.1818795 24.6622038-74.89808142 50.6928938 2.28379812 26.03197 31.28444942 26.03197 31.28444942 26.03197 29.247722 0 31.130832-20.093327 31.130832-20.093327 62.415278-3.045491 100.169638 10.960695 100.169638 10.960695-11.57005 22.834141-15.22361 78.858884-15.22361 78.858884 0 0-94.384618 17.04912-90.731053 62.71612 3.653565 45.66956 89.514903 88.90682 89.514903 88.90682.30468 8.52584 9.79831 36.2297 33.79483 36.2297 23.99653 0 29.3911-14.61426 29.3911-14.61426 16.08004 5.42018 47.4733 3.65356 47.4733 3.65356v18.80549c2.56032 44.6864 48.26828 46.01649 48.26828 46.01649h477.70682c3.65356 6.40078 20.0562 29.71881 39.31615 29.71881 19.25994 0 23.93507-24.32808 24.23975-31.94373.30212-7.61308 22.00076-79.40551 22.00076-79.40551l-.0115-.15617c.63111-.17667 1.26095-.39301 1.89463-.57992 49.37945-14.55793 90.67216-48.80082 90.67216-96.48791 0-47.68708-44.30748-66.9099-44.30748-66.9099z" fill="url(#a)"/>
      <path d="m556.64486 315.21484c-3.39626.0141-5.97833 2.35421-6.2126 5.68901-.1805 2.6256-.3226 5.25376-.44933 7.88192-.5812 11.67118-1.4133 23.33596-1.40306 35.03659 0 .41221-.0755.82698-.18178 1.94327-.77449-.76553-1.1803-1.07917-1.47218-1.46193-.76809-1.02029-1.45937-2.09818-2.24411-3.10822-3.9032-5.07198-7.81407-10.14012-11.75439-15.18649-3.54091-4.53815-7.06006-9.10191-10.70979-13.56837-1.40305-1.72437-3.01476-3.33353-4.72505-4.77755-3.90448-3.28104-10.43199-.28547-10.53312 3.97617-.0231.72841-.27908 1.45682-.3034 2.18394-.18562 4.7353-.50054 9.46932-.46982 14.20589.0768 11.37803.31876 22.74453.50694 34.11744.0218 1.15214.073 2.3222.28548 3.4577.37764 2.02393 1.6578 3.38473 3.66124 4.10162 2.30556.82442 4.32309.20867 6.05002-1.29296 1.68213-1.46962 2.58208-3.31304 2.51039-5.59428-.18563-6.32013-.297-12.63386-.43526-18.95527-.10113-4.31412-.20354-8.62697-.27139-12.94493-.005-.47622-.1997-1.06253.5223-1.46578 1.02413.40197 1.50035 1.39281 2.12634 2.19291 5.41378 6.87315 10.77123 13.78727 16.1991 20.65147 1.98936 2.50911 4.07217 4.94908 6.22667 7.32121 1.06637 1.1739 2.2902 2.29532 3.64589 3.13638 3.57803 2.20955 7.95489 1.32881 10.44863-1.97272 1.44786-1.89207 2.50527-3.9736 2.72417-6.34701.2714-2.93412.52743-5.86823.6324-8.81259.31108-9.15824.49414-18.31263.86154-27.46831.19587-4.73145.68233-9.44883 1.02029-14.17388.0781-1.04973.19842-2.11482.10881-3.15303-.27267-3.21063-3.06213-5.62372-6.36493-5.6122z" fill="#175773"/>
      <path d="m105.14411 28.338302c-36.923535 1.06893-66.61291 5.613484-73.273561 12.72859-5.808068 6.446865-13.259855 11.605894-13.407073 20.230304-.212506 8.360698 9.640854 9.136473 15.571816 9.066064 5.838791 0 11.310178-.515903 11.229528-4.082417 0-4.780102-7.96257-3.7739-7.96257-8.753706 0-5.619885 30.540679-6.891079 45.760453-6.891079 130.613027-.457016 281.019827 90.122972 281.255367 166.987372.19459 59.63863-77.43919 73.06618-120.23608 73.06618-15.25178.0768-29.97485-1.49906-43.96823-4.23859-.71689-18.98856-1.80502-58.81165-2.2838-84.064 4.93244-.073 9.5602-.19971 13.47236-.19971 31.75171-.0576 73.4003 11.17833 73.43614 18.56098 0 6.35086-11.10023 10.79044-11.10023 16.84174.0947 4.52535 10.27325 3.61003 19.01288 4.341 1.62323.18307 19.53262-9.89048 19.50445-25.75417-.10497-20.95103-26.14846-45.67597-111.2289-45.33416h-3.72398c-.77833-23.57023-4.17587-60.56034-17.65719-60.5373-11.01574.0627-14.23789 40.89586-15.17369 63.22946-47.74341 7.35194-90.146013 26.73222-90.071764 45.89231 0 15.66399 34.177604 55.05055 89.334404 79.02403.98572 17.77624 4.31924 29.93132 20.09844 29.84427 11.44204 0 15.25818-8.39526 16.45641-17.22706 17.85177 4.56376 37.22565 7.26745 57.75679 7.19448 80.05711-.20867 144.40287-43.07853 144.15964-101.78648-.18435-78.80639-158.82511-191.956813-296.96161-188.138108m-21.515578 195.991868c0-13.67334 41.566658-19.00647 80.085268-20.95999-.23298 21.55014-.52102 52.38398-.45829 73.11866-47.37985-16.72267-79.626978-43.29743-79.626978-52.15867" fill="#175773"/>
      <path d="m690.99722 365.54929c-1.38257.0307-2.76898.27651-4.14643.49926-5.50595.88075-10.98501 1.92151-16.51273 2.6512-3.81614.50566-7.68861.63368-11.53676.86539-.82058.0486-1.66292-.16386-2.52319-.25731-.80266-3.20679-1.77558-6.19852-1.51826-9.7996 3.1863-.1869 6.06665-.36868 8.95341-.51462 6.21643-.32644 12.39831-.92683 18.54945-1.93304 1.98425-.32516 3.65869-1.10093 5.13343-2.42077 1.50162-1.33776 1.93688-3.00581 1.54771-4.86971-.69641-3.25928-4.07474-5.13471-6.32269-4.78267-1.26608.19843-2.53727.42246-3.81743.52487-7.59004.60295-15.17881 1.18414-22.77269 1.75765-.53639.0435-1.08173.0397-1.60916.006-.71816-.0371-1.21102-.42501-1.35952-1.11501-.29188-1.33393-.6388-2.66273-.77706-4.01073-.14721-1.42738-.45701-2.88931-.0269-4.49975.76425-.0909 1.48114-.23299 2.20571-.25347 6.97429-.20611 13.94474-.34308 20.91519-.59655 3.53835-.12546 7.06646-.4647 10.59969-.6708 2.25947-.12674 4.14642-1.01005 5.70949-2.56288 1.46066-1.45425 2.00089-3.18246 1.41329-5.19871-.8577-2.95588-3.39625-4.89404-6.71057-4.87611-1.92536.0179-3.84303.393-5.77351.46085-7.82303.2906-15.65374.54279-23.48062.77834-2.0316.0614-4.08113-.0717-6.1089.0474-1.70773.0999-3.4193.3226-5.0899.69513-2.1737.48134-3.82895 1.71925-5.05149 3.6126-1.39025 2.1481-1.79222 4.42294-1.57972 6.9154.86667 9.94937 1.68853 19.90258 3.31689 29.76875.53254 3.20679 1.33776 6.37773 2.06489 9.54868.76553 3.33864 2.97764 5.16031 6.36621 5.87335 3.20423.67209 6.40078.51335 9.61269.31108 2.99557-.1869 5.99626-.37124 8.9931-.5415 4.07346-.21763 8.15843-.30596 12.21781-.64904 2.55263-.21379 5.08606-.71817 7.6054-1.20591 2.03417-.39813 3.81999-1.39025 5.43427-2.65248 2.15578-1.68213 2.81122-4.38966 1.78453-7.13175-.91403-2.43742-2.91747-3.83279-5.70565-3.7739z" fill="#175773"/>
      <path d="m105.14411 18.991897c-36.923535 1.06893-66.61291 5.613483-73.273561 12.72859-5.808068 6.446865-13.259855 11.605893-13.407073 20.230303-.212506 8.360699 9.640854 9.136473 15.571816 9.066065 5.838791 0 11.310178-.515903 11.229528-4.082418 0-4.780102-7.96257-3.773899-7.96257-8.753706 0-5.619884 30.540679-6.891079 45.760453-6.891079 130.613027-.457016 281.019827 90.122978 281.255367 166.987378.19459 59.63862-77.43919 73.06618-120.23608 73.06618-15.25178.0768-29.97485-1.49907-43.96823-4.2386-.71689-18.98855-1.80502-58.81164-2.2838-84.064 4.93244-.073 9.5602-.1997 13.47236-.1997 31.75171-.0576 73.4003 11.17832 73.43614 18.56098 0 6.35085-11.10023 10.79043-11.10023 16.84173.0947 4.52535 10.27325 3.61004 19.01288 4.34101 1.62323.18306 19.53262-9.89049 19.50445-25.75418-.10497-20.95103-26.14846-45.67596-111.2289-45.33416h-3.72398c-.77833-23.57023-4.17587-60.56033-17.65719-60.53729-11.01574.0627-14.23789 40.89586-15.17369 63.22946-47.74341 7.35193-90.146013 26.73221-90.071764 45.89231 0 15.66399 34.177604 55.05054 89.334404 79.02402.98572 17.77625 4.31924 29.93133 20.09844 29.84428 11.44204 0 15.25818-8.39527 16.45641-17.22706 17.85177 4.56375 37.22565 7.26744 57.75679 7.19447 80.05711-.20866 144.40287-43.07852 144.15964-101.78647-.18435-78.8064-158.82511-191.956818-296.96161-188.138113m-21.515578 195.991863c0-13.67334 41.566658-19.00647 80.085268-20.95999-.23298 21.55015-.52102 52.38398-.45829 73.11867-47.37985-16.72268-79.626978-43.29744-79.626978-52.15868" fill="#f5f5f5"/>
      <path d="m360.4008 364.25505c-.64008.0563-1.26864.24195-1.90231.36613-2.64609.52358-5.27297 1.19694-7.94593 1.54642-10.83012 1.4133-21.73449 2.03289-32.63886 2.54111-3.77902.17922-7.56956.11906-11.34986.13698-3.10566.0192-6.02697-.80778-8.64105-2.41821-3.04933-1.88311-3.98257-2.51039-1.53107-6.46991 1.4389-2.32221 3.37577-4.23988 5.49187-5.92712 4.2258-3.36425 8.48743-6.6901 12.84381-9.88665 3.48714-2.56671 7.26104-4.69049 11.19368-6.51727 3.64972-1.69493 7.42874-2.91748 11.45099-3.37577 1.9676-.22275 3.62925-.11778 4.5932 2.01112.61192 1.34289 1.82807 2.13402 3.28616 2.40926 2.6256.49926 4.91196-.21891 6.82323-2.0841 1.83703-1.78582 2.0777-3.98512 1.40049-6.30221-.79113-2.68576-2.42205-4.80826-4.75321-6.37133-2.30044-1.53747-4.84155-2.33501-7.60285-2.49503-3.2708-.18818-6.46735.34309-9.64726.97292-6.32781 1.25584-12.15508 3.81231-17.70839 7.00758-8.09443 4.64824-15.47453 10.28605-22.43601 16.48584-1.53235 1.35953-2.92644 2.88291-4.27188 4.43318-1.71029 1.96376-3.09926 4.15795-4.11187 6.57232-2.40797 5.7543-1.43633 10.99782 2.4515 15.76384 2.80482 3.44746 6.40334 5.74406 10.56641 7.23929 4.14258 1.49138 8.43111 1.85622 12.77852 1.77557 3.45898-.0666 6.91284-.20866 10.37438-.31364.004.0576.006.11394.0102.16642 7.76543-.5415 15.53341-1.0254 23.29116-1.6386 3.55243-.27779 7.09334-.74505 10.62913-1.23023 2.24284-.30723 4.49207-.69384 6.68114-1.25455 1.5477-.39429 3.11974-.96012 4.4895-1.77045 2.63328-1.55795 3.33353-4.06194 2.52831-6.96405-.90763-3.2516-3.73037-4.64057-6.34317-4.40886z" fill="#175773"/>
      <path d="m427.87654 169.49469c-13.28546.1485-13.68871 54.57177-14.07148 74.45771-.89355 45.26759 5.73638 50.56232 17.64439 50.56232 10.64194 0 14.27118-1.30832 13.35971-39.21374-1.67061-71.97292-6.48143-85.80629-16.93262-85.80629" fill="#175773"/>
      <path d="m427.87654 160.14829c-13.28546.1485-13.68871 54.57176-14.07148 74.4577-.89355 45.2676 5.73638 50.56232 17.64439 50.56232 10.64194 0 14.27118-1.30832 13.35971-39.21373-1.67061-71.97293-6.48143-85.80629-16.93262-85.80629" fill="#f5f5f5"/>
      <path d="m586.42 181.93909c0-12.49048-32.51596-12.37143-50.83243-12.35095-13.73479.11138-83.36119 1.6514-83.2895 40.39276.0589 26.13567 39.06012 19.75153 64.92823 22.34768 21.00863 2.07898 46.55159 9.0059 46.70264 15.83809 0 15.40412-55.82888 21.5143-67.25555 21.5143-23.72769.13826-24.2039-6.67601-24.2039-10.1734 0-3.50378 3.93263-9.38098 12.84636-9.38098 8.83948-.032 27.0625 11.22057 39.71684 11.18984 12.49816-.10497 22.9916-5.593 22.9916-11.21416 0-10.31038-41.68828-15.24154-54.61913-15.24154-13.58758.0947-33.05491 5.61221-32.94738 25.87579 0 10.52545 17.26931 35.36687 65.75393 35.15309 47.8151-.21763 59.90746-27.19308 59.83705-41.10453-.0794-33.84348-32.37002-37.75692-60.50273-40.17641-21.09953-1.80502-43.73781-2.83043-43.65844-7.46587.17794-15.47325 104.53241-4.14515 104.53241-25.20371" fill="#175773"/>
      <path d="m586.42 172.59268c0-12.49048-32.51596-12.37142-50.83243-12.35094-13.73479.11137-83.36119 1.6514-83.2895 40.39276.0589 26.13566 39.06012 19.75152 64.92823 22.34768 21.00863 2.07897 46.55159 9.0059 46.70264 15.83809 0 15.40411-55.82888 21.5143-67.25555 21.5143-23.72769.13825-24.2039-6.67602-24.2039-10.1734 0-3.50379 3.93263-9.38098 12.84636-9.38098 8.83948-.032 27.0625 11.22056 39.71684 11.18984 12.49816-.10497 22.9916-5.593 22.9916-11.21417 0-10.31037-41.68828-15.24153-54.61913-15.24153-13.58758.0947-33.05491 5.6122-32.94738 25.87579 0 10.52544 17.26931 35.36687 65.75393 35.15308 47.8151-.21763 59.90746-27.19307 59.83705-41.10453-.0794-33.84348-32.37002-37.75691-60.50273-40.17641-21.09953-1.80502-43.73781-2.83042-43.65844-7.46587.17794-15.47324 104.53241-4.14514 104.53241-25.20371" fill="#f5f5f5"/>
      <path d="m664.17539 152.8181c-3.93648 0-4.68409 4.16947-4.68409 8.55784 0 13.43268 18.53794 59.59766 18.53794 77.37519 0 3.6126-.29188 10.16059-3.18887 11.07975-4.42294 1.27247-42.94027-68.90184-58.86925-70.0975-16.4308-1.26607-25.28692 68.84038-25.20115 86.102 0 17.11569 3.10438 28.75615 15.94946 28.68702 18.95143 0 9.14288-70.00917 16.76493-70.00917 5.67621 0 36.6803 64.027 53.96625 63.96171 18.6954-.0627 29.77642-27.4683 29.7457-45.27655-.13057-40.7192-27.27884-90.50702-43.02092-90.38029" fill="#175773"/>
      <path d="m664.17539 143.4717c-3.93648 0-4.68409 4.16946-4.68409 8.55784 0 13.43267 18.53794 59.59766 18.53794 77.37518 0 3.6126-.29188 10.1606-3.18887 11.07975-4.42294 1.27248-42.94027-68.90183-58.86925-70.0975-16.4308-1.26607-25.28692 68.84039-25.20115 86.10201 0 17.11568 3.10438 28.75614 15.94946 28.68701 18.95143 0 9.14288-70.00916 16.76493-70.00916 5.67621 0 36.6803 64.02699 53.96625 63.96171 18.6954-.0627 29.77642-27.46831 29.7457-45.27656-.13057-40.7192-27.27884-90.50702-43.02092-90.38028" fill="#f5f5f5"/>
      <path d="m790.59335 261.00536c-6.5672 0-43.61619 8.28901-46.05233 6.10762-2.46558-2.28892 2.18651-23.83394 6.79763-25.26516 4.64952-1.42993 33.61305-1.06637 38.22673-1.35568 13.45444-.76809 10.91845-19.08201 2.60128-19.76305-4.22964-.39685-30.3525-.4775-31.85796-2.91107-1.36465-2.35421.48134-14.59634 3.33737-15.85601 6.01801-2.5616 45.77069-3.53579 48.77394-4.30645 4.95548-1.30832 8.56424-3.94288 9.75606-8.19812 1.18671-4.30004-13.80776-21.71272-32.37002-19.73488-31.89508 3.47818-73.21339 3.31048-73.21339 13.84233 0 9.85848 19.41612 13.83336 19.9077 16.57673.51334 2.6256-2.49374 12.87709-3.6382 16.09028-1.1483 3.4257-15.02135 4.47671-15.93538 14.02667-.19075 2.2582 3.46538 5.69158 2.83682 8.46567-2.20955 8.07011-8.851 24.77998-8.83947 31.66466 0 10.71234 7.87551 34.48996 29.47686 33.67834 34.26082-1.05101 64.89239-25.13074 65.42109-29.3783.71305-6.29196-8.65513-13.68358-15.22873-13.68358" fill="#175773"/>
      <path d="m790.59335 251.65895c-6.5672 0-43.61619 8.28901-46.05233 6.10763-2.46558-2.28892 2.18651-23.83395 6.79763-25.26516 4.64952-1.42994 33.61305-1.06637 38.22673-1.35569 13.45444-.76809 10.91845-19.082 2.60128-19.76304-4.22964-.39685-30.3525-.4775-31.85796-2.91108-1.36465-2.3542.48134-14.59634 3.33737-15.85601 6.01801-2.56159 45.77069-3.53579 48.77394-4.30644 4.95548-1.30832 8.56424-3.94288 9.75606-8.19812 1.18671-4.30005-13.80776-21.71273-32.37002-19.73489-31.89508 3.47819-73.21339 3.31049-73.21339 13.84233 0 9.85848 19.41612 13.83337 19.9077 16.57674.51334 2.6256-2.49374 12.87709-3.6382 16.09028-1.1483 3.4257-15.02135 4.4767-15.93538 14.02667-.19075 2.25819 3.46538 5.69157 2.83682 8.46567-2.20955 8.0701-8.851 24.77998-8.83947 31.66465 0 10.71235 7.87551 34.48996 29.47686 33.67835 34.26082-1.05101 64.89239-25.13074 65.42109-29.3783.71305-6.29197-8.65513-13.68359-15.22873-13.68359" fill="#f5f5f5"/>
      <path d="m914.89905 178.06406c-18.63907 1.0062-54.42455 40.64367-75.31286 67.34516-1.32752-2.7357-2.05977-5.37794-2.05977-7.7155-.0461-11.39851 21.13922-45.19719 25.08722-53.69742 4.13874-8.75755-.49542-20.47866-5.69029-16.2567-9.90329 8.15331-41.68572 45.39561-41.61915 80.04943 0 7.97409 2.05593 17.62518 6.46734 26.50947-7.03957 23.21818-24.45609 74.9352-23.91971 106.26958.32388 16.17093 16.63947 32.05894 26.4685 30.05422 3.73038-.88715 4.45367-22.1467 9.4642-36.51261 6.82579-20.73852 17.87737-58.62346 21.67432-74.77775 1.77941.18819 3.55883.34181 5.49827.34181 38.82328-.15234 81.9415-41.80093 81.86085-77.58513-.14466-35.90325-21.30308-44.47646-27.91892-44.02456m-44.83234 88.59319c15.64862-27.2302 38.41491-63.27427 46.79353-63.13345 5.87464 0 8.12131 6.02057 8.12131 14.80756-.001 26.62852-31.96933 48.69329-54.91484 48.32589" fill="#175773"/>
      <path d="m914.89905 168.71765c-18.63907 1.0062-54.42455 40.64367-75.31286 67.34516-1.32752-2.73569-2.05977-5.37793-2.05977-7.7155-.0461-11.39851 21.13922-45.19718 25.08722-53.69742 4.13874-8.75754-.49542-20.47865-5.69029-16.2567-9.90329 8.15332-41.68572 45.39561-41.61915 80.04943 0 7.97409 2.05593 17.62519 6.46734 26.50947-7.03957 23.21819-24.45609 74.93521-23.91971 106.26958.32388 16.17093 16.63947 32.05895 26.4685 30.05422 3.73038-.88715 4.45367-22.1467 9.4642-36.5126 6.82579-20.73853 17.87737-58.62346 21.67432-74.77775 1.77941.18818 3.55883.3418 5.49827.3418 38.82328-.15234 81.9415-41.80093 81.86085-77.58513-.14466-35.90325-21.30308-44.47645-27.91892-44.02456m-44.83234 88.59319c15.64862-27.2302 38.41491-63.27427 46.79353-63.13345 5.87464 0 8.12131 6.02057 8.12131 14.80756-.001 26.62853-31.96933 48.69329-54.91484 48.32589" fill="#f5f5f5"/>
      <path d="m556.64486 305.86843c-3.39626.0141-5.97833 2.35421-6.2126 5.68902-.1805 2.6256-.3226 5.25376-.44933 7.88192-.5812 11.67118-1.4133 23.33596-1.40306 35.03658 0 .41221-.0755.82698-.18178 1.94328-.77449-.76553-1.1803-1.07917-1.47218-1.46194-.76809-1.02028-1.45937-2.09817-2.24411-3.10822-3.9032-5.07197-7.81407-10.14011-11.75439-15.18649-3.54091-4.53815-7.06006-9.10191-10.70979-13.56837-1.40305-1.72437-3.01476-3.33353-4.72505-4.77754-3.90448-3.28104-10.43199-.28548-10.53312 3.97616-.0231.72841-.27908 1.45682-.3034 2.18395-.18562 4.7353-.50054 9.46931-.46982 14.20589.0768 11.37802.31876 22.74453.50694 34.11743.0218 1.15214.073 2.32221.28548 3.45771.37764 2.02392 1.6578 3.38473 3.66124 4.10161 2.30556.82443 4.32309.20867 6.05002-1.29295 1.68213-1.46962 2.58208-3.31305 2.51039-5.59428-.18563-6.32013-.297-12.63386-.43526-18.95527-.10113-4.31413-.20354-8.62697-.27139-12.94494-.005-.47622-.1997-1.06253.5223-1.46578 1.02413.40197 1.50035 1.39281 2.12634 2.19291 5.41378 6.87316 10.77123 13.78728 16.1991 20.65147 1.98936 2.50911 4.07217 4.94909 6.22667 7.32122 1.06637 1.1739 2.2902 2.29532 3.64589 3.13638 3.57803 2.20955 7.95489 1.3288 10.44863-1.97272 1.44786-1.89207 2.50527-3.97361 2.72417-6.34701.2714-2.93412.52743-5.86824.6324-8.8126.31108-9.15823.49414-18.31263.86154-27.4683.19587-4.73146.68233-9.44883 1.02029-14.17389.0781-1.04973.19842-2.11482.10881-3.15302-.27267-3.21063-3.06213-5.62373-6.36493-5.61221z" fill="#f5f5f5"/>
      <path d="m494.39216 364.28833c-1.94712-3.8187-3.91984-7.62716-6.07946-11.82736.18306-.60807.42885-1.31728.60551-2.04056.626-2.60768-.38021-4.95805-2.68961-6.29581-.3674-.21763-.75145-.48774-1.15598-.54151-1.46066-.1933-2.16218-1.18286-2.81634-2.35932-1.6066-2.9098-3.20039-5.83495-4.95805-8.6513-2.27227-3.63436-4.62392-7.2252-7.10998-10.72002-1.03565-1.45938-2.39901-2.75234-3.80847-3.86863-1.97656-1.56307-4.28084-1.7999-6.69649-1.01005-1.73077.56583-3.02245 1.69365-3.83663 3.23752-1.29808 2.46686-2.57567 4.95164-3.58059 7.54396-3.22856 8.31589-5.45859 16.95566-7.79615 25.54807-.30852 1.13165-.63496 2.25563-.97036 3.45258-1.45554.58631-2.85475 1.10605-4.21556 1.70901-.97547.42757-1.98168.85258-2.84578 1.46577-1.57587 1.1227-2.52063 2.73698-2.29532 4.69178.32388 2.89187 1.25711 5.4765 4.4895 6.38285.39301.10498.74762.35333 1.25968.60936-.0896.66312-.11394 1.29423-.26115 1.89335-.47238 1.87287-.96268 3.74445-1.49779 5.5994-.55814 1.93303-.41349 3.82126.22147 5.69669.58631 1.74102 1.7871 2.80482 3.49995 3.49483 2.55775 1.03308 6.34317-.69769 7.58876-3.80078.35716-.88971.56327-1.84343.78474-2.78434 1.0446-4.38454 2.10713-8.76779 3.08261-13.16897.33028-1.50674 1.05229-2.44894 2.53983-2.97636 6.35854-2.24539 12.68635-4.56888 19.03848-6.83347.56199-.19971 1.20719-.14722 1.85495-.22275.60935 1.04973 1.1675 1.95608 1.65524 2.90083 3.25927 6.28813 6.50575 12.58138 9.75095 18.87462.39556.76298.73865 1.55667 1.17902 2.28764 2.35421 3.84687 7.36346 3.98257 9.8444.21507 1.62708-2.47454 2.12634-5.0579.60039-7.87808-1.88567-3.49355-3.57803-7.0831-5.38177-10.62402zm-35.91606-13.38275c.0256-.55558-.032-1.05612.0858-1.51314 2.33885-9.31953 3.33993-12.35734 4.63929-14.20589 1.8063 1.70773 5.98729 8.82412 6.86419 11.69294-1.9548 1.21615-6.09354 2.66017-11.58925 4.02609z" fill="#175773"/>
      <path d="m690.99722 356.20288c-1.38257.0307-2.76898.27652-4.14643.49926-5.50595.88075-10.98501 1.92152-16.51273 2.65121-3.81614.50566-7.68861.63367-11.53676.86538-.82058.0487-1.66292-.16386-2.52319-.25731-.80266-3.20679-1.77558-6.19851-1.51826-9.79959 3.1863-.18691 6.06665-.36869 8.95341-.51463 6.21643-.32644 12.39831-.92683 18.54945-1.93303 1.98425-.32516 3.65869-1.10093 5.13343-2.42078 1.50162-1.33776 1.93688-3.0058 1.54771-4.86971-.69641-3.25928-4.07474-5.1347-6.32269-4.78266-1.26608.19842-2.53727.42245-3.81743.52486-7.59004.60296-15.17881 1.18415-22.77269 1.75766-.53639.0435-1.08173.0397-1.60916.006-.71816-.0371-1.21102-.42501-1.35952-1.11502-.29188-1.33392-.6388-2.66272-.77706-4.01073-.14721-1.42737-.45701-2.88931-.0269-4.49974.76425-.0909 1.48114-.23299 2.20571-.25348 6.97429-.2061 13.94474-.34308 20.91519-.59655 3.53835-.12545 7.06646-.46469 10.59969-.6708 2.25947-.12674 4.14642-1.01004 5.70949-2.56287 1.46066-1.45426 2.00089-3.18247 1.41329-5.19872-.8577-2.95588-3.39625-4.89403-6.71057-4.87611-1.92536.0179-3.84303.39301-5.77351.46086-7.82303.29059-15.65374.54278-23.48062.77833-2.0316.0614-4.08113-.0717-6.1089.0474-1.70773.0999-3.4193.3226-5.0899.69512-2.1737.48134-3.82895 1.71925-5.05149 3.6126-1.39025 2.1481-1.79222 4.42294-1.57972 6.9154.86667 9.94938 1.68853 19.90259 3.31689 29.76875.53254 3.20679 1.33776 6.37774 2.06489 9.54868.76553 3.33865 2.97764 5.16031 6.36621 5.87336 3.20423.67208 6.40078.51334 9.61269.31108 2.99557-.18691 5.99626-.37125 8.9931-.54151 4.07346-.21763 8.15843-.30596 12.21781-.64904 2.55263-.21379 5.08606-.71817 7.6054-1.20591 2.03417-.39812 3.81999-1.39025 5.43427-2.65248 2.15578-1.68212 2.81122-4.38965 1.78453-7.13175-.91403-2.43741-2.91747-3.83278-5.70565-3.7739z" fill="#f5f5f5"/>
      <path d="m425.27654 339.66838c-1.03949-.22147-2.11226-.31364-3.28232-.48902-.0883-.56583-.21379-1.08558-.24195-1.613-.21635-4.43446-.39941-8.87788-.64392-13.3149-.0691-1.2904-.1613-2.61792-.51334-3.85199-.90379-3.12614-3.70989-4.74682-7.09207-4.24884-3.74061.54535-5.73381 2.74082-5.68517 6.28301.008.54022.0819 1.07917.1101 1.62067.29315 5.7415.59271 11.47788.85514 17.21426.0333.72457-.15106 1.46066-.24451 2.24411-5.84903 1.17007-11.26409 3.42186-16.93006 4.53048-.77066-1.13934-.51846-2.2518-.52871-3.30793-.0269-4.7673.0103-9.54228-.0422-14.31086-.0141-1.29296-.1869-2.5936-.45062-3.85967-.35588-1.6834-1.45169-2.86883-2.94307-3.69581-4.45751-2.46558-9.99418.70281-10.06203 5.80551-.0218 1.62196.27139 3.24135.28163 4.86459.0448 5.63653.0397 11.27561.0218 16.9147 0 .72841-.18563 1.45554-.27396 2.11098-2.12762.66312-4.10546 1.21358-6.03721 1.90231-1.96248.69-3.29512 2.07897-3.82127 4.1221-1.10989 4.29108 2.897 8.6577 7.26745 7.94081.82314-.13186 1.63476-.32004 2.38365-.4647.69768 1.22639.48134 2.33245.50054 3.39497.0358 2.60384.0525 5.20768.0307 7.8064-.0141 1.57203.4391 2.993 1.24944 4.31412 1.45297 2.38749 4.1669 3.37065 6.75794 2.34653 2.96868-1.17135 4.88123-3.22856 4.87483-6.59537-.008-3.35401-.11393-6.71185-.18562-10.06842-.032-1.30064-.0883-2.6-.1357-3.89808-.023-1.00748.48518-1.61939 1.43378-1.89463.41733-.12417.82058-.29187 1.23535-.41221 4.56631-1.35568 9.13775-2.71777 13.71047-4.05297.70792-.20867 1.44529-.28804 2.41565-.47494.13314 1.21103.297 2.26076.35332 3.31944.34949 6.60305.68105 13.20865.97804 19.81938.0627 1.42097.24963 2.79458.82698 4.11186 1.22767 2.79714 4.05298 4.08114 6.96661 3.14278 3.37193-1.08429 5.22048-3.79566 5.04254-7.41978-.0947-1.95224-.265-3.89424-.33412-5.84775-.23299-6.38926-.35461-12.78876-1.22383-19.13577-.0551-.41221.0256-.84491.0384-1.12142.17666-.22531.22787-.3482.3162-.38149.69513-.26499 1.39153-.53126 2.09818-.75529 1.69876-.5287 3.09285-1.42865 4.30004-2.78434 2.39645-2.70241 1.57459-8.7473-3.37705-9.80983z" fill="#175773"/>
      <path d="m360.4008 354.90865c-.64008.0563-1.26864.24194-1.90231.36612-2.64609.52358-5.27297 1.19695-7.94593 1.54643-10.83012 1.41329-21.73449 2.03289-32.63886 2.54111-3.77902.17922-7.56956.11905-11.34986.13697-3.10566.0192-6.02697-.80777-8.64105-2.41821-3.04933-1.88311-3.98257-2.51039-1.53107-6.46991 1.4389-2.3222 3.37577-4.23987 5.49187-5.92712 4.2258-3.36425 8.48743-6.69009 12.84381-9.88664 3.48714-2.56672 7.26104-4.6905 11.19368-6.51728 3.64972-1.69492 7.42874-2.91747 11.45099-3.37577 1.9676-.22275 3.62925-.11777 4.5932 2.01113.61192 1.34288 1.82807 2.13402 3.28616 2.40925 2.6256.49926 4.91196-.21891 6.82323-2.08409 1.83703-1.78582 2.0777-3.98513 1.40049-6.30221-.79113-2.68577-2.42205-4.80827-4.75321-6.37134-2.30044-1.53746-4.84155-2.335-7.60285-2.49502-3.2708-.18818-6.46735.34308-9.64726.97292-6.32781 1.25583-12.15508 3.8123-17.70839 7.00757-8.09443 4.64825-15.47453 10.28605-22.43601 16.48585-1.53235 1.35952-2.92644 2.88291-4.27188 4.43318-1.71029 1.96376-3.09926 4.15794-4.11187 6.57232-2.40797 5.7543-1.43633 10.99782 2.4515 15.76384 2.80482 3.44746 6.40334 5.74406 10.56641 7.23928 4.14258 1.49138 8.43111 1.85623 12.77852 1.77558 3.45898-.0666 6.91284-.20867 10.37438-.31364.004.0576.006.11393.0102.16642 7.76543-.54151 15.53341-1.02541 23.29116-1.6386 3.55243-.2778 7.09334-.74505 10.62913-1.23023 2.24284-.30724 4.49207-.69385 6.68114-1.25455 1.5477-.39429 3.11974-.96012 4.4895-1.77046 2.63328-1.55795 3.33353-4.06193 2.52831-6.96405-.90763-3.25159-3.73037-4.64056-6.34317-4.40885z" fill="#f5f5f5"/>
      <path d="m630.58666 367.72939c-.50822-5.39713-.99084-10.79299-1.52338-16.19013-.55559-5.6058-1.1419-11.20904-1.72309-16.81485-.37509-3.55371-.79882-7.10614-1.17391-10.66241-.23811-2.19675-1.25199-3.88528-3.07621-5.06174-3.26824-2.10714-6.86164-1.04589-8.60009 2.47454-.68872 1.41073-.89099 2.88291-.72457 4.42166.33284 3.12486.6708 6.251.99724 9.37586.93196 8.95213 1.85623 17.90042 2.76386 26.85255.0922.93836.0154 1.89847.0154 3.44746-.90507-.74249-1.35056-1.0318-1.70901-1.40689-3.52554-3.62156-7.0639-7.22776-10.53696-10.89925-4.8057-5.07454-9.54612-10.21564-14.35823-15.29146-1.76661-1.87543-3.6062-3.68813-5.50979-5.42786-1.02156-.93323-2.15834-1.7999-3.36937-2.44254-3.57163-1.88823-7.85888.11778-8.77291 4.0645-.26883 1.15726-.42373 2.35932-.45317 3.54091-.0806 2.59999-.18818 5.21407-.0423 7.80639.6708 11.69422 1.4133 23.37565 2.1481 35.06731.0512.85642.18563 1.73333.41221 2.56415.73225 2.61152 2.81507 4.14899 5.46243 4.11186 3.23879-.0474 6.10762-2.84578 6.29837-6.16907.0435-.86538-.005-1.73461-.0666-2.59872-.35076-4.97468-.69385-9.94809-1.08557-14.92021-.23299-3.02757-.57479-6.0449-.81802-9.06991-.0794-1.02924-.0102-2.08153-.0102-3.5025.6516.43653 1.02284.59655 1.28655.8705 1.19567 1.23279 2.38109 2.49503 3.54475 3.75982 6.34446 6.87828 12.71451 13.73863 19.6952 19.96787 2.00345 1.78198 4.08626 3.48203 6.23308 5.0771 1.19311.88331 2.54879 1.59251 3.91088 2.18011 5.97833 2.56287 11.27945-2.80611 11.28329-7.3417.004-1.07917 0-2.16474-.0717-3.24903-.10369-1.51699-.28163-3.02373-.42629-4.53432z" fill="#175773"/>
      <path d="m494.39216 354.94193c-1.94712-3.81871-3.91984-7.62717-6.07946-11.82736.18306-.60808.42885-1.31728.60551-2.04057.626-2.60768-.38021-4.95804-2.68961-6.29581-.3674-.21762-.75145-.48774-1.15598-.5415-1.46066-.19331-2.16218-1.18287-2.81634-2.35933-1.6066-2.90979-3.20039-5.83495-4.95805-8.65129-2.27227-3.63437-4.62392-7.2252-7.10998-10.72003-1.03565-1.45938-2.39901-2.75233-3.80847-3.86863-1.97656-1.56307-4.28084-1.7999-6.69649-1.01004-1.73077.56583-3.02245 1.69364-3.83663 3.23751-1.29808 2.46686-2.57567 4.95164-3.58059 7.54396-3.22856 8.31589-5.45859 16.95567-7.79615 25.54807-.30852 1.13166-.63496 2.25564-.97036 3.45258-1.45554.58631-2.85475 1.10606-4.21556 1.70901-.97547.42757-1.98168.85258-2.84578 1.46578-1.57587 1.1227-2.52063 2.73697-2.29532 4.69177.32388 2.89187 1.25711 5.47651 4.4895 6.38286.39301.10497.74762.35332 1.25968.60935-.0896.66312-.11394 1.29424-.26115 1.89335-.47238 1.87287-.96268 3.74446-1.49779 5.5994-.55814 1.93304-.41349 3.82127.22147 5.6967.58631 1.74101 1.7871 2.80482 3.49995 3.49482 2.55775 1.03309 6.34317-.69768 7.58876-3.80078.35716-.88971.56327-1.84342.78474-2.78434 1.0446-4.38453 2.10713-8.76779 3.08261-13.16896.33028-1.50675 1.05229-2.44894 2.53983-2.97636 6.35854-2.2454 12.68635-4.56888 19.03848-6.83348.56199-.1997 1.20719-.14721 1.85495-.22274.60935 1.04972 1.1675 1.95607 1.65524 2.90083 3.25927 6.28812 6.50575 12.58137 9.75095 18.87462.39556.76297.73865 1.55667 1.17902 2.28764 2.35421 3.84686 7.36346 3.98256 9.8444.21506 1.62708-2.47454 2.12634-5.05789.60039-7.87808-1.88567-3.49354-3.57803-7.0831-5.38177-10.62401zm-35.91606-13.38275c.0256-.55559-.032-1.05613.0858-1.51314 2.33885-9.31954 3.33993-12.35735 4.63929-14.20589 1.8063 1.70772 5.98729 8.82411 6.86419 11.69294-1.9548 1.21615-6.09354 2.66016-11.58925 4.02609z" fill="#f5f5f5"/>
      <path d="m771.58303 372.11393c-1.24943-1.03309-2.6704-1.73077-4.2834-1.89719-2.19675-.23043-4.39477-.50438-6.5928-.55815-4.51639-.11394-9.04046-.13954-13.56197-.12802-7.58365.0102-15.0956.82698-22.52307 2.45534-.99724.21763-2.02648.56967-3.24263.073-.0704-.45573-.20227-.96652-.22275-1.47986-.12673-2.90851-.25731-5.81063-.31492-8.7217-.24067-11.74415-.43781-23.48702-.6836-35.22605-.0781-3.87887-2.07385-6.34957-5.57764-7.17015-1.55795-.36101-3.02885-.11138-4.14002.95243-1.86135 1.7743-3.54988 3.7291-3.226 6.66065.0499.42885.0205.86283.0269 1.29424.30595 14.86645.61191 29.73802.92683 44.60191.023 1.07533.0794 2.1545.22915 3.22087.69256 4.91964 3.69325 8.193 8.40422 9.29138 2.09178.48646 4.17075.41349 6.26508.0294 2.99173-.55303 5.97961-1.20207 8.9867-1.68725 11.07719-1.78197 22.21326-1.64116 33.34294-.78985 1.97784.14978 3.65996-.24323 5.43042-1.11502 3.66765-1.80886 3.85583-7.23672.75657-9.80599z" fill="#175773"/>
      <path d="m425.27654 330.32197c-1.03949-.22147-2.11226-.31364-3.28232-.48902-.0883-.56583-.21379-1.08557-.24195-1.61299-.21635-4.43446-.39941-8.87789-.64392-13.31491-.0691-1.29039-.1613-2.61792-.51334-3.85199-.90379-3.12614-3.70989-4.74681-7.09207-4.24883-3.74061.54534-5.73381 2.74081-5.68517 6.283.008.54023.0819 1.07917.1101 1.62068.29315 5.7415.59271 11.47788.85514 17.21426.0333.72456-.15106 1.46065-.24451 2.24411-5.84903 1.17006-11.26409 3.42186-16.93006 4.53047-.77066-1.13934-.51846-2.25179-.52871-3.30792-.0269-4.7673.0103-9.54228-.0422-14.31086-.0141-1.29296-.1869-2.5936-.45062-3.85967-.35588-1.68341-1.45169-2.86883-2.94307-3.69581-4.45751-2.46559-9.99418.7028-10.06203 5.8055-.0218 1.62196.27139 3.24136.28163 4.86459.0448 5.63653.0397 11.27562.0218 16.9147 0 .72841-.18563 1.45554-.27396 2.11098-2.12762.66312-4.10546 1.21359-6.03721 1.90231-1.96248.69001-3.29512 2.07898-3.82127 4.12211-1.10989 4.29108 2.897 8.65769 7.26745 7.9408.82314-.13185 1.63476-.32004 2.38365-.46469.69768 1.22639.48134 2.33244.50054 3.39497.0358 2.60384.0525 5.20767.0307 7.80639-.0141 1.57203.4391 2.993 1.24944 4.31413 1.45297 2.38749 4.1669 3.37065 6.75794 2.34652 2.96868-1.17134 4.88123-3.22855 4.87483-6.59536-.008-3.35401-.11393-6.71186-.18562-10.06843-.032-1.30064-.0883-2.59999-.1357-3.89807-.023-1.00749.48518-1.6194 1.43378-1.89463.41733-.12418.82058-.29188 1.23535-.41221 4.56631-1.35569 9.13775-2.71777 13.71047-4.05298.70792-.20866 1.44529-.28803 2.41565-.47494.13314 1.21103.297 2.26076.35332 3.31945.34949 6.60304.68105 13.20865.97804 19.81937.0627 1.42098.24963 2.79458.82698 4.11186 1.22767 2.79714 4.05298 4.08114 6.96661 3.14279 3.37193-1.0843 5.22048-3.79567 5.04254-7.41979-.0947-1.95224-.265-3.89423-.33412-5.84775-.23299-6.38926-.35461-12.78876-1.22383-19.13577-.0551-.41221.0256-.8449.0384-1.12142.17666-.2253.22787-.3482.3162-.38148.69513-.265 1.39153-.53127 2.09818-.7553 1.69876-.5287 3.09285-1.42865 4.30004-2.78433 2.39645-2.70241 1.57459-8.74731-3.37705-9.80984z" fill="#f5f5f5"/>
      <path d="m630.58666 358.38299c-.50822-5.39714-.99084-10.793-1.52338-16.19013-.55559-5.60581-1.1419-11.20905-1.72309-16.81485-.37509-3.55371-.79882-7.10615-1.17391-10.66242-.23811-2.19675-1.25199-3.88527-3.07621-5.06174-3.26824-2.10713-6.86164-1.04588-8.60009 2.47455-.68872 1.41073-.89099 2.88291-.72457 4.42165.33284 3.12486.6708 6.25101.99724 9.37587.93196 8.95213 1.85623 17.90042 2.76386 26.85255.0922.93835.0154 1.89847.0154 3.44746-.90507-.74249-1.35056-1.03181-1.70901-1.4069-3.52554-3.62156-7.0639-7.22776-10.53696-10.89924-4.8057-5.07454-9.54612-10.21565-14.35823-15.29147-1.76661-1.87542-3.6062-3.68812-5.50979-5.42786-1.02156-.93323-2.15834-1.7999-3.36937-2.44253-3.57163-1.88823-7.85888.11777-8.77291 4.06449-.26883 1.15726-.42373 2.35933-.45317 3.54091-.0806 2.6-.18818 5.21408-.0423 7.80639.6708 11.69423 1.4133 23.37565 2.1481 35.06731.0512.85643.18563 1.73333.41221 2.56416.73225 2.61151 2.81507 4.14898 5.46243 4.11186 3.23879-.0474 6.10762-2.84579 6.29837-6.16907.0435-.86539-.005-1.73462-.0666-2.59872-.35076-4.97469-.69385-9.94809-1.08557-14.92022-.23299-3.02757-.57479-6.04489-.81802-9.0699-.0794-1.02925-.0102-2.08154-.0102-3.50251.6516.43653 1.02284.59655 1.28655.87051 1.19567 1.23279 2.38109 2.49502 3.54475 3.75981 6.34446 6.87828 12.71451 13.73864 19.6952 19.96788 2.00345 1.78197 4.08626 3.48202 6.23308 5.07709 1.19311.88331 2.54879 1.59252 3.91088 2.18011 5.97833 2.56287 11.27945-2.8061 11.28329-7.34169.004-1.07918 0-2.16475-.0717-3.24904-.10369-1.51698-.28163-3.02373-.42629-4.53431z" fill="#f5f5f5"/>
      <path d="m771.58303 362.76752c-1.24943-1.03308-2.6704-1.73077-4.2834-1.89719-2.19675-.23043-4.39477-.50438-6.5928-.55815-4.51639-.11393-9.04046-.13953-13.56197-.12801-7.58365.0102-15.0956.82698-22.52307 2.45534-.99724.21762-2.02648.56967-3.24263.073-.0704-.45574-.20227-.96652-.22275-1.47986-.12673-2.90852-.25731-5.81063-.31492-8.72171-.24067-11.74415-.43781-23.48702-.6836-35.22605-.0781-3.87887-2.07385-6.34957-5.57764-7.17015-1.55795-.361-3.02885-.11137-4.14002.95244-1.86135 1.77429-3.54988 3.72909-3.226 6.66065.0499.42885.0205.86282.0269 1.29423.30595 14.86646.61191 29.73803.92683 44.60192.023 1.07533.0794 2.1545.22915 3.22087.69256 4.91964 3.69325 8.193 8.40422 9.29137 2.09178.48646 4.17075.41349 6.26508.0294 2.99173-.55302 5.97961-1.20206 8.9867-1.68724 11.07719-1.78198 22.21326-1.64116 33.34294-.78986 1.97784.14978 3.65996-.24323 5.43042-1.11501 3.66765-1.80886 3.85583-7.23672.75657-9.806z" fill="#f5f5f5"/>
      <path d="m523.88055 85.376928c-2.45918-15.544933-16.8507-23.451176-29.71498-23.551028-13.49285 1.048448-21.682 9.946812-23.25531 21.643596-.79114-.483899-1.54771-1.054848-2.29404-1.693646-5.67237-4.850511-12.11668-7.55676-19.28427-8.168675 2.69985-4.4319 4.54839-9.674138 4.99261-14.662906.0269-13.919135-10.64834-23.055607-26.31105-23.671362-14.53489 0-26.31872 10.59713-26.31872 23.671362 0 8.469512 7.78206 17.169451 15.37723 21.423409-2.94564 1.467059-5.80039 3.182468-8.56808 5.135986-.72969.514622-1.45682 1.035646-2.17371 1.584833-7.34041 5.627565-13.40707 12.353504-17.23986 20.870383-1.42865 3.17094-2.31324 6.44686-2.34652 9.97241-.0538 6.14859 1.74613 11.68911 5.30624 16.64843.0397.0563.0691.11393.10882.17154 4.67768 6.3611 11.65709 10.91589 19.72208 12.43416.0461.0102.0999.0179.15106.0282.15745.032.31619.0678.48645.11009 4.85308 1.24175 9.82264 1.66805 12.78876 1.77942 6.65297.15746 11.154-.57351 15.55518-1.91127 14.80244-4.50487 27.32236-12.60954 37.79148-23.88003 2.93284-3.15687 5.46498-6.59152 7.38138-10.40383 4.38453 2.08666 9.37842 3.00197 14.53873 2.38109 18.14749-2.80098 25.07697-15.1468 23.30652-29.912122zm-112.85087 23.379492c-1.98296 1.86646-3.92495 3.8123-5.84519 5.83239-.82698.89995-1.62964 1.80118-2.39005 2.7024-.18818-.64519-.33924-1.30063-.44293-1.94199-.1741-.70409-.19587-1.38129-.11394-2.03801.4711-7.03958 10.74179-17.590622 30.7135-20.8563-7.59004 4.530472-15.32602 10.22333-21.92139 16.30151zm20.19318 22.78165c-5.33441 0-9.80599-.72457-13.6311-1.93304.40325-.45573.83722-.92811 1.284-1.41329.39557-.59911.93835-1.06637 1.42353-1.56435 1.30704-1.33648 2.63328-2.65248 3.97233-3.95696.46981-.4583.95115-.92299 1.44017-1.39025.57479-.54919 1.15214-1.09197 1.73205-1.63348.26243-.24195.52487-.48902.78986-.73353 1.78454-1.645 3.59212-3.25799 5.43682-4.83003 10.90821-9.33489 23.57279-18.041233 31.25885-18.073237 7.96385 0 9.38482 6.385417 9.38482 8.820277 0 14.63474-30.11439 26.65668-43.09133 26.70789z" fill="#175773"/>
      <path d="m523.88055 76.030523c-2.45918-15.544933-16.8507-23.451176-29.71498-23.551028-13.49285 1.048448-21.682 9.946811-23.25531 21.643596-.79114-.483899-1.54771-1.054849-2.29404-1.693647-5.67237-4.85051-12.11668-7.55676-19.28427-8.168674 2.69985-4.4319 4.54839-9.674139 4.99261-14.662906.0269-13.919135-10.64834-23.055608-26.31105-23.671363-14.53489 0-26.31872 10.597131-26.31872 23.671363 0 8.469511 7.78206 17.169451 15.37723 21.423409-2.94564 1.467059-5.80039 3.182467-8.56808 5.135985-.72969.514623-1.45682 1.035647-2.17371 1.584833-7.34041 5.627566-13.40707 12.353505-17.23986 20.870382-1.42865 3.170947-2.31324 6.446867-2.34652 9.972417-.0538 6.14859 1.74613 11.6891 5.30624 16.64842.0397.0563.0691.11394.10882.17155 4.67768 6.36109 11.65709 10.91589 19.72208 12.43415.0461.0102.0999.0179.15106.0282.15745.032.31619.0679.48645.1101 4.85308 1.24175 9.82264 1.66804 12.78876 1.77941 6.65297.15746 11.154-.57351 15.55518-1.91127 14.80244-4.50487 27.32236-12.60953 37.79148-23.88003 2.93284-3.15686 5.46498-6.59152 7.38138-10.40382 4.38453 2.08665 9.37842 3.00196 14.53873 2.38109 18.14749-2.80099 25.07697-15.146809 23.30652-29.912127zm-112.85087 23.379487c-1.98296 1.86647-3.92495 3.8123-5.84519 5.83239-.82698.89995-1.62964 1.80118-2.39005 2.70241-.18818-.6452-.33924-1.30064-.44293-1.942-.1741-.70408-.19587-1.38129-.11394-2.03801.4711-7.039572 10.74179-17.590617 30.7135-20.856295-7.59004 4.530472-15.32602 10.223325-21.92139 16.301505zm20.19318 22.78165c-5.33441 0-9.80599-.72456-13.6311-1.93303.40325-.45574.83722-.92811 1.284-1.41329.39557-.59912.93835-1.06637 1.42353-1.56435 1.30704-1.33649 2.63328-2.65249 3.97233-3.95697.46981-.45829.95115-.92299 1.44017-1.39024.57479-.54919 1.15214-1.09198 1.73205-1.63348.26243-.24195.52487-.48902.78986-.73353 1.78454-1.645 3.59212-3.258 5.43682-4.83003 10.90821-9.334898 23.57279-18.041238 31.25885-18.073242 7.96385 0 9.38482 6.385417 9.38482 8.820274 0 14.634738-30.11439 26.656688-43.09133 26.707888z" fill="#f5f5f5"/>
   </g>
</svg>
