<?xml version="1.0" encoding="UTF-8"?>
<!DOCTYPE svg PUBLIC "-//W3C//DTD SVG 1.1//EN" "http://www.w3.org/Graphics/SVG/1.1/DTD/svg11.dtd">
<svg xmlns="http://www.w3.org/2000/svg" version="1.1" width="1200px" height="171px" style="shape-rendering:geometricPrecision; text-rendering:geometricPrecision; image-rendering:optimizeQuality; fill-rule:evenodd; clip-rule:evenodd" xmlns:xlink="http://www.w3.org/1999/xlink">
<g><path style="opacity:1" fill="#a69e94" d="M -0.5,-0.5 C 56.5,-0.5 113.5,-0.5 170.5,-0.5C 170.5,56.5 170.5,113.5 170.5,170.5C 113.5,170.5 56.5,170.5 -0.5,170.5C -0.5,113.5 -0.5,56.5 -0.5,-0.5 Z"/></g>
<g><path style="opacity:1" fill="#f9f9f8" d="M 170.5,-0.5 C 175.5,-0.5 180.5,-0.5 185.5,-0.5C 185.5,56.5 185.5,113.5 185.5,170.5C 180.5,170.5 175.5,170.5 170.5,170.5C 170.5,113.5 170.5,56.5 170.5,-0.5 Z"/></g>
<g><path style="opacity:1" fill="#a69e94" d="M 185.5,-0.5 C 523.5,-0.5 861.5,-0.5 1199.5,-0.5C 1199.5,56.5 1199.5,113.5 1199.5,170.5C 861.5,170.5 523.5,170.5 185.5,170.5C 185.5,113.5 185.5,56.5 185.5,-0.5 Z"/></g>
<g><path style="opacity:1" fill="#cac5bf" d="M 37.5,30.5 C 37.19,33.7131 37.5233,36.7131 38.5,39.5C 60.5,39.5 82.5,39.5 104.5,39.5C 104.5,36.8333 104.5,34.1667 104.5,31.5C 104.5,31.1667 104.5,30.8333 104.5,30.5C 105.479,33.6248 105.813,36.9581 105.5,40.5C 82.5,40.5 59.5,40.5 36.5,40.5C 36.1872,36.9581 36.5206,33.6248 37.5,30.5 Z"/></g>
<g><path style="opacity:1" fill="#fcfdfc" d="M 104.5,31.5 C 104.5,34.1667 104.5,36.8333 104.5,39.5C 82.5,39.5 60.5,39.5 38.5,39.5C 38.5,36.8333 38.5,34.1667 38.5,31.5C 60.5,31.5 82.5,31.5 104.5,31.5 Z"/></g>
<g><path style="opacity:1" fill="#f0efed" d="M 37.5,30.5 C 59.8333,30.5 82.1667,30.5 104.5,30.5C 104.5,30.8333 104.5,31.1667 104.5,31.5C 82.5,31.5 60.5,31.5 38.5,31.5C 38.5,34.1667 38.5,36.8333 38.5,39.5C 37.5233,36.7131 37.19,33.7131 37.5,30.5 Z"/></g>
<g><path style="opacity:1" fill="#fcfcfc" d="M 595.5,40.5 C 599.5,40.5 603.5,40.5 607.5,40.5C 607.168,51.8529 607.501,63.1862 608.5,74.5C 609.107,74.3764 609.44,74.0431 609.5,73.5C 614.812,66.5195 621.812,64.0195 630.5,66C 638.656,67.6567 643.656,72.49 645.5,80.5C 645.5,94.8333 645.5,109.167 645.5,123.5C 641.5,123.5 637.5,123.5 633.5,123.5C 633.829,110.323 633.495,97.3226 632.5,84.5C 630.755,79.0298 626.922,76.3631 621,76.5C 615.809,76.6716 611.809,79.0049 609,83.5C 607.537,96.7345 607.037,110.068 607.5,123.5C 603.5,123.5 599.5,123.5 595.5,123.5C 595.5,95.8333 595.5,68.1667 595.5,40.5 Z"/></g>
<g><path style="opacity:1" fill="#c7c1bb" d="M 607.5,40.5 C 608.167,51.5 608.833,62.5 609.5,73.5C 609.44,74.0431 609.107,74.3764 608.5,74.5C 607.501,63.1862 607.168,51.8529 607.5,40.5 Z"/></g>
<g><path style="opacity:1" fill="#fcfdfc" d="M 675.5,40.5 C 675.5,68.1667 675.5,95.8333 675.5,123.5C 671.5,123.5 667.5,123.5 663.5,123.5C 663.5,95.8333 663.5,68.1667 663.5,40.5C 667.5,40.5 671.5,40.5 675.5,40.5 Z"/></g>
<g><path style="opacity:1" fill="#fbfbfa" d="M 884.5,40.5 C 884.5,68.1667 884.5,95.8333 884.5,123.5C 880.5,123.5 876.5,123.5 872.5,123.5C 872.813,120.753 872.48,118.086 871.5,115.5C 870.893,115.624 870.56,115.957 870.5,116.5C 861.756,126.292 851.423,128.125 839.5,122C 830.969,114.937 826.969,105.77 827.5,94.5C 828.669,74.1577 839.336,64.6577 859.5,66C 863.893,67.5226 867.56,70.0226 870.5,73.5C 870.56,74.0431 870.893,74.3764 871.5,74.5C 872.499,63.1862 872.832,51.8529 872.5,40.5C 876.5,40.5 880.5,40.5 884.5,40.5 Z"/></g>
<g><path style="opacity:1" fill="#f9f9f8" d="M 1053.5,40.5 C 1057.83,40.5 1062.17,40.5 1066.5,40.5C 1066.5,68.5 1066.5,96.5 1066.5,124.5C 1061.83,124.5 1057.17,124.5 1052.5,124.5C 1052.66,121.482 1052.5,118.482 1052,115.5C 1048.52,120.626 1043.69,123.792 1037.5,125C 1022.44,126.643 1013.11,120.143 1009.5,105.5C 1008.73,100.203 1008.39,94.8699 1008.5,89.5C 1012.74,70.3834 1024.41,62.8834 1043.5,67C 1047.28,68.3768 1049.95,70.8768 1051.5,74.5C 1051.56,75.0431 1051.89,75.3764 1052.5,75.5C 1053.5,63.8523 1053.83,52.1857 1053.5,40.5 Z"/></g>
<g><path style="opacity:1" fill="#efeeec" d="M 595.5,40.5 C 595.5,68.1667 595.5,95.8333 595.5,123.5C 599.5,123.5 603.5,123.5 607.5,123.5C 603.366,124.485 599.032,124.818 594.5,124.5C 594.169,96.3284 594.502,68.3284 595.5,40.5 Z"/></g>
<g><path style="opacity:1" fill="#e8e7e4" d="M 675.5,40.5 C 675.833,40.5 676.167,40.5 676.5,40.5C 676.5,68.5 676.5,96.5 676.5,124.5C 672.167,124.5 667.833,124.5 663.5,124.5C 663.5,124.167 663.5,123.833 663.5,123.5C 667.5,123.5 671.5,123.5 675.5,123.5C 675.5,95.8333 675.5,68.1667 675.5,40.5 Z"/></g>
<g><path style="opacity:1" fill="#d4d0cc" d="M 885.5,40.5 C 885.167,40.5 884.833,40.5 884.5,40.5C 880.5,40.5 876.5,40.5 872.5,40.5C 872.832,51.8529 872.499,63.1862 871.5,74.5C 870.893,74.3764 870.56,74.0431 870.5,73.5C 871.495,62.3456 871.828,51.0123 871.5,39.5C 876.363,39.1805 881.03,39.5139 885.5,40.5 Z"/></g>
<g><path style="opacity:1" fill="#e7e6e3" d="M 884.5,40.5 C 884.833,40.5 885.167,40.5 885.5,40.5C 885.5,68.5 885.5,96.5 885.5,124.5C 880.833,124.5 876.167,124.5 871.5,124.5C 871.806,121.615 871.473,118.948 870.5,116.5C 870.56,115.957 870.893,115.624 871.5,115.5C 872.48,118.086 872.813,120.753 872.5,123.5C 876.5,123.5 880.5,123.5 884.5,123.5C 884.5,95.8333 884.5,68.1667 884.5,40.5 Z"/></g>
<g><path style="opacity:1" fill="#e9e8e5" d="M 1053.5,40.5 C 1053.83,52.1857 1053.5,63.8523 1052.5,75.5C 1051.89,75.3764 1051.56,75.0431 1051.5,74.5C 1052.17,63.1667 1052.83,51.8333 1053.5,40.5 Z"/></g>
<g><path style="opacity:1" fill="#f9f8f8" d="M 1085.5,42.5 C 1089.26,42.0708 1092.76,42.7375 1096,44.5C 1099.21,53.5799 1096.05,57.7466 1086.5,57C 1080.19,52.6149 1079.86,47.7816 1085.5,42.5 Z"/></g>
<g><path style="opacity:1" fill="#fbfbfb" d="M 223.5,45.5 C 233.506,45.3335 243.506,45.5002 253.5,46C 271.291,47.2879 282.457,56.4546 287,73.5C 290.095,89.0168 286.595,102.683 276.5,114.5C 270.17,119.835 262.837,122.835 254.5,123.5C 244.167,123.5 233.833,123.5 223.5,123.5C 223.5,97.5 223.5,71.5 223.5,45.5 Z"/></g>
<g><path style="opacity:1" fill="#f8f8f7" d="M 37.5,49.5 C 68.5,49.5 99.5,49.5 130.5,49.5C 130.5,54.5 130.5,59.5 130.5,64.5C 99.5,64.5 68.5,64.5 37.5,64.5C 37.5,59.5 37.5,54.5 37.5,49.5 Z"/></g>
<g><path style="opacity:1" fill="#fcfcfb" d="M 436.5,54.5 C 440.833,54.5 445.167,54.5 449.5,54.5C 449.5,58.5 449.5,62.5 449.5,66.5C 453.298,67.4834 457.298,67.8168 461.5,67.5C 461.5,70.5 461.5,73.5 461.5,76.5C 457.5,76.5 453.5,76.5 449.5,76.5C 449.172,87.6794 449.505,98.6794 450.5,109.5C 450.751,111.17 451.418,112.67 452.5,114C 455.868,114.543 459.201,114.376 462.5,113.5C 462.5,117.167 462.5,120.833 462.5,124.5C 454.246,126.893 446.746,125.56 440,120.5C 438.546,117.929 437.38,115.262 436.5,112.5C 436.5,100.5 436.5,88.5 436.5,76.5C 433.833,76.5 431.167,76.5 428.5,76.5C 428.5,73.5 428.5,70.5 428.5,67.5C 431.167,67.5 433.833,67.5 436.5,67.5C 436.5,63.1667 436.5,58.8333 436.5,54.5 Z"/></g>
<g><path style="opacity:1" fill="#a7a096" d="M 237.5,57.5 C 267.696,56.1632 278.529,70.1632 270,99.5C 266.824,106.669 261.324,110.836 253.5,112C 248.177,112.499 242.844,112.666 237.5,112.5C 237.5,94.1667 237.5,75.8333 237.5,57.5 Z"/></g>
<g><path style="opacity:1" fill="#fafaf9" d="M 353.5,88.5 C 353.5,91.8333 353.5,95.1667 353.5,98.5C 339.5,98.5 325.5,98.5 311.5,98.5C 311.216,100.415 311.549,102.081 312.5,103.5C 317.248,115.754 325.581,118.754 337.5,112.5C 338.752,110.999 339.752,109.332 340.5,107.5C 344.783,106.508 349.116,106.174 353.5,106.5C 351.544,117.619 344.877,123.786 333.5,125C 310.746,127.406 299.079,117.24 298.5,94.5C 300.012,73.548 311.346,64.048 332.5,66C 344.89,68.5543 351.89,76.0543 353.5,88.5 Z"/></g>
<g><path style="opacity:1" fill="#d6d2ce" d="M 436.5,54.5 C 436.5,58.8333 436.5,63.1667 436.5,67.5C 433.833,67.5 431.167,67.5 428.5,67.5C 430.607,66.5318 432.941,66.1984 435.5,66.5C 435.183,62.2984 435.517,58.2984 436.5,54.5 Z"/></g>
<g><path style="opacity:1" fill="#e0deda" d="M 498.5,66.5 C 493.13,66.3921 487.797,66.7255 482.5,67.5C 485.356,65.9942 488.523,65.3275 492,65.5C 494.361,65.5039 496.527,65.8373 498.5,66.5 Z"/></g>
<g><path style="opacity:1" fill="#fafafa" d="M 498.5,66.5 C 506.431,67.1048 511.765,71.1048 514.5,78.5C 514.5,79.8333 514.5,81.1667 514.5,82.5C 510.833,82.5 507.167,82.5 503.5,82.5C 500.25,75.8869 494.917,73.7203 487.5,76C 481.94,80.5224 482.273,84.5224 488.5,88C 495.314,89.0369 501.981,90.7036 508.5,93C 516.305,96.7808 519.138,102.947 517,111.5C 512.874,121.739 505.207,126.406 494,125.5C 480.231,126.212 472.398,119.879 470.5,106.5C 474.833,106.5 479.167,106.5 483.5,106.5C 483.643,112.974 486.977,115.974 493.5,115.5C 496.259,115.458 498.925,114.958 501.5,114C 505.5,110.333 505.5,106.667 501.5,103C 494.861,101.242 488.195,99.5749 481.5,98C 472.823,93.8097 469.657,86.9764 472,77.5C 474.053,72.6127 477.553,69.2794 482.5,67.5C 487.797,66.7255 493.13,66.3921 498.5,66.5 Z"/></g>
<g><path style="opacity:1" fill="#fafafa" d="M 580.5,82.5 C 580.5,83.8333 580.5,85.1667 580.5,86.5C 576.5,86.5 572.5,86.5 568.5,86.5C 567.868,81.6951 565.201,78.5284 560.5,77C 547.157,75.3304 540.157,81.3304 539.5,95C 540.344,112.751 549.01,118.418 565.5,112C 567.782,109.603 569.116,106.769 569.5,103.5C 573.971,102.911 577.971,103.577 581.5,105.5C 579.33,116.503 572.663,123.003 561.5,125C 534.775,126.133 523.275,113.299 527,86.5C 535.617,66.4508 550.117,60.6175 570.5,69C 575.98,71.9709 579.314,76.4709 580.5,82.5 Z"/></g>
<g><path style="opacity:1" fill="#fafafa" d="M 731.5,73.5 C 731.56,74.0431 731.893,74.3764 732.5,74.5C 733.474,72.2573 733.808,69.924 733.5,67.5C 737.5,67.5 741.5,67.5 745.5,67.5C 745.5,86.1667 745.5,104.833 745.5,123.5C 741.5,123.5 737.5,123.5 733.5,123.5C 733.813,120.753 733.48,118.086 732.5,115.5C 731.893,115.624 731.56,115.957 731.5,116.5C 723.871,125.535 714.538,127.701 703.5,123C 693.792,116.076 689.125,106.576 689.5,94.5C 690.526,74.6335 700.86,65.1335 720.5,66C 725.241,67.0289 728.908,69.5289 731.5,73.5 Z"/></g>
<g><path style="opacity:1" fill="#fafaf9" d="M 788.5,65.5 C 794.402,64.962 800.068,65.7953 805.5,68C 811.291,71.0739 814.457,75.9072 815,82.5C 815.5,96.496 815.667,110.496 815.5,124.5C 810.833,124.5 806.167,124.5 801.5,124.5C 801.667,110.496 801.5,96.496 801,82.5C 795.525,76.0831 789.025,74.9164 781.5,79C 779.877,81.0795 778.377,83.2462 777,85.5C 776.5,98.4957 776.333,111.496 776.5,124.5C 772.167,124.5 767.833,124.5 763.5,124.5C 763.5,105.167 763.5,85.8333 763.5,66.5C 767.833,66.5 772.167,66.5 776.5,66.5C 776.335,69.5184 776.502,72.5184 777,75.5C 779.794,70.8659 783.627,67.5326 788.5,65.5 Z"/></g>
<g><path style="opacity:1" fill="#fbfbfb" d="M 930.5,66.5 C 931.5,66.5 932.5,66.5 933.5,66.5C 933.5,70.1667 933.5,73.8333 933.5,77.5C 932.209,77.2627 931.209,77.596 930.5,78.5C 923.379,78.4798 918.546,81.8131 916,88.5C 915.5,100.495 915.333,112.495 915.5,124.5C 911.167,124.5 906.833,124.5 902.5,124.5C 902.5,105.167 902.5,85.8333 902.5,66.5C 906.833,66.5 911.167,66.5 915.5,66.5C 915.335,69.8499 915.502,73.1832 916,76.5C 919.098,70.5573 923.931,67.224 930.5,66.5 Z"/></g>
<g><path style="opacity:1" fill="#e4e2df" d="M 930.5,66.5 C 931.568,65.5655 932.901,65.2322 934.5,65.5C 934.5,69.8333 934.5,74.1667 934.5,78.5C 933.167,78.5 931.833,78.5 930.5,78.5C 931.209,77.596 932.209,77.2627 933.5,77.5C 933.5,73.8333 933.5,70.1667 933.5,66.5C 932.5,66.5 931.5,66.5 930.5,66.5 Z"/></g>
<g><path style="opacity:1" fill="#fbfafa" d="M 980.5,73.5 C 980.56,74.0431 980.893,74.3764 981.5,74.5C 982.474,72.2573 982.808,69.924 982.5,67.5C 986.5,67.5 990.5,67.5 994.5,67.5C 994.5,86.1667 994.5,104.833 994.5,123.5C 990.5,123.5 986.5,123.5 982.5,123.5C 982.813,120.753 982.48,118.086 981.5,115.5C 980.893,115.624 980.56,115.957 980.5,116.5C 972.089,126.229 962.089,128.062 950.5,122C 940.614,112.661 936.781,101.161 939,87.5C 944.389,69.0582 956.223,62.5582 974.5,68C 976.996,69.331 978.996,71.1644 980.5,73.5 Z"/></g>
<g><path style="opacity:1" fill="#fafafa" d="M 1167.5,84.5 C 1168.25,89.4635 1168.59,94.4635 1168.5,99.5C 1166.19,116.183 1156.52,124.85 1139.5,125.5C 1124.63,125.125 1115.13,117.792 1111,103.5C 1107.36,81.1527 1116.69,68.4861 1139,65.5C 1153,65.3638 1162.5,71.6971 1167.5,84.5 Z"/></g>
<g><path style="opacity:1" fill="#fbfbfb" d="M 366.5,66.5 C 370.833,66.5 375.167,66.5 379.5,66.5C 379.333,79.8375 379.5,93.1708 380,106.5C 381.384,112.061 384.884,114.728 390.5,114.5C 397.644,114.683 402.144,111.349 404,104.5C 404.5,91.8377 404.667,79.1711 404.5,66.5C 408.833,66.5 413.167,66.5 417.5,66.5C 417.5,85.8333 417.5,105.167 417.5,124.5C 413.167,124.5 408.833,124.5 404.5,124.5C 404.664,121.813 404.497,119.146 404,116.5C 395.27,126.101 385.104,127.935 373.5,122C 369.634,118.748 367.467,114.581 367,109.5C 366.5,95.1705 366.333,80.8372 366.5,66.5 Z"/></g>
<g><path style="opacity:1" fill="#e1dfdb" d="M 449.5,66.5 C 453.833,66.5 458.167,66.5 462.5,66.5C 462.5,69.8333 462.5,73.1667 462.5,76.5C 462.167,76.5 461.833,76.5 461.5,76.5C 461.5,73.5 461.5,70.5 461.5,67.5C 457.298,67.8168 453.298,67.4834 449.5,66.5 Z"/></g>
<g><path style="opacity:1" fill="#e4e2df" d="M 731.5,116.5 C 731.56,115.957 731.893,115.624 732.5,115.5C 733.48,118.086 733.813,120.753 733.5,123.5C 737.5,123.5 741.5,123.5 745.5,123.5C 745.5,104.833 745.5,86.1667 745.5,67.5C 741.5,67.5 737.5,67.5 733.5,67.5C 733.808,69.924 733.474,72.2573 732.5,74.5C 731.893,74.3764 731.56,74.0431 731.5,73.5C 732.468,71.3926 732.802,69.0593 732.5,66.5C 737.167,66.5 741.833,66.5 746.5,66.5C 746.5,85.8333 746.5,105.167 746.5,124.5C 741.833,124.5 737.167,124.5 732.5,124.5C 732.806,121.615 732.473,118.948 731.5,116.5 Z"/></g>
<g><path style="opacity:1" fill="#fcfcfb" d="M 1083.5,66.5 C 1087.83,66.5 1092.17,66.5 1096.5,66.5C 1096.5,85.8333 1096.5,105.167 1096.5,124.5C 1092.17,124.5 1087.83,124.5 1083.5,124.5C 1083.5,105.167 1083.5,85.8333 1083.5,66.5 Z"/></g>
<g><path style="opacity:1" fill="#dddad6" d="M 980.5,116.5 C 980.56,115.957 980.893,115.624 981.5,115.5C 982.48,118.086 982.813,120.753 982.5,123.5C 986.5,123.5 990.5,123.5 994.5,123.5C 994.5,104.833 994.5,86.1667 994.5,67.5C 990.5,67.5 986.5,67.5 982.5,67.5C 982.808,69.924 982.474,72.2573 981.5,74.5C 980.893,74.3764 980.56,74.0431 980.5,73.5C 981.468,71.3926 981.802,69.0593 981.5,66.5C 986.167,66.5 990.833,66.5 995.5,66.5C 995.5,85.8333 995.5,105.167 995.5,124.5C 990.833,124.5 986.167,124.5 981.5,124.5C 981.806,121.615 981.473,118.948 980.5,116.5 Z"/></g>
<g><path style="opacity:1" fill="#a8a097" d="M 321.5,75.5 C 332.872,73.6612 339.206,78.3278 340.5,89.5C 331.167,89.5 321.833,89.5 312.5,89.5C 312.997,83.1625 315.997,78.4958 321.5,75.5 Z"/></g>
<g><path style="opacity:1" fill="#a79f95" d="M 712.5,76.5 C 722.5,74.5795 729.334,78.2462 733,87.5C 735.347,97.0264 733.18,105.193 726.5,112C 714.62,117.809 707.12,114.309 704,101.5C 701.599,91.1979 704.433,82.8645 712.5,76.5 Z"/></g>
<g><path style="opacity:1" fill="#a79f95" d="M 850.5,76.5 C 867.908,75.0818 875.075,83.0818 872,100.5C 868.614,112.944 860.781,117.11 848.5,113C 845.457,110.407 843.29,107.24 842,103.5C 841.182,97.0983 841.516,90.765 843,84.5C 845.028,81.3078 847.528,78.6411 850.5,76.5 Z"/></g>
<g><path style="opacity:1" fill="#a79f95" d="M 961.5,76.5 C 977.845,75.3549 984.678,83.0216 982,99.5C 979.481,112.342 971.981,116.842 959.5,113C 956.469,110.441 954.302,107.274 953,103.5C 950.036,92.3957 952.87,83.3957 961.5,76.5 Z"/></g>
<g><path style="opacity:1" fill="#a79f95" d="M 1031.5,76.5 C 1040.82,74.2511 1047.66,77.2511 1052,85.5C 1052.88,92.5817 1052.55,99.5817 1051,106.5C 1045.62,114.29 1038.46,116.457 1029.5,113C 1026.57,110.736 1024.4,107.902 1023,104.5C 1022.33,98.5 1022.33,92.5 1023,86.5C 1024.98,82.3619 1027.81,79.0286 1031.5,76.5 Z"/></g>
<g><path style="opacity:1" fill="#a79f95" d="M 1133.5,76.5 C 1142.82,74.2511 1149.66,77.2511 1154,85.5C 1156.17,92.9411 1155.84,100.274 1153,107.5C 1147.77,114.096 1140.94,116.263 1132.5,114C 1122.76,104.993 1120.92,94.4929 1127,82.5C 1129.06,80.2659 1131.23,78.2659 1133.5,76.5 Z"/></g>
<g><path style="opacity:1" fill="#c6c0ba" d="M 428.5,76.5 C 431.167,76.5 433.833,76.5 436.5,76.5C 436.5,88.5 436.5,100.5 436.5,112.5C 435.505,101.012 435.172,89.3453 435.5,77.5C 432.941,77.8016 430.607,77.4682 428.5,76.5 Z"/></g>
<g><path style="opacity:1" fill="#b4ada5" d="M 461.5,76.5 C 461.833,76.5 462.167,76.5 462.5,76.5C 458.702,77.4834 454.702,77.8168 450.5,77.5C 450.5,88.1667 450.5,98.8333 450.5,109.5C 449.505,98.6794 449.172,87.6794 449.5,76.5C 453.5,76.5 457.5,76.5 461.5,76.5 Z"/></g>
<g><path style="opacity:1" fill="#d3cfca" d="M 514.5,78.5 C 515.451,79.9187 515.784,81.5853 515.5,83.5C 511.298,83.8168 507.298,83.4834 503.5,82.5C 507.167,82.5 510.833,82.5 514.5,82.5C 514.5,81.1667 514.5,79.8333 514.5,78.5 Z"/></g>
<g><path style="opacity:1" fill="#e0ddd9" d="M 580.5,82.5 C 581.451,83.9187 581.784,85.5853 581.5,87.5C 576.968,87.8182 572.634,87.4849 568.5,86.5C 572.5,86.5 576.5,86.5 580.5,86.5C 580.5,85.1667 580.5,83.8333 580.5,82.5 Z"/></g>
<g><path style="opacity:1" fill="#dedbd7" d="M 645.5,80.5 C 646.496,94.9905 646.829,109.657 646.5,124.5C 641.833,124.5 637.167,124.5 632.5,124.5C 632.5,111.167 632.5,97.8333 632.5,84.5C 633.495,97.3226 633.829,110.323 633.5,123.5C 637.5,123.5 641.5,123.5 645.5,123.5C 645.5,109.167 645.5,94.8333 645.5,80.5 Z"/></g>
<g><path style="opacity:1" fill="#d7d3cf" d="M 676.5,40.5 C 676.167,40.5 675.833,40.5 675.5,40.5C 671.5,40.5 667.5,40.5 663.5,40.5C 663.5,68.1667 663.5,95.8333 663.5,123.5C 663.5,123.833 663.5,124.167 663.5,124.5C 662.502,96.3382 662.169,68.0049 662.5,39.5C 667.363,39.1805 672.03,39.5139 676.5,40.5 Z"/></g>
<g><path style="opacity:1" fill="#d8d5d1" d="M 1167.5,84.5 C 1168.99,87.1864 1169.66,90.1864 1169.5,93.5C 1169.5,95.6965 1169.16,97.6965 1168.5,99.5C 1168.59,94.4635 1168.25,89.4635 1167.5,84.5 Z"/></g>
<g><path style="opacity:1" fill="#bab4ad" d="M 1008.5,89.5 C 1008.39,94.8699 1008.73,100.203 1009.5,105.5C 1007.99,102.644 1007.33,99.4774 1007.5,96C 1007.5,93.6392 1007.84,91.4726 1008.5,89.5 Z"/></g>
<g><path style="opacity:1" fill="#e8e7e4" d="M 38.5,75.5 C 38.5,82.5 38.5,89.5 38.5,96.5C 72.1667,96.5 105.833,96.5 139.5,96.5C 139.5,89.5 139.5,82.5 139.5,75.5C 140.492,82.6476 140.825,89.9809 140.5,97.5C 106.167,97.5 71.8333,97.5 37.5,97.5C 37.175,89.9809 37.5084,82.6476 38.5,75.5 Z"/></g>
<g><path style="opacity:1" fill="#fcfdfc" d="M 38.5,75.5 C 72.1667,75.5 105.833,75.5 139.5,75.5C 139.5,82.5 139.5,89.5 139.5,96.5C 105.833,96.5 72.1667,96.5 38.5,96.5C 38.5,89.5 38.5,82.5 38.5,75.5 Z"/></g>
<g><path style="opacity:1" fill="#b1aaa1" d="M 353.5,88.5 C 354.482,91.9619 354.815,95.6286 354.5,99.5C 340.5,99.5 326.5,99.5 312.5,99.5C 312.5,100.833 312.5,102.167 312.5,103.5C 311.549,102.081 311.216,100.415 311.5,98.5C 325.5,98.5 339.5,98.5 353.5,98.5C 353.5,95.1667 353.5,91.8333 353.5,88.5 Z"/></g>
<g><path style="opacity:1" fill="#d6d3ce" d="M 569.5,103.5 C 573.634,102.515 577.968,102.182 582.5,102.5C 582.737,103.791 582.404,104.791 581.5,105.5C 577.971,103.577 573.971,102.911 569.5,103.5 Z"/></g>
<g><path style="opacity:1" fill="#b4aea5" d="M 37.5,108.5 C 66.3285,107.502 95.3285,107.169 124.5,107.5C 124.819,112.363 124.486,117.03 123.5,121.5C 123.5,121.167 123.5,120.833 123.5,120.5C 123.5,116.5 123.5,112.5 123.5,108.5C 95.1667,108.5 66.8333,108.5 38.5,108.5C 38.1667,108.5 37.8333,108.5 37.5,108.5 Z"/></g>
<g><path style="opacity:1" fill="#fcfcfb" d="M 38.5,108.5 C 66.8333,108.5 95.1667,108.5 123.5,108.5C 123.5,112.5 123.5,116.5 123.5,120.5C 95.1667,120.5 66.8333,120.5 38.5,120.5C 38.5,116.5 38.5,112.5 38.5,108.5 Z"/></g>
<g><path style="opacity:1" fill="#f0eeec" d="M 37.5,108.5 C 37.8333,108.5 38.1667,108.5 38.5,108.5C 38.5,112.5 38.5,116.5 38.5,120.5C 66.8333,120.5 95.1667,120.5 123.5,120.5C 123.5,120.833 123.5,121.167 123.5,121.5C 94.8333,121.5 66.1667,121.5 37.5,121.5C 37.5,117.167 37.5,112.833 37.5,108.5 Z"/></g>
<g><path style="opacity:1" fill="#d8d5d1" d="M 223.5,45.5 C 223.5,71.5 223.5,97.5 223.5,123.5C 233.833,123.5 244.167,123.5 254.5,123.5C 244.013,124.494 233.346,124.828 222.5,124.5C 222.169,97.9947 222.502,71.6614 223.5,45.5 Z"/></g>
<g><path style="opacity:1" fill="#fcfcfc" d="M 104.5,132.5 C 104.5,134.833 104.5,137.167 104.5,139.5C 103.5,139.5 102.5,139.5 101.5,139.5C 80.6733,138.503 59.6733,138.169 38.5,138.5C 38.5,136.5 38.5,134.5 38.5,132.5C 60.5,132.5 82.5,132.5 104.5,132.5 Z"/></g>
<g><path style="opacity:1" fill="#f0efed" d="M 104.5,131.5 C 104.5,131.833 104.5,132.167 104.5,132.5C 82.5,132.5 60.5,132.5 38.5,132.5C 38.5,134.5 38.5,136.5 38.5,138.5C 59.6733,138.169 80.6733,138.503 101.5,139.5C 80.1667,139.5 58.8333,139.5 37.5,139.5C 37.5,136.833 37.5,134.167 37.5,131.5C 59.8333,131.5 82.1667,131.5 104.5,131.5 Z"/></g>
<g><path style="opacity:1" fill="#bbb4ad" d="M 104.5,131.5 C 105.477,134.287 105.81,137.287 105.5,140.5C 82.6605,140.831 59.9939,140.497 37.5,139.5C 58.8333,139.5 80.1667,139.5 101.5,139.5C 102.5,139.5 103.5,139.5 104.5,139.5C 104.5,137.167 104.5,134.833 104.5,132.5C 104.5,132.167 104.5,131.833 104.5,131.5 Z"/></g>
</svg>
