<?xml version="1.0" encoding="UTF-8" standalone="no"?>
<svg
   id="svg10418"
   version="1.1"
   viewBox="0 0 264.58334 23.482164"
   height="23.482164mm"
   width="264.58334mm"
   sodipodi:docname="Eurosport 1 HD.svg"
   inkscape:version="1.1.1 (3bf5ae0d25, 2021-09-20)"
   xmlns:inkscape="http://www.inkscape.org/namespaces/inkscape"
   xmlns:sodipodi="http://sodipodi.sourceforge.net/DTD/sodipodi-0.dtd"
   xmlns="http://www.w3.org/2000/svg"
   xmlns:svg="http://www.w3.org/2000/svg"
   xmlns:rdf="http://www.w3.org/1999/02/22-rdf-syntax-ns#"
   xmlns:cc="http://creativecommons.org/ns#"
   xmlns:dc="http://purl.org/dc/elements/1.1/">
  <sodipodi:namedview
     id="namedview37"
     pagecolor="#ffffff"
     bordercolor="#ffffff"
     borderopacity="1.0"
     inkscape:pageshadow="2"
     inkscape:pageopacity="0.0"
     inkscape:pagecheckerboard="0"
     inkscape:document-units="mm"
     showgrid="false"
     inkscape:zoom="1.129"
     inkscape:cx="499.55715"
     inkscape:cy="44.729851"
     inkscape:window-width="1920"
     inkscape:window-height="1017"
     inkscape:window-x="-8"
     inkscape:window-y="-8"
     inkscape:window-maximized="1"
     inkscape:current-layer="svg10418" />
  <defs
     id="defs10412" />
  <metadata
     id="metadata10415">
    <rdf:RDF>
      <cc:Work
         rdf:about="">
        <dc:format>image/svg+xml</dc:format>
        <dc:type
           rdf:resource="http://purl.org/dc/dcmitype/StillImage" />
        <dc:title />
      </cc:Work>
    </rdf:RDF>
  </metadata>
  <g
     transform="translate(-68.840755,-208.59521)"
     id="layer1">
    <g
       id="g10371"
       transform="matrix(0.89556903,0,0,-0.89556903,-163.99555,541.41184)">
      <g
         id="g9638"
         transform="translate(282.446,345.8654)">
        <path
           d="m 0,0 -8.488,5.578 -13.12,-5.561 7.726,9.068 -8.577,5.628 H -9.083 L 0,25.359 V 14.713 H 12.964 L 0,9.19 Z"
           style="fill:#ffffff;fill-opacity:1;fill-rule:nonzero;stroke:none"
           id="path9640" />
      </g>
      <g
         id="g9650"
         transform="translate(298.5474,366.0295)">
        <path
           d="m 0,0 c 0.454,0 0.823,0.369 0.823,0.824 l 0.001,3.565 c 0,0.454 -0.369,0.823 -0.823,0.823 h -13.9 v -5.213 z"
           style="fill:#ffffff;fill-opacity:1;fill-rule:nonzero;stroke:none"
           id="path9652" />
      </g>
      <g
         id="g9654"
         transform="translate(298.5474,345.817)">
        <path
           d="m 0,0 c 0.454,0 0.823,0.369 0.823,0.823 l 0.001,3.565 c 0,0.455 -0.369,0.824 -0.823,0.824 h -13.9 v -5.213 z"
           style="fill:#ffffff;fill-opacity:1;fill-rule:nonzero;stroke:none"
           id="path9656" />
      </g>
      <g
         id="g9658"
         transform="translate(485.097,371.2249)">
        <path
           d="m 0,0 h -17.366 c -0.455,0 -0.826,-0.371 -0.826,-0.826 v -3.571 c 0,-0.455 0.371,-0.826 0.826,-0.826 h 6.072 v -19.412 c 0,-0.456 0.37,-0.826 0.826,-0.826 h 3.571 c 0.455,0 0.826,0.37 0.826,0.826 V -5.223 H 0 c 0.455,0 0.825,0.371 0.825,0.826 v 3.571 C 0.825,-0.371 0.455,0 0,0"
           style="fill:#ffffff;fill-opacity:1;fill-rule:nonzero;stroke:none"
           id="path9660" />
      </g>
      <g
         id="g9662"
         transform="translate(410.9519,360.3661)">
        <path
           d="m 0,0 c -0.188,-0.498 -0.453,-0.933 -0.786,-1.294 -0.33,-0.358 -0.706,-0.583 -1.157,-0.785 -0.444,-0.2 -1.237,-0.32 -2.783,-0.32 h -4.011 v 8.06 h 5.262 c 0.562,0 1.079,-0.102 1.536,-0.304 C -1.476,5.153 -1.074,4.874 -0.745,4.526 -0.418,4.181 -0.164,3.758 0.012,3.269 0.194,2.761 0.287,2.209 0.287,1.628 0.287,1.053 0.19,0.505 0,0 M 4.923,5.178 C 4.512,6.299 3.897,7.292 3.097,8.132 2.299,8.966 1.317,9.641 0.178,10.136 c -1.141,0.496 -2.441,0.748 -3.862,0.748 h -9.447 c -0.456,0 -0.826,-0.371 -0.826,-0.826 v -23.783 c 0,-0.456 0.37,-0.827 0.826,-0.827 h 3.569 c 0.456,0 0.826,0.371 0.826,0.827 l -10e-4,6.093 h 5.053 c 1.419,0 2.712,0.245 3.842,0.73 1.129,0.484 2.106,1.153 2.906,1.989 0.796,0.834 1.414,1.811 1.837,2.906 0.42,1.086 0.633,2.465 0.633,3.673 0,1.223 -0.206,2.405 -0.611,3.512"
           style="fill:#ffffff;fill-opacity:1;fill-rule:nonzero;stroke:none"
           id="path9664" />
      </g>
      <g
         id="g9666"
         transform="translate(380.3564,363.9478)">
        <path
           d="m 0,0 c -0.023,-0.526 0.114,-0.846 0.313,-1.129 0.225,-0.321 0.544,-0.59 0.947,-0.8 0.448,-0.233 0.976,-0.417 1.57,-0.546 0.651,-0.142 1.318,-0.274 1.982,-0.392 1.206,-0.19 2.396,-0.43 3.537,-0.712 1.191,-0.296 2.248,-0.738 3.144,-1.317 0.929,-0.603 1.669,-1.403 2.199,-2.381 0.535,-0.987 0.773,-2.244 0.708,-3.735 -0.063,-1.449 -0.435,-2.686 -1.104,-3.68 -0.656,-0.972 -1.502,-1.765 -2.516,-2.359 -0.994,-0.582 -1.975,-1.011 -3.19,-1.237 -1.191,-0.222 -2.525,-0.289 -3.69,-0.238 -2.891,0.126 -7.16,1.787 -9.302,4.717 -0.17,0.235 -0.379,0.635 0.081,1.104 0.46,0.467 2.66,2.706 2.66,2.706 0.445,0.469 0.876,0.137 1.059,-0.132 1.253,-1.832 3.749,-3.199 5.71,-3.285 1.031,-0.045 1.154,-0.004 1.798,0.081 0.585,0.076 1.103,0.228 1.587,0.449 0.446,0.203 0.819,0.473 1.112,0.847 0.272,0.348 0.43,0.841 0.469,1.411 0.037,0.55 -0.116,0.991 -0.369,1.345 -0.276,0.388 -0.657,0.685 -1.114,0.922 -0.515,0.267 -1.104,0.438 -1.756,0.56 -0.699,0.131 -1.395,0.247 -2.069,0.344 -1.114,0.142 -2.223,0.369 -3.292,0.675 -1.105,0.315 -2.094,0.761 -2.938,1.325 -0.877,0.585 -1.585,1.345 -2.104,2.256 -0.531,0.933 -0.774,1.992 -0.716,3.329 0.059,1.346 0.394,2.529 0.995,3.518 0.594,0.978 1.374,1.783 2.319,2.396 0.923,0.599 1.987,1.039 3.161,1.305 2.282,0.518 4.565,0.432 6.828,-0.285 2.439,-0.772 4.397,-2.644 5.3,-3.97 C 13.485,2.848 13.649,2.464 13.297,2.066 12.943,1.669 10.79,-0.438 10.79,-0.438 10.325,-0.882 9.85,-0.779 9.587,-0.391 8.266,1.551 6.565,2.421 4.592,2.552 2.475,2.692 0.097,2.218 0,0"
           style="fill:#ffffff;fill-opacity:1;fill-rule:nonzero;stroke:none"
           id="path9668" />
      </g>
      <g
         id="g9670"
         transform="translate(367.3704,354.9915)">
        <path
           d="m 0,0 c -0.4,-0.981 -0.951,-1.811 -1.639,-2.468 -0.688,-0.659 -1.497,-1.162 -2.404,-1.496 -0.921,-0.34 -1.918,-0.512 -2.965,-0.512 -1.069,0 -2.079,0.172 -3,0.512 -0.903,0.333 -1.697,0.833 -2.359,1.486 -0.668,0.659 -1.211,1.493 -1.612,2.478 -0.405,0.992 -0.61,2.166 -0.61,3.49 0,1.324 0.205,2.499 0.61,3.49 0.4,0.984 0.947,1.816 1.625,2.474 0.676,0.657 1.48,1.165 2.39,1.511 0.919,0.35 1.926,0.527 2.992,0.527 1.043,0 2.037,-0.177 2.956,-0.527 C -3.109,10.62 -2.307,10.108 -1.63,9.441 -0.951,8.77 -0.402,7.93 0,6.945 0.405,5.952 0.61,4.79 0.61,3.49 0.61,2.167 0.405,0.992 0,0 m 2.083,13.182 c -1.176,1.121 -2.562,1.985 -4.119,2.568 -1.547,0.579 -3.205,0.873 -4.927,0.873 -1.7,0 -3.351,-0.294 -4.907,-0.872 -1.57,-0.582 -2.967,-1.446 -4.153,-2.566 -1.187,-1.122 -2.144,-2.514 -2.842,-4.138 -0.699,-1.623 -1.053,-3.481 -1.053,-5.523 0,-2.064 0.348,-3.927 1.035,-5.538 0.686,-1.613 1.63,-2.999 2.806,-4.12 1.174,-1.12 2.56,-1.984 4.12,-2.568 1.546,-0.579 3.204,-0.872 4.926,-0.872 1.886,0 3.646,0.318 5.23,0.946 1.595,0.631 2.982,1.54 4.124,2.7 1.136,1.155 2.037,2.552 2.676,4.154 0.637,1.596 0.96,3.378 0.96,5.298 0,2.041 -0.354,3.899 -1.053,5.524 -0.699,1.623 -1.649,3.014 -2.823,4.134"
           style="fill:#ffffff;fill-opacity:1;fill-rule:nonzero;stroke:none"
           id="path9672" />
      </g>
      <g
         id="g9674"
         transform="translate(438.1956,354.9915)">
        <path
           d="m 0,0 c -0.4,-0.981 -0.951,-1.811 -1.639,-2.468 -0.688,-0.659 -1.497,-1.162 -2.404,-1.496 -0.921,-0.34 -1.918,-0.512 -2.965,-0.512 -1.069,0 -2.079,0.172 -3,0.512 -0.903,0.333 -1.697,0.833 -2.359,1.486 -0.668,0.659 -1.211,1.493 -1.612,2.478 -0.405,0.992 -0.61,2.166 -0.61,3.49 0,1.324 0.205,2.499 0.61,3.49 0.4,0.984 0.947,1.816 1.625,2.474 0.676,0.657 1.48,1.165 2.39,1.511 0.919,0.35 1.926,0.527 2.992,0.527 1.043,0 2.037,-0.177 2.956,-0.527 C -3.109,10.62 -2.307,10.108 -1.63,9.441 -0.951,8.77 -0.402,7.93 0,6.945 0.405,5.952 0.61,4.79 0.61,3.49 0.61,2.167 0.405,0.992 0,0 m 2.083,13.182 c -1.176,1.121 -2.562,1.985 -4.119,2.568 -1.547,0.579 -3.205,0.873 -4.927,0.873 -1.7,0 -3.351,-0.294 -4.907,-0.872 -1.57,-0.582 -2.967,-1.446 -4.153,-2.566 -1.187,-1.122 -2.144,-2.514 -2.842,-4.138 -0.699,-1.623 -1.053,-3.481 -1.053,-5.523 0,-2.064 0.348,-3.927 1.035,-5.538 0.686,-1.613 1.63,-2.999 2.806,-4.12 1.174,-1.12 2.56,-1.984 4.12,-2.568 1.546,-0.579 3.204,-0.872 4.926,-0.872 1.886,0 3.646,0.318 5.23,0.946 1.595,0.631 2.982,1.54 4.124,2.7 1.136,1.155 2.037,2.552 2.676,4.154 0.637,1.596 0.96,3.378 0.96,5.298 0,2.041 -0.354,3.899 -1.053,5.524 -0.699,1.623 -1.649,3.014 -2.823,4.134"
           style="fill:#ffffff;fill-opacity:1;fill-rule:nonzero;stroke:none"
           id="path9676" />
      </g>
      <g
         id="g9678"
         transform="translate(321.4184,371.2502)">
        <path
           d="m 0,0 h -3.582 c -0.455,0 -0.826,-0.371 -0.826,-0.826 v -15.743 c 0,-0.672 -0.112,-1.26 -0.334,-1.749 -0.22,-0.487 -0.525,-0.899 -0.906,-1.226 -0.393,-0.336 -0.866,-0.598 -1.406,-0.778 -0.557,-0.186 -1.498,-0.28 -2.153,-0.28 -0.658,0 -1.653,0.095 -2.222,0.282 -0.553,0.181 -1.038,0.444 -1.443,0.782 -0.389,0.326 -0.697,0.736 -0.916,1.22 -0.222,0.49 -0.334,1.078 -0.334,1.749 v 15.743 c 0,0.455 -0.371,0.826 -0.826,0.826 h -3.569 c -0.456,0 -0.826,-0.371 -0.826,-0.826 v -15.869 c 0,-1.455 0.273,-2.764 0.811,-3.889 0.536,-1.121 1.282,-2.088 2.219,-2.876 0.928,-0.78 2.016,-1.375 3.233,-1.768 1.2,-0.387 2.503,-0.583 3.873,-0.583 1.347,0 2.638,0.196 3.838,0.583 1.22,0.395 2.3,0.992 3.207,1.775 0.911,0.786 1.643,1.751 2.177,2.869 0.538,1.127 0.811,2.435 0.811,3.889 V -0.826 C 0.826,-0.371 0.455,0 0,0"
           style="fill:#ffffff;fill-opacity:1;fill-rule:nonzero;stroke:none"
           id="path9680" />
      </g>
      <g
         id="g9682"
         transform="translate(346.5173,347.1965)">
        <path
           d="m 0,0 -5.799,7.193 c 0,0 4.682,1.704 4.682,7.642 0,1.224 -0.205,2.406 -0.61,3.513 -0.412,1.12 -1.027,2.114 -1.827,2.953 -0.798,0.835 -1.78,1.509 -2.918,2.004 -1.142,0.496 -2.442,0.748 -3.863,0.748 h -9.437 c -0.456,0 -0.826,-0.37 -0.826,-0.825 V -0.556 c 0,-0.456 0.37,-0.826 0.826,-0.826 h 3.559 c 0.456,0 0.826,0.37 0.826,0.826 l -10e-4,19.386 h 5.285 c 0.563,0 1.079,-0.102 1.537,-0.304 0.462,-0.203 0.864,-0.483 1.194,-0.83 0.326,-0.345 0.581,-0.768 0.756,-1.257 0.182,-0.509 0.275,-1.061 0.275,-1.642 0,-0.574 -0.097,-1.122 -0.287,-1.627 -0.188,-0.498 -0.452,-0.934 -0.786,-1.295 -0.329,-0.357 -0.706,-0.582 -1.157,-0.785 -0.444,-0.199 -1.237,-0.319 -2.783,-0.319 h -2.211 c -0.438,0 -0.773,-0.394 -0.438,-0.935 l 8.266,-10.872 c 0.154,-0.217 0.405,-0.347 0.672,-0.347 h 4.564 C 0.172,-1.383 0.62,-0.765 0,0"
           style="fill:#ffffff;fill-opacity:1;fill-rule:nonzero;stroke:none"
           id="path9684" />
      </g>
      <g
         id="g9686"
         transform="translate(467.2111,347.1965)">
        <path
           d="m 0,0 -5.799,7.193 c 0,0 4.682,1.704 4.682,7.642 0,1.224 -0.205,2.406 -0.61,3.513 -0.412,1.12 -1.027,2.114 -1.827,2.953 -0.798,0.835 -1.78,1.509 -2.918,2.004 -1.142,0.496 -2.442,0.748 -3.863,0.748 h -9.437 c -0.456,0 -0.826,-0.37 -0.826,-0.825 V -0.556 c 0,-0.456 0.37,-0.826 0.826,-0.826 h 3.559 c 0.456,0 0.826,0.37 0.826,0.826 l -10e-4,19.386 h 5.286 c 0.562,0 1.078,-0.102 1.536,-0.304 0.462,-0.203 0.864,-0.483 1.194,-0.83 0.326,-0.345 0.581,-0.768 0.756,-1.257 0.183,-0.509 0.275,-1.061 0.275,-1.642 0,-0.574 -0.097,-1.122 -0.287,-1.627 -0.188,-0.498 -0.452,-0.934 -0.786,-1.295 -0.329,-0.357 -0.706,-0.582 -1.157,-0.785 -0.444,-0.199 -1.237,-0.319 -2.783,-0.319 h -2.211 c -0.438,0 -0.773,-0.394 -0.438,-0.935 l 8.266,-10.872 c 0.154,-0.217 0.405,-0.347 0.672,-0.347 h 4.564 C 0.172,-1.383 0.62,-0.765 0,0"
           style="fill:#ffffff;fill-opacity:1;fill-rule:nonzero;stroke:none"
           id="path9688" />
      </g>
      <g
         id="g9690"
         transform="translate(520.3132,345.4055)">
        <path
           d="m 0,0 h -24.297 c -0.305,0 -0.553,0.248 -0.553,0.553 v 25.114 c 0,0.306 0.248,0.553 0.553,0.553 L 0,26.22 c 0.306,0 0.553,-0.247 0.553,-0.553 V 0.553 C 0.553,0.248 0.306,0 0,0"
           style="fill:#e40138;fill-opacity:1;fill-rule:nonzero;stroke:none"
           id="path9692" />
      </g>
      <g
         id="g9694"
         transform="translate(511.0599,366.9895)">
        <path
           d="m 0,0 c 0,0.325 -0.264,0.588 -0.589,0.588 h -5.936 c -0.325,0 -0.589,-0.265 -0.589,-0.59 l 10e-4,-2.551 c 0,-0.351 0.219,-0.603 0.568,-0.603 h 2.535 l 0.005,-13.792 c 0,-0.324 0.235,-0.588 0.559,-0.588 h 2.888 c 0.324,0 0.559,0.264 0.559,0.588 z"
           style="fill:#ffffff;fill-opacity:1;fill-rule:nonzero;stroke:none"
           id="path9696" />
      </g>
      <g
         id="g9698"
         transform="translate(540.8198,370.8391)">
        <path
           d="M 0,0 C 0,0.238 -0.193,0.411 -0.431,0.411 H -2.293 C -2.531,0.411 -2.724,0.238 -2.724,0 v -4.567 h -4.927 v 4.571 c 0,0.238 -0.194,0.407 -0.432,0.407 h -1.861 c -0.239,0 -0.432,-0.169 -0.432,-0.407 v -12.449 c 0,-0.239 0.193,-0.427 0.432,-0.427 h 1.861 c 0.238,0 0.432,0.188 0.432,0.427 v 5.153 h 4.927 v -5.153 c 0,-0.239 0.193,-0.427 0.431,-0.427 h 1.862 c 0.238,0 0.431,0.188 0.431,0.427 z"
           style="fill:#ffffff;fill-opacity:1;fill-rule:nonzero;stroke:none"
           id="path9700" />
      </g>
      <g
         id="g9702"
         transform="translate(548.898,371.2498)">
        <path
           d="m 0,0 c 4.283,0 6.525,-3.308 6.525,-6.603 0,-1.781 -0.6,-3.431 -1.688,-4.645 C 3.642,-12.583 1.969,-13.283 0,-13.283 h -4.522 c -0.238,0 -0.431,0.196 -0.431,0.435 V -0.414 C -4.953,-0.176 -4.76,0 -4.522,0 Z m -2.246,-10.572 h 2.41 c 2.518,0 3.665,2.048 3.665,3.951 0,1.903 -1.142,3.907 -3.648,3.907 h -2.427 z"
           style="fill:#ffffff;fill-opacity:1;fill-rule:nonzero;stroke:none"
           id="path9704" />
      </g>
    </g>
  </g>
  <path
     style="opacity:0.9;fill:#ffffff;stroke-width:0"
     d="M 3.9154688,86.030588 C 4.1778505,85.606046 9.7815336,78.936363 16.368097,71.20907 22.954661,63.481778 28.343668,56.896764 28.343668,56.575705 c 0,-0.32106 -6.27768,-4.71205 -13.950399,-9.757757 L 0.44286981,37.643934 23.091305,37.201064 45.73974,36.758195 60.735239,19.194647 75.730738,1.6311 l 0.239774,17.784982 0.239775,17.784982 h 21.416564 c 11.992549,0 21.046289,0.334714 20.575099,0.760656 -0.4628,0.418359 -10.1085,4.664791 -21.434896,9.436512 l -20.593446,8.675859 v 15.364196 c 0,8.450308 -0.212579,15.364196 -0.472396,15.364196 -0.259818,0 -4.544584,-2.722985 -9.521701,-6.051078 C 61.202393,77.423312 54.905646,73.286189 52.186739,71.557798 L 47.243273,68.415269 25.61455,77.607045 C 13.718753,82.662522 3.8626595,86.799645 3.7121197,86.800653 3.56158,86.80166 3.653087,86.455131 3.9154688,86.030588 Z"
     id="path909"
     transform="scale(0.26458333)" />
  <path
     style="opacity:0.9;fill:#ffffff;stroke-width:0"
     d="M 83.259525,9.7431359 V 0.88573963 h 23.851705 c 27.98985,0 26.63545,-0.44992686 26.63545,8.84822087 0,9.7017325 2.42839,8.8665715 -25.78121,8.8665715 H 83.259525 Z"
     id="path948"
     transform="scale(0.26458333)" />
  <path
     style="opacity:0.9;fill:#ffffff;stroke-width:0"
     d="m 83.259525,78.830827 v -8.857396 h 24.180695 c 17.62622,0 24.4688,0.288108 25.24358,1.062887 1.64921,1.649219 1.3929,13.538132 -0.32899,15.260028 -1.19643,1.196426 -4.7412,1.391877 -25.24358,1.391877 H 83.259525 Z"
     id="path987"
     transform="scale(0.26458333)" />
  <path
     style="opacity:0.9;fill:#ffffff;stroke-width:0"
     d="m 164.74757,86.961591 c -2.67936,-0.888456 -5.82589,-2.129682 -6.99228,-2.75828 -3.99718,-2.154178 -9.99579,-8.402357 -12.35183,-12.865712 l -2.35651,-4.464257 -0.26349,-31.745202 c -0.19319,-23.275946 0.013,-32.0783153 0.77276,-32.993802 0.70953,-0.8549236 2.97529,-1.24859837 7.1862,-1.24859837 10.40531,0 9.57594,-2.70578633 9.57976,31.25348537 0.003,27.93976 0.0932,29.567077 1.78978,32.349832 2.41326,3.958206 7.8829,6.331208 14.5931,6.331208 7.62249,0 12.41679,-2.372876 14.62516,-7.238534 1.58944,-3.50199 1.72361,-5.981336 1.74157,-32.182261 0.0143,-20.876096 0.3007,-28.6692106 1.08234,-29.4508428 1.57561,-1.575616 14.37167,-1.41453385 15.70976,0.197761 0.77268,0.931024 0.97474,9.4421888 0.77276,32.5509308 l -0.27349,31.290283 -2.48039,5.05103 c -3.11448,6.342272 -9.7357,12.391644 -16.38442,14.969376 -7.04501,2.731375 -19.99702,3.193076 -26.75078,0.953583 z"
     id="path1026"
     transform="scale(0.26458333)" />
  <path
     style="opacity:0.9;fill:#ffffff;stroke-width:0"
     d="m 224.26927,86.625335 c -1.53046,-1.530466 -1.53046,-83.1462409 0,-84.6767078 1.34552,-1.34551895 32.83549,-1.47539864 39.75073,-0.163951 9.87202,1.8721911 17.8434,7.7802524 22.09106,16.3729858 1.92635,3.896884 2.18972,5.598692 2.19322,14.171834 0.004,9.165381 -0.15307,10.026699 -2.64432,14.52507 -1.45656,2.630064 -3.98748,5.818727 -5.62428,7.085917 -7.00979,5.426913 -7.29786,3.689895 2.65898,16.032948 11.75163,14.567973 11.85692,14.733309 10.45698,16.420135 -0.89933,1.083619 -2.89926,1.303626 -10.02425,1.10274 l -8.90079,-0.250953 -14.475,-18.968946 c -7.96125,-10.43292 -14.35483,-19.600325 -14.20795,-20.372011 0.21526,-1.130955 1.98312,-1.491888 9.11547,-1.861051 9.956,-0.515312 12.65186,-1.702287 14.97229,-6.592227 1.76686,-3.723391 1.81051,-10.411083 0.0897,-13.738825 -2.73234,-5.283771 -5.77066,-6.46377 -17.84043,-6.928733 l -10.95947,-0.422192 v 33.60054 c 0,24.952767 -0.27356,33.874095 -1.06289,34.663427 -0.64022,0.640219 -3.73979,1.062888 -7.79451,1.062888 -4.05472,0 -7.15429,-0.422669 -7.79451,-1.062888 z"
     id="path1065"
     transform="scale(0.26458333)" />
  <path
     style="opacity:0.9;fill:#ffffff;stroke-width:0"
     d="m 325.50931,86.478956 c -14.945,-4.858793 -25.15045,-16.126564 -28.37088,-31.32412 -2.30519,-10.878462 -0.95844,-22.48003 3.72746,-32.110154 2.94062,-6.043339 11.7068,-14.9897446 17.58242,-17.9438918 14.89026,-7.4865294 33.33281,-6.4478589 47.16544,2.6563223 21.358,14.0571315 24.24608,49.8222595 5.53426,68.5348855 -8.45489,8.455263 -18.49746,12.312416 -31.87439,12.242337 -5.37539,-0.02817 -9.3582,-0.622906 -13.76431,-2.055379 z m 25.24358,-17.533133 c 9.19296,-3.960185 14.38406,-12.503114 14.44347,-23.769409 0.0689,-13.065839 -5.89615,-22.705658 -16.1595,-26.114596 -14.27084,-4.740011 -29.96331,2.811958 -33.68476,16.210717 -1.31164,4.722475 -1.11794,14.208159 0.39412,19.299813 4.09375,13.785159 20.62038,20.570868 35.00667,14.373475 z"
     id="path1104"
     transform="scale(0.26458333)" />
  <path
     style="opacity:0.9;fill:#ffffff;stroke-width:0"
     d="M 410.98319,86.901873 C 400.29364,83.44189 388.8397,75.322376 388.8397,71.20471 c 0,-1.674001 9.45219,-11.860155 11.00557,-11.860155 0.42251,0 2.71587,1.821813 5.09635,4.048474 5.92077,5.538193 11.17734,7.726653 18.55902,7.726653 7.77254,0 12.28935,-2.211516 13.81087,-6.762067 2.31288,-6.917312 -1.69686,-10.33022 -14.73393,-12.540841 -23.39466,-3.966899 -32.85214,-11.114869 -32.85214,-24.829667 0,-13.152251 7.4802,-22.1961477 21.28721,-25.7371797 7.24503,-1.85810468 17.93863,-1.29509269 24.77125,1.3041911 5.76365,2.1926278 13.96099,8.4509406 16.21966,12.3830096 l 1.60495,2.794036 -5.0613,5.306252 c -2.78372,2.918439 -5.57953,5.306252 -6.21292,5.306252 -0.63338,0 -3.11139,-1.959794 -5.5067,-4.355097 -4.88704,-4.887039 -8.48447,-6.261282 -16.41028,-6.268839 -6.41987,-0.0061 -10.68202,1.907089 -12.15144,5.454588 -1.47201,3.553743 -0.27175,6.831947 3.25569,8.892082 1.50864,0.881094 7.88378,2.622017 14.16697,3.868715 6.28318,1.2467 13.73903,3.302146 16.56855,4.567658 11.30628,5.056783 16.39632,16.454082 12.92771,28.946892 -2.22554,8.015667 -9.83303,14.992081 -19.34022,17.735866 -6.49342,1.87401 -18.62288,1.735613 -24.86138,-0.28366 z"
     id="path1143"
     transform="scale(0.26458333)" />
  <path
     style="opacity:0.9;fill:#ffffff;stroke-width:0"
     d="m 464.60837,86.271013 c -1.26572,-1.265715 -1.39083,-5.814004 -1.17044,-42.548252 0.21246,-35.4140376 0.43143,-41.2477171 1.57537,-41.9704681 1.83857,-1.16162069 33.04362,-1.08374141 39.43856,0.098428 7.08022,1.3088489 12.58807,4.2673483 17.14183,9.2075921 6.04958,6.563021 7.583,10.851445 7.6115,21.286694 0.0226,8.267779 -0.17462,9.277061 -2.89162,14.798961 -3.1789,6.460673 -7.63049,10.874538 -14.23549,14.114871 -3.57916,1.75589 -5.78385,2.05707 -17.17106,2.345719 l -13.06466,0.33117 v 10.484371 c 0,13.015684 -0.17695,13.268124 -9.30027,13.268124 -4.79253,0 -6.89144,-0.37493 -7.93372,-1.41721 z M 504.80862,44.50704 c 6.43741,-3.282514 8.77019,-10.914064 5.55675,-18.178584 -2.61659,-5.915233 -5.40736,-7.079247 -18.11557,-7.555904 l -10.40744,-0.390361 v 13.838134 13.838136 l 9.96457,-0.0014 c 7.73614,-0.0011 10.64378,-0.347713 13.00169,-1.550044 z"
     id="path1182"
     transform="scale(0.26458333)" />
  <path
     style="opacity:0.9;fill:#ffffff;stroke-width:0"
     d="m 567.10768,87.208514 c -19.15984,-5.15998 -31.03237,-21.346046 -31.18415,-42.514005 -0.15494,-21.609964 12.7016,-38.59225 32.80374,-43.3306618 27.48319,-6.4782483 52.18037,11.1667898 54.53314,38.9614998 1.9409,22.929015 -12.05189,42.863809 -33.17998,47.269799 -6.34107,1.322351 -17.31267,1.137692 -22.97275,-0.386632 z m 23.93546,-18.354083 c 8.67915,-3.653455 13.91702,-12.934477 13.91702,-24.659662 0,-15.132386 -8.9255,-25.265269 -23.15136,-26.283123 -7.26541,-0.519838 -12.78814,0.853294 -17.67766,4.395244 -15.34931,11.118985 -12.71062,40.334313 4.23174,46.853416 7.36186,2.832705 15.48448,2.72316 22.68026,-0.305875 z"
     id="path1221"
     transform="scale(0.26458333)" />
  <path
     style="opacity:0.9;fill:#ffffff;stroke-width:0"
     d="m 632.59524,86.625335 c -0.79638,-0.796386 -1.06289,-11.44864 -1.06289,-42.484338 0,-41.260293 0.007,-41.42535 1.87257,-42.4236182 1.29142,-0.691149 7.81995,-0.88957266 21.03632,-0.6393633 17.5046,0.3313936 19.62148,0.5422814 24.45073,2.4358313 13.76278,5.3963856 21.59901,21.4260642 17.81029,36.4324672 -1.72739,6.841893 -4.9519,11.725726 -10.42591,15.791088 l -4.08784,3.035896 10.09216,12.464548 c 5.55069,6.855502 10.09637,13.119425 10.10151,13.919829 0.0136,2.113198 -1.81626,2.530548 -11.09495,2.530548 h -8.30218 L 668.55188,68.648602 C 660.61364,58.17681 654.11871,48.909759 654.11871,48.055156 c 0,-1.348767 1.17426,-1.612271 8.89793,-1.996695 9.44377,-0.470039 12.62009,-1.663207 14.68153,-5.515035 3.33512,-6.231724 2.31598,-14.209176 -2.33719,-18.294712 -3.43838,-3.018944 -8.42604,-3.932564 -19.02792,-3.485462 l -6.64304,0.28015 -0.23236,33.137643 c -0.15889,22.65964 -0.54327,33.512263 -1.21563,34.322411 -1.27927,1.54142 -14.12717,1.641498 -15.64679,0.121879 z"
     id="path1260"
     transform="scale(0.26458333)" />
  <path
     style="opacity:0.9;fill:#ffffff;stroke-width:0"
     d="m 724.71216,86.625335 c -0.78869,-0.788696 -1.06289,-9.58567 -1.06289,-34.100975 V 19.486272 h -10.45172 c -6.94814,0 -10.80803,-0.356298 -11.51462,-1.062888 -0.65522,-0.655219 -1.06289,-3.870646 -1.06289,-8.383362 0,-6.3310245 0.23157,-7.4444065 1.71325,-8.2373791 2.20897,-1.18220521 59.30937,-1.22878909 61.17427,-0.049907 1.01236,0.6399529 1.32861,2.6473492 1.32861,8.4332701 0,5.785921 -0.31625,7.793317 -1.32861,8.43327 -0.73074,0.461928 -6.01196,0.845973 -11.73605,0.853432 l -10.40744,0.01356 V 52.52436 c 0,24.515305 -0.27419,33.312279 -1.06289,34.100975 -0.64022,0.640219 -3.73979,1.062888 -7.79451,1.062888 -4.05472,0 -7.15429,-0.422669 -7.79451,-1.062888 z"
     id="path1299"
     transform="scale(0.26458333)" />
  <path
     style="opacity:0.9;fill:#ffffff;stroke-width:0"
     d="m 915.55953,45.467967 c -0.32477,-0.32477 -0.5905,-10.041246 -0.5905,-21.592166 0,-23.42066727 -0.0273,-23.31523662 5.91693,-22.8257795 l 3.38334,0.2785879 0.25467,8.1930916 0.25468,8.193092 h 8.34805 8.34805 l 0.25467,-8.193092 0.25467,-8.1930916 h 3.98583 3.98583 l 0.23664,22.3649256 0.23665,22.364926 h -4.44391 -4.44391 v -9.300266 -9.300267 h -8.41452 -8.41453 v 9.300267 9.300266 h -4.28107 c -2.3546,0 -4.5468,-0.265722 -4.87157,-0.590494 z"
     id="path1338"
     transform="scale(0.26458333)" />
  <path
     style="opacity:0.9;fill:#ffffff;stroke-width:0"
     d="m 961.23372,23.693535 0.23664,-22.3649256 8.32695,-0.2564443 c 10.37013,-0.31936796 16.6438,0.9383268 21.22134,4.2542787 12.96435,9.3913072 11.42465,31.3962922 -2.68894,38.4293722 -4.25366,2.119689 -5.52308,2.302645 -15.97672,2.302645 h -11.35591 z m 24.02925,11.291907 c 7.303,-4.78511 6.96077,-18.020058 -0.58494,-22.620946 -2.01158,-1.226531 -4.44444,-1.729961 -8.37153,-1.73231 l -5.53587,-0.0033 v 13.405108 13.40511 l 6.03254,-0.431627 c 3.67457,-0.262914 6.9813,-1.053275 8.4598,-2.022025 z"
     id="path1377"
     transform="scale(0.26458333)" />
</svg>
