<?xml version="1.0" encoding="UTF-8" standalone="no"?>
<svg
   height="53.26"
   width="600"
   version="1.1"
   viewBox="0 0 158.75 14.0918"
   id="svg60"
   sodipodi:docname="Eurosport 2 HD.svg"
   inkscape:version="1.1.1 (3bf5ae0d25, 2021-09-20)"
   xmlns:inkscape="http://www.inkscape.org/namespaces/inkscape"
   xmlns:sodipodi="http://sodipodi.sourceforge.net/DTD/sodipodi-0.dtd"
   xmlns="http://www.w3.org/2000/svg"
   xmlns:svg="http://www.w3.org/2000/svg">
  <defs
     id="defs64" />
  <sodipodi:namedview
     id="namedview62"
     pagecolor="#ffffff"
     bordercolor="#ffffff"
     borderopacity="1.0"
     inkscape:pageshadow="2"
     inkscape:pageopacity="0.0"
     inkscape:pagecheckerboard="0"
     showgrid="false"
     inkscape:zoom="1.8816667"
     inkscape:cx="300.26572"
     inkscape:cy="26.83791"
     inkscape:window-width="1920"
     inkscape:window-height="1017"
     inkscape:window-x="-8"
     inkscape:window-y="-8"
     inkscape:window-maximized="1"
     inkscape:current-layer="svg60" />
  <g
     transform="translate(265.78 88.4)"
     id="g58">
    <g
       fill="#ffffff"
       id="g52">
      <path
         d="m-114.88-87.978c0-0.129-0.1-0.22-0.23-0.22h-1c-0.13 0-0.23 0.091-0.23 0.22v2.456h-2.65v-2.456c0-0.129-0.11-0.22-0.24-0.22h-1c-0.12 0-0.23 0.091-0.23 0.22v6.691c0 0.129 0.11 0.232 0.23 0.232h1c0.13 0 0.24-0.103 0.24-0.232v-2.77h2.65v2.77c0 0.129 0.1 0.232 0.23 0.232h1c0.13 0 0.23-0.103 0.23-0.232z"
         id="path2" />
      <path
         d="m-110.54-88.199c2.31 0 3.51 1.779 3.51 3.55 0 0.961-0.32 1.844-0.9 2.499-0.65 0.719-1.55 1.094-2.61 1.094h-2.43c-0.12 0-0.23-0.108-0.23-0.233v-6.686c0-0.129 0.11-0.224 0.23-0.224zm-1.2 5.687h1.29c1.36 0 1.97-1.103 1.97-2.128 0-1.021-0.61-2.098-1.96-2.098h-1.3z"
         id="path4" />
      <g id="g50">
        <path
           d="m-253.71-74.555-4.56-3.003-7.05 2.994 4.15-4.874-4.61-3.02h7.19l4.88-5.721v5.721h6.96l-6.96 2.967v4.936"
           id="path6" />
        <path
           d="m-245.06-85.389c0.24 0 0.44-0.203 0.44-0.442v-1.916c0-0.247-0.2-0.441-0.44-0.441h-7.47v2.799h7.47"
           id="path8" />
        <path
           d="m-245.06-74.529c0.24 0 0.44-0.203 0.44-0.441v-1.916c0-0.248-0.2-0.442-0.44-0.442h-7.47v2.799h7.47"
           id="path10" />
        <path
           d="m-144.83-88.197h-9.33c-0.24 0-0.45 0.203-0.45 0.441v1.925c0 0.239 0.21 0.442 0.45 0.442h3.26v10.427c0 0.248 0.2 0.442 0.44 0.442h1.93c0.24 0 0.44-0.194 0.44-0.442v-10.427h3.26c0.24 0 0.45-0.203 0.45-0.442v-1.925c0-0.238-0.21-0.441-0.45-0.441"
           id="path12" />
        <path
           d="m-184.67-82.343c-0.1 0.265-0.24 0.494-0.42 0.689-0.18 0.194-0.38 0.317-0.62 0.423s-0.67 0.168-1.5 0.168h-2.15v-4.326h2.83c0.3 0 0.58 0.053 0.82 0.168 0.25 0.105 0.47 0.256 0.64 0.441 0.18 0.185 0.32 0.415 0.41 0.68 0.1 0.274 0.15 0.565 0.15 0.874s-0.05 0.609-0.16 0.883zm2.65-2.79c-0.22-0.601-0.55-1.13-0.98-1.581-0.43-0.45-0.96-0.812-1.57-1.077s-1.31-0.406-2.08-0.406h-5.07c-0.25 0-0.45 0.203-0.45 0.441v12.786c0 0.238 0.2 0.441 0.45 0.441h1.92c0.24 0 0.44-0.203 0.44-0.441v-3.276h2.71c0.77 0 1.46-0.133 2.07-0.389 0.6-0.265 1.13-0.627 1.56-1.077 0.43-0.441 0.76-0.971 0.99-1.554 0.22-0.583 0.34-1.324 0.34-1.978 0-0.653-0.11-1.289-0.33-1.889"
           id="path14" />
        <path
           d="m-201.11-84.268c-0.01 0.283 0.07 0.45 0.17 0.601 0.12 0.176 0.3 0.317 0.51 0.432 0.24 0.124 0.53 0.221 0.84 0.292 0.36 0.079 0.71 0.15 1.07 0.211 0.65 0.106 1.29 0.23 1.9 0.38 0.64 0.159 1.21 0.397 1.69 0.706 0.5 0.327 0.9 0.76 1.18 1.281 0.29 0.529 0.42 1.209 0.38 2.013-0.03 0.777-0.23 1.439-0.59 1.978-0.35 0.521-0.81 0.944-1.35 1.262s-1.06 0.548-1.72 0.662c-0.64 0.124-1.35 0.159-1.98 0.133-1.55-0.071-3.85-0.963-5-2.534-0.09-0.124-0.2-0.344 0.05-0.592 0.24-0.256 1.42-1.457 1.42-1.457 0.24-0.256 0.48-0.07 0.57 0.071 0.68 0.989 2.02 1.722 3.07 1.766 0.56 0.026 0.62 0 0.97-0.044 0.31-0.044 0.59-0.124 0.85-0.239 0.24-0.114 0.44-0.256 0.6-0.459 0.14-0.185 0.23-0.45 0.25-0.759 0.02-0.291-0.06-0.53-0.2-0.724-0.15-0.203-0.35-0.362-0.6-0.495-0.27-0.141-0.59-0.229-0.94-0.3-0.38-0.07-0.75-0.132-1.11-0.185-0.6-0.071-1.2-0.194-1.77-0.362-0.59-0.168-1.13-0.406-1.58-0.707-0.47-0.317-0.85-0.724-1.13-1.218-0.29-0.494-0.42-1.068-0.38-1.784 0.03-0.724 0.21-1.359 0.53-1.889s0.74-0.962 1.25-1.289c0.49-0.327 1.06-0.556 1.69-0.706 1.23-0.274 2.46-0.23 3.67 0.158 1.31 0.415 2.37 1.422 2.85 2.128 0.09 0.133 0.18 0.345-0.01 0.557s-1.35 1.342-1.35 1.342c-0.25 0.238-0.5 0.185-0.64-0.027-0.71-1.042-1.63-1.51-2.69-1.58-1.14-0.071-2.41 0.185-2.47 1.377"
           id="path16" />
        <path
           d="m-208.08-79.456c-0.22 0.521-0.51 0.971-0.88 1.325-0.37 0.353-0.81 0.618-1.29 0.803-0.5 0.177-1.04 0.274-1.6 0.274-0.57 0-1.11-0.097-1.61-0.274-0.48-0.177-0.91-0.45-1.27-0.803-0.36-0.354-0.65-0.795-0.86-1.325-0.22-0.538-0.33-1.165-0.33-1.881 0-0.706 0.11-1.342 0.33-1.871 0.21-0.53 0.51-0.98 0.87-1.334 0.36-0.353 0.79-0.626 1.28-0.812 0.5-0.185 1.04-0.282 1.61-0.282 0.56 0 1.1 0.097 1.59 0.282 0.49 0.186 0.92 0.468 1.28 0.821 0.37 0.362 0.66 0.813 0.88 1.342 0.21 0.53 0.32 1.157 0.32 1.854 0 0.716-0.11 1.343-0.32 1.881zm1.12-7.09c-0.64-0.6-1.38-1.059-2.22-1.377-0.83-0.309-1.72-0.468-2.64-0.468s-1.8 0.159-2.64 0.468c-0.84 0.318-1.59 0.777-2.23 1.377-0.64 0.601-1.15 1.351-1.53 2.225-0.37 0.874-0.56 1.872-0.56 2.967 0 1.112 0.18 2.11 0.55 2.975 0.37 0.866 0.88 1.616 1.51 2.217 0.63 0.6 1.38 1.068 2.21 1.377s1.72 0.468 2.65 0.468c1.01 0 1.96-0.168 2.81-0.503 0.86-0.345 1.6-0.83 2.22-1.457 0.61-0.618 1.09-1.369 1.43-2.225 0.34-0.866 0.52-1.819 0.52-2.852 0-1.095-0.19-2.093-0.57-2.967-0.37-0.874-0.88-1.616-1.51-2.225"
           id="path18" />
        <path
           d="m-170.03-79.456c-0.21 0.521-0.51 0.971-0.88 1.325-0.37 0.353-0.8 0.618-1.29 0.803-0.5 0.177-1.03 0.274-1.59 0.274-0.58 0-1.12-0.097-1.62-0.274-0.48-0.177-0.91-0.45-1.26-0.803-0.36-0.354-0.65-0.795-0.87-1.325-0.22-0.538-0.33-1.165-0.33-1.881 0-0.706 0.11-1.342 0.33-1.871 0.22-0.53 0.51-0.98 0.87-1.334 0.37-0.353 0.8-0.626 1.29-0.812 0.49-0.185 1.03-0.282 1.61-0.282 0.55 0 1.09 0.097 1.58 0.282 0.49 0.186 0.92 0.468 1.28 0.821 0.37 0.362 0.67 0.813 0.88 1.342 0.22 0.53 0.33 1.157 0.33 1.854 0 0.716-0.11 1.343-0.33 1.881zm1.12-7.09c-0.63-0.6-1.38-1.059-2.21-1.377-0.83-0.309-1.73-0.468-2.65-0.468-0.91 0-1.8 0.159-2.64 0.468-0.84 0.318-1.59 0.777-2.23 1.377-0.64 0.601-1.15 1.351-1.53 2.225-0.37 0.874-0.56 1.872-0.56 2.967 0 1.112 0.19 2.11 0.56 2.975 0.36 0.866 0.87 1.616 1.5 2.217 0.63 0.6 1.38 1.068 2.22 1.377 0.83 0.309 1.72 0.468 2.64 0.468 1.02 0 1.96-0.168 2.81-0.503 0.86-0.345 1.61-0.83 2.22-1.457 0.61-0.618 1.09-1.369 1.44-2.225 0.34-0.866 0.51-1.819 0.51-2.852 0-1.095-0.19-2.093-0.56-2.967-0.38-0.874-0.89-1.616-1.52-2.225"
           id="path20" />
        <path
           d="m-232.77-88.197h-1.93c-0.24 0-0.44 0.203-0.44 0.441v8.459c0 0.362-0.06 0.68-0.18 0.945s-0.28 0.485-0.49 0.653c-0.21 0.186-0.46 0.327-0.75 0.424-0.3 0.097-0.81 0.15-1.16 0.15s-0.89-0.053-1.19-0.15-0.56-0.238-0.78-0.424c-0.21-0.176-0.37-0.397-0.49-0.653-0.12-0.265-0.18-0.583-0.18-0.945v-8.459c0-0.238-0.2-0.441-0.44-0.441h-1.92c-0.25 0-0.44 0.203-0.44 0.441v8.53c0 0.786 0.14 1.483 0.43 2.092 0.29 0.601 0.69 1.122 1.19 1.545 0.5 0.415 1.09 0.733 1.74 0.945 0.64 0.212 1.34 0.318 2.08 0.318 0.72 0 1.42-0.106 2.06-0.318 0.66-0.212 1.24-0.53 1.73-0.953 0.49-0.415 0.88-0.936 1.17-1.537 0.29-0.609 0.43-1.306 0.43-2.092v-8.53c0-0.238-0.2-0.441-0.44-0.441"
           id="path22" />
        <path
           d="m-219.29-75.271-3.11-3.867s2.51-0.909 2.51-4.106c0-0.653-0.11-1.289-0.33-1.889-0.22-0.601-0.55-1.13-0.98-1.581-0.43-0.45-0.95-0.812-1.56-1.077-0.62-0.265-1.32-0.406-2.08-0.406h-5.07c-0.25 0-0.44 0.203-0.44 0.441v12.786c0 0.238 0.19 0.441 0.44 0.441h1.91c0.25 0 0.45-0.203 0.45-0.441v-10.419h2.84c0.3 0 0.57 0.053 0.82 0.168 0.25 0.105 0.47 0.256 0.64 0.441 0.18 0.185 0.31 0.415 0.41 0.68 0.1 0.274 0.15 0.565 0.15 0.874s-0.06 0.609-0.16 0.883c-0.1 0.265-0.24 0.494-0.42 0.689-0.18 0.194-0.38 0.317-0.62 0.423s-0.67 0.168-1.5 0.168h-1.19c-0.23 0-0.41 0.212-0.23 0.503l4.44 5.846c0.08 0.114 0.22 0.185 0.36 0.185h2.45c0.37 0 0.61-0.336 0.27-0.742"
           id="path24" />
        <path
           d="m-154.44-75.271-3.12-3.867s2.52-0.909 2.52-4.106c0-0.653-0.11-1.289-0.33-1.889-0.22-0.601-0.54-1.13-0.98-1.581-0.43-0.45-0.96-0.812-1.57-1.077s-1.31-0.406-2.07-0.406h-5.07c-0.25 0-0.45 0.203-0.45 0.441v12.786c0 0.238 0.2 0.441 0.45 0.441h1.91c0.24 0 0.44-0.203 0.44-0.441v-10.419h2.84c0.31 0 0.58 0.053 0.83 0.168 0.25 0.105 0.46 0.256 0.64 0.441 0.17 0.185 0.31 0.415 0.4 0.68 0.11 0.274 0.15 0.565 0.15 0.874s-0.05 0.609-0.15 0.883c-0.1 0.265-0.25 0.494-0.42 0.689-0.18 0.194-0.38 0.317-0.62 0.423s-0.67 0.168-1.5 0.168h-1.19c-0.23 0-0.41 0.212-0.23 0.503l4.44 5.846c0.08 0.114 0.22 0.185 0.36 0.185h2.45c0.37 0 0.61-0.336 0.27-0.742"
           id="path26" />
        <path
           d="m-253.71-74.555-4.56-3.003-7.05 2.994 4.15-4.874-4.61-3.02h7.19l4.88-5.721v5.721h6.96l-6.96 2.967v4.936"
           id="path28" />
        <path
           d="m-245.06-85.389c0.24 0 0.44-0.203 0.44-0.442v-1.916c0-0.247-0.2-0.441-0.44-0.441h-7.47v2.799h7.47"
           id="path30" />
        <path
           d="m-245.06-74.529c0.24 0 0.44-0.203 0.44-0.441v-1.916c0-0.248-0.2-0.442-0.44-0.442h-7.47v2.799h7.47"
           id="path32" />
        <path
           d="m-144.83-88.197h-9.33c-0.24 0-0.45 0.203-0.45 0.441v1.925c0 0.239 0.21 0.442 0.45 0.442h3.26v10.427c0 0.248 0.2 0.442 0.44 0.442h1.93c0.24 0 0.44-0.194 0.44-0.442v-10.427h3.26c0.24 0 0.45-0.203 0.45-0.442v-1.925c0-0.238-0.21-0.441-0.45-0.441"
           id="path34" />
        <path
           d="m-184.67-82.343c-0.1 0.265-0.24 0.494-0.42 0.689-0.18 0.194-0.38 0.317-0.62 0.423s-0.67 0.168-1.5 0.168h-2.15v-4.326h2.83c0.3 0 0.58 0.053 0.82 0.168 0.25 0.105 0.47 0.256 0.64 0.441 0.18 0.185 0.32 0.415 0.41 0.68 0.1 0.274 0.15 0.565 0.15 0.874s-0.05 0.609-0.16 0.883zm2.65-2.79c-0.22-0.601-0.55-1.13-0.98-1.581-0.43-0.45-0.96-0.812-1.57-1.077s-1.31-0.406-2.08-0.406h-5.07c-0.25 0-0.45 0.203-0.45 0.441v12.786c0 0.238 0.2 0.441 0.45 0.441h1.92c0.24 0 0.44-0.203 0.44-0.441v-3.276h2.71c0.77 0 1.46-0.133 2.07-0.389 0.6-0.265 1.13-0.627 1.56-1.077 0.43-0.441 0.76-0.971 0.99-1.554 0.22-0.583 0.34-1.324 0.34-1.978 0-0.653-0.11-1.289-0.33-1.889"
           id="path36" />
        <path
           d="m-201.11-84.268c-0.01 0.283 0.07 0.45 0.17 0.601 0.12 0.176 0.3 0.317 0.51 0.432 0.24 0.124 0.53 0.221 0.84 0.292 0.36 0.079 0.71 0.15 1.07 0.211 0.65 0.106 1.29 0.23 1.9 0.38 0.64 0.159 1.21 0.397 1.69 0.706 0.5 0.327 0.9 0.76 1.18 1.281 0.29 0.529 0.42 1.209 0.38 2.013-0.03 0.777-0.23 1.439-0.59 1.978-0.35 0.521-0.81 0.944-1.35 1.262s-1.06 0.548-1.72 0.662c-0.64 0.124-1.35 0.159-1.98 0.133-1.55-0.071-3.85-0.963-5-2.534-0.09-0.124-0.2-0.344 0.05-0.592 0.24-0.256 1.42-1.457 1.42-1.457 0.24-0.256 0.48-0.07 0.57 0.071 0.68 0.989 2.02 1.722 3.07 1.766 0.56 0.026 0.62 0 0.97-0.044 0.31-0.044 0.59-0.124 0.85-0.239 0.24-0.114 0.44-0.256 0.6-0.459 0.14-0.185 0.23-0.45 0.25-0.759 0.02-0.291-0.06-0.53-0.2-0.724-0.15-0.203-0.35-0.362-0.6-0.495-0.27-0.141-0.59-0.229-0.94-0.3-0.38-0.07-0.75-0.132-1.11-0.185-0.6-0.071-1.2-0.194-1.77-0.362-0.59-0.168-1.13-0.406-1.58-0.707-0.47-0.317-0.85-0.724-1.13-1.218-0.29-0.494-0.42-1.068-0.38-1.784 0.03-0.724 0.21-1.359 0.53-1.889s0.74-0.962 1.25-1.289c0.49-0.327 1.06-0.556 1.69-0.706 1.23-0.274 2.46-0.23 3.67 0.158 1.31 0.415 2.37 1.422 2.85 2.128 0.09 0.133 0.18 0.345-0.01 0.557s-1.35 1.342-1.35 1.342c-0.25 0.238-0.5 0.185-0.64-0.027-0.71-1.042-1.63-1.51-2.69-1.58-1.14-0.071-2.41 0.185-2.47 1.377"
           id="path38" />
        <path
           d="m-208.08-79.456c-0.22 0.521-0.51 0.971-0.88 1.325-0.37 0.353-0.81 0.618-1.29 0.803-0.5 0.177-1.04 0.274-1.6 0.274-0.57 0-1.11-0.097-1.61-0.274-0.48-0.177-0.91-0.45-1.27-0.803-0.36-0.354-0.65-0.795-0.86-1.325-0.22-0.538-0.33-1.165-0.33-1.881 0-0.706 0.11-1.342 0.33-1.871 0.21-0.53 0.51-0.98 0.87-1.334 0.36-0.353 0.79-0.626 1.28-0.812 0.5-0.185 1.04-0.282 1.61-0.282 0.56 0 1.1 0.097 1.59 0.282 0.49 0.186 0.92 0.468 1.28 0.821 0.37 0.362 0.66 0.813 0.88 1.342 0.21 0.53 0.32 1.157 0.32 1.854 0 0.716-0.11 1.343-0.32 1.881zm1.12-7.09c-0.64-0.6-1.38-1.059-2.22-1.377-0.83-0.309-1.72-0.468-2.64-0.468s-1.8 0.159-2.64 0.468c-0.84 0.318-1.59 0.777-2.23 1.377-0.64 0.601-1.15 1.351-1.53 2.225-0.37 0.874-0.56 1.872-0.56 2.967 0 1.112 0.18 2.11 0.55 2.975 0.37 0.866 0.88 1.616 1.51 2.217 0.63 0.6 1.38 1.068 2.21 1.377s1.72 0.468 2.65 0.468c1.01 0 1.96-0.168 2.81-0.503 0.86-0.345 1.6-0.83 2.22-1.457 0.61-0.618 1.09-1.369 1.43-2.225 0.34-0.866 0.52-1.819 0.52-2.852 0-1.095-0.19-2.093-0.57-2.967-0.37-0.874-0.88-1.616-1.51-2.225"
           id="path40" />
        <path
           d="m-170.03-79.456c-0.21 0.521-0.51 0.971-0.88 1.325-0.37 0.353-0.8 0.618-1.29 0.803-0.5 0.177-1.03 0.274-1.59 0.274-0.58 0-1.12-0.097-1.62-0.274-0.48-0.177-0.91-0.45-1.26-0.803-0.36-0.354-0.65-0.795-0.87-1.325-0.22-0.538-0.33-1.165-0.33-1.881 0-0.706 0.11-1.342 0.33-1.871 0.22-0.53 0.51-0.98 0.87-1.334 0.37-0.353 0.8-0.626 1.29-0.812 0.49-0.185 1.03-0.282 1.61-0.282 0.55 0 1.09 0.097 1.58 0.282 0.49 0.186 0.92 0.468 1.28 0.821 0.37 0.362 0.67 0.813 0.88 1.342 0.22 0.53 0.33 1.157 0.33 1.854 0 0.716-0.11 1.343-0.33 1.881zm1.12-7.09c-0.63-0.6-1.38-1.059-2.21-1.377-0.83-0.309-1.73-0.468-2.65-0.468-0.91 0-1.8 0.159-2.64 0.468-0.84 0.318-1.59 0.777-2.23 1.377-0.64 0.601-1.15 1.351-1.53 2.225-0.37 0.874-0.56 1.872-0.56 2.967 0 1.112 0.19 2.11 0.56 2.975 0.36 0.866 0.87 1.616 1.5 2.217 0.63 0.6 1.38 1.068 2.22 1.377 0.83 0.309 1.72 0.468 2.64 0.468 1.02 0 1.96-0.168 2.81-0.503 0.86-0.345 1.61-0.83 2.22-1.457 0.61-0.618 1.09-1.369 1.44-2.225 0.34-0.866 0.51-1.819 0.51-2.852 0-1.095-0.19-2.093-0.56-2.967-0.38-0.874-0.89-1.616-1.52-2.225"
           id="path42" />
        <path
           d="m-232.77-88.197h-1.93c-0.24 0-0.44 0.203-0.44 0.441v8.459c0 0.362-0.06 0.68-0.18 0.945s-0.28 0.485-0.49 0.653c-0.21 0.186-0.46 0.327-0.75 0.424-0.3 0.097-0.81 0.15-1.16 0.15s-0.89-0.053-1.19-0.15-0.56-0.238-0.78-0.424c-0.21-0.176-0.37-0.397-0.49-0.653-0.12-0.265-0.18-0.583-0.18-0.945v-8.459c0-0.238-0.2-0.441-0.44-0.441h-1.92c-0.25 0-0.44 0.203-0.44 0.441v8.53c0 0.786 0.14 1.483 0.43 2.092 0.29 0.601 0.69 1.122 1.19 1.545 0.5 0.415 1.09 0.733 1.74 0.945 0.64 0.212 1.34 0.318 2.08 0.318 0.72 0 1.42-0.106 2.06-0.318 0.66-0.212 1.24-0.53 1.73-0.953 0.49-0.415 0.88-0.936 1.17-1.537 0.29-0.609 0.43-1.306 0.43-2.092v-8.53c0-0.238-0.2-0.441-0.44-0.441"
           id="path44" />
        <path
           d="m-219.29-75.271-3.11-3.867s2.51-0.909 2.51-4.106c0-0.653-0.11-1.289-0.33-1.889-0.22-0.601-0.55-1.13-0.98-1.581-0.43-0.45-0.95-0.812-1.56-1.077-0.62-0.265-1.32-0.406-2.08-0.406h-5.07c-0.25 0-0.44 0.203-0.44 0.441v12.786c0 0.238 0.19 0.441 0.44 0.441h1.91c0.25 0 0.45-0.203 0.45-0.441v-10.419h2.84c0.3 0 0.57 0.053 0.82 0.168 0.25 0.105 0.47 0.256 0.64 0.441 0.18 0.185 0.31 0.415 0.41 0.68 0.1 0.274 0.15 0.565 0.15 0.874s-0.06 0.609-0.16 0.883c-0.1 0.265-0.24 0.494-0.42 0.689-0.18 0.194-0.38 0.317-0.62 0.423s-0.67 0.168-1.5 0.168h-1.19c-0.23 0-0.41 0.212-0.23 0.503l4.44 5.846c0.08 0.114 0.22 0.185 0.36 0.185h2.45c0.37 0 0.61-0.336 0.27-0.742"
           id="path46" />
        <path
           d="m-154.44-75.271-3.12-3.867s2.52-0.909 2.52-4.106c0-0.653-0.11-1.289-0.33-1.889-0.22-0.601-0.54-1.13-0.98-1.581-0.43-0.45-0.96-0.812-1.57-1.077s-1.31-0.406-2.07-0.406h-5.07c-0.25 0-0.45 0.203-0.45 0.441v12.786c0 0.238 0.2 0.441 0.45 0.441h1.91c0.24 0 0.44-0.203 0.44-0.441v-10.419h2.84c0.31 0 0.58 0.053 0.83 0.168 0.25 0.105 0.46 0.256 0.64 0.441 0.17 0.185 0.31 0.415 0.4 0.68 0.11 0.274 0.15 0.565 0.15 0.874s-0.05 0.609-0.15 0.883c-0.1 0.265-0.25 0.494-0.42 0.689-0.18 0.194-0.38 0.317-0.62 0.423s-0.67 0.168-1.5 0.168h-1.19c-0.23 0-0.41 0.212-0.23 0.503l4.44 5.846c0.08 0.114 0.22 0.185 0.36 0.185h2.45c0.37 0 0.61-0.336 0.27-0.742"
           id="path48" />
      </g>
    </g>
    <path
       stroke-width=".88294"
       fill="#d50032"
       d="m-126.07-74.308h-12.73c-0.26 0-0.46-0.203-0.46-0.459v-13.174c0-0.247 0.2-0.459 0.46-0.459h12.73c0.25 0 0.46 0.212 0.46 0.459v13.174c0 0.256-0.21 0.459-0.46 0.459"
       id="path54" />
    <path
       stroke-width=".88294"
       fill="#fff"
       d="m-135.52-77.063v0.274c0 0.176 0.13 0.318 0.3 0.318h5.92c0.17 0 0.3-0.142 0.3-0.318v-1.369c0-0.159-0.14-0.309-0.31-0.309h-2.77l1.73-2.313c1.02-1.325 1.25-2.808 0.69-3.938-0.47-0.954-1.46-1.492-2.72-1.492-1.96 0.008-3.07 1.077-3.11 3.01l-0.01 0.451c0 0.185 0.13 0.309 0.33 0.309h1.32c0.18 0 0.31-0.141 0.32-0.318l0.02-0.415c0.02-0.512 0.23-1.13 1.08-1.13 0.68 0 1.03 0.432 1.04 0.883 0.02 0.485-0.1 0.856-0.53 1.412l-3.44 4.539c-0.11 0.123-0.16 0.229-0.16 0.406"
       id="path56" />
  </g>
  <path
     style="opacity:1;fill:#ffffff;stroke-width:0"
     d="m 2.4979503,51.380304 c 0.2337447,-0.385651 3.5339363,-4.348493 7.3337592,-8.806316 3.7998225,-4.457822 6.9654655,-8.267621 7.0347625,-8.466221 0.0693,-0.198599 -3.696735,-2.87216 -8.36896,-5.941248 L 0.00255816,22.58636 13.557464,22.444518 27.112371,22.302676 36.275406,11.592012 45.438441,0.88134731 45.582276,11.591732 l 0.143836,10.710385 13.12124,0.142122 13.121245,0.142121 -13.123217,5.580159 -13.123219,5.580159 -0.009,9.167405 c -0.0049,5.042073 -0.188361,9.167104 -0.407582,9.166735 -0.21922,-3.69e-4 -3.985828,-2.391564 -8.370239,-5.313768 -4.384411,-2.922203 -8.278853,-5.313398 -8.654315,-5.313767 -0.375462,-3.69e-4 -6.297933,2.390827 -13.161045,5.313767 -6.8631121,2.922941 -12.6063288,5.314438 -12.7627034,5.314438 -0.1563747,0 -0.093072,-0.315532 0.1406737,-0.701184 z"
     id="path936"
     transform="matrix(0.26458506,0,0,0.26458506,-5.1883645e-4,0)" />
  <path
     style="opacity:1;fill:#ffffff;stroke-width:0"
     d="M 49.955713,6.1116032 V 0.53144376 h 14.311021 c 12.301428,0 14.428292,0.11727071 15.146147,0.83512594 1.178893,1.1788932 1.178893,8.3111736 0,9.4900663 -0.717855,0.717856 -2.844719,0.835127 -15.146147,0.835127 H 49.955713 Z"
     id="path975"
     transform="matrix(0.26458506,0,0,0.26458506,-5.1883645e-4,0)" />
  <path
     style="opacity:1;fill:#ffffff;stroke-width:0"
     d="m 50.069982,47.165633 0.151453,-5.447298 h 14.501644 c 12.312276,0 14.577661,0.120351 15.005149,0.797165 0.740299,1.17207 0.646492,8.695254 -0.117953,9.459699 -0.464907,0.464907 -4.574548,0.637733 -15.164739,0.637733 H 49.91853 Z"
     id="path1014"
     transform="matrix(0.26458506,0,0,0.26458506,-5.1883645e-4,0)" />
  <path
     style="opacity:1;fill:#ffffff;stroke-width:0"
     d="M 99.11426,52.427431 C 93.430864,50.549852 89.31376,47.200396 87.056611,42.61797 85.850798,40.169948 85.825365,39.767445 85.676112,20.769533 85.555712,5.4441258 85.666343,1.3247836 86.207556,0.98139072 87.291951,0.29335501 94.829209,0.44479768 95.553587,1.1691763 96.023491,1.6390797 96.19132,6.361453 96.19132,19.113695 c 0,15.865964 0.08243,17.460948 0.99013,19.158547 1.586952,2.967949 3.85497,3.977537 8.93547,3.977537 4.70565,0 6.0975,-0.607837 8.37637,-3.658056 1.04779,-1.402446 1.10273,-2.248962 1.25573,-19.35027 0.11784,-13.1714523 0.32789,-17.9903873 0.79716,-18.2886986 1.17986,-0.75001733 8.68976,-0.48714405 9.36615,0.3278483 0.45587,0.549292 0.57957,5.8307132 0.46365,19.7962803 l -0.15809,19.047121 -1.41673,2.657218 c -1.91947,3.60017 -5.37138,6.819652 -9.21214,8.591882 -2.7391,1.263891 -3.9754,1.491442 -8.76883,1.613967 -3.56972,0.09125 -6.34603,-0.110382 -7.70593,-0.55964 z"
     id="path1053"
     transform="matrix(0.26458506,0,0,0.26458506,-5.1883645e-4,0)" />
  <path
     style="opacity:1;fill:#ffffff;stroke-width:0"
     d="m 134.58813,52.260967 c -0.5183,-0.209139 -0.6643,-5.792154 -0.6643,-25.402272 0,-21.3345896 0.11676,-25.2311227 0.77237,-25.7752298 0.56862,-0.47191873 3.89813,-0.58814277 12.62179,-0.4405931 14.16632,0.2396054 16.15348,0.7613563 20.87241,5.4802841 3.56764,3.5676415 5.17264,7.4712418 5.23944,12.7430968 0.0835,6.587755 -1.97464,11.096095 -6.65126,14.569764 l -2.4437,1.815113 6.05222,7.547814 c 3.32873,4.151297 6.05223,7.912542 6.05223,8.35832 0,1.201471 -1.159,1.455668 -6.63703,1.455668 h -4.95576 l -2.07543,-2.524358 c -5.07035,-6.1671 -15.71224,-20.570577 -15.76679,-21.339874 -0.0503,-0.708703 0.82784,-0.891526 5.34869,-1.113625 4.3569,-0.214044 5.70052,-0.479779 6.90877,-1.366387 4.39689,-3.226427 4.43663,-10.83844 0.0705,-13.500414 -1.51109,-0.921286 -2.67726,-1.072818 -8.26936,-1.074525 l -6.51019,-0.002 v 19.822852 c 0,14.709182 -0.16451,19.987367 -0.63773,20.460584 -0.62752,0.627522 -7.92572,0.851133 -9.32684,0.285768 z"
     id="path1092"
     transform="matrix(0.26458506,0,0,0.26458506,-5.1883645e-4,0)" />
  <path
     style="opacity:1;fill:#ffffff;stroke-width:0"
     d="M 195.46379,52.118262 C 187.50643,49.573985 181.7418,44.013857 179.03298,36.27036 177.51361,31.927034 177.16314,24.606975 178.25322,19.983894 181.071,8.0335982 191.27193,0 203.62846,0 c 12.63687,0 22.67686,7.3856046 25.67203,18.884834 1.03607,3.977731 1.04665,11.356371 0.0219,15.290561 -2.34701,9.010761 -9.11434,15.86328 -18.00357,18.230207 -3.93732,1.048382 -12.14258,0.899679 -15.85505,-0.28734 z m 15.86086,-11.083571 c 5.32301,-2.755757 7.88977,-8.032088 7.5334,-15.485928 -0.18754,-3.922471 -0.46653,-5.06551 -1.83411,-7.514395 -2.82713,-5.062455 -8.13553,-7.758558 -14.31067,-7.268292 -5.8746,0.466403 -10.31182,3.399472 -12.65615,8.365899 -0.91617,1.940901 -1.12886,3.392822 -1.12886,7.705935 0,4.55482 0.17927,5.656265 1.25421,7.705934 3.16899,6.04252 6.87825,8.044766 14.42338,7.785699 3.355,-0.115195 5.08371,-0.448354 6.7188,-1.294852 z"
     id="path1131"
     transform="matrix(0.26458506,0,0,0.26458506,-5.1883645e-4,0)" />
  <path
     style="opacity:1;fill:#ffffff;stroke-width:0"
     d="m 245.38026,51.87855 c -1.98062,-0.714132 -4.77801,-2.05362 -6.21641,-2.976639 -2.78796,-1.789027 -6.56426,-5.624704 -6.2906,-6.389515 0.42787,-1.195836 6.98132,-7.392644 7.48736,-7.079897 0.31616,0.195397 1.26415,1.140359 2.10666,2.099915 2.48649,2.831962 7.385,4.983086 11.34741,4.983086 5.70888,0 8.71854,-1.866532 8.71854,-5.407075 0,-3.648047 -1.81699,-4.717181 -10.75675,-6.329375 -7.17536,-1.294003 -10.77609,-2.633407 -13.61731,-5.065381 -3.26941,-2.798495 -4.32628,-5.220452 -4.31224,-9.882046 0.0128,-4.254056 0.93926,-6.9286131 3.41656,-9.863304 5.28942,-6.26603961 17.90657,-7.9010042 26.59834,-3.4466864 2.6869,1.3769694 6.69517,4.8899888 7.68093,6.7319011 0.73303,1.3696753 0.66486,1.5006923 -2.38364,4.5813323 -1.72603,1.744234 -3.53585,3.171334 -4.02182,3.171334 -0.48598,0 -1.50316,-0.8123 -2.26042,-1.805112 -0.75725,-0.992811 -2.62621,-2.427709 -4.15325,-3.188662 -6.63213,-3.3049305 -15.33528,-0.427754 -14.06122,4.648502 0.55426,2.208384 2.91592,3.262111 10.85343,4.842598 8.52428,1.697323 11.947,3.158602 14.89865,6.360761 2.63794,2.861825 3.4752,5.711916 3.15565,10.742069 -0.38631,6.081116 -3.47295,10.19743 -9.79892,13.067753 -2.05989,0.934648 -3.7732,1.19796 -8.67821,1.333712 -5.40128,0.14949 -6.53014,0.01823 -9.71274,-1.129271 z"
     id="path1170"
     transform="matrix(0.26458506,0,0,0.26458506,-5.1883645e-4,0)" />
  <path
     style="opacity:1;fill:#ffffff;stroke-width:0"
     d="m 278.58282,51.975199 c -0.91828,-0.91828 -0.91828,-49.8877426 0,-50.8060227 0.79851,-0.79851384 21.36194,-0.86966602 24.76071,-0.085675 5.72973,1.3216711 10.39784,4.9943492 12.80802,10.0768177 1.22024,2.573198 1.38609,3.590631 1.38609,8.5031 0,5.035998 -0.14512,5.875696 -1.48823,8.610777 -1.86342,3.794623 -5.86136,7.455449 -9.71773,8.898301 -2.41206,0.902467 -4.15599,1.091453 -10.07172,1.091453 h -7.15456 v 6.536759 c 0,4.375553 -0.21085,6.747607 -0.63773,7.17449 -0.39104,0.391038 -2.30292,0.637733 -4.94243,0.637733 -2.6395,0 -4.55139,-0.246695 -4.94242,-0.637733 z m 23.38592,-24.892837 c 2.30543,-0.640295 3.91814,-2.48496 4.69511,-5.37042 0.7819,-2.903777 0.11593,-5.634789 -1.91488,-7.852507 l -1.74165,-1.901951 -6.95096,-0.175094 -6.95096,-0.175094 v 8.01389 8.013889 l 5.4473,-0.003 c 2.99602,-0.0016 6.33323,-0.249017 7.41604,-0.549749 z"
     id="path1209"
     transform="matrix(0.26458506,0,0,0.26458506,-5.1883645e-4,0)" />
  <path
     style="opacity:1;fill:#ffffff;stroke-width:0"
     d="m 339.56334,52.142488 c -11.51408,-3.684658 -18.03987,-12.832899 -18.03987,-25.28938 0,-8.425464 2.23113,-14.23621 7.45391,-19.4128954 10.10563,-10.0164616 27.85246,-9.9062544 37.80411,0.2347621 9.17855,9.3532143 9.70014,26.4148443 1.12734,36.8768113 -2.49793,3.048399 -7.40566,6.203036 -11.7263,7.537545 -4.46007,1.377578 -12.40117,1.402975 -16.61919,0.05316 z m 13.91471,-10.438982 c 3.40843,-1.161369 6.01633,-3.533517 7.73706,-7.037648 1.32925,-2.706897 1.49247,-3.605474 1.47017,-8.09367 -0.0299,-6.011839 -1.12986,-8.822248 -4.76417,-12.17224 -4.36051,-4.019372 -11.91914,-4.8960941 -17.54174,-2.034655 -3.09209,1.573616 -4.49317,2.978292 -6.12641,6.142116 -2.1903,4.242939 -2.19185,12.222167 -0.003,16.512241 1.28663,2.521993 5.23214,6.074698 7.58289,6.827949 2.65593,0.851037 8.95357,0.773115 11.64543,-0.144093 z"
     id="path1248"
     transform="matrix(0.26458506,0,0,0.26458506,-5.1883645e-4,0)" />
  <path
     style="opacity:1;fill:#ffffff;stroke-width:0"
     d="m 379.55713,51.975199 c -0.4778,-0.477797 -0.63773,-6.858878 -0.63773,-25.444227 0,-21.1572104 0.11472,-24.9017091 0.77986,-25.4537211 0.57781,-0.47954323 3.91668,-0.59868487 12.88751,-0.45986732 11.76785,0.18209979 12.19147,0.22655474 15.09437,1.58401212 6.17489,2.8875095 10.13174,8.3594823 10.84221,14.9938173 0.71881,6.712079 -1.68169,12.506917 -6.72406,16.232023 l -2.46111,1.818175 6.06809,7.486611 c 3.99886,4.933655 6.01606,7.849536 5.9155,8.550899 -0.14207,0.990911 -0.55513,1.064289 -5.99099,1.064289 h -5.8384 l -8.64344,-11.380525 c -4.7539,-6.259289 -8.64345,-11.819519 -8.64345,-12.356068 0,-0.87121 0.49732,-0.97679 4.65013,-0.987213 5.79237,-0.01454 8.56336,-1.096376 9.87203,-3.854196 1.21552,-2.561508 1.1453,-6.603025 -0.15166,-8.730121 -1.71567,-2.813796 -3.40903,-3.347324 -10.624,-3.347324 h -6.40372 v 20.138004 c 0,17.872974 -0.0946,20.174286 -0.84063,20.460584 -1.53205,0.587905 -8.48699,0.348371 -9.15051,-0.315152 z"
     id="path1287"
     transform="matrix(0.26458506,0,0,0.26458506,-5.1883645e-4,0)" />
  <path
     style="opacity:1;fill:#ffffff;stroke-width:0"
     d="m 434.85385,52.260967 c -0.51505,-0.207828 -0.6643,-4.795426 -0.6643,-20.418628 V 11.691763 h -6.33937 c -7.86429,0 -8.00961,-0.101246 -8.00961,-5.5801598 0,-2.8458698 0.22727,-4.1371778 0.83512,-4.7450335 0.72632,-0.72631719 3.17946,-0.83512594 18.8283,-0.83512594 15.64883,0 18.10197,0.10880875 18.82829,0.83512594 0.60785,0.6078557 0.83512,1.8991637 0.83512,4.7450335 0,5.4789138 -0.14532,5.5801598 -8.00961,5.5801598 h -6.33937 v 20.138004 c 0,17.872974 -0.0946,20.174286 -0.84063,20.460584 -0.99304,0.381068 -8.16396,0.357973 -9.12394,-0.02938 z"
     id="path1326"
     transform="matrix(0.26458506,0,0,0.26458506,-5.1883645e-4,0)" />
  <path
     style="opacity:1;fill:#ffffff;stroke-width:0"
     d="m 549.3357,27.280779 c -0.51774,-0.517734 -0.41805,-25.2945353 0.10509,-26.1195057 0.28635,-0.45156402 1.27055,-0.63957933 2.78194,-0.53144373 l 2.33883,0.16733606 0.1528,4.91585477 0.15281,4.9158546 h 5.00883 5.00883 l 0.1528,-4.9158546 0.1528,-4.91585477 h 2.3915 2.3915 l 0.14198,13.41895437 0.14199,13.418955 h -2.66634 -2.66635 v -5.580159 -5.58016 h -5.04871 -5.04872 v 5.58016 5.580159 h -2.56864 c -1.41276,0 -2.72808,-0.159433 -2.92294,-0.354296 z"
     id="path1365"
     transform="matrix(0.26458506,0,0,0.26458506,-5.1883645e-4,0)" />
  <path
     style="opacity:1;fill:#ffffff;stroke-width:0"
     d="m 576.74021,14.21612 0.14199,-13.41895437 4.99616,-0.15386657 c 2.74789,-0.0846266 6.25786,0.10806053 7.79994,0.42819354 5.76303,1.1964012 9.69611,5.7968445 10.18729,11.9158684 0.48296,6.016733 -2.03891,10.859795 -6.92197,13.293127 -2.48842,1.240036 -3.29449,1.354587 -9.53185,1.354587 h -6.81355 z m 13.67572,7.173665 c 2.44706,-1.234438 3.86083,-3.786683 3.86083,-6.969847 0,-5.2775578 -2.91496,-8.0372905 -8.49288,-8.0406264 l -3.32152,-0.00199 v 7.9716564 7.971656 l 3.0558,-8.51e-4 c 1.85112,-5e-4 3.78195,-0.367141 4.89777,-0.930026 z"
     id="path1404"
     transform="matrix(0.26458506,0,0,0.26458506,-5.1883645e-4,0)" />
</svg>
