<?xml version="1.0" encoding="UTF-8"?>
<!DOCTYPE svg PUBLIC "-//W3C//DTD SVG 1.1//EN" "http://www.w3.org/Graphics/SVG/1.1/DTD/svg11.dtd">
<svg xmlns="http://www.w3.org/2000/svg" version="1.1" width="292px" height="94px" style="shape-rendering:geometricPrecision; text-rendering:geometricPrecision; image-rendering:optimizeQuality; fill-rule:evenodd; clip-rule:evenodd" xmlns:xlink="http://www.w3.org/1999/xlink">
<g><path style="opacity:0.22" fill="#aaabab" d="M 79.5,1.5 C 80.5676,0.565525 81.901,0.232191 83.5,0.5C 83.5,2.16667 83.5,3.83333 83.5,5.5C 82.5655,4.43236 82.2322,3.09903 82.5,1.5C 81.5,1.5 80.5,1.5 79.5,1.5 Z"/></g>
<g><path style="opacity:0.455" fill="#959595" d="M 121.5,2.5 C 122.251,1.42654 123.251,1.25988 124.5,2C 123.552,2.48278 122.552,2.64945 121.5,2.5 Z"/></g>
<g><path style="opacity:1" fill="#1e1e1f" d="M 79.5,1.5 C 80.5,1.5 81.5,1.5 82.5,1.5C 82.2322,3.09903 82.5655,4.43236 83.5,5.5C 83.5,7.83333 83.5,10.1667 83.5,12.5C 83.5,18.1667 83.5,23.8333 83.5,29.5C 80.9327,29.7215 78.5994,30.3882 76.5,31.5C 75.0813,32.4511 73.4147,32.7845 71.5,32.5C 69.6916,32.4914 68.0249,32.9914 66.5,34C 69.1667,34.1667 71.8333,34.3333 74.5,34.5C 77.5902,34.4783 80.2568,33.8117 82.5,32.5C 82.56,31.9569 82.8933,31.6236 83.5,31.5C 84.1757,32.6016 84.8423,33.6016 85.5,34.5C 88.9561,41.9151 92.2895,49.4151 95.5,57C 93.349,60.4898 91.1824,63.9898 89,67.5C 88.3333,68.8333 88.3333,70.1667 89,71.5C 89.3826,70.944 89.8826,70.6107 90.5,70.5C 89.2515,72.6704 88.2515,75.0037 87.5,77.5C 87.7517,79.0729 88.4183,80.4062 89.5,81.5C 88.2089,82.5417 88.2089,83.7083 89.5,85C 92.4055,86.0375 95.2388,87.2042 98,88.5C 100.333,85.1667 102.667,81.8333 105,78.5C 106.411,80.6504 107.245,82.9837 107.5,85.5C 106.88,87.9767 105.88,87.9767 104.5,85.5C 103.893,85.6236 103.56,85.9569 103.5,86.5C 102.55,89.1149 100.883,91.1149 98.5,92.5C 95.297,91.3939 92.297,90.0605 89.5,88.5C 89.44,87.9569 89.1067,87.6236 88.5,87.5C 80.7041,89.424 72.7041,90.0906 64.5,89.5C 64.8016,86.9407 64.4682,84.6074 63.5,82.5C 62.5166,78.7016 62.1832,74.7016 62.5,70.5C 60.4352,70.5172 58.4352,70.8505 56.5,71.5C 55.7927,77.0655 55.1261,82.7322 54.5,88.5C 47.3559,90.0373 40.3559,91.704 33.5,93.5C 32.1667,93.5 30.8333,93.5 29.5,93.5C 28.3913,85.8477 27.3913,78.1811 26.5,70.5C 26.5,68.8333 26.5,67.1667 26.5,65.5C 25.1667,65.5 23.8333,65.5 22.5,65.5C 22.8417,64.6618 23.5084,64.3284 24.5,64.5C 25.5,64.1667 26.1667,63.5 26.5,62.5C 27.4916,62.6716 28.1583,62.3382 28.5,61.5C 30.1667,60.1667 31.8333,58.8333 33.5,57.5C 32.7814,59.7638 32.448,62.0971 32.5,64.5C 31.8485,63.9094 31.1818,63.2427 30.5,62.5C 30.0681,71.5957 31.0681,80.5957 33.5,89.5C 39.7736,87.7871 46.1069,86.2871 52.5,85C 53.1457,79.5522 53.8124,74.0522 54.5,68.5C 59.1915,67.1613 63.8582,65.828 68.5,64.5C 68.6643,57.7978 68.331,51.1311 67.5,44.5C 62.175,45.4959 56.8417,46.4959 51.5,47.5C 51.5,42.8333 51.5,38.1667 51.5,33.5C 55.9655,33.1237 60.2989,32.1237 64.5,30.5C 65.911,23.0786 65.5777,15.7452 63.5,8.5C 49.9389,12.307 36.2723,15.6403 22.5,18.5C 22.6721,22.534 23.1721,26.534 24,30.5C 25.813,31.6091 26.6463,30.9424 26.5,28.5C 27.2008,30.5877 28.2008,32.5877 29.5,34.5C 24.8496,32.1218 19.8496,31.1218 14.5,31.5C 16.2646,30.5386 18.2646,30.2053 20.5,30.5C 20.7678,28.901 20.4345,27.5676 19.5,26.5C 18.9413,23.4836 18.2746,20.4836 17.5,17.5C 37.8732,11.2396 58.5399,5.90629 79.5,1.5 Z M 76.5,31.5 C 78.2915,31.366 79.9582,31.6993 81.5,32.5C 78.1667,33.8333 74.8333,33.8333 71.5,32.5C 73.4147,32.7845 75.0813,32.4511 76.5,31.5 Z M 55.5,36.5 C 56.8333,36.5 58.1667,36.5 59.5,36.5C 59.5,38.5 59.5,40.5 59.5,42.5C 57.8333,42.5 56.1667,42.5 54.5,42.5C 54.3253,40.3792 54.6586,38.3792 55.5,36.5 Z M 89.5,51.5 C 90.8333,54.5 90.8333,57.5 89.5,60.5C 88.1667,57.5 88.1667,54.5 89.5,51.5 Z"/></g>
<g><path style="opacity:0.999" fill="#303031" d="M 287.5,31.5 C 286.732,32.2625 286.232,33.2625 286,34.5C 285.329,33.7476 284.496,33.4142 283.5,33.5C 282.167,33.5 280.833,33.5 279.5,33.5C 277.401,32.3882 275.067,31.7215 272.5,31.5C 271.791,30.596 270.791,30.2627 269.5,30.5C 269.227,21.1998 269.894,11.8665 271.5,2.5C 277.808,3.28615 283.975,4.61949 290,6.5C 289.745,14.8793 288.911,23.2126 287.5,31.5 Z"/></g>
<g><path style="opacity:1" fill="#242424" d="M 186.5,3.5 C 187.167,6.83333 187.833,10.1667 188.5,13.5C 189.188,19.1339 189.688,24.8005 190,30.5C 199.943,27.1619 209.277,28.4953 218,34.5C 218.14,32.7445 217.64,31.0778 216.5,29.5C 224.753,26.3043 233.086,23.3043 241.5,20.5C 242.442,20.6082 243.275,20.9415 244,21.5C 244.29,23.0441 244.956,24.3774 246,25.5C 246.899,23.6734 248.233,22.34 250,21.5C 256.462,24.6485 262.962,27.6485 269.5,30.5C 269.5,31.1667 269.833,31.5 270.5,31.5C 270.804,32.1499 271.137,32.8165 271.5,33.5C 274.086,34.48 276.753,34.8134 279.5,34.5C 280.167,34.5 280.833,34.5 281.5,34.5C 283.948,35.4731 286.615,35.8064 289.5,35.5C 290.167,35.5 290.833,35.5 291.5,35.5C 291.5,37.8333 291.5,40.1667 291.5,42.5C 289.438,57.035 287.438,71.7016 285.5,86.5C 284.566,87.5676 284.232,88.901 284.5,90.5C 283.167,90.5 281.833,90.5 280.5,90.5C 274.726,89.0543 268.726,88.3877 262.5,88.5C 261.5,88.5 260.5,88.5 259.5,88.5C 259.5,87.5 259.5,86.5 259.5,85.5C 258.209,85.2627 257.209,85.596 256.5,86.5C 251.596,88.3567 246.596,90.0234 241.5,91.5C 239.468,90.4493 238.135,88.7827 237.5,86.5C 235.844,88.4602 234.177,90.4602 232.5,92.5C 228.167,89.8333 223.833,87.1667 219.5,84.5C 209.369,91.8752 198.369,93.3752 186.5,89C 182.725,87.3886 179.725,84.8886 177.5,81.5C 177.44,80.9569 177.107,80.6236 176.5,80.5C 175.806,82.7548 174.806,84.7548 173.5,86.5C 167.302,88.3399 160.969,89.6732 154.5,90.5C 153.167,90.5 151.833,90.5 150.5,90.5C 150.768,88.901 150.434,87.5676 149.5,86.5C 148.735,83.9039 148.401,81.2372 148.5,78.5C 148.5,75.8333 148.5,73.1667 148.5,70.5C 147.209,70.7373 146.209,70.404 145.5,69.5C 144.986,67.6336 144.32,65.8003 143.5,64C 144.233,62.2341 144.567,60.4008 144.5,58.5C 145.72,56.7163 145.72,55.0496 144.5,53.5C 141.771,40.7416 139.771,27.7416 138.5,14.5C 154.5,10.8333 170.5,7.16667 186.5,3.5 Z M 176.5,40.5 C 175.539,38.7354 175.205,36.7354 175.5,34.5C 177.869,34.1489 180.203,33.9822 182.5,34C 180.294,36.0367 178.294,38.2034 176.5,40.5 Z M 261.5,58.5 C 260.833,60.8333 260.167,63.1667 259.5,65.5C 258.452,62.2109 257.952,58.8776 258,55.5C 261.212,49.3669 262.378,50.3669 261.5,58.5 Z M 196.5,54.5 C 202.784,53.6189 205.617,56.2856 205,62.5C 201.2,67.7342 197.534,67.7342 194,62.5C 193.023,59.1827 193.856,56.516 196.5,54.5 Z"/></g>
<g><path style="opacity:1" fill="#cecfd0" d="M 77.5,4.5 C 78.5,4.5 79.5,4.5 80.5,4.5C 81.1115,11.8315 81.2781,19.1649 81,26.5C 77.2834,27.8876 73.45,28.8876 69.5,29.5C 69.5,21.8333 69.5,14.1667 69.5,6.5C 72.4282,6.43487 75.0948,5.7682 77.5,4.5 Z"/></g>
<g><path style="opacity:1" fill="#d0d1d2" d="M 274.5,7.5 C 277.91,7.45713 281.243,7.95713 284.5,9C 285.516,9.51935 286.182,10.3527 286.5,11.5C 285.764,16.8035 285.264,22.1368 285,27.5C 284.751,28.624 284.251,29.624 283.5,30.5C 279.926,29.6868 276.426,28.6868 273,27.5C 272.772,20.7776 273.272,14.1109 274.5,7.5 Z"/></g>
<g><path style="opacity:1" fill="#cd0d17" d="M 79.5,23.5 C 78.2905,23.9321 77.2905,24.5987 76.5,25.5C 75.8333,25.5 75.1667,25.5 74.5,25.5C 73.391,25.4431 72.391,25.1098 71.5,24.5C 71.5,20.8333 71.5,17.1667 71.5,13.5C 71.31,11.0411 72.31,9.37446 74.5,8.5C 75.8221,8.66997 76.9887,8.33663 78,7.5C 78.2648,12.882 78.7648,18.2154 79.5,23.5 Z"/></g>
<g><path style="opacity:1" fill="#4c4949" d="M 74.5,8.5 C 72.31,9.37446 71.31,11.0411 71.5,13.5C 69.7271,10.324 70.7271,8.65732 74.5,8.5 Z"/></g>
<g><path style="opacity:1" fill="#280e0f" d="M 280.5,11.5 C 279.041,11.4326 277.708,11.7659 276.5,12.5C 276.62,11.4138 277.287,10.7472 278.5,10.5C 279.416,10.5427 280.083,10.8761 280.5,11.5 Z"/></g>
<g><path style="opacity:0.631" fill="#7a7c7d" d="M 186.5,3.5 C 186.56,2.95691 186.893,2.62358 187.5,2.5C 188.489,6.10728 188.823,9.77395 188.5,13.5C 187.833,10.1667 187.167,6.83333 186.5,3.5 Z"/></g>
<g><path style="opacity:1" fill="#c60d16" d="M 280.5,11.5 C 281.5,11.5 282.5,11.5 283.5,11.5C 282.671,16.453 282.337,21.453 282.5,26.5C 280.139,26.3259 277.806,25.9926 275.5,25.5C 275.927,21.1756 276.261,16.8422 276.5,12.5C 277.708,11.7659 279.041,11.4326 280.5,11.5 Z"/></g>
<g><path style="opacity:1" fill="#da0d18" d="M 60.5,29.5 C 57.6275,29.8023 54.9608,30.469 52.5,31.5C 51.1667,31.5 49.8333,31.5 48.5,31.5C 48.5,38.1667 48.5,44.8333 48.5,51.5C 53.1201,51.2598 57.4535,50.2598 61.5,48.5C 62.5,48.5 63.5,48.5 64.5,48.5C 64.1984,51.0593 64.5318,53.3926 65.5,55.5C 65.5,55.8333 65.5,56.1667 65.5,56.5C 66.0907,59.6753 65.0907,62.0087 62.5,63.5C 58.5,64.1667 54.5,64.8333 50.5,65.5C 50.5,68.1667 50.5,70.8333 50.5,73.5C 50.6641,76.1873 50.4974,78.854 50,81.5C 49.0053,82.0659 48.172,82.7326 47.5,83.5C 43.7379,83.6911 40.0712,84.3578 36.5,85.5C 35.9759,83.6943 35.3092,82.0276 34.5,80.5C 34.5,79.8333 34.5,79.1667 34.5,78.5C 34.8836,74.5115 34.217,70.8448 32.5,67.5C 32.5,66.5 32.5,65.5 32.5,64.5C 32.448,62.0971 32.7814,59.7638 33.5,57.5C 34.8698,55.7496 35.8698,53.7496 36.5,51.5C 37.7969,49.3066 37.7969,46.9732 36.5,44.5C 35.7251,46.3022 34.7251,46.9689 33.5,46.5C 31.5669,47.6417 30.0669,49.3083 29,51.5C 28.6012,51.2716 28.4346,50.9382 28.5,50.5C 29.5109,48.5976 29.6776,46.5976 29,44.5C 27.8118,45.5634 27.3118,46.8967 27.5,48.5C 26.8333,48.5 26.5,48.8333 26.5,49.5C 25.8826,49.6107 25.3826,49.944 25,50.5C 24.6667,48.5 24.3333,46.5 24,44.5C 23.5831,43.244 22.7498,42.5774 21.5,42.5C 21.573,40.9731 20.9063,39.9731 19.5,39.5C 20.7054,38.3143 22.0387,38.3143 23.5,39.5C 26.1667,40.8333 28.8333,40.8333 31.5,39.5C 32.0431,39.44 32.3764,39.1067 32.5,38.5C 31.4756,37.1482 30.4756,35.8149 29.5,34.5C 28.2008,32.5877 27.2008,30.5877 26.5,28.5C 26.5,27.8333 26.5,27.1667 26.5,26.5C 26.1412,24.2341 26.8078,22.4007 28.5,21C 39.4726,18.3059 50.4726,15.8059 61.5,13.5C 61.3927,17.5351 61.7261,21.5351 62.5,25.5C 62.1971,27.1143 61.5305,28.4477 60.5,29.5 Z"/></g>
<g><path style="opacity:1" fill="#3c3435" d="M 79.5,23.5 C 79.1788,25.0481 78.1788,25.7148 76.5,25.5C 77.2905,24.5987 78.2905,23.9321 79.5,23.5 Z"/></g>
<g><path style="opacity:1" fill="#373b3b" d="M 71.5,24.5 C 72.391,25.1098 73.391,25.4431 74.5,25.5C 73.0527,26.8852 72.0527,26.5518 71.5,24.5 Z"/></g>
<g><path style="opacity:1" fill="#d6d6d6" d="M 252.5,57.5 C 252.672,58.4916 252.338,59.1583 251.5,59.5C 250.359,57.5487 250.359,55.5487 251.5,53.5C 252.906,53.0269 253.573,52.0269 253.5,50.5C 254.906,50.0269 255.573,49.0269 255.5,47.5C 256.906,47.0269 257.573,46.0269 257.5,44.5C 258.906,44.0269 259.573,43.0269 259.5,41.5C 260.906,41.0269 261.573,40.0269 261.5,38.5C 262.684,37.3121 262.684,36.1455 261.5,35C 258.264,33.2138 254.93,31.7138 251.5,30.5C 249.738,31.2623 248.738,32.5956 248.5,34.5C 246.738,35.2623 245.738,36.5956 245.5,38.5C 244.883,38.6107 244.383,38.944 244,39.5C 243.392,37.9336 242.558,36.6002 241.5,35.5C 241.313,33.4357 240.813,31.4357 240,29.5C 238.384,28.1991 236.884,28.1991 235.5,29.5C 233.786,30.7384 231.786,31.405 229.5,31.5C 225.965,31.3369 224.965,32.6702 226.5,35.5C 226.018,38.8306 227.018,41.4973 229.5,43.5C 229.5,43.8333 229.5,44.1667 229.5,44.5C 229.796,46.403 230.463,48.0697 231.5,49.5C 231.833,52.1667 232.167,54.8333 232.5,57.5C 231.833,58.5 231.167,59.5 230.5,60.5C 229.91,58.0095 229.743,55.3429 230,52.5C 227.5,45.6667 225,38.8333 222.5,32C 222.905,31.0546 223.572,30.3879 224.5,30C 229.759,28.3586 234.926,26.5252 240,24.5C 241.591,27.7668 243.091,31.1002 244.5,34.5C 246.791,31.5401 249.291,28.8735 252,26.5C 257.386,28.7762 262.553,31.4429 267.5,34.5C 262.054,41.9321 257.054,49.5987 252.5,57.5 Z"/></g>
<g><path style="opacity:1" fill="#d2d1d1" d="M 107.5,85.5 C 107.245,82.9837 106.411,80.6504 105,78.5C 102.667,81.8333 100.333,85.1667 98,88.5C 95.2388,87.2042 92.4055,86.0375 89.5,85C 88.2089,83.7083 88.2089,82.5417 89.5,81.5C 91.8281,82.718 94.3281,83.718 97,84.5C 99.1882,81.4328 101.355,78.4328 103.5,75.5C 104.5,74.1667 105.5,74.1667 106.5,75.5C 106.796,77.403 107.463,79.0697 108.5,80.5C 109.265,81.6602 110.265,82.6602 111.5,83.5C 115.683,82.2458 119.349,80.2458 122.5,77.5C 120.511,70.6955 117.844,64.1955 114.5,58C 116.144,54.532 118.144,51.3654 120.5,48.5C 121.906,48.0269 122.573,47.0269 122.5,45.5C 123.889,42.3933 125.555,39.3933 127.5,36.5C 125.357,34.79 123.023,33.4567 120.5,32.5C 119.07,31.4625 117.403,30.7959 115.5,30.5C 114.272,31.3065 113.272,32.3065 112.5,33.5C 111.094,33.9731 110.427,34.9731 110.5,36.5C 109.662,36.8417 109.328,37.5084 109.5,38.5C 108.5,39.8333 107.5,39.8333 106.5,38.5C 105.01,36.419 104.01,34.0857 103.5,31.5C 101.705,29.0837 99.7051,29.0837 97.5,31.5C 94.5,32.1667 91.5,32.8333 88.5,33.5C 88.2627,34.791 88.596,35.791 89.5,36.5C 90.1098,37.391 90.4431,38.391 90.5,39.5C 90.6596,41.153 91.3263,42.4863 92.5,43.5C 93.5375,44.9303 94.2041,46.597 94.5,48.5C 94.6596,50.153 95.3263,51.4863 96.5,52.5C 97.3382,52.8417 97.6716,53.5084 97.5,54.5C 97.4828,56.5648 97.1495,58.5648 96.5,60.5C 95.6618,60.8417 95.3284,61.5084 95.5,62.5C 94.0937,62.9731 93.427,63.9731 93.5,65.5C 92.6618,65.8417 92.3284,66.5084 92.5,67.5C 91.0937,67.9731 90.427,68.9731 90.5,70.5C 89.8826,70.6107 89.3826,70.944 89,71.5C 88.3333,70.1667 88.3333,68.8333 89,67.5C 91.1824,63.9898 93.349,60.4898 95.5,57C 92.2895,49.4151 88.9561,41.9151 85.5,34.5C 85.4142,33.5041 85.7476,32.6708 86.5,32C 91.8762,30.2636 97.2095,28.4302 102.5,26.5C 105.321,28.7913 107.154,31.7913 108,35.5C 109.752,32.328 111.752,29.328 114,26.5C 120.09,28.9649 125.923,31.7982 131.5,35C 127.246,42.9199 122.58,50.5866 117.5,58C 120.593,65.109 123.593,72.2757 126.5,79.5C 121.402,82.7979 115.902,85.4646 110,87.5C 108.989,86.9444 108.156,86.2778 107.5,85.5 Z"/></g>
<g><path style="opacity:1" fill="#231e1f" d="M 235.5,29.5 C 236.884,28.1991 238.384,28.1991 240,29.5C 240.813,31.4357 241.313,33.4357 241.5,35.5C 240.207,34.158 239.374,32.4913 239,30.5C 237.989,29.6634 236.822,29.33 235.5,29.5 Z"/></g>
<g><path style="opacity:0.529" fill="#9b9c9d" d="M 83.5,12.5 C 83.8563,18.077 84.8563,23.4104 86.5,28.5C 84.4939,29.4851 82.8273,30.8184 81.5,32.5C 79.9582,31.6993 78.2915,31.366 76.5,31.5C 78.5994,30.3882 80.9327,29.7215 83.5,29.5C 83.5,23.8333 83.5,18.1667 83.5,12.5 Z"/></g>
<g><path style="opacity:1" fill="#db0d18" d="M 235.5,29.5 C 236.822,29.33 237.989,29.6634 239,30.5C 239.374,32.4913 240.207,34.158 241.5,35.5C 241.504,37.8421 242.337,39.8421 244,41.5C 245.039,40.7562 245.539,39.7562 245.5,38.5C 247.262,37.7377 248.262,36.4044 248.5,34.5C 250.262,33.7377 251.262,32.4044 251.5,30.5C 254.93,31.7138 258.264,33.2138 261.5,35C 262.684,36.1455 262.684,37.3121 261.5,38.5C 260.094,38.9731 259.427,39.9731 259.5,41.5C 258.094,41.9731 257.427,42.9731 257.5,44.5C 256.094,44.9731 255.427,45.9731 255.5,47.5C 254.094,47.9731 253.427,48.9731 253.5,50.5C 252.094,50.9731 251.427,51.9731 251.5,53.5C 248.941,56.0898 248.941,58.7565 251.5,61.5C 253.002,67.1726 255.002,72.6726 257.5,78C 254.563,79.8009 251.563,81.3009 248.5,82.5C 247.833,82.5 247.167,82.5 246.5,82.5C 245.391,82.4431 244.391,82.1098 243.5,81.5C 243.88,79.302 243.213,77.6354 241.5,76.5C 241.5,76.1667 241.5,75.8333 241.5,75.5C 241.001,69.3994 239.668,69.0661 237.5,74.5C 236.094,74.9731 235.427,75.9731 235.5,77.5C 234.094,77.9731 233.427,78.9731 233.5,80.5C 232.5,81.1667 231.5,81.8333 230.5,82.5C 228.847,82.3404 227.514,81.6737 226.5,80.5C 225.645,79.4693 224.978,78.3026 224.5,77C 226.741,71.4996 228.741,65.9996 230.5,60.5C 231.167,59.5 231.833,58.5 232.5,57.5C 233.746,54.7067 233.413,52.04 231.5,49.5C 231.88,47.302 231.213,45.6354 229.5,44.5C 229.5,44.1667 229.5,43.8333 229.5,43.5C 228.871,40.6027 227.871,37.936 226.5,35.5C 226.771,33.5695 227.771,32.2362 229.5,31.5C 231.786,31.405 233.786,30.7384 235.5,29.5 Z"/></g>
<g><path style="opacity:1" fill="#ebde19" d="M 14.5,31.5 C 19.8496,31.1218 24.8496,32.1218 29.5,34.5C 30.4756,35.8149 31.4756,37.1482 32.5,38.5C 32.3764,39.1067 32.0431,39.44 31.5,39.5C 30.1851,38.5244 28.8518,37.5244 27.5,36.5C 26.3578,37.8262 25.0245,38.8262 23.5,39.5C 22.0387,38.3143 20.7054,38.3143 19.5,39.5C 16.5,39.5 13.5,39.5 10.5,39.5C 9.74943,38.4265 8.74943,38.2599 7.5,39C 4.43067,43.8611 3.764,49.0278 5.5,54.5C 6.68566,55.9613 6.68566,57.2946 5.5,58.5C -0.855319,46.3336 2.14468,37.3336 14.5,31.5 Z"/></g>
<g><path style="opacity:1" fill="#db0e18" d="M 103.5,31.5 C 104.01,34.0857 105.01,36.419 106.5,38.5C 107.5,42.5 108.5,42.5 109.5,38.5C 109.328,37.5084 109.662,36.8417 110.5,36.5C 111.906,36.0269 112.573,35.0269 112.5,33.5C 113.272,32.3065 114.272,31.3065 115.5,30.5C 116.635,32.2132 118.302,32.8799 120.5,32.5C 123.023,33.4567 125.357,34.79 127.5,36.5C 125.555,39.3933 123.889,42.3933 122.5,45.5C 121.094,45.9731 120.427,46.9731 120.5,48.5C 118.144,51.3654 116.144,54.532 114.5,58C 117.844,64.1955 120.511,70.6955 122.5,77.5C 119.349,80.2458 115.683,82.2458 111.5,83.5C 110.265,82.6602 109.265,81.6602 108.5,80.5C 108.88,78.302 108.213,76.6354 106.5,75.5C 105.5,71.5 104.5,71.5 103.5,75.5C 101.355,78.4328 99.1882,81.4328 97,84.5C 94.3281,83.718 91.8281,82.718 89.5,81.5C 88.4183,80.4062 87.7517,79.0729 87.5,77.5C 88.2515,75.0037 89.2515,72.6704 90.5,70.5C 91.9063,70.0269 92.573,69.0269 92.5,67.5C 92.3284,66.5084 92.6618,65.8417 93.5,65.5C 94.9063,65.0269 95.573,64.0269 95.5,62.5C 95.3284,61.5084 95.6618,60.8417 96.5,60.5C 97.6935,60.0296 98.3601,59.0296 98.5,57.5C 98.4805,56.2739 98.1471,55.2739 97.5,54.5C 97.6716,53.5084 97.3382,52.8417 96.5,52.5C 96.7709,50.6203 96.1042,49.287 94.5,48.5C 94.2041,46.597 93.5375,44.9303 92.5,43.5C 92.7709,41.6203 92.1042,40.287 90.5,39.5C 90.4431,38.391 90.1098,37.391 89.5,36.5C 91.938,34.4654 94.6047,32.7987 97.5,31.5C 99.6119,30.7249 101.612,30.7249 103.5,31.5 Z"/></g>
<g><path style="opacity:0.059" fill="#d1d1d1" d="M 135.5,31.5 C 137.552,32.0527 137.885,33.0527 136.5,34.5C 136.443,33.391 136.11,32.391 135.5,31.5 Z"/></g>
<g><path style="opacity:1" fill="#2a1e1e" d="M 229.5,31.5 C 227.771,32.2362 226.771,33.5695 226.5,35.5C 224.965,32.6702 225.965,31.3369 229.5,31.5 Z"/></g>
<g><path style="opacity:1" fill="#261a1b" d="M 97.5,31.5 C 94.6047,32.7987 91.938,34.4654 89.5,36.5C 88.596,35.791 88.2627,34.791 88.5,33.5C 91.5,32.8333 94.5,32.1667 97.5,31.5 Z"/></g>
<g><path style="opacity:1" fill="#541816" d="M 251.5,30.5 C 251.262,32.4044 250.262,33.7377 248.5,34.5C 248.738,32.5956 249.738,31.2623 251.5,30.5 Z"/></g>
<g><path style="opacity:0.443" fill="#757677" d="M 71.5,32.5 C 74.8333,33.8333 78.1667,33.8333 81.5,32.5C 81.8333,32.5 82.1667,32.5 82.5,32.5C 80.2568,33.8117 77.5902,34.4783 74.5,34.5C 71.8333,34.3333 69.1667,34.1667 66.5,34C 68.0249,32.9914 69.6916,32.4914 71.5,32.5 Z"/></g>
<g><path style="opacity:0.999" fill="#2e2f2f" d="M 135.5,31.5 C 136.11,32.391 136.443,33.391 136.5,34.5C 135.055,37.1182 133.389,39.6182 131.5,42C 141.188,42.377 143.522,46.7103 138.5,55C 139.787,56.7859 141.287,56.9526 143,55.5C 144.03,55.1639 144.53,54.4972 144.5,53.5C 145.72,55.0496 145.72,56.7163 144.5,58.5C 142.692,57.6832 141.192,58.3498 140,60.5C 136.844,58.2566 136.177,55.5899 138,52.5C 138.988,44.4624 136.321,42.7957 130,47.5C 129.393,50.2017 129.56,52.8684 130.5,55.5C 128.368,58.1004 127.035,61.1004 126.5,64.5C 128.835,73.5053 133.502,74.8386 140.5,68.5C 141.965,70.4236 143.632,70.7569 145.5,69.5C 146.209,70.404 147.209,70.7373 148.5,70.5C 148.5,73.1667 148.5,75.8333 148.5,78.5C 147.686,76.369 147.186,74.0356 147,71.5C 145,72.8333 143,72.8333 141,71.5C 136.855,74.9786 132.522,75.3119 128,72.5C 128.491,75.1805 129.324,77.8472 130.5,80.5C 130.218,81.7777 129.551,82.7777 128.5,83.5C 121.683,86.6701 114.683,89.6701 107.5,92.5C 106.143,90.4346 104.81,88.4346 103.5,86.5C 103.56,85.9569 103.893,85.6236 104.5,85.5C 105.88,87.9767 106.88,87.9767 107.5,85.5C 108.156,86.2778 108.989,86.9444 110,87.5C 115.902,85.4646 121.402,82.7979 126.5,79.5C 123.593,72.2757 120.593,65.109 117.5,58C 122.58,50.5866 127.246,42.9199 131.5,35C 125.923,31.7982 120.09,28.9649 114,26.5C 111.752,29.328 109.752,32.328 108,35.5C 107.154,31.7913 105.321,28.7913 102.5,26.5C 97.2095,28.4302 91.8762,30.2636 86.5,32C 85.7476,32.6708 85.4142,33.5041 85.5,34.5C 84.8423,33.6016 84.1757,32.6016 83.5,31.5C 82.8933,31.6236 82.56,31.9569 82.5,32.5C 82.1667,32.5 81.8333,32.5 81.5,32.5C 82.8273,30.8184 84.4939,29.4851 86.5,28.5C 92.5861,26.0439 98.7528,23.7105 105,21.5C 106.565,22.9525 107.898,24.6191 109,26.5C 109.481,24.522 110.647,23.1887 112.5,22.5C 120.299,25.2355 127.966,28.2355 135.5,31.5 Z M 126.5,49.5 C 127.224,51.2184 127.891,53.0517 128.5,55C 126.064,57.7066 124.564,60.8733 124,64.5C 123.443,62.3853 122.609,60.3853 121.5,58.5C 123.445,55.6067 125.111,52.6067 126.5,49.5 Z"/></g>
<g><path style="opacity:1" fill="#5f251e" d="M 115.5,30.5 C 117.403,30.7959 119.07,31.4625 120.5,32.5C 118.302,32.8799 116.635,32.2132 115.5,30.5 Z"/></g>
<g><path style="opacity:1" fill="#342f30" d="M 103.5,31.5 C 101.612,30.7249 99.6119,30.7249 97.5,31.5C 99.7051,29.0837 101.705,29.0837 103.5,31.5 Z"/></g>
<g><path style="opacity:0.035" fill="#b6b6b7" d="M 270.5,31.5 C 271.167,31.5 271.833,31.5 272.5,31.5C 274.279,33.3435 276.612,34.0102 279.5,33.5C 279.5,33.8333 279.5,34.1667 279.5,34.5C 276.753,34.8134 274.086,34.48 271.5,33.5C 271.137,32.8165 270.804,32.1499 270.5,31.5 Z"/></g>
<g><path style="opacity:1" fill="#494846" d="M 19.5,26.5 C 20.4345,27.5676 20.7678,28.901 20.5,30.5C 18.2646,30.2053 16.2646,30.5386 14.5,31.5C 2.14468,37.3336 -0.855319,46.3336 5.5,58.5C 6.53751,60.6277 7.87084,61.6277 9.5,61.5C 11.8201,63.2261 14.4867,63.8928 17.5,63.5C 17.0825,64.2216 16.4158,64.7216 15.5,65C 17.8098,65.4966 20.1432,65.6633 22.5,65.5C 22.5,65.8333 22.5,66.1667 22.5,66.5C 10.0374,67.3756 2.37071,61.709 -0.5,49.5C -0.5,48.5 -0.5,47.5 -0.5,46.5C 1.84307,35.8282 8.50974,30.1616 19.5,29.5C 19.5,28.5 19.5,27.5 19.5,26.5 Z"/></g>
<g><path style="opacity:0.137" fill="#aaabab" d="M 287.5,31.5 C 287.527,33.1993 288.194,34.5326 289.5,35.5C 286.615,35.8064 283.948,35.4731 281.5,34.5C 282.492,34.6716 283.158,34.3382 283.5,33.5C 284.496,33.4142 285.329,33.7476 286,34.5C 286.232,33.2625 286.732,32.2625 287.5,31.5 Z"/></g>
<g><path style="opacity:1" fill="#452524" d="M 112.5,33.5 C 112.573,35.0269 111.906,36.0269 110.5,36.5C 110.427,34.9731 111.094,33.9731 112.5,33.5 Z"/></g>
<g><path style="opacity:0.06" fill="#dedede" d="M 175.5,34.5 C 175.205,36.7354 175.539,38.7354 176.5,40.5C 176.44,41.0431 176.107,41.3764 175.5,41.5C 174.203,39.0268 174.203,36.6934 175.5,34.5 Z"/></g>
<g><path style="opacity:1" fill="#db0d18" d="M 204.5,35.5 C 207.076,36.4878 209.743,37.4878 212.5,38.5C 214.833,41.5 217.5,44.1667 220.5,46.5C 220.992,48.8185 221.992,50.8185 223.5,52.5C 223.575,58.5293 223.241,64.5293 222.5,70.5C 221.662,70.8417 221.328,71.5084 221.5,72.5C 220.094,72.9731 219.427,73.9731 219.5,75.5C 217.5,76.8333 215.833,78.5 214.5,80.5C 212.973,80.427 211.973,81.0937 211.5,82.5C 209.847,82.6596 208.514,83.3263 207.5,84.5C 201.797,84.6252 196.13,84.2919 190.5,83.5C 190.167,83.5 189.833,83.5 189.5,83.5C 189.027,82.0937 188.027,81.427 186.5,81.5C 186.027,80.0937 185.027,79.427 183.5,79.5C 182.5,77.8333 181.167,76.5 179.5,75.5C 179.573,73.9731 178.906,72.9731 177.5,72.5C 176.587,70.9139 176.587,69.4139 177.5,68C 180.136,67.0657 182.803,66.2324 185.5,65.5C 187.073,65.7517 188.406,66.4183 189.5,67.5C 198.262,75.173 205.429,73.8397 211,63.5C 211.667,60.8333 211.667,58.1667 211,55.5C 210.722,54.5842 210.222,53.9175 209.5,53.5C 209.573,51.9731 208.906,50.9731 207.5,50.5C 204.814,49.463 202.148,48.463 199.5,47.5C 197.201,47.5992 195.201,48.2658 193.5,49.5C 192.325,49.719 191.325,49.3857 190.5,48.5C 190.1,44.88 189.1,41.5466 187.5,38.5C 189.027,38.573 190.027,37.9063 190.5,36.5C 195.13,35.7705 199.797,35.4372 204.5,35.5 Z"/></g>
<g><path style="opacity:1" fill="#402423" d="M 248.5,34.5 C 248.262,36.4044 247.262,37.7377 245.5,38.5C 245.738,36.5956 246.738,35.2623 248.5,34.5 Z"/></g>
<g><path style="opacity:1" fill="#dadbdb" d="M 266.5,85.5 C 265.791,84.596 264.791,84.2627 263.5,84.5C 263.5,82.1667 263.5,79.8333 263.5,77.5C 264.306,64.1088 265.639,50.7754 267.5,37.5C 274.143,38.2125 280.809,38.5458 287.5,38.5C 285.668,53.8233 283.835,69.1566 282,84.5C 280.82,85.6841 279.32,86.3507 277.5,86.5C 273.855,85.8838 270.188,85.5505 266.5,85.5 Z"/></g>
<g><path style="opacity:1" fill="#221a0d" d="M 10.5,39.5 C 13.5,39.5 16.5,39.5 19.5,39.5C 20.9063,39.9731 21.573,40.9731 21.5,42.5C 17.75,41.3863 14.0833,40.3863 10.5,39.5 Z"/></g>
<g><path style="opacity:1" fill="#24130b" d="M 31.5,39.5 C 28.8333,40.8333 26.1667,40.8333 23.5,39.5C 25.0245,38.8262 26.3578,37.8262 27.5,36.5C 28.8518,37.5244 30.1851,38.5244 31.5,39.5 Z"/></g>
<g><path style="opacity:1" fill="#4f302e" d="M 106.5,38.5 C 107.5,39.8333 108.5,39.8333 109.5,38.5C 108.5,42.5 107.5,42.5 106.5,38.5 Z"/></g>
<g><path style="opacity:0.875" fill="#2a1717" d="M 212.5,38.5 C 216.167,40.1667 218.833,42.8333 220.5,46.5C 217.5,44.1667 214.833,41.5 212.5,38.5 Z"/></g>
<g><path style="opacity:1" fill="#6f6e6f" d="M 226.5,35.5 C 227.871,37.936 228.871,40.6027 229.5,43.5C 227.018,41.4973 226.018,38.8306 226.5,35.5 Z"/></g>
<g><path style="opacity:1" fill="#2d2526" d="M 241.5,35.5 C 242.558,36.6002 243.392,37.9336 244,39.5C 244.383,38.944 244.883,38.6107 245.5,38.5C 245.539,39.7562 245.039,40.7562 244,41.5C 242.337,39.8421 241.504,37.8421 241.5,35.5 Z"/></g>
<g><path style="opacity:1" fill="#4b4040" d="M 261.5,38.5 C 261.573,40.0269 260.906,41.0269 259.5,41.5C 259.427,39.9731 260.094,38.9731 261.5,38.5 Z"/></g>
<g><path style="opacity:1" fill="#0a0c0d" d="M 276.5,41.5 C 274.5,41.5 272.5,41.5 270.5,41.5C 270.737,42.791 270.404,43.791 269.5,44.5C 270.404,43.791 270.737,42.791 270.5,41.5C 272.5,41.5 274.5,41.5 276.5,41.5 Z"/></g>
<g><path style="opacity:1" fill="#d60c17" d="M 82.5,49.5 C 82.5,53.5 82.5,57.5 82.5,61.5C 82.5,68.8333 82.5,76.1667 82.5,83.5C 78.4862,83.6655 74.4862,83.4988 70.5,83C 69.8767,80.3927 69.21,77.8927 68.5,75.5C 68.5,72.8333 68.5,70.1667 68.5,67.5C 70.2462,66.7505 71.2462,65.4172 71.5,63.5C 70.4118,56.1884 69.9118,48.8551 70,41.5C 73.73,40.5399 77.5633,40.2065 81.5,40.5C 81.19,43.7131 81.5233,46.7131 82.5,49.5 Z"/></g>
<g><path style="opacity:1" fill="#5f241f" d="M 90.5,39.5 C 92.1042,40.287 92.7709,41.6203 92.5,43.5C 91.3263,42.4863 90.6596,41.153 90.5,39.5 Z"/></g>
<g><path style="opacity:1" fill="#121010" d="M 278.5,41.5 C 280.5,41.5 282.5,41.5 284.5,41.5C 284.784,43.4147 284.451,45.0813 283.5,46.5C 283.5,45.1667 283.5,43.8333 283.5,42.5C 281.585,42.7845 279.919,42.4511 278.5,41.5 Z"/></g>
<g><path style="opacity:1" fill="#d90c17" d="M 276.5,41.5 C 277.167,41.5 277.833,41.5 278.5,41.5C 279.919,42.4511 281.585,42.7845 283.5,42.5C 283.5,43.8333 283.5,45.1667 283.5,46.5C 282.171,56.4643 281.171,66.4643 280.5,76.5C 279.691,78.2922 279.191,80.2922 279,82.5C 277.644,83.3802 276.144,83.7135 274.5,83.5C 273.833,83.5 273.167,83.5 272.5,83.5C 271.048,82.6981 269.382,82.1981 267.5,82C 266.884,80.5998 266.551,79.0998 266.5,77.5C 267.699,67.1798 268.699,56.8464 269.5,46.5C 269.5,45.8333 269.5,45.1667 269.5,44.5C 270.404,43.791 270.737,42.791 270.5,41.5C 272.5,41.5 274.5,41.5 276.5,41.5 Z"/></g>
<g><path style="opacity:1" fill="#e2e3e3" d="M 68.5,67.5 C 68.5,70.1667 68.5,72.8333 68.5,75.5C 68.5,78.5 68.5,81.5 68.5,84.5C 73.5,84.5 78.5,84.5 83.5,84.5C 83.8254,76.6484 83.492,68.9818 82.5,61.5C 82.5,57.5 82.5,53.5 82.5,49.5C 82.5,46.1667 82.5,42.8333 82.5,39.5C 76.2761,38.9386 70.2761,39.6053 64.5,41.5C 63.5713,40.3112 63.238,38.9778 63.5,37.5C 70.5,37.5 77.5,37.5 84.5,37.5C 84.554,53.8404 84.8873,70.1737 85.5,86.5C 79.1667,86.5 72.8333,86.5 66.5,86.5C 66.5237,80.143 66.1904,73.8097 65.5,67.5C 66.5,67.5 67.5,67.5 68.5,67.5 Z"/></g>
<g><path style="opacity:1" fill="#d8d8d8" d="M 181.5,7.5 C 182.833,7.5 184.167,7.5 185.5,7.5C 185.418,14.8578 185.752,22.1912 186.5,29.5C 181.468,30.3414 176.468,31.3414 171.5,32.5C 171.5,36.8333 171.5,41.1667 171.5,45.5C 176.833,44.5 182.167,43.5 187.5,42.5C 188.29,49.4707 188.623,56.4707 188.5,63.5C 183.704,63.8656 179.037,64.8656 174.5,66.5C 173.505,72.1278 173.171,77.7945 173.5,83.5C 167.144,84.672 160.81,86.0054 154.5,87.5C 153.808,86.9747 153.308,86.3081 153,85.5C 149.5,63.8333 146,42.1667 142.5,20.5C 142.57,19.2284 142.903,18.0617 143.5,17C 156.295,13.8011 168.962,10.6345 181.5,7.5 Z"/></g>
<g><path style="opacity:1" fill="#5d2d26" d="M 148.5,38.5 C 150.938,44.129 151.938,50.129 151.5,56.5C 150.089,50.6986 149.089,44.6986 148.5,38.5 Z"/></g>
<g><path style="opacity:1" fill="#5b2e28" d="M 146.5,25.5 C 148.25,29.1829 148.917,33.1829 148.5,37.5C 147.383,33.7051 146.717,29.7051 146.5,25.5 Z"/></g>
<g><path style="opacity:1" fill="#2c2c2d" d="M 179.5,11.5 C 180.209,10.596 181.209,10.2627 182.5,10.5C 182.888,14.1535 183.221,17.8201 183.5,21.5C 183.461,23.9522 182.794,25.9522 181.5,27.5C 182.641,23.3977 182.641,19.231 181.5,15C 181.392,13.3189 180.725,12.1522 179.5,11.5 Z"/></g>
<g><path style="opacity:1" fill="#362725" d="M 162.5,15.5 C 157.708,17.2055 152.708,18.7055 147.5,20C 146.663,21.0113 146.33,22.1779 146.5,23.5C 145.549,22.0813 145.216,20.4147 145.5,18.5C 151.146,17.3924 156.812,16.3924 162.5,15.5 Z"/></g>
<g><path style="opacity:1" fill="#571b14" d="M 174.5,12.5 C 171.237,14.5682 167.57,15.5682 163.5,15.5C 166.937,14.0552 170.603,13.0552 174.5,12.5 Z"/></g>
<g><path style="opacity:1" fill="#dc0c18" d="M 179.5,11.5 C 180.725,12.1522 181.392,13.3189 181.5,15C 182.641,19.231 182.641,23.3977 181.5,27.5C 177.508,28.4981 173.508,29.4981 169.5,30.5C 168.212,36.5543 168.212,42.5543 169.5,48.5C 169.369,49.2389 169.536,49.9056 170,50.5C 174.698,48.9514 179.531,47.9514 184.5,47.5C 184.232,49.099 184.566,50.4324 185.5,51.5C 185.817,54.5719 185.484,57.5719 184.5,60.5C 182.974,60.9943 181.641,61.661 180.5,62.5C 177.37,62.6997 174.37,63.3664 171.5,64.5C 171.071,70.2689 170.071,75.9356 168.5,81.5C 165.061,81.7878 161.728,82.4544 158.5,83.5C 157.391,83.4431 156.391,83.1098 155.5,82.5C 155.5,82.1667 155.5,81.8333 155.5,81.5C 155.884,77.5115 155.217,73.8448 153.5,70.5C 153.5,70.1667 153.5,69.8333 153.5,69.5C 153.917,65.1829 153.25,61.1829 151.5,57.5C 151.5,57.1667 151.5,56.8333 151.5,56.5C 151.938,50.129 150.938,44.129 148.5,38.5C 148.5,38.1667 148.5,37.8333 148.5,37.5C 148.917,33.1829 148.25,29.1829 146.5,25.5C 146.5,24.8333 146.5,24.1667 146.5,23.5C 146.33,22.1779 146.663,21.0113 147.5,20C 152.708,18.7055 157.708,17.2055 162.5,15.5C 162.833,15.5 163.167,15.5 163.5,15.5C 167.57,15.5682 171.237,14.5682 174.5,12.5C 176.042,11.6993 177.708,11.366 179.5,11.5 Z"/></g>
<g><path style="opacity:1" fill="#443c3d" d="M 259.5,41.5 C 259.573,43.0269 258.906,44.0269 257.5,44.5C 257.427,42.9731 258.094,41.9731 259.5,41.5 Z"/></g>
<g><path style="opacity:1" fill="#eaeaea" d="M 144.5,58.5 C 144.567,60.4008 144.233,62.2341 143.5,64C 144.32,65.8003 144.986,67.6336 145.5,69.5C 143.632,70.7569 141.965,70.4236 140.5,68.5C 133.502,74.8386 128.835,73.5053 126.5,64.5C 127.035,61.1004 128.368,58.1004 130.5,55.5C 129.56,52.8684 129.393,50.2017 130,47.5C 136.321,42.7957 138.988,44.4624 138,52.5C 136.177,55.5899 136.844,58.2566 140,60.5C 141.192,58.3498 142.692,57.6832 144.5,58.5 Z M 132.5,62.5 C 135.962,64.1927 135.962,65.1927 132.5,65.5C 132.5,64.5 132.5,63.5 132.5,62.5 Z"/></g>
<g><path style="opacity:1" fill="#e0e4e4" d="M 28.5,50.5 C 27.6618,50.1583 27.3284,49.4916 27.5,48.5C 27.3118,46.8967 27.8118,45.5634 29,44.5C 29.6776,46.5976 29.5109,48.5976 28.5,50.5 Z"/></g>
<g><path style="opacity:1" fill="#5c2924" d="M 229.5,44.5 C 231.213,45.6354 231.88,47.302 231.5,49.5C 230.463,48.0697 229.796,46.403 229.5,44.5 Z"/></g>
<g><path style="opacity:1" fill="#3e3839" d="M 257.5,44.5 C 257.573,46.0269 256.906,47.0269 255.5,47.5C 255.427,45.9731 256.094,44.9731 257.5,44.5 Z"/></g>
<g><path style="opacity:1" fill="#931113" d="M 36.5,51.5 C 36.7373,50.209 36.404,49.209 35.5,48.5C 35.0623,47.4937 34.3957,47.4937 33.5,48.5C 33.5,47.8333 33.5,47.1667 33.5,46.5C 34.7251,46.9689 35.7251,46.3022 36.5,44.5C 37.7969,46.9732 37.7969,49.3066 36.5,51.5 Z"/></g>
<g><path style="opacity:1" fill="#2a2c2d" d="M 52.5,31.5 C 51.791,32.404 50.791,32.7373 49.5,32.5C 49.5,38.1667 49.5,43.8333 49.5,49.5C 53.5191,49.3542 57.5191,49.0209 61.5,48.5C 57.4535,50.2598 53.1201,51.2598 48.5,51.5C 48.5,44.8333 48.5,38.1667 48.5,31.5C 49.8333,31.5 51.1667,31.5 52.5,31.5 Z"/></g>
<g><path style="opacity:1" fill="#5d5151" d="M 122.5,45.5 C 122.573,47.0269 121.906,48.0269 120.5,48.5C 120.427,46.9731 121.094,45.9731 122.5,45.5 Z"/></g>
<g><path style="opacity:1" fill="#1f1f20" d="M 132.5,48.5 C 133.5,48.5 134.5,48.5 135.5,48.5C 135.778,50.3464 135.111,51.6798 133.5,52.5C 132.571,51.3112 132.238,49.9778 132.5,48.5 Z"/></g>
<g><path style="opacity:1" fill="#141011" d="M 185.5,51.5 C 184.566,50.4324 184.232,49.099 184.5,47.5C 179.531,47.9514 174.698,48.9514 170,50.5C 169.536,49.9056 169.369,49.2389 169.5,48.5C 174.893,47.8183 180.227,46.8183 185.5,45.5C 185.5,47.5 185.5,49.5 185.5,51.5 Z"/></g>
<g><path style="opacity:1" fill="#292324" d="M 220.5,46.5 C 222.539,47.911 223.539,49.911 223.5,52.5C 221.992,50.8185 220.992,48.8185 220.5,46.5 Z"/></g>
<g><path style="opacity:1" fill="#e4d318" d="M 35.5,48.5 C 35.7709,50.3797 35.1042,51.713 33.5,52.5C 33.5,51.1667 33.5,49.8333 33.5,48.5C 34.3957,47.4937 35.0623,47.4937 35.5,48.5 Z"/></g>
<g><path style="opacity:1" fill="#3a3435" d="M 255.5,47.5 C 255.573,49.0269 254.906,50.0269 253.5,50.5C 253.427,48.9731 254.094,47.9731 255.5,47.5 Z"/></g>
<g><path style="opacity:1" fill="#5f2621" d="M 94.5,48.5 C 96.1042,49.287 96.7709,50.6203 96.5,52.5C 95.3263,51.4863 94.6596,50.153 94.5,48.5 Z"/></g>
<g><path style="opacity:1" fill="#dadada" d="M 177.5,72.5 C 177.427,74.0269 178.094,75.0269 179.5,75.5C 179.833,77.8333 181.167,79.1667 183.5,79.5C 183.973,80.9063 184.973,81.573 186.5,81.5C 186.973,82.9063 187.973,83.573 189.5,83.5C 189.833,83.5 190.167,83.5 190.5,83.5C 190.918,84.2216 191.584,84.7216 192.5,85C 197.684,85.8163 202.684,85.6497 207.5,84.5C 208.514,83.3263 209.847,82.6596 211.5,82.5C 213.027,82.573 214.027,81.9063 214.5,80.5C 217.167,79.8333 218.833,78.1667 219.5,75.5C 220.906,75.0269 221.573,74.0269 221.5,72.5C 221.328,71.5084 221.662,70.8417 222.5,70.5C 224.03,67.3048 224.696,63.8048 224.5,60C 224.497,57.3097 224.164,54.8097 223.5,52.5C 223.539,49.911 222.539,47.911 220.5,46.5C 218.833,42.8333 216.167,40.1667 212.5,38.5C 209.743,37.4878 207.076,36.4878 204.5,35.5C 202.866,34.8389 201.033,34.5056 199,34.5C 195.85,34.3603 193.017,35.027 190.5,36.5C 188.973,36.427 187.973,37.0937 187.5,38.5C 185.689,39.822 183.689,40.322 181.5,40C 192.063,31.2519 203.396,30.2519 215.5,37C 228.834,48.6373 231.001,62.1373 222,77.5C 211.225,89.451 198.725,91.6177 184.5,84C 179.138,81.3448 176.305,77.1781 176,71.5C 176.383,72.056 176.883,72.3893 177.5,72.5 Z"/></g>
<g><path style="opacity:1" fill="#281112" d="M 190.5,36.5 C 190.027,37.9063 189.027,38.573 187.5,38.5C 187.973,37.0937 188.973,36.427 190.5,36.5 Z"/></g>
<g><path style="opacity:0.821" fill="#2e3232" d="M 204.5,35.5 C 199.797,35.4372 195.13,35.7705 190.5,36.5C 193.017,35.027 195.85,34.3603 199,34.5C 201.033,34.5056 202.866,34.8389 204.5,35.5 Z"/></g>
<g><path style="opacity:1" fill="#d2c7c7" d="M 21.5,50.5 C 21.5979,52.5529 20.9313,54.2196 19.5,55.5C 19.5,54.5 19.5,53.5 19.5,52.5C 19.5,51.1667 20.1667,50.5 21.5,50.5 Z"/></g>
<g><path style="opacity:1" fill="#181616" d="M 61.5,48.5 C 62.5676,47.5655 63.901,47.2322 65.5,47.5C 65.5,50.1667 65.5,52.8333 65.5,55.5C 64.5318,53.3926 64.1984,51.0593 64.5,48.5C 63.5,48.5 62.5,48.5 61.5,48.5 Z"/></g>
<g><path style="opacity:1" fill="#d21218" d="M 10.5,39.5 C 14.0833,40.3863 17.75,41.3863 21.5,42.5C 22.1534,43.8068 22.8201,45.1401 23.5,46.5C 23.1543,47.6956 22.6543,47.6956 22,46.5C 22.3308,48.0187 22.1641,49.352 21.5,50.5C 20.1667,50.5 19.5,51.1667 19.5,52.5C 18.8333,53.5 18.1667,54.5 17.5,55.5C 17.4359,53.4599 17.2692,51.1266 17,48.5C 15.0186,50.3591 14.0186,52.6924 14,55.5C 12.3499,52.894 10.8499,52.894 9.5,55.5C 8.73209,56.2625 8.23209,57.2625 8,58.5C 7.87838,56.563 7.04504,55.2297 5.5,54.5C 3.764,49.0278 4.43067,43.8611 7.5,39C 8.74943,38.2599 9.74943,38.4265 10.5,39.5 Z"/></g>
<g><path style="opacity:1" fill="#1c0a09" d="M 9.5,46.5 C 10.9405,48.4199 10.6071,50.0866 8.5,51.5C 7.79921,49.8084 8.13255,48.1417 9.5,46.5 Z"/></g>
<g><path style="opacity:1" fill="#7c544f" d="M 33.5,46.5 C 33.5,47.1667 33.5,47.8333 33.5,48.5C 33.5,49.8333 33.5,51.1667 33.5,52.5C 31.9064,52.9195 30.4064,53.5862 29,54.5C 28.7935,53.095 27.6268,52.095 25.5,51.5C 26.3382,51.1583 26.6716,50.4916 26.5,49.5C 26.5,48.8333 26.8333,48.5 27.5,48.5C 27.3284,49.4916 27.6618,50.1583 28.5,50.5C 28.4346,50.9382 28.6012,51.2716 29,51.5C 30.0669,49.3083 31.5669,47.6417 33.5,46.5 Z"/></g>
<g><path style="opacity:0.45" fill="#878889" d="M 89.5,51.5 C 88.1667,54.5 88.1667,57.5 89.5,60.5C 89.6309,61.3764 89.2975,62.0431 88.5,62.5C 87.3384,57.8687 87.1717,53.202 88,48.5C 89.0386,49.2438 89.5386,50.2438 89.5,51.5 Z"/></g>
<g><path style="opacity:1" fill="#684543" d="M 207.5,50.5 C 208.906,50.9731 209.573,51.9731 209.5,53.5C 208.094,53.0269 207.427,52.0269 207.5,50.5 Z"/></g>
<g><path style="opacity:1" fill="#353132" d="M 253.5,50.5 C 253.573,52.0269 252.906,53.0269 251.5,53.5C 251.427,51.9731 252.094,50.9731 253.5,50.5 Z"/></g>
<g><path style="opacity:1" fill="#dddada" d="M 17.5,55.5 C 16.3744,56.8583 16.3744,58.1916 17.5,59.5C 18.5223,59.1445 19.189,58.4778 19.5,57.5C 21.3464,57.2222 22.6798,57.8888 23.5,59.5C 22.1678,61.8329 20.1678,63.1663 17.5,63.5C 14.4867,63.8928 11.8201,63.2261 9.5,61.5C 9.5,59.5 9.5,57.5 9.5,55.5C 10.8499,52.894 12.3499,52.894 14,55.5C 14.0186,52.6924 15.0186,50.3591 17,48.5C 17.2692,51.1266 17.4359,53.4599 17.5,55.5 Z"/></g>
<g><path style="opacity:1" fill="#393119" d="M 35.5,48.5 C 36.404,49.209 36.7373,50.209 36.5,51.5C 35.8698,53.7496 34.8698,55.7496 33.5,57.5C 33.5,56.8333 33.5,56.1667 33.5,55.5C 33.5,54.5 33.5,53.5 33.5,52.5C 35.1042,51.713 35.7709,50.3797 35.5,48.5 Z"/></g>
<g><path style="opacity:1" fill="#d2d2d2" d="M 207.5,50.5 C 207.427,52.0269 208.094,53.0269 209.5,53.5C 210.222,53.9175 210.722,54.5842 211,55.5C 211.667,58.1667 211.667,60.8333 211,63.5C 205.429,73.8397 198.262,75.173 189.5,67.5C 189.369,66.6236 189.702,65.9569 190.5,65.5C 197.156,71.3336 202.989,70.6669 208,63.5C 209.685,55.8601 206.685,51.5267 199,50.5C 196.272,50.5572 193.939,51.5572 192,53.5C 191.516,51.8067 192.016,50.4733 193.5,49.5C 195.201,48.2658 197.201,47.5992 199.5,47.5C 202.148,48.463 204.814,49.463 207.5,50.5 Z"/></g>
<g><path style="opacity:1" fill="#3e3b3c" d="M 19.5,52.5 C 19.5,53.5 19.5,54.5 19.5,55.5C 19.5,56.1667 19.5,56.8333 19.5,57.5C 19.189,58.4778 18.5223,59.1445 17.5,59.5C 16.3744,58.1916 16.3744,56.8583 17.5,55.5C 18.1667,54.5 18.8333,53.5 19.5,52.5 Z"/></g>
<g><path style="opacity:1" fill="#504f50" d="M 231.5,49.5 C 233.413,52.04 233.746,54.7067 232.5,57.5C 232.167,54.8333 231.833,52.1667 231.5,49.5 Z"/></g>
<g><path style="opacity:1" fill="#302b2c" d="M 251.5,53.5 C 250.359,55.5487 250.359,57.5487 251.5,59.5C 251.5,60.1667 251.5,60.8333 251.5,61.5C 248.941,58.7565 248.941,56.0898 251.5,53.5 Z"/></g>
<g><path style="opacity:1" fill="#505657" d="M 269.5,46.5 C 268.699,56.8464 267.699,67.1798 266.5,77.5C 266.551,79.0998 266.884,80.5998 267.5,82C 269.382,82.1981 271.048,82.6981 272.5,83.5C 270.167,83.5 267.833,83.5 265.5,83.5C 265.857,70.9188 267.19,58.5855 269.5,46.5 Z"/></g>
<g><path style="opacity:1" fill="#45322d" d="M 26.5,58.5 C 26.1667,58.5 25.8333,58.5 25.5,58.5C 24.5,58.1667 23.8333,57.5 23.5,56.5C 25.2035,52.9116 26.2035,53.5783 26.5,58.5 Z"/></g>
<g><path style="opacity:1" fill="#cececc" d="M 25.5,51.5 C 27.6268,52.095 28.7935,53.095 29,54.5C 30.4064,53.5862 31.9064,52.9195 33.5,52.5C 33.5,53.5 33.5,54.5 33.5,55.5C 32.078,56.925 30.4113,57.925 28.5,58.5C 27.8333,58.5 27.1667,58.5 26.5,58.5C 26.2035,53.5783 25.2035,52.9116 23.5,56.5C 21.8303,53.8367 22.4969,52.17 25.5,51.5 Z"/></g>
<g><path style="opacity:1" fill="#323637" d="M 185.5,51.5 C 186.806,54.6868 186.806,58.0202 185.5,61.5C 183.929,62.3094 182.262,62.6427 180.5,62.5C 181.641,61.661 182.974,60.9943 184.5,60.5C 185.484,57.5719 185.817,54.5719 185.5,51.5 Z"/></g>
<g><path style="opacity:1" fill="#8c3222" d="M 5.5,54.5 C 7.04504,55.2297 7.87838,56.563 8,58.5C 8.23209,57.2625 8.73209,56.2625 9.5,55.5C 9.5,57.5 9.5,59.5 9.5,61.5C 7.87084,61.6277 6.53751,60.6277 5.5,58.5C 6.68566,57.2946 6.68566,55.9613 5.5,54.5 Z"/></g>
<g><path style="opacity:1" fill="#d3c91e" d="M 33.5,55.5 C 33.5,56.1667 33.5,56.8333 33.5,57.5C 31.8333,58.8333 30.1667,60.1667 28.5,61.5C 28.5,60.5 28.5,59.5 28.5,58.5C 30.4113,57.925 32.078,56.925 33.5,55.5 Z"/></g>
<g><path style="opacity:1" fill="#6f251f" d="M 97.5,54.5 C 98.1471,55.2739 98.4805,56.2739 98.5,57.5C 98.3601,59.0296 97.6935,60.0296 96.5,60.5C 97.1495,58.5648 97.4828,56.5648 97.5,54.5 Z"/></g>
<g><path style="opacity:1" fill="#363637" d="M 132.5,58.5 C 134.899,59.8982 136.566,61.8982 137.5,64.5C 136.037,67.4079 133.87,68.0746 131,66.5C 130.282,63.5929 130.782,60.9262 132.5,58.5 Z M 132.5,62.5 C 132.5,63.5 132.5,64.5 132.5,65.5C 135.962,65.1927 135.962,64.1927 132.5,62.5 Z"/></g>
<g><path style="opacity:1" fill="#5c211b" d="M 223.5,52.5 C 224.164,54.8097 224.497,57.3097 224.5,60C 224.696,63.8048 224.03,67.3048 222.5,70.5C 223.241,64.5293 223.575,58.5293 223.5,52.5 Z"/></g>
<g><path style="opacity:1" fill="#a6a6a6" d="M 252.5,57.5 C 255.068,63.6576 257.402,69.9909 259.5,76.5C 258.566,77.5676 258.232,78.901 258.5,80.5C 255.211,81.3739 251.877,82.0405 248.5,82.5C 251.563,81.3009 254.563,79.8009 257.5,78C 255.002,72.6726 253.002,67.1726 251.5,61.5C 251.5,60.8333 251.5,60.1667 251.5,59.5C 252.338,59.1583 252.672,58.4916 252.5,57.5 Z"/></g>
<g><path style="opacity:1" fill="#3a3433" d="M 13.5,58.5 C 16.1402,59.7936 16.1402,61.127 13.5,62.5C 12.3744,61.1916 12.3744,59.8583 13.5,58.5 Z"/></g>
<g><path style="opacity:1" fill="#a6201a" d="M 21.5,42.5 C 22.7498,42.5774 23.5831,43.244 24,44.5C 24.3333,46.5 24.6667,48.5 25,50.5C 25.3826,49.944 25.8826,49.6107 26.5,49.5C 26.6716,50.4916 26.3382,51.1583 25.5,51.5C 22.4969,52.17 21.8303,53.8367 23.5,56.5C 23.8333,57.5 24.5,58.1667 25.5,58.5C 24.8505,60.4352 24.5172,62.4352 24.5,64.5C 23.5084,64.3284 22.8417,64.6618 22.5,65.5C 20.1432,65.6633 17.8098,65.4966 15.5,65C 16.4158,64.7216 17.0825,64.2216 17.5,63.5C 20.1678,63.1663 22.1678,61.8329 23.5,59.5C 22.6798,57.8888 21.3464,57.2222 19.5,57.5C 19.5,56.8333 19.5,56.1667 19.5,55.5C 20.9313,54.2196 21.5979,52.5529 21.5,50.5C 22.1641,49.352 22.3308,48.0187 22,46.5C 22.6543,47.6956 23.1543,47.6956 23.5,46.5C 22.8201,45.1401 22.1534,43.8068 21.5,42.5 Z"/></g>
<g><path style="opacity:1" fill="#d5d5d6" d="M 32.5,64.5 C 32.5,65.5 32.5,66.5 32.5,67.5C 32.6459,71.3875 33.3126,75.0542 34.5,78.5C 34.5,79.1667 34.5,79.8333 34.5,80.5C 34.3398,82.1992 34.5065,83.8659 35,85.5C 35.69,86.7383 36.19,86.7383 36.5,85.5C 40.0712,84.3578 43.7379,83.6911 47.5,83.5C 48.8221,83.67 49.9887,83.3366 51,82.5C 51.8045,79.3035 51.6378,76.3035 50.5,73.5C 50.5,70.8333 50.5,68.1667 50.5,65.5C 54.5,64.8333 58.5,64.1667 62.5,63.5C 63.8333,63.5 65.1667,63.5 66.5,63.5C 66.8016,60.9407 66.4682,58.6074 65.5,56.5C 65.5,56.1667 65.5,55.8333 65.5,55.5C 65.5,52.8333 65.5,50.1667 65.5,47.5C 63.901,47.2322 62.5676,47.5655 61.5,48.5C 57.5191,49.0209 53.5191,49.3542 49.5,49.5C 49.5,43.8333 49.5,38.1667 49.5,32.5C 50.791,32.7373 51.791,32.404 52.5,31.5C 54.9608,30.469 57.6275,29.8023 60.5,29.5C 61.5,29.5 62.5,29.5 63.5,29.5C 63.0343,23.509 62.701,17.509 62.5,11.5C 50.8106,14.1722 39.1439,17.0056 27.5,20C 25.3316,21.9705 24.9983,24.1371 26.5,26.5C 26.5,27.1667 26.5,27.8333 26.5,28.5C 26.6463,30.9424 25.813,31.6091 24,30.5C 23.1721,26.534 22.6721,22.534 22.5,18.5C 36.2723,15.6403 49.9389,12.307 63.5,8.5C 65.5777,15.7452 65.911,23.0786 64.5,30.5C 60.2989,32.1237 55.9655,33.1237 51.5,33.5C 51.5,38.1667 51.5,42.8333 51.5,47.5C 56.8417,46.4959 62.175,45.4959 67.5,44.5C 68.331,51.1311 68.6643,57.7978 68.5,64.5C 63.8582,65.828 59.1915,67.1613 54.5,68.5C 53.8124,74.0522 53.1457,79.5522 52.5,85C 46.1069,86.2871 39.7736,87.7871 33.5,89.5C 31.0681,80.5957 30.0681,71.5957 30.5,62.5C 31.1818,63.2427 31.8485,63.9094 32.5,64.5 Z"/></g>
<g><path style="opacity:1" fill="#222021" d="M 60.5,29.5 C 61.5305,28.4477 62.1971,27.1143 62.5,25.5C 61.7261,21.5351 61.3927,17.5351 61.5,13.5C 50.4726,15.8059 39.4726,18.3059 28.5,21C 26.8078,22.4007 26.1412,24.2341 26.5,26.5C 24.9983,24.1371 25.3316,21.9705 27.5,20C 39.1439,17.0056 50.8106,14.1722 62.5,11.5C 62.701,17.509 63.0343,23.509 63.5,29.5C 62.5,29.5 61.5,29.5 60.5,29.5 Z"/></g>
<g><path style="opacity:1" fill="#7a3414" d="M 26.5,58.5 C 27.1667,58.5 27.8333,58.5 28.5,58.5C 28.5,59.5 28.5,60.5 28.5,61.5C 28.1583,62.3382 27.4916,62.6716 26.5,62.5C 26.5,61.1667 26.5,59.8333 26.5,58.5 Z"/></g>
<g><path style="opacity:1" fill="#d2b509" d="M 25.5,58.5 C 25.8333,58.5 26.1667,58.5 26.5,58.5C 26.5,59.8333 26.5,61.1667 26.5,62.5C 26.1667,63.5 25.5,64.1667 24.5,64.5C 24.5172,62.4352 24.8505,60.4352 25.5,58.5 Z"/></g>
<g><path style="opacity:1" fill="#555859" d="M 65.5,56.5 C 66.4682,58.6074 66.8016,60.9407 66.5,63.5C 65.1667,63.5 63.8333,63.5 62.5,63.5C 65.0907,62.0087 66.0907,59.6753 65.5,56.5 Z"/></g>
<g><path style="opacity:1" fill="#5c2f29" d="M 151.5,57.5 C 153.25,61.1829 153.917,65.1829 153.5,69.5C 152.383,65.7051 151.717,61.7051 151.5,57.5 Z"/></g>
<g><path style="opacity:1" fill="#3c1b19" d="M 95.5,62.5 C 95.573,64.0269 94.9063,65.0269 93.5,65.5C 93.427,63.9731 94.0937,62.9731 95.5,62.5 Z"/></g>
<g><path style="opacity:0.361" fill="#b1b2b2" d="M 261.5,58.5 C 261.817,61.5719 261.484,64.5719 260.5,67.5C 259.702,67.0431 259.369,66.3764 259.5,65.5C 260.167,63.1667 260.833,60.8333 261.5,58.5 Z"/></g>
<g><path style="opacity:0.31" fill="#b0b1b1" d="M 22.5,66.5 C 22.5,66.1667 22.5,65.8333 22.5,65.5C 23.8333,65.5 25.1667,65.5 26.5,65.5C 26.5,67.1667 26.5,68.8333 26.5,70.5C 25.5655,69.4324 25.2322,68.099 25.5,66.5C 24.5,66.5 23.5,66.5 22.5,66.5 Z"/></g>
<g><path style="opacity:1" fill="#391817" d="M 92.5,67.5 C 92.573,69.0269 91.9063,70.0269 90.5,70.5C 90.427,68.9731 91.0937,67.9731 92.5,67.5 Z"/></g>
<g><path style="opacity:1" fill="#443b3a" d="M 241.5,75.5 C 240.528,73.5069 239.195,73.1736 237.5,74.5C 239.668,69.0661 241.001,69.3994 241.5,75.5 Z"/></g>
<g><path style="opacity:1" fill="#5a2c25" d="M 32.5,67.5 C 34.217,70.8448 34.8836,74.5115 34.5,78.5C 33.3126,75.0542 32.6459,71.3875 32.5,67.5 Z"/></g>
<g><path style="opacity:1" fill="#372f30" d="M 106.5,75.5 C 105.5,74.1667 104.5,74.1667 103.5,75.5C 104.5,71.5 105.5,71.5 106.5,75.5 Z"/></g>
<g><path style="opacity:1" fill="#3a1918" d="M 177.5,72.5 C 178.906,72.9731 179.573,73.9731 179.5,75.5C 178.094,75.0269 177.427,74.0269 177.5,72.5 Z"/></g>
<g><path style="opacity:1" fill="#4c2a29" d="M 221.5,72.5 C 221.573,74.0269 220.906,75.0269 219.5,75.5C 219.427,73.9731 220.094,72.9731 221.5,72.5 Z"/></g>
<g><path style="opacity:1" fill="#5a2c26" d="M 153.5,70.5 C 155.217,73.8448 155.884,77.5115 155.5,81.5C 154.313,78.0542 153.646,74.3875 153.5,70.5 Z"/></g>
<g><path style="opacity:1" fill="#483b3d" d="M 179.5,75.5 C 181.167,76.5 182.5,77.8333 183.5,79.5C 181.167,79.1667 179.833,77.8333 179.5,75.5 Z"/></g>
<g><path style="opacity:1" fill="#3c3839" d="M 237.5,74.5 C 237.573,76.0269 236.906,77.0269 235.5,77.5C 235.427,75.9731 236.094,74.9731 237.5,74.5 Z"/></g>
<g><path style="opacity:1" fill="#4f5556" d="M 50.5,73.5 C 51.6378,76.3035 51.8045,79.3035 51,82.5C 49.9887,83.3366 48.8221,83.67 47.5,83.5C 48.172,82.7326 49.0053,82.0659 50,81.5C 50.4974,78.854 50.6641,76.1873 50.5,73.5 Z"/></g>
<g><path style="opacity:1" fill="#653029" d="M 106.5,75.5 C 108.213,76.6354 108.88,78.302 108.5,80.5C 107.463,79.0697 106.796,77.403 106.5,75.5 Z"/></g>
<g><path style="opacity:1" fill="#474d4e" d="M 171.5,64.5 C 171.5,70.1667 171.5,75.8333 171.5,81.5C 170.5,81.5 169.5,81.5 168.5,81.5C 170.071,75.9356 171.071,70.2689 171.5,64.5 Z"/></g>
<g><path style="opacity:1" fill="#524849" d="M 219.5,75.5 C 218.833,78.1667 217.167,79.8333 214.5,80.5C 215.833,78.5 217.5,76.8333 219.5,75.5 Z"/></g>
<g><path style="opacity:1" fill="#e8e8e8" d="M 241.5,75.5 C 241.5,75.8333 241.5,76.1667 241.5,76.5C 241.796,78.403 242.463,80.0697 243.5,81.5C 244.053,83.5518 245.053,83.8852 246.5,82.5C 247.167,82.5 247.833,82.5 248.5,82.5C 251.877,82.0405 255.211,81.3739 258.5,80.5C 258.232,78.901 258.566,77.5676 259.5,76.5C 260.339,77.6412 261.006,78.9745 261.5,80.5C 255.852,82.994 250.018,84.994 244,86.5C 241.592,83.9706 239.925,80.9706 239,77.5C 236.659,80.6709 234.159,83.6709 231.5,86.5C 228.42,85.2115 225.586,83.5448 223,81.5C 222.312,80.6683 222.479,80.0016 223.5,79.5C 224.417,80.1272 225.417,80.4606 226.5,80.5C 227.514,81.6737 228.847,82.3404 230.5,82.5C 232.332,83.7181 233.332,83.0514 233.5,80.5C 234.906,80.0269 235.573,79.0269 235.5,77.5C 236.906,77.0269 237.573,76.0269 237.5,74.5C 239.195,73.1736 240.528,73.5069 241.5,75.5 Z"/></g>
<g><path style="opacity:1" fill="#602d27" d="M 241.5,76.5 C 243.213,77.6354 243.88,79.302 243.5,81.5C 242.463,80.0697 241.796,78.403 241.5,76.5 Z"/></g>
<g><path style="opacity:0.482" fill="#858688" d="M 56.5,71.5 C 57.1167,77.5982 56.45,83.2649 54.5,88.5C 55.1261,82.7322 55.7927,77.0655 56.5,71.5 Z"/></g>
<g><path style="opacity:1" fill="#3f3b3d" d="M 235.5,77.5 C 235.573,79.0269 234.906,80.0269 233.5,80.5C 233.427,78.9731 234.094,77.9731 235.5,77.5 Z"/></g>
<g><path style="opacity:1" fill="#371716" d="M 183.5,79.5 C 185.027,79.427 186.027,80.0937 186.5,81.5C 184.973,81.573 183.973,80.9063 183.5,79.5 Z"/></g>
<g><path style="opacity:1" fill="#402c2b" d="M 214.5,80.5 C 214.027,81.9063 213.027,82.573 211.5,82.5C 211.973,81.0937 212.973,80.427 214.5,80.5 Z"/></g>
<g><path style="opacity:0.149" fill="#c0c1c2" d="M 130.5,80.5 C 131.404,81.209 131.737,82.209 131.5,83.5C 130.5,83.5 129.5,83.5 128.5,83.5C 129.551,82.7777 130.218,81.7777 130.5,80.5 Z"/></g>
<g><path style="opacity:0.404" fill="#8e8f8f" d="M 177.5,81.5 C 176.549,82.9187 176.216,84.5853 176.5,86.5C 175.5,86.5 174.5,86.5 173.5,86.5C 174.806,84.7548 175.806,82.7548 176.5,80.5C 177.107,80.6236 177.44,80.9569 177.5,81.5 Z"/></g>
<g><path style="opacity:1" fill="#4c2c2a" d="M 186.5,81.5 C 188.027,81.427 189.027,82.0937 189.5,83.5C 187.973,83.573 186.973,82.9063 186.5,81.5 Z"/></g>
<g><path style="opacity:1" fill="#3c3537" d="M 233.5,80.5 C 233.332,83.0514 232.332,83.7181 230.5,82.5C 231.5,81.8333 232.5,81.1667 233.5,80.5 Z"/></g>
<g><path style="opacity:1" fill="#1d1b1c" d="M 243.5,81.5 C 244.391,82.1098 245.391,82.4431 246.5,82.5C 245.053,83.8852 244.053,83.5518 243.5,81.5 Z"/></g>
<g><path style="opacity:1" fill="#4b5252" d="M 82.5,61.5 C 83.492,68.9818 83.8254,76.6484 83.5,84.5C 78.5,84.5 73.5,84.5 68.5,84.5C 68.5,81.5 68.5,78.5 68.5,75.5C 69.21,77.8927 69.8767,80.3927 70.5,83C 74.4862,83.4988 78.4862,83.6655 82.5,83.5C 82.5,76.1667 82.5,68.8333 82.5,61.5 Z"/></g>
<g><path style="opacity:1" fill="#424647" d="M 155.5,82.5 C 156.391,83.1098 157.391,83.4431 158.5,83.5C 157.053,84.8852 156.053,84.5518 155.5,82.5 Z"/></g>
<g><path style="opacity:1" fill="#4a4646" d="M 280.5,76.5 C 280.663,78.8568 280.497,81.1902 280,83.5C 278.057,84.807 276.223,84.807 274.5,83.5C 276.144,83.7135 277.644,83.3802 279,82.5C 279.191,80.2922 279.691,78.2922 280.5,76.5 Z"/></g>
<g><path style="opacity:1" fill="#3a3a3b" d="M 34.5,80.5 C 35.3092,82.0276 35.9759,83.6943 36.5,85.5C 36.19,86.7383 35.69,86.7383 35,85.5C 34.5065,83.8659 34.3398,82.1992 34.5,80.5 Z"/></g>
<g><path style="opacity:1" fill="#4b2c27" d="M 190.5,83.5 C 196.13,84.2919 201.797,84.6252 207.5,84.5C 202.684,85.6497 197.684,85.8163 192.5,85C 191.584,84.7216 190.918,84.2216 190.5,83.5 Z"/></g>
<g><path style="opacity:1" fill="#707172" d="M 263.5,77.5 C 263.5,79.8333 263.5,82.1667 263.5,84.5C 264.791,84.2627 265.791,84.596 266.5,85.5C 265.167,85.5 263.833,85.5 262.5,85.5C 262.194,82.6146 262.527,79.9479 263.5,77.5 Z"/></g>
<g><path style="opacity:0.114" fill="#d8d8d8" d="M 256.5,86.5 C 257.209,85.596 258.209,85.2627 259.5,85.5C 259.5,86.5 259.5,87.5 259.5,88.5C 258.778,87.4489 257.778,86.7822 256.5,86.5 Z"/></g>
<g><path style="opacity:0.859" fill="#6b6c6d" d="M 262.5,88.5 C 268.726,88.3877 274.726,89.0543 280.5,90.5C 274.288,90.4766 268.288,89.8099 262.5,88.5 Z"/></g>
<g><path style="opacity:0.519" fill="#6f7071" d="M 63.5,82.5 C 64.4682,84.6074 64.8016,86.9407 64.5,89.5C 72.7041,90.0906 80.7041,89.424 88.5,87.5C 89.1067,87.6236 89.44,87.9569 89.5,88.5C 81.1007,90.4249 72.434,91.0915 63.5,90.5C 63.5,87.8333 63.5,85.1667 63.5,82.5 Z"/></g>
<g><path style="opacity:0.059" fill="#c3c4c4" d="M 149.5,86.5 C 150.434,87.5676 150.768,88.901 150.5,90.5C 151.833,90.5 153.167,90.5 154.5,90.5C 153.081,91.4511 151.415,91.7845 149.5,91.5C 149.5,89.8333 149.5,88.1667 149.5,86.5 Z"/></g>
<g><path style="opacity:0.227" fill="#bfbfc0" d="M 285.5,86.5 C 285.5,88.1667 285.5,89.8333 285.5,91.5C 283.585,91.7845 281.919,91.4511 280.5,90.5C 281.833,90.5 283.167,90.5 284.5,90.5C 284.232,88.901 284.566,87.5676 285.5,86.5 Z"/></g>
</svg>
