<?xml version="1.0" encoding="UTF-8"?>
<!DOCTYPE svg PUBLIC "-//W3C//DTD SVG 1.1//EN" "http://www.w3.org/Graphics/SVG/1.1/DTD/svg11.dtd">
<svg xmlns="http://www.w3.org/2000/svg" version="1.1" width="439px" height="439px" style="shape-rendering:geometricPrecision; text-rendering:geometricPrecision; image-rendering:optimizeQuality; fill-rule:evenodd; clip-rule:evenodd" xmlns:xlink="http://www.w3.org/1999/xlink">
<g><path style="opacity:1" fill="#0f4194" d="M 70.5,-0.5 C 193.167,-0.5 315.833,-0.5 438.5,-0.5C 438.5,122.167 438.5,244.833 438.5,367.5C 415.167,367.5 391.833,367.5 368.5,367.5C 275.833,367.5 183.167,367.5 90.5,367.5C 83.8333,367.5 77.1667,367.5 70.5,367.5C 70.5,359.5 70.5,351.5 70.5,343.5C 70.5,252.5 70.5,161.5 70.5,70.5C 70.5,46.8333 70.5,23.1667 70.5,-0.5 Z"/></g>
<g><path style="opacity:0.004" fill="#fdfff8" d="M 64.5,23.5 C 65.8333,24.1667 65.8333,24.1667 64.5,23.5 Z"/></g>
<g><path style="opacity:0.004" fill="#fdfff8" d="M 64.5,54.5 C 65.8333,55.1667 65.8333,55.1667 64.5,54.5 Z"/></g>
<g><path style="opacity:0.012" fill="#fcfff8" d="M 64.5,64.5 C 65.525,64.8966 65.6917,65.5632 65,66.5C 64.5357,65.9056 64.369,65.2389 64.5,64.5 Z"/></g>
<g><path style="opacity:0.42" fill="#7a8391" d="M 69.5,-0.5 C 69.8333,-0.5 70.1667,-0.5 70.5,-0.5C 70.5,23.1667 70.5,46.8333 70.5,70.5C 46.8333,70.5 23.1667,70.5 -0.5,70.5C -0.5,70.1667 -0.5,69.8333 -0.5,69.5C 22.8333,69.5 46.1667,69.5 69.5,69.5C 69.5,46.1667 69.5,22.8333 69.5,-0.5 Z"/></g>
<g><path style="opacity:1" fill="#1d1d1b" d="M -0.5,70.5 C 23.1667,70.5 46.8333,70.5 70.5,70.5C 70.5,161.5 70.5,252.5 70.5,343.5C 65.1951,344.194 59.8617,344.528 54.5,344.5C 54.5,355.5 54.5,366.5 54.5,377.5C 64.188,377.543 73.8547,378.043 83.5,379C 89.0569,380.504 90.8902,384.004 89,389.5C 87.6288,391.041 86.1288,392.375 84.5,393.5C 83.5266,393.987 82.5266,394.487 81.5,395C 85.6888,395.812 89.6888,395.645 93.5,394.5C 95.679,394.16 97.5123,393.16 99,391.5C 101.343,386.398 102.01,381.064 101,375.5C 99.6155,372.614 97.4488,370.614 94.5,369.5C 185.665,368.501 276.998,368.167 368.5,368.5C 368.5,373.5 368.5,378.5 368.5,383.5C 368.198,386.059 368.532,388.393 369.5,390.5C 369.5,406.5 369.5,422.5 369.5,438.5C 246.167,438.5 122.833,438.5 -0.5,438.5C -0.5,315.833 -0.5,193.167 -0.5,70.5 Z"/></g>
<g><path style="opacity:1" fill="#f9fafb" d="M 251.5,117.5 C 251.5,120.167 251.5,122.833 251.5,125.5C 249.265,125.205 247.265,125.539 245.5,126.5C 244.699,128.042 244.366,129.708 244.5,131.5C 246.833,131.5 249.167,131.5 251.5,131.5C 251.5,134.5 251.5,137.5 251.5,140.5C 249.167,140.5 246.833,140.5 244.5,140.5C 244.5,149.5 244.5,158.5 244.5,167.5C 240.833,167.5 237.167,167.5 233.5,167.5C 233.5,158.5 233.5,149.5 233.5,140.5C 232.167,140.5 230.833,140.5 229.5,140.5C 229.5,137.5 229.5,134.5 229.5,131.5C 230.833,131.5 232.167,131.5 233.5,131.5C 233.571,119.754 239.571,115.087 251.5,117.5 Z"/></g>
<g><path style="opacity:1" fill="#5d7db4" d="M 251.5,117.5 C 252.477,120.287 252.81,123.287 252.5,126.5C 250.167,126.5 247.833,126.5 245.5,126.5C 247.265,125.539 249.265,125.205 251.5,125.5C 251.5,122.833 251.5,120.167 251.5,117.5 Z"/></g>
<g><path style="opacity:1" fill="#f7f9fa" d="M 286.5,130.5 C 293.061,129.919 299.395,130.752 305.5,133C 306.667,134.167 307.833,135.333 309,136.5C 309.5,146.828 309.666,157.161 309.5,167.5C 306.167,167.5 302.833,167.5 299.5,167.5C 299.66,165.801 299.494,164.134 299,162.5C 291.886,169.999 284.553,170.332 277,163.5C 274.109,157.103 275.609,151.936 281.5,148C 286.934,145.761 292.601,144.594 298.5,144.5C 298.124,137.805 294.79,135.972 288.5,139C 287.663,140.011 287.33,141.178 287.5,142.5C 284.167,142.5 280.833,142.5 277.5,142.5C 277.607,136.27 280.607,132.27 286.5,130.5 Z"/></g>
<g><path style="opacity:1" fill="#fcfdfd" d="M 332.5,130.5 C 338.59,129.137 343.09,131.137 346,136.5C 346.5,146.828 346.666,157.161 346.5,167.5C 343.167,167.5 339.833,167.5 336.5,167.5C 336.826,159.316 336.492,151.316 335.5,143.5C 335.648,140.648 334.314,138.981 331.5,138.5C 328.896,139.269 327.062,140.936 326,143.5C 325.5,151.493 325.334,159.493 325.5,167.5C 322.167,167.5 318.833,167.5 315.5,167.5C 315.5,155.5 315.5,143.5 315.5,131.5C 318.5,131.5 321.5,131.5 324.5,131.5C 324.34,133.199 324.506,134.866 325,136.5C 325.717,135.956 326.217,135.289 326.5,134.5C 327.802,132.178 329.802,130.845 332.5,130.5 Z"/></g>
<g><path style="opacity:1" fill="#f8fafb" d="M 350.5,156.5 C 349.977,150.282 350.644,144.282 352.5,138.5C 357.583,130.97 364.583,128.47 373.5,131C 380.303,132.967 383.969,137.467 384.5,144.5C 381.102,144.82 377.768,144.487 374.5,143.5C 372.861,139.347 369.861,137.847 365.5,139C 364.299,139.903 363.465,141.069 363,142.5C 362.112,147.618 362.445,152.618 364,157.5C 367.199,160.129 370.199,159.796 373,156.5C 373.483,155.552 373.649,154.552 373.5,153.5C 377.167,153.5 380.833,153.5 384.5,153.5C 382.072,165.558 374.739,170.391 362.5,168C 356.65,165.981 352.65,162.148 350.5,156.5 Z"/></g>
<g><path style="opacity:1" fill="#f5f7f9" d="M 397.5,130.5 C 413.689,128.364 421.689,135.364 421.5,151.5C 413.833,151.5 406.167,151.5 398.5,151.5C 398.295,159.803 401.961,162.303 409.5,159C 410.46,157.581 411.293,156.081 412,154.5C 415.129,155.13 418.296,155.796 421.5,156.5C 416.212,167.142 407.878,170.642 396.5,167C 387.976,161.437 384.809,153.604 387,143.5C 388.625,137.547 392.125,133.214 397.5,130.5 Z"/></g>
<g><path style="opacity:1" fill="#fcfdfd" d="M 255.5,167.5 C 255.5,155.5 255.5,143.5 255.5,131.5C 258.5,131.5 261.5,131.5 264.5,131.5C 264.34,133.199 264.506,134.866 265,136.5C 265.717,135.956 266.217,135.289 266.5,134.5C 266.511,132.983 267.177,131.816 268.5,131C 270.473,130.505 272.473,130.338 274.5,130.5C 274.5,134.167 274.5,137.833 274.5,141.5C 269.908,140.916 267.075,142.916 266,147.5C 265.5,154.158 265.334,160.825 265.5,167.5C 262.167,167.5 258.833,167.5 255.5,167.5 Z"/></g>
<g><path style="opacity:1" fill="#becbe2" d="M 326.5,134.5 C 326.217,135.289 325.717,135.956 325,136.5C 324.506,134.866 324.34,133.199 324.5,131.5C 321.5,131.5 318.5,131.5 315.5,131.5C 315.5,143.5 315.5,155.5 315.5,167.5C 314.505,155.345 314.171,143.011 314.5,130.5C 318.167,130.5 321.833,130.5 325.5,130.5C 325.232,132.099 325.566,133.432 326.5,134.5 Z"/></g>
<g><path style="opacity:1" fill="#2a519d" d="M 352.5,138.5 C 350.644,144.282 349.977,150.282 350.5,156.5C 349.834,151.651 349.167,146.651 348.5,141.5C 347.833,150.324 347.167,158.991 346.5,167.5C 346.666,157.161 346.5,146.828 346,136.5C 343.09,131.137 338.59,129.137 332.5,130.5C 335.908,129.98 339.241,128.98 342.5,127.5C 344.225,128.015 345.892,128.682 347.5,129.5C 346.391,130.965 346.891,131.965 349,132.5C 349.421,135.02 350.588,137.02 352.5,138.5 Z"/></g>
<g><path style="opacity:1" fill="#bdcce2" d="M 266.5,134.5 C 266.217,135.289 265.717,135.956 265,136.5C 264.506,134.866 264.34,133.199 264.5,131.5C 261.5,131.5 258.5,131.5 255.5,131.5C 255.5,143.5 255.5,155.5 255.5,167.5C 254.505,155.345 254.171,143.011 254.5,130.5C 258.167,130.5 261.833,130.5 265.5,130.5C 265.232,132.099 265.566,133.432 266.5,134.5 Z"/></g>
<g><path style="opacity:1" fill="#144293" d="M 401.5,137.5 C 407.188,136.531 410.188,138.864 410.5,144.5C 406.5,144.5 402.5,144.5 398.5,144.5C 398.688,141.794 399.688,139.461 401.5,137.5 Z"/></g>
<g><path style="opacity:1" fill="#7995c3" d="M 335.5,143.5 C 336.492,151.316 336.826,159.316 336.5,167.5C 339.833,167.5 343.167,167.5 346.5,167.5C 343.038,168.482 339.371,168.815 335.5,168.5C 335.5,160.167 335.5,151.833 335.5,143.5 Z"/></g>
<g><path style="opacity:1" fill="#fcfcfd" d="M 118.5,148.5 C 118.333,164.837 118.5,181.17 119,197.5C 119.717,196.956 120.217,196.289 120.5,195.5C 127.782,184.242 138.115,180.075 151.5,183C 167.708,186.876 177.541,197.043 181,213.5C 185.043,231.809 184.043,249.809 178,267.5C 168.195,286.317 152.695,293.817 131.5,290C 122.889,286.892 116.222,281.392 111.5,273.5C 108.105,277.954 106.105,282.954 105.5,288.5C 99.8333,288.5 94.1667,288.5 88.5,288.5C 88.5,241.5 88.5,194.5 88.5,147.5C 98.6806,147.173 108.681,147.506 118.5,148.5 Z"/></g>
<g><path style="opacity:1" fill="#fafbfc" d="M 189.5,147.5 C 199.749,147.181 209.916,147.514 220,148.5C 220.5,195.165 220.667,241.832 220.5,288.5C 210.167,288.5 199.833,288.5 189.5,288.5C 189.5,241.5 189.5,194.5 189.5,147.5 Z"/></g>
<g><path style="opacity:1" fill="#4d6faf" d="M 118.5,148.5 C 119.167,164.167 119.833,179.833 120.5,195.5C 120.217,196.289 119.717,196.956 119,197.5C 118.5,181.17 118.333,164.837 118.5,148.5 Z"/></g>
<g><path style="opacity:1" fill="#194596" d="M 294.5,150.5 C 295.833,150.5 297.167,150.5 298.5,150.5C 299.421,156.34 297.087,160.007 291.5,161.5C 287.853,160.514 286.686,158.181 288,154.5C 289.792,152.372 291.958,151.039 294.5,150.5 Z"/></g>
<g><path style="opacity:1" fill="#fbfcfd" d="M 266.5,182.5 C 306.926,181.259 326.926,200.926 326.5,241.5C 304.167,241.5 281.833,241.5 259.5,241.5C 258.196,264.055 268.196,272.222 289.5,266C 294.339,262.827 297.006,258.327 297.5,252.5C 306.813,253.431 316.146,254.098 325.5,254.5C 318.33,278.637 301.997,290.637 276.5,290.5C 248.732,289.237 232.232,274.903 227,247.5C 223.754,224.895 230.588,206.062 247.5,191C 253.453,187.081 259.786,184.248 266.5,182.5 Z"/></g>
<g><path style="opacity:1" fill="#fcfdfd" d="M 332.5,184.5 C 342.833,184.5 353.167,184.5 363.5,184.5C 363.333,209.169 363.5,233.836 364,258.5C 368.401,267.005 374.901,268.838 383.5,264C 387.666,260.835 390.166,256.668 391,251.5C 391.5,229.169 391.667,206.836 391.5,184.5C 401.5,184.5 411.5,184.5 421.5,184.5C 421.5,219.167 421.5,253.833 421.5,288.5C 412.167,288.5 402.833,288.5 393.5,288.5C 393.666,283.156 393.499,277.823 393,272.5C 388.918,281.584 382.085,287.417 372.5,290C 350.188,294.446 337.021,285.612 333,263.5C 332.5,237.169 332.333,210.835 332.5,184.5 Z"/></g>
<g><path style="opacity:1" fill="#124294" d="M 272.5,202.5 C 288.145,200.813 295.812,207.813 295.5,223.5C 283.5,223.5 271.5,223.5 259.5,223.5C 259.562,213.685 263.895,206.685 272.5,202.5 Z"/></g>
<g><path style="opacity:1" fill="#104194" d="M 130.5,203.5 C 141.91,202.285 148.744,207.285 151,218.5C 151.92,231.224 151.586,243.89 150,256.5C 145.452,269.126 137.285,272.293 125.5,266C 122.537,263.125 120.704,259.625 120,255.5C 119.333,242.833 119.333,230.167 120,217.5C 121.359,211.07 124.859,206.403 130.5,203.5 Z"/></g>
<g><path style="opacity:1" fill="#8ca5cb" d="M 265.5,300.5 C 265.5,316.833 265.5,333.167 265.5,349.5C 268.833,349.5 272.167,349.5 275.5,349.5C 275.5,333.167 275.5,316.833 275.5,300.5C 276.497,316.992 276.83,333.658 276.5,350.5C 272.5,350.5 268.5,350.5 264.5,350.5C 264.17,333.658 264.503,316.992 265.5,300.5 Z"/></g>
<g><path style="opacity:1" fill="#fefefd" d="M 265.5,300.5 C 268.833,300.5 272.167,300.5 275.5,300.5C 275.5,316.833 275.5,333.167 275.5,349.5C 272.167,349.5 268.833,349.5 265.5,349.5C 265.5,333.167 265.5,316.833 265.5,300.5 Z"/></g>
<g><path style="opacity:1" fill="#f3f5f8" d="M 239.5,312.5 C 244.232,312.378 248.898,312.878 253.5,314C 255.624,315.122 257.457,316.622 259,318.5C 260.429,329.088 260.929,339.755 260.5,350.5C 256.833,350.5 253.167,350.5 249.5,350.5C 249.66,348.801 249.494,347.134 249,345.5C 244.509,350.259 239.009,351.759 232.5,350C 226.888,346.769 225.055,341.936 227,335.5C 229.543,331.138 233.377,328.638 238.5,328C 241.817,327.502 245.15,327.335 248.5,327.5C 249.058,320.444 246.058,318.277 239.5,321C 238.624,322.586 237.624,324.086 236.5,325.5C 233.579,324.593 230.579,324.26 227.5,324.5C 227.372,322.345 227.872,320.345 229,318.5C 232.069,315.554 235.569,313.554 239.5,312.5 Z"/></g>
<g><path style="opacity:1" fill="#f5f7f9" d="M 289.5,312.5 C 294.248,312.275 298.915,312.775 303.5,314C 311.88,319.212 311.713,322.712 303,324.5C 301.111,321.615 298.444,319.948 295,319.5C 292.63,319.6 290.797,320.6 289.5,322.5C 289.977,323.478 290.643,324.311 291.5,325C 296.167,326 300.833,327 305.5,328C 311.63,332.073 313.13,337.573 310,344.5C 307.9,347.467 305.066,349.3 301.5,350C 296.833,350.667 292.167,350.667 287.5,350C 282.473,348.147 279.473,344.647 278.5,339.5C 281.038,339.493 283.538,339.159 286,338.5C 288.131,339.54 289.964,341.04 291.5,343C 294.634,343.79 297.634,343.457 300.5,342C 301.38,340.644 301.714,339.144 301.5,337.5C 296.413,337.178 291.413,336.345 286.5,335C 279.3,330.63 277.8,324.797 282,317.5C 284.426,315.548 286.926,313.881 289.5,312.5 Z"/></g>
<g><path style="opacity:1" fill="#f7f9fa" d="M 347.5,346.5 C 347.5,347.5 347.5,348.5 347.5,349.5C 344.167,349.5 340.833,349.5 337.5,349.5C 337.762,348.022 337.429,346.689 336.5,345.5C 335.451,347.216 334.118,348.549 332.5,349.5C 326.883,351.247 321.549,350.747 316.5,348C 310.976,337.705 313.976,331.038 325.5,328C 329.152,327.501 332.818,327.335 336.5,327.5C 336.82,321.003 333.82,318.836 327.5,321C 324.221,324.101 320.221,325.268 315.5,324.5C 316.064,318.426 319.397,314.592 325.5,313C 332.19,311.85 338.524,312.85 344.5,316C 345.701,316.903 346.535,318.069 347,319.5C 347.5,328.494 347.666,337.494 347.5,346.5 Z"/></g>
<g><path style="opacity:1" fill="#f7f9fa" d="M 363.5,312.5 C 372.741,311.205 379.575,314.538 384,322.5C 384.49,323.793 384.657,325.127 384.5,326.5C 381.193,327.051 377.86,327.384 374.5,327.5C 374.133,321.844 371.133,320.011 365.5,322C 362.078,327.484 361.578,333.318 364,339.5C 369.423,343.02 372.923,341.687 374.5,335.5C 377.86,335.616 381.193,335.949 384.5,336.5C 383.999,343.508 380.332,348.008 373.5,350C 355.729,351.556 348.229,343.389 351,325.5C 353.353,319.315 357.52,314.982 363.5,312.5 Z"/></g>
<g><path style="opacity:1" fill="#f7f9fa" d="M 399.5,312.5 C 414.53,311.532 422.196,318.532 422.5,333.5C 414.5,333.5 406.5,333.5 398.5,333.5C 398.043,340.88 401.376,343.713 408.5,342C 410.032,341.3 411.032,340.134 411.5,338.5C 414.768,337.513 418.102,337.18 421.5,337.5C 420.549,343.956 416.883,348.123 410.5,350C 392.178,351.335 384.678,342.835 388,324.5C 389.993,318.675 393.826,314.675 399.5,312.5 Z"/></g>
<g><path style="opacity:1" fill="#164395" d="M 410.5,323.5 C 410.5,324.5 410.5,325.5 410.5,326.5C 406.351,327.08 402.684,326.414 399.5,324.5C 400.588,320.252 403.255,318.752 407.5,320C 408.71,321.039 409.71,322.206 410.5,323.5 Z"/></g>
<g><path style="opacity:1" fill="#5678b2" d="M 410.5,323.5 C 411.434,324.568 411.768,325.901 411.5,327.5C 407.167,327.5 402.833,327.5 398.5,327.5C 398.263,326.209 398.596,325.209 399.5,324.5C 402.684,326.414 406.351,327.08 410.5,326.5C 410.5,325.5 410.5,324.5 410.5,323.5 Z"/></g>
<g><path style="opacity:1" fill="#174495" d="M 241.5,333.5 C 243.833,333.5 246.167,333.5 248.5,333.5C 249.605,340.87 246.605,344.037 239.5,343C 238.196,342.196 237.529,341.029 237.5,339.5C 238.432,337.235 239.765,335.235 241.5,333.5 Z"/></g>
<g><path style="opacity:1" fill="#194595" d="M 332.5,332.5 C 333.833,332.5 335.167,332.5 336.5,332.5C 336.6,335.667 335.933,338.667 334.5,341.5C 331.872,343.633 329.039,343.966 326,342.5C 324.742,336.927 326.909,333.593 332.5,332.5 Z"/></g>
<g><path style="opacity:1" fill="#f9fafa" d="M 70.5,343.5 C 70.5,351.5 70.5,359.5 70.5,367.5C 77.1667,367.5 83.8333,367.5 90.5,367.5C 91.6715,368.345 93.0048,369.011 94.5,369.5C 97.4488,370.614 99.6155,372.614 101,375.5C 102.01,381.064 101.343,386.398 99,391.5C 97.5123,393.16 95.679,394.16 93.5,394.5C 90.2869,394.81 87.2869,394.477 84.5,393.5C 86.1288,392.375 87.6288,391.041 89,389.5C 90.8902,384.004 89.0569,380.504 83.5,379C 73.8547,378.043 64.188,377.543 54.5,377.5C 54.5,366.5 54.5,355.5 54.5,344.5C 59.8617,344.528 65.1951,344.194 70.5,343.5 Z"/></g>
<g><path style="opacity:1" fill="#526cac" d="M 347.5,346.5 C 348.434,347.568 348.768,348.901 348.5,350.5C 343.105,350.733 337.772,350.4 332.5,349.5C 334.118,348.549 335.451,347.216 336.5,345.5C 337.429,346.689 337.762,348.022 337.5,349.5C 340.833,349.5 344.167,349.5 347.5,349.5C 347.5,348.5 347.5,347.5 347.5,346.5 Z"/></g>
<g><path style="opacity:1" fill="#1a2539" d="M 90.5,367.5 C 183.167,367.5 275.833,367.5 368.5,367.5C 368.5,367.833 368.5,368.167 368.5,368.5C 276.998,368.167 185.665,368.501 94.5,369.5C 93.0048,369.011 91.6715,368.345 90.5,367.5 Z"/></g>
<g><path style="opacity:0.443" fill="#8095bc" d="M 368.5,367.5 C 391.833,367.5 415.167,367.5 438.5,367.5C 438.5,369.167 438.5,370.833 438.5,372.5C 437.566,371.432 437.232,370.099 437.5,368.5C 421.5,368.5 405.5,368.5 389.5,368.5C 388.833,368.5 388.167,368.5 387.5,368.5C 381.5,368.5 375.5,368.5 369.5,368.5C 369.5,373.167 369.5,377.833 369.5,382.5C 369.5,383.167 369.167,383.5 368.5,383.5C 368.5,378.5 368.5,373.5 368.5,368.5C 368.5,368.167 368.5,367.833 368.5,367.5 Z"/></g>
<g><path style="opacity:0.492" fill="#fdfefc" d="M 387.5,368.5 C 388.167,368.5 388.833,368.5 389.5,368.5C 388.833,377.833 388.167,377.833 387.5,368.5 Z"/></g>
<g><path style="opacity:0.004" fill="#a4fdc5" d="M 410.5,369.5 C 411.525,369.897 411.692,370.563 411,371.5C 410.536,370.906 410.369,370.239 410.5,369.5 Z"/></g>
<g><path style="opacity:0.004" fill="#a4fdc5" d="M 424.5,369.5 C 425.525,369.897 425.692,370.563 425,371.5C 424.536,370.906 424.369,370.239 424.5,369.5 Z"/></g>
<g><path style="opacity:1" fill="#f9f9f9" d="M 30.5,374.5 C 34.226,374.177 37.8927,374.511 41.5,375.5C 38.4388,382.469 40.4388,387.636 47.5,391C 54.8509,394.051 62.5175,395.218 70.5,394.5C 70.7129,401.174 71.0462,407.841 71.5,414.5C 55.597,413.796 42.097,407.796 31,396.5C 26.5637,389.226 26.3971,381.892 30.5,374.5 Z"/></g>
<g><path style="opacity:0.004" fill="#fefff9" d="M 438.5,374.5 C 438.5,374.833 438.5,375.167 438.5,375.5C 437.83,375.019 437.83,374.685 438.5,374.5 Z"/></g>
<g><path style="opacity:0.852" fill="#f3f3f3" d="M 369.5,382.5 C 370.5,382.5 371.5,382.5 372.5,382.5C 372.5,385.167 372.5,387.833 372.5,390.5C 371.5,390.5 370.5,390.5 369.5,390.5C 368.532,388.393 368.198,386.059 368.5,383.5C 369.167,383.5 369.5,383.167 369.5,382.5 Z"/></g>
<g><path style="opacity:1" fill="#8c8c8a" d="M 84.5,393.5 C 87.2869,394.477 90.2869,394.81 93.5,394.5C 89.6888,395.645 85.6888,395.812 81.5,395C 82.5266,394.487 83.5266,393.987 84.5,393.5 Z"/></g>
</svg>
