<?xml version="1.0" encoding="UTF-8" standalone="no"?>
<!-- Created with Inkscape (http://www.inkscape.org/) -->

<svg
   version="1.1"
   width="169.81696"
   height="74.756584"
   id="svg2"
   sodipodi:docname="hr-fernsehen HD.svg"
   inkscape:version="1.1.1 (3bf5ae0d25, 2021-09-20)"
   xmlns:inkscape="http://www.inkscape.org/namespaces/inkscape"
   xmlns:sodipodi="http://sodipodi.sourceforge.net/DTD/sodipodi-0.dtd"
   xmlns="http://www.w3.org/2000/svg"
   xmlns:svg="http://www.w3.org/2000/svg"
   xmlns:rdf="http://www.w3.org/1999/02/22-rdf-syntax-ns#"
   xmlns:cc="http://creativecommons.org/ns#"
   xmlns:dc="http://purl.org/dc/elements/1.1/">
  <sodipodi:namedview
     id="namedview8"
     pagecolor="#ffffff"
     bordercolor="#666666"
     borderopacity="1.0"
     inkscape:pageshadow="2"
     inkscape:pageopacity="0.0"
     inkscape:pagecheckerboard="0"
     showgrid="false"
     inkscape:zoom="6.6483349"
     inkscape:cx="84.908478"
     inkscape:cy="37.37778"
     inkscape:window-width="1920"
     inkscape:window-height="1017"
     inkscape:window-x="-8"
     inkscape:window-y="-8"
     inkscape:window-maximized="1"
     inkscape:current-layer="svg2" />
  <defs
     id="defs4" />
  <metadata
     id="metadata7">
    <rdf:RDF>
      <cc:Work
         rdf:about="">
        <dc:format>image/svg+xml</dc:format>
        <dc:type
           rdf:resource="http://purl.org/dc/dcmitype/StillImage" />
        <dc:title />
      </cc:Work>
    </rdf:RDF>
  </metadata>
  <g
     transform="translate(-165.83929,-145.73145)"
     id="layer1">
    <path
       d="m 174.39636,145.73145 -8.48506,0.51606 0,55.57895 8.76108,0 0,-30.38779 c 0,0 3.41326,-0.96014 8.24505,-0.96014 6.77866,-0.0643 6.57682,3.72492 6.57682,6.74486 l 0,24.60307 8.97712,0 0,-24.08701 c 0,-1.67065 0.0292,-2.50664 -0.0481,-3.98449 -0.30189,-5.97557 -4.57462,-10.6051 -13.08164,-10.66934 -5.12097,-0.0642 -10.94536,1.15215 -10.94536,1.15215 l 0,-18.50632 z m 54.09076,17.34217 c -1.62326,0.009 -8.19016,0.28027 -12.27754,1.23615 -5.4486,1.22074 -8.94486,4.55337 -9.43318,9.56519 -0.0964,0.96369 -0.14407,1.54372 -0.14407,3.79248 l 0,24.15902 8.97712,0 0,-24.73509 c 0,-2.18451 0.16414,-3.5275 1.58419,-4.81261 1.61271,-1.41349 5.26874,-1.60758 7.35692,-1.80023 1.4777,-0.12853 4.30855,-0.26403 4.30855,-0.26403 l 0,-7.12888 c -0.007,-0.007 -0.14012,-0.0132 -0.37205,-0.0117 z m -62.64783,44.09351 0,5.00461 c 12.88277,5.59014 32.80526,8.61446 49.25416,8.29305 17.61811,-0.32123 33.8096,-3.14511 48.13801,-8.22104 l 0,-4.88461 c -12.78626,5.01168 -31.21792,8.03184 -48.99013,8.35304 -16.44888,0.25702 -34.86385,-2.76233 -48.40204,-8.54505 z"
       id="path3132"
       style="fill:#0076bc;fill-rule:nonzero;stroke:none" />
    <path
       d="m 274,162.90625 0,38.90625 5.90625,0 0,-16.96875 15.4375,0 0,16.96875 5.90625,0 0,-38.90625 -5.90625,0 0,16.65625 -15.4375,0 0,-16.65625 -5.90625,0 z m 34.09375,0 0,38.90625 13.25,0 c 2.88518,0 5.33122,-0.61487 7.34375,-1.84375 2.0303,-1.24668 3.62358,-2.77714 4.78125,-4.59375 0.87265,-1.35354 1.43376,-2.75833 1.71875,-4.21875 0.30274,-1.47821 0.46872,-4.40002 0.46875,-8.78125 -3e-5,-4.07844 -0.0988,-6.83863 -0.3125,-8.28125 -0.21375,-1.44257 -0.81955,-2.9999 -1.78125,-4.65625 -2.58246,-4.36337 -6.51863,-6.53121 -11.84375,-6.53125 l -13.625,0 z M 314,168.5 l 7.0625,0 c 3.00985,4e-5 5.31678,1.07724 6.9375,3.25 0.7836,1.06862 1.25938,2.25804 1.4375,3.59375 0.19587,1.33576 0.31247,3.7593 0.3125,7.25 -3e-5,3.61542 -0.10318,5.98518 -0.28125,7.125 -0.16032,1.12203 -0.54637,2.17672 -1.1875,3.15625 -1.56729,2.26186 -3.97737,3.40626 -7.21875,3.40625 l -7.0625,0 0,-27.78125 z"
       id="path4006"
       style="font-size:54.71186447px;font-style:normal;font-variant:normal;font-weight:normal;font-stretch:normal;line-height:100%;letter-spacing:0px;word-spacing:0px;fill:#5a5a5a;fill-opacity:1;stroke:none;font-family:Alte DIN 1451 Mittelschrift;-inkscape-font-specification:Sans" />
  </g>
  <path
     style="fill:#ffffff;stroke-width:0.150414"
     d="M 0.0752068,28.277757 C 0.0752068,13.055901 0.12597139,0.60017593 0.188017,0.5983689 0.25006261,0.59656187 1.7899219,0.49689335 3.6099264,0.37688331 5.429931,0.25687326 7.2743778,0.15682256 7.7086971,0.15454841 l 0.7896714,-0.004135 V 9.3256431 c 0,8.4011079 0.020798,9.1752299 0.2465139,9.1752299 0.1355826,0 1.0324237,-0.1318 1.9929806,-0.29289 3.216705,-0.539454 4.884907,-0.680698 8.063837,-0.682756 3.503539,-0.0023 4.752834,0.178338 6.863182,0.992175 3.773964,1.455394 6.227267,4.580315 6.748971,8.596572 0.07906,0.608618 0.143451,7.206406 0.146047,14.964231 L 32.5645,55.95386 H 28.127343 23.690142 V 42.523444 c 0,-14.611407 0.0054,-14.510149 -0.84134,-15.795468 -0.446435,-0.677674 -1.497503,-1.379601 -2.542966,-1.698247 -1.937665,-0.590581 -6.980589,-0.372961 -11.0177961,0.475456 L 8.7991957,25.607916 V 40.780888 55.95386 H 4.4372012 0.0752068 Z"
     id="path65" />
  <path
     style="fill:#ffffff;stroke-width:0.150414"
     d="m 40.838527,42.90548 c 0.0013,-13.441973 0.05528,-14.920127 0.614192,-16.80872 1.051652,-3.553609 4.095338,-6.200092 8.377939,-7.284613 2.570299,-0.6509 6.570142,-1.141296 10.696144,-1.311389 l 2.42129,-0.09982 v 3.473815 3.473815 l -0.639258,0.0719 c -0.351592,0.03954 -2.026823,0.179382 -3.722736,0.310752 -5.240346,0.405933 -6.957743,0.970905 -8.072663,2.655663 -0.793069,1.198407 -0.796853,1.271519 -0.79939,15.44339 l -0.0023,13.123587 h -4.437201 -4.437201 l 0.0012,-13.04838 z"
     id="path104" />
  <path
     style="fill:#ffffff;stroke-width:0.150414"
     d="M 44.296806,74.648747 C 29.301561,74.374756 13.283319,71.542939 2.068187,67.183276 L 0.0752068,66.408544 V 63.987027 61.56551 l 1.7673598,0.708009 c 13.3198564,5.335966 32.4455204,8.325975 49.1979984,7.691362 11.73915,-0.444699 21.717164,-1.66843 31.585314,-3.873712 4.109052,-0.918268 7.26001,-1.798387 11.264551,-3.146388 1.837794,-0.618635 3.377654,-1.124791 3.42191,-1.124791 0.04426,0 0.08047,1.041602 0.08047,2.314672 v 2.314671 l -3.045876,0.990591 c -13.238232,4.305387 -28.3031,6.819185 -42.529445,7.096673 -2.109551,0.04115 -4.275507,0.09032 -4.813236,0.109284 -0.537728,0.01896 -1.756078,0.02025 -2.707444,0.0029 z"
     id="path143" />
  <path
     style="fill:#b3b3b3;stroke-width:0.150414"
     d="M 108.22259,36.625712 V 17.297564 h 2.85786 2.85785 v 8.272748 8.272748 h 7.82151 7.82151 v -8.272748 -8.272748 h 2.85786 2.85786 V 36.625712 55.95386 h -2.85786 -2.85786 v -8.423162 -8.423161 h -7.82151 -7.82151 v 8.423161 8.423162 h -2.85785 -2.85786 z"
     id="path85" />
  <path
     style="fill:#b3b3b3;stroke-width:0.150414"
     d="M 142.36647,36.625828 V 17.283137 l 8.15994,0.04972 c 7.91148,0.0482 8.19658,0.05997 9.36325,0.386397 4.24716,1.188335 7.50916,4.390842 9.04518,8.880195 0.43322,1.266161 0.51951,1.781021 0.67202,4.009722 0.23068,3.370916 0.0898,12.063949 -0.2284,14.093606 -0.57415,3.662345 -2.70676,6.875324 -6.01006,9.054766 -1.4092,0.929756 -2.26922,1.328094 -3.85257,1.784394 -1.08444,0.312524 -1.4553,0.327786 -9.13983,0.376164 l -8.00953,0.05042 z m 15.54194,13.701361 c 3.12928,-0.862983 5.19847,-3.093389 5.73792,-6.184983 0.50944,-2.919602 0.40985,-13.027224 -0.15173,-15.399209 -0.50062,-2.114542 -2.12252,-4.188446 -3.99453,-5.107765 -1.61975,-0.795439 -2.57867,-0.917247 -7.2439,-0.920166 l -4.17398,-0.0026 v 14.008265 14.008267 l 4.47481,-0.08002 c 3.45003,-0.0617 4.67555,-0.135386 5.35141,-0.321773 z"
     id="path124" />
</svg>
