<?xml version="1.0" encoding="UTF-8" standalone="no"?>
<!-- Generator: Adobe Illustrator 21.1.0, SVG Export Plug-In . SVG Version: 6.00 Build 0)  -->

<svg
   version="1.1"
   id="svg2"
   inkscape:version="1.1.1 (3bf5ae0d25, 2021-09-20)"
   sodipodi:docname="NITRO HD.svg"
   x="0px"
   y="0px"
   viewBox="0 0 504.5 87"
   style="enable-background:new 0 0 504.5 87;"
   xml:space="preserve"
   xmlns:inkscape="http://www.inkscape.org/namespaces/inkscape"
   xmlns:sodipodi="http://sodipodi.sourceforge.net/DTD/sodipodi-0.dtd"
   xmlns="http://www.w3.org/2000/svg"
   xmlns:svg="http://www.w3.org/2000/svg"><defs
   id="defs13" />
<style
   type="text/css"
   id="style2">
	.st0{fill:#BFBDC2;}
	.st1{fill:#BAE637;}
</style>
<sodipodi:namedview
   bordercolor="#666666"
   borderopacity="1.0"
   fit-margin-bottom="5"
   fit-margin-left="5"
   fit-margin-right="5"
   fit-margin-top="5"
   id="base"
   inkscape:current-layer="svg2"
   inkscape:cx="202.19923"
   inkscape:cy="-52.389952"
   inkscape:document-units="px"
   inkscape:pageopacity="0.0"
   inkscape:pageshadow="2"
   inkscape:window-height="1017"
   inkscape:window-maximized="1"
   inkscape:window-width="1920"
   inkscape:window-x="-8"
   inkscape:window-y="-8"
   inkscape:zoom="1.1548016"
   pagecolor="#ffffff"
   showgrid="false"
   inkscape:pagecheckerboard="0">
	</sodipodi:namedview>
<path
   id="path3843"
   inkscape:connector-curvature="0"
   class="st0"
   d="M4,3.2v80.7h18.5V32l31.2,51.8h17.5V3.2H52.7V55L21.5,3.2H4z   M82,3.2v80.7h20.5V3.2H82z M110.3,3.2v17.4h16.1v63.2h20.5V20.6H163V3.2H110.3z M169.7,3.2v80.7l20.5,0.1V21.1h20.6  c6.2,0,11.2,5.1,11.2,11.5S217,44,210.8,44h-18.7l28.3,39.8h23.4l-21.2-26.7c11.6-3,20.2-13.7,20.2-26.5c0-15.2-12-27.4-26.8-27.4  C216,3.2,169.7,3.2,169.7,3.2z M286.7,3.2c-22.6,0-40.9,18.1-40.9,40.3s18.3,40.3,40.9,40.3s40.9-18.1,40.9-40.3  S309.3,3.2,286.7,3.2z M286.7,21c11.8,0,21.4,10.1,21.4,22.5s-9.6,22.4-21.4,22.4s-21.4-10-21.4-22.4S274.9,21,286.7,21z" />
<rect
   x="326.5"
   y="65.4"
   class="st1"
   width="17.5"
   height="17.5"
   id="rect6" />
<polygon
   class="st0"
   points="363.8,2.9 363.8,84.1 375.3,84.1 375.3,49.2 409.8,49.2 409.8,84.1 421.3,84.1 421.3,2.9 409.8,2.9   409.8,37.8 375.3,37.8 375.3,2.9 "
   id="polygon8" />
<path
   class="st0"
   d="M461.1,2.9h-30.8v81.2h30.8c20.7,0,37.4-18.1,37.4-40.6S481.8,2.9,461.1,2.9z M460,73.2h-18.2V13.8H460  c15.2,0,27.4,13.3,27.4,29.8S475.1,73.2,460,73.2z"
   id="path10" />
<path
   style="fill:#f9f9f9;stroke-width:0.86595"
   d="M 4.7627229,43.297481 V 3.4637985 h 8.1595961 8.159597 L 35.854452,27.956612 c 8.124894,13.471047 15.351648,25.258786 16.059453,26.194976 1.147923,1.51832 1.28989,-1.12702 1.314456,-24.492814 l 0.02754,-26.1949755 h 8.659496 8.659497 V 43.297481 83.131163 L 62.131885,83.097335 53.688876,83.063506 38.586471,57.934065 C 30.280148,44.112873 23.168536,32.609616 22.78289,32.371274 22.397244,32.132932 22.081715,43.456403 22.081715,57.534544 V 83.131163 H 13.422219 4.7627229 Z"
   id="path70" /><path
   style="fill:#f9f9f9;stroke-width:0.86595"
   d="M 82.698188,43.297481 V 3.4637985 h 9.525446 9.525446 V 43.297481 83.131163 h -9.525446 -9.525446 z"
   id="path109" /><path
   style="fill:#f9f9f9;stroke-width:0.86595"
   d="M 126.86162,51.524002 V 19.916841 h -8.22652 -8.22652 V 11.69032 3.4637985 h 25.97848 25.97849 v 8.2265215 8.226521 h -7.79354 -7.79355 v 31.607161 31.607161 h -9.95842 -9.95842 z"
   id="path148" /><path
   style="fill:#f9f9f9;stroke-width:0.86595"
   d="M 177.30318,83.352856 170.1591,83.061121 V 43.205326 3.3495313 l 26.19498,0.2736209 c 25.54008,0.2667803 26.2982,0.3249005 30.32389,2.3247336 13.45853,6.6857552 19.19019,22.7452122 12.87904,36.0856292 -2.87262,6.072083 -9.07397,12.020544 -14.1021,13.527008 -1.83636,0.550187 -3.33883,1.184971 -3.33883,1.410631 0,0.22566 4.48129,5.99897 9.95842,12.829577 5.47713,6.830607 9.95842,12.624294 9.95842,12.874859 0,0.250565 -4.83099,0.455573 -10.73552,0.455573 h -10.73552 l -13.87173,-19.418117 -13.87174,-19.418117 11.60383,-0.282237 11.60382,-0.282236 2.73142,-2.733887 c 5.2437,-5.248444 4.17475,-14.693661 -2.09563,-18.516936 -2.39389,-1.459642 -4.39751,-1.69081 -14.6791,-1.693605 l -11.90681,-0.0032 V 52.389989 83.99715 l -2.81434,-0.17626 c -1.54788,-0.09694 -6.02917,-0.307541 -9.95842,-0.467997 z"
   id="path187" /><path
   style="fill:#f9f9f9;stroke-width:0.86595"
   d="M 274.76382,81.459185 C 254.05511,74.837802 242.34285,53.999503 247.69826,33.304508 252.68108,14.04929 273.45518,0.75470193 293.08019,4.2618871 c 12.09601,2.1616781 24.35879,10.8004109 29.42338,20.7278259 5.45451,10.691713 5.87155,24.036664 1.07171,34.293678 -3.679,7.861855 -7.93365,12.932518 -14.30847,17.052764 -10.21667,6.60335 -23.63978,8.596423 -34.50299,5.12303 z m 21.61284,-17.600213 c 9.8583,-4.564215 14.65729,-18.182973 10.34497,-29.357345 -1.93602,-5.016753 -8.66699,-11.498586 -13.26682,-12.775774 -10.84456,-3.011093 -21.59529,1.813037 -26.32351,11.812042 -2.1995,4.651378 -2.64248,13.506661 -0.89975,17.986107 4.89893,12.591982 18.00593,17.955192 30.14511,12.33497 z"
   id="path226" /><path
   style="fill:#f9f9f9;stroke-width:0.86595"
   d="M 364.13181,43.730456 V 3.4637985 h 5.1957 5.1957 V 20.782791 38.101783 h 17.75197 17.75196 V 20.782791 3.4637985 h 5.62867 5.62868 V 43.730456 83.997113 h -5.62868 -5.62867 V 66.227216 48.457319 l -17.53548,0.234417 -17.53548,0.234417 -0.23441,17.53548 -0.23442,17.53548 h -5.17777 -5.17777 z"
   id="path265" /><path
   style="fill:#f9f9f9;stroke-width:0.86595"
   d="M 430.80993,43.730456 V 3.4637985 h 17.5948 c 13.52282,0 18.68331,0.3182985 22.2982,1.3753505 17.77776,5.198499 29.70575,24.8907 26.87665,44.371315 -1.89902,13.076294 -10.36967,25.471911 -20.905,30.59157 -6.86417,3.335655 -13.09956,4.195079 -30.43659,4.195079 h -15.42806 z m 40.88533,27.012302 c 10.17713,-4.997614 15.70931,-14.655172 15.72159,-27.445277 0.009,-9.413914 -2.7918,-16.20987 -9.12023,-22.129376 -6.932,-6.484081 -10.28508,-7.530774 -24.49603,-7.646667 l -12.16629,-0.09922 -0.2278,30.171398 -0.2278,30.171399 12.78407,-0.296137 c 11.94438,-0.276686 13.1091,-0.455744 17.73249,-2.726121 z"
   id="path304" /></svg>
