<?xml version="1.0" encoding="UTF-8" standalone="no"?>
<!-- Created with Inkscape (http://www.inkscape.org/) -->
<svg
   xmlns:svg="http://www.w3.org/2000/svg"
   xmlns="http://www.w3.org/2000/svg"
   version="1.0"
   width="995.99213"
   height="282.26413"
   viewBox="0 0 1833 546"
   id="Logo RPR1 neu">
  <defs
     id="defs8" />
  <path
     d="M 81.229465,14.304915 C 68.986464,14.921748 56.666873,19.492596 47.852668,28.178703 C 37.597462,38.094204 32.385248,53.082254 34.551765,67.209629 C 35.754038,74.126769 39.5575,80.527352 44.938425,85.01889 C 54.284374,92.814472 67.269656,94.46876 76.447118,102.47944 C 76.787353,106.551 75.284065,110.50497 74.628829,114.48512 C 51.621957,232.87372 28.594428,351.26098 5.583694,469.64911 C 3.3855101,480.98813 2.4657141,493.05688 6.2562116,504.17168 C 9.6264919,514.64003 17.801711,523.42192 27.976038,527.58526 C 35.786015,530.9913 44.425986,531.53247 52.834279,531.69509 C 96.764313,531.67443 140.6926,531.68191 184.62281,531.67018 C 195.19878,477.06727 205.99659,422.5138 216.38058,367.87479 C 232.87852,405.66307 248.675,443.77018 264.90148,481.67971 C 271.8767,498.2167 279.00801,514.69825 285.89897,531.27165 C 339.07247,531.87698 392.26036,531.12879 445.43508,531.64527 C 460.06067,531.33867 474.62362,524.3892 483.41987,512.59061 C 489.90349,504.0732 492.88595,493.1762 492.56113,482.55149 C 492.12668,473.58693 487.30649,465.16202 480.13201,459.86025 C 471.59466,453.23066 460.63259,451.13291 451.58737,445.41357 C 447.25653,442.86674 446.08615,437.7033 444.11495,433.45771 C 429.2277,399.61326 413.97347,365.93721 398.83211,332.20645 C 430.5566,312.06597 455.41098,281.85233 470.59222,247.59378 C 482.01084,222.10424 488.53782,194.60384 491.11646,166.84186 C 492.85829,145.48849 493.85491,123.5847 488.37657,102.65379 C 484.32372,86.792331 477.13781,71.590903 466.60693,58.98997 C 455.27814,45.242483 440.41358,34.605335 424.08888,27.58091 C 402.13575,18.193427 378.12197,14.616919 354.37122,14.304915 L 81.229465,14.304915 z M 570.09991,14.304915 C 556.94352,15.493916 543.76291,21.019396 535.20372,31.342026 C 527.14728,41.10509 522.95063,54.247063 524.81706,66.860916 C 526.15054,74.575026 530.58518,81.689632 536.92238,86.289201 C 545.7504,92.666661 556.93928,94.808602 565.59155,101.45821 C 567.54319,102.59932 566.59103,105.08467 566.53806,106.88816 C 558.96739,149.35216 552.33026,191.99275 545.56547,234.59178 C 532.75979,315.52844 520.55732,396.55724 507.9294,477.52006 C 506.79366,487.58122 506.94635,498.18516 511.14254,507.58409 C 514.93542,516.44356 522.26338,523.67563 531.14371,527.4109 C 539.5611,531.13222 548.94384,531.64512 558.0195,531.69509 C 603.90432,531.65748 649.77602,531.70386 695.66143,531.67018 C 702.88469,484.40323 710.07086,437.13356 717.30653,389.86861 C 719.6905,375.16703 721.44014,360.35561 724.40533,345.75644 C 738.6841,345.67847 752.96779,345.60945 767.24718,345.40772 C 802.21339,345.8188 837.3642,338.99222 869.37022,324.80876 C 898.46841,311.9081 924.69935,292.0546 943.7955,266.47409 C 962.43764,241.73419 973.9902,212.12 979.14007,181.68706 C 981.96038,164.93429 983.20012,147.90927 982.77657,130.92444 C 981.9603,111.21203 977.17947,91.469052 967.45815,74.208793 C 958.46128,58.202462 945.09821,44.802862 929.42359,35.302407 C 904.02526,19.993439 873.8842,14.688676 844.58666,14.304915 L 570.09991,14.304915 z M 1017.4237,14.304915 C 1004.471,15.38432 991.52141,20.736408 982.90115,30.694417 C 974.78391,40.014522 970.44664,52.786056 971.74234,65.117352 C 972.53509,73.534084 977.25383,81.352493 984.04692,86.314109 C 992.94862,92.710147 1004.2094,94.84867 1012.9154,101.55784 C 1014.5326,102.37825 1013.8796,104.28179 1013.812,105.71749 C 990.31155,226.64173 966.78519,347.57379 943.29733,468.50334 C 940.90536,480.23223 939.79674,492.6961 943.77063,504.2215 C 947.34432,515.34727 956.34461,524.49628 967.35852,528.35741 C 978.87298,532.56391 991.36718,531.53301 1003.4005,531.67018 C 1042.9821,531.66537 1082.5545,531.68925 1122.1372,531.67018 C 1132.6196,477.01668 1143.5698,422.4395 1153.8451,367.75025 C 1177.2908,422.13472 1200.2298,476.76136 1223.3884,531.27165 C 1276.5751,531.86882 1329.7858,531.12905 1382.9744,531.64527 C 1400.5413,531.3339 1417.9442,521.10863 1425.4924,505.01856 C 1428.5805,498.2948 1430.1518,490.86611 1430.1253,483.47309 C 1429.833,474.5042 1425.3398,465.83198 1418.2442,460.35841 C 1410.2016,453.87833 1399.9081,451.52357 1390.9948,446.60916 C 1388.2461,445.14465 1385.6842,443.08803 1384.4938,440.13307 C 1368.7011,404.03793 1352.4361,368.13455 1336.3216,332.18154 C 1365.5273,313.62646 1388.9831,286.5534 1404.2708,255.58927 C 1420.4237,223.13969 1428.2179,186.96731 1429.6272,150.87579 C 1431.1735,128.60819 1428.767,105.65351 1419.8632,85.01889 C 1408.3986,57.18254 1384.1869,35.723389 1356.1484,25.413909 C 1335.6922,17.635447 1313.7296,14.609014 1291.9354,14.304915 L 1017.4237,14.304915 z M 1646.9998,14.304915 C 1635.4709,15.261938 1624.0846,19.148021 1614.7438,26.03661 C 1602.836,34.578018 1594.0808,46.468187 1584.3062,57.19659 C 1572.9692,70.187699 1559.8078,81.699791 1545.1009,90.722835 C 1527.4,99.934712 1508.1844,105.71787 1489.1325,111.39652 C 1472.908,116.7042 1457.9308,128.92293 1453.2151,145.81946 C 1450.3635,158.56358 1448.213,171.45812 1445.5932,184.25259 C 1444.4287,191.35144 1442.1282,198.33418 1442.3303,205.5988 C 1442.5514,217.2718 1447.555,229.10852 1456.9015,236.36025 C 1465.4414,243.36944 1476.6984,246.06152 1487.5633,246.14911 C 1499.7889,246.19504 1512.0215,246.142 1524.2529,246.17402 C 1506.6524,322.91449 1489.0574,399.66188 1471.4478,476.3992 C 1468.7832,492.63889 1473.408,510.96538 1486.3926,521.78168 C 1494.1249,528.3195 1504.3631,531.40135 1514.4142,531.19692 C 1556.1571,531.17865 1597.9065,530.92653 1639.6519,531.04748 C 1672.6155,386.7054 1705.357,242.3073 1738.238,97.946172 C 1739.9398,89.646471 1742.7003,81.530568 1743.3441,73.038115 C 1744.9158,59.961156 1743.0441,46.029932 1735.8966,34.75443 C 1727.7492,21.773066 1712.5333,14.431751 1697.4137,14.304915 L 1646.9998,14.304915 z M 280.04558,143.27884 C 291.14371,143.2289 302.24968,143.32583 313.29784,144.3997 C 317.11042,144.76063 320.88015,145.68133 324.35701,147.31394 C 326.14059,154.90586 325.3978,162.83011 324.03321,170.42862 C 322.51723,178.02482 318.89916,185.72719 312.12716,189.95654 C 304.08751,194.98304 294.35161,196.37897 285.02719,196.40772 C 273.29618,196.4374 261.56219,196.39177 249.83211,196.40772 C 253.30546,178.73598 256.86169,161.07318 260.06932,143.35356 C 266.72,143.39033 273.3867,143.3088 280.04558,143.27884 z M 1224.5342,143.27884 C 1233.5087,143.31455 1242.4768,143.57414 1251.41,144.49933 C 1254.8898,145.10015 1258.7407,145.33134 1261.6721,147.53811 C 1263.38,152.03224 1262.8492,156.9801 1262.6934,161.68589 C 1261.9412,170.99903 1259.8176,181.19821 1252.5558,187.71481 C 1245.41,193.86689 1235.6553,195.76962 1226.5019,196.30809 C 1213.443,196.53169 1200.3786,196.37243 1187.3216,196.38282 C 1190.8135,178.70664 1194.2944,161.03934 1197.6086,143.32865 C 1206.5732,143.42919 1215.5597,143.24312 1224.5342,143.27884 z M 751.2064,143.30374 C 765.17074,143.27555 779.13802,143.272 793.10175,143.52792 C 799.10823,144.09636 805.23432,144.1689 811.08537,145.81946 C 812.57849,146.39762 814.76036,146.71683 814.97102,148.68389 C 816.35041,154.55417 815.70336,160.70744 815.07065,166.64259 C 813.90807,175.31281 810.65719,184.44606 803.11479,189.55801 C 793.17281,196.10709 780.77226,196.64191 769.23983,196.40772 C 760.35747,196.39644 751.46677,196.42727 742.58821,196.40772 C 745.48323,178.71349 748.3886,161.01049 751.2064,143.30374 z M 1772.1379,388.12504 C 1771.2774,388.12248 1770.4061,388.14279 1769.5474,388.17486 C 1763.3887,388.35709 1757.1775,388.08151 1750.9909,388.14995 C 1744.8043,388.21839 1738.6636,388.64114 1732.6337,390.24223 C 1706.0471,396.79742 1682.823,418.48594 1677.4374,445.76229 C 1675.5901,456.33854 1671.9502,466.71836 1672.2815,477.56988 C 1672.3576,493.38844 1680.0533,509.03638 1692.5815,518.71799 C 1701.7226,525.8853 1713.0641,530.12602 1724.6382,530.94784 C 1733.9348,531.42695 1743.2716,531.13536 1752.585,531.14711 C 1785.2429,530.9004 1817.0577,506.96594 1823.9964,474.63073 C 1825.7557,465.17863 1828.5809,455.90089 1829.3268,446.28536 L 1829.3268,437.96607 C 1827.9201,423.13223 1820.351,408.89644 1808.3293,399.98128 C 1798.0317,392.10521 1785.0437,388.16345 1772.1379,388.12504 z"
     id="schwarz"
     style="fill:#000000;fill-opacity:1;fill-rule:nonzero;stroke:none" />
  <path
     d="M 82.723948,32.587429 C 74.065753,32.817111 65.071816,35.978089 59.285466,42.650284 C 54.608683,47.909207 52.018958,55.047227 52.261394,62.078569 C 52.386693,66.635738 55.320953,70.735685 59.310374,72.789034 C 66.728412,76.793996 74.866502,79.342772 82.001614,83.898028 C 86.941938,87.053144 91.922043,90.801272 94.580183,96.1777 C 96.550208,100.24236 95.109597,104.75101 94.380919,108.93063 C 70.630043,230.76763 46.993483,352.63451 23.293323,474.48128 C 21.646387,483.77954 20.605471,494.13964 25.584864,502.65229 C 30.110198,510.29575 39.476363,513.25046 47.927392,513.13858 C 88.499549,513.14075 129.05594,513.20546 169.62816,513.11367 C 179.65808,461.4676 189.68731,409.82211 199.76691,358.18556 C 201.59226,349.63547 202.44608,340.71928 206.06865,332.67971 C 207.44862,329.25393 210.82035,327.34828 214.43776,327.32447 C 219.82123,330.94639 222.79571,336.89066 225.52184,342.5682 C 231.08591,354.80023 236.11383,367.26756 241.43809,379.60649 C 260.2749,424.07615 279.26339,468.4688 297.97938,512.98913 C 346.8022,513.37035 395.63881,513.05063 444.46367,513.1884 C 451.44997,513.5586 458.27343,510.88277 463.81723,506.76212 C 471.72226,500.6581 475.74392,489.87172 473.58119,480.1105 C 470.67397,473.36335 463.06552,470.98038 456.86788,468.25426 C 446.9647,464.13589 435.85817,459.34529 431.01332,449.05015 C 417.77941,418.90609 404.26631,388.8935 390.7868,358.85807 C 385.80139,347.28627 380.03175,336.04297 375.56798,324.26078 C 395.34892,314.68616 412.58606,300.3213 426.77895,283.63574 C 442.20651,265.36184 453.70307,243.93409 461.27661,221.29087 C 470.46636,193.84373 474.40454,164.75494 474.07935,135.85624 C 474.26492,117.88356 470.19506,99.702664 461.52569,83.898028 C 452.24761,66.782084 436.85645,53.445537 419.2069,45.464895 C 396.90731,35.322965 372.04651,32.240526 347.74568,32.612337 C 259.40741,32.598366 171.06149,32.643557 82.723948,32.587429 z M 256.80636,125.12086 C 268.53296,125.09731 280.24947,125.15145 291.97654,125.12086 C 302.28064,125.22438 312.68986,125.37251 322.81271,127.51204 C 329.35056,128.9548 336.25562,131.84782 339.7751,137.8987 C 344.3309,145.71084 343.68131,155.08798 343.36186,163.77817 C 342.41363,177.46584 337.97214,191.78209 327.4207,201.14025 C 316.52896,211.06808 301.31058,214.24547 286.99493,214.71515 C 267.20671,214.74704 247.42705,214.72158 227.63903,214.71515 C 233.55655,184.89073 239.29343,155.0467 245.07467,125.19559 C 248.98338,125.16506 252.89749,125.12871 256.80636,125.12086 z M 575.30569,32.512705 C 569.17046,32.495338 563.00498,33.612997 557.54625,36.497994 C 548.48096,41.06927 542.68376,51.037012 542.60141,61.107155 C 542.44695,65.898521 545.30234,70.512461 549.52585,72.71431 C 556.71754,76.600052 564.6004,79.09288 571.56948,83.424775 C 576.94706,86.763114 582.49557,90.729306 585.16928,96.675861 C 587.27803,101.28008 584.94061,106.18935 584.37223,110.87345 C 578.64109,143.80051 573.05658,176.77562 568.15708,209.83317 L 567.78346,210.40605 C 561.33289,252.71977 554.49101,294.98782 548.08119,337.3126 C 540.5861,385.03385 533.5219,432.83277 525.91302,480.53394 C 525.18286,488.35636 525.1365,496.96508 529.79867,503.69843 C 534.60145,510.85253 543.8252,513.27327 552.01666,513.16349 C 594.67352,513.17231 637.33665,513.17043 679.99426,513.13858 C 687.85588,461.78544 695.66561,410.43811 703.50747,359.08225 C 704.77239,350.99897 705.8157,342.77666 708.61362,335.04597 C 709.80519,331.6353 712.23999,327.53641 716.36002,327.64828 C 731.99699,327.3964 747.62057,327.47462 763.2619,327.29957 C 797.39149,327.74056 831.92205,321.77265 863.09339,307.57238 C 891.19063,294.89719 916.3406,275.08669 933.53338,249.33735 C 954.30893,218.71504 963.62869,181.42308 964.3446,144.7235 C 965.32849,137.75575 964.17953,130.79617 963.92121,123.82564 C 962.08821,105.13795 955.66074,86.614112 943.87026,71.842528 C 931.92085,56.697458 914.85648,46.242569 896.61963,40.408559 C 877.11141,34.058571 856.41819,32.198901 835.99342,32.612337 C 749.96916,32.594732 663.94476,32.650125 577.92104,32.587429 C 577.04826,32.540633 576.18216,32.515186 575.30569,32.512705 z M 783.16343,125.12086 C 793.51943,125.24974 803.97505,125.40812 814.12415,127.7113 C 819.83921,129.15001 825.82352,131.60135 829.2932,136.62839 C 833.17806,142.15325 834.08471,149.15903 833.72675,155.75777 C 834.46355,172.30164 830.14916,190.48831 817.16293,201.71314 C 805.44228,211.89787 789.28951,214.6952 774.22144,214.74005 C 756.47764,214.53444 738.7226,215.09743 720.99292,214.44116 C 726.24159,184.73084 730.61825,154.88322 735.71358,125.14577 C 751.52653,125.13831 767.34835,125.12499 783.16343,125.12086 z M 1289.4197,32.587429 C 1288.0602,32.586386 1286.692,32.590648 1285.3348,32.612337 C 1196.6506,32.619148 1107.9738,32.596801 1019.2918,32.612337 C 1008.4917,32.98085 997.4516,38.680444 992.69005,48.702942 C 990.23511,54.215629 988.43863,60.812415 990.84678,66.636744 C 992.98098,71.615999 998.39324,73.664276 1002.9521,75.802909 C 1011.9971,79.734213 1021.4088,83.725008 1028.3833,90.947008 C 1031.5154,94.112053 1033.8368,98.532639 1032.8916,103.10214 C 1021.9684,160.63799 1010.3678,218.05828 999.56464,275.61535 L 999.21588,276.21314 C 987.88961,335.75214 976.03561,395.19684 964.66845,454.72919 C 963.01949,463.0134 961.13509,471.2602 960.01068,479.63725 C 958.92979,487.64518 959.01332,496.51182 963.59744,503.49916 C 968.35109,510.59049 977.29791,513.23642 985.46664,513.13858 C 1026.0203,513.14748 1066.5876,513.20477 1107.1425,513.13858 C 1117.5713,459.02029 1128.1729,404.92172 1138.6512,350.81277 C 1140.1515,344.06716 1140.884,336.87405 1144.6043,330.88633 C 1146.4632,327.80918 1151.2284,326.21666 1154.0444,328.9435 C 1159.3391,333.73224 1162.0038,340.58853 1165.004,346.90221 C 1188.5283,402.26354 1212.0528,457.62723 1235.5187,513.01404 C 1284.3438,513.35665 1333.1753,513.05675 1382.003,513.1884 C 1392.674,513.5146 1403.5907,507.61335 1408.53,498.01939 C 1411.3116,492.67404 1412.2629,486.40452 1411.1952,480.48412 C 1409.4341,475.47302 1404.4761,472.73183 1399.9368,470.64544 C 1390.7883,466.5528 1380.7894,463.39467 1373.5093,456.17386 C 1368.7432,451.67792 1366.933,445.22094 1364.2435,439.46055 C 1347.3163,400.99483 1329.876,362.73658 1312.8084,324.33551 C 1341.9609,310.16695 1365.7532,286.18614 1382.0279,258.35406 C 1403.3347,221.73662 1411.7996,178.81288 1411.5688,136.77783 C 1411.8619,114.50646 1405.9062,91.654004 1392.4145,73.685724 C 1381.6877,59.241985 1366.2802,48.753988 1349.5478,42.45102 C 1330.4023,35.227551 1309.8118,32.603074 1289.4197,32.587429 z M 1182.589,125.12086 C 1198.5754,125.12876 1214.5473,125.12021 1230.5371,125.12086 C 1240.5204,125.24241 1250.5956,125.44448 1260.4018,127.53694 C 1266.0265,128.82276 1271.838,131.03648 1275.6206,135.60716 C 1278.6604,139.28017 1280.119,144.02275 1280.7517,148.68389 C 1281.7725,161.5499 1280.7037,174.9113 1275.3217,186.79321 C 1271.2585,195.93294 1263.898,203.5415 1254.922,207.94015 C 1244.9214,212.95969 1233.6118,214.53568 1222.5416,214.74005 C 1203.4092,214.71638 1184.2581,214.74535 1165.1285,214.71515 C 1170.9931,184.86212 1176.7614,154.98102 1182.589,125.12086 z M 1619.5349,45.694768 C 1627.6648,37.879287 1638.5604,32.626476 1649.9715,32.613584 C 1665.6095,32.607487 1681.2503,32.607168 1696.8931,32.613493 C 1705.5439,32.593349 1714.5353,36.230087 1719.6685,43.411053 C 1724.7421,50.515779 1725.9724,59.599223 1725.413,68.123711 C 1725.0676,76.811384 1722.2415,85.099881 1720.4854,93.54945 C 1688.7225,233.32839 1656.8083,373.0727 1625.1399,512.87243 C 1587.9274,512.92103 1550.7157,512.85866 1513.5051,512.90496 C 1505.9342,513.09865 1498.0939,509.61105 1493.9583,503.12675 C 1488.5916,494.78863 1487.7243,484.06478 1490.5812,474.68609 C 1508.0291,398.97765 1525.3,323.22753 1542.738,247.51696 C 1543.6673,242.43561 1544.8003,236.57105 1541.7976,231.96666 C 1539.1233,228.53363 1534.4024,227.92186 1530.342,227.88505 C 1515.7582,227.85199 1501.176,227.88697 1486.5966,227.88049 C 1478.3397,227.73303 1469.3204,225.01249 1464.4227,217.92037 C 1459.9336,211.44461 1460.295,203.04142 1461.9563,195.69032 C 1464.863,181.25658 1467.6002,166.78835 1470.4324,152.33962 C 1472.2278,143.92799 1478.4751,137.11488 1485.7577,132.8847 C 1491.886,129.15763 1498.9356,127.52609 1505.744,125.50624 C 1518.6566,121.53915 1531.4416,117.08361 1543.8265,111.66565 C 1559.1747,105.17942 1572.2891,94.514014 1584.4717,83.343257 C 1597.1914,71.773204 1607.1052,57.545282 1619.5349,45.694768 z M 1743.3939,406.74249 C 1752.0677,405.93171 1760.8075,406.53792 1769.5161,406.33716 C 1778.4774,406.04608 1787.6602,408.11217 1795.2197,413.05964 C 1804.2328,418.83241 1810.2962,428.99025 1811.0022,439.67981 C 1811.7834,449.57597 1808.1712,459.02342 1806.5881,468.65997 C 1801.9728,494.80698 1775.6793,513.86135 1749.6312,512.90499 C 1740.6709,512.62108 1731.6521,513.46499 1722.7467,512.35674 C 1711.3251,510.68195 1700.4186,504.02034 1694.8551,493.73937 C 1690.3222,485.5347 1689.3978,475.6514 1691.7359,466.62692 C 1694.1626,456.82216 1694.9591,446.45309 1699.5093,437.29745 C 1707.9903,420.76386 1725.0554,409.21234 1743.3939,406.74249 z"
     id="weiss"
     style="fill:#ffffff;fill-rule:nonzero;stroke:none" />
  <path
     d="M 82.82358,45.738884 C 77.377299,46.017518 71.529196,48.017405 68.252367,52.613507 C 66.413299,55.07263 65.925771,58.169096 65.238492,61.082247 C 77.272547,66.716281 90.320507,71.364774 99.810876,81.083417 C 106.30644,87.355599 110.53455,96.79369 108.40416,105.86693 C 84.369052,229.45376 60.353882,353.06103 36.320237,476.64828 C 35.323154,482.27216 34.578159,488.20393 35.996432,493.80993 C 37.591739,499.26169 44.101572,499.97818 48.898806,500.06185 C 85.51204,500.08359 122.12955,500.08966 158.74334,500.06185 C 168.79951,448.07059 178.935,396.09558 189.03154,344.1125 C 190.6938,336.23181 192.35963,327.86514 197.67463,321.5209 C 203.56742,314.25619 215.21521,311.95299 223.08085,317.28653 C 229.84566,322.09513 234.08186,329.54047 237.52753,336.91408 C 243.18083,349.55368 248.42716,362.37564 253.89212,375.09813 C 271.56618,416.748 289.26321,458.37999 306.92137,500.03694 C 352.7494,500.12477 398.58551,500.03922 444.41385,500.08676 C 452.92743,500.43875 461.37311,493.61148 461.12716,484.71849 C 450.81743,479.52109 439.35931,476.2889 430.31589,468.82715 C 423.88504,463.97859 419.53695,456.94204 416.71609,449.4985 C 397.26428,405.23508 377.31369,361.1847 357.43491,317.11217 C 375.70067,311.47676 391.62197,300.10817 405.43274,287.14778 C 423.7465,269.42194 437.56813,247.30741 446.48122,223.48278 C 454.48527,202.14082 458.80789,179.51215 460.30519,156.80391 C 461.67406,138.47073 461.77752,119.47611 455.27376,102.00619 C 449.26857,84.671034 436.5677,69.922035 420.57684,61.007523 C 406.56046,52.979996 390.62532,49.145315 374.74601,46.984286 C 368.43043,46.609055 362.14896,45.78534 355.81589,45.7887 C 264.81476,45.753065 173.82242,45.816235 82.82358,45.738884 z M 234.46383,111.72033 C 251.98052,111.76756 269.50247,111.73475 287.01984,111.72033 C 303.40027,112.47391 320.55017,111.33238 335.96417,117.97225 C 344.5179,121.63281 351.41084,128.97919 354.24668,137.87379 C 357.90404,149.07724 357.12388,161.13612 355.64153,172.64544 C 353.32147,188.41728 345.99245,204.03285 333.02502,213.76864 C 319.98119,223.83611 303.19104,227.45963 287.01984,227.94132 C 261.90611,227.96491 236.81138,227.94169 211.69787,227.94132 C 218.35411,193.58936 225.01568,159.23833 231.72395,124.89669 C 232.52766,120.48133 233.32055,116.06285 234.46383,111.72033 z M 574.98189,45.689067 C 571.11231,45.773944 567.28628,46.271244 563.82308,48.179873 C 559.01009,50.457127 556.27341,55.585599 555.65324,60.708626 C 561.07892,64.311736 567.48769,66.03449 573.1636,69.202274 C 584.65157,74.988486 596.20423,83.746339 599.19252,96.974758 C 599.48286,102.00011 598.70692,106.97802 597.62331,111.86978 C 590.86922,149.4149 585.00105,187.10871 578.99209,224.778 C 565.34132,310.63919 552.39861,396.60129 539.01465,482.50167 C 538.64023,486.98331 538.22017,491.96857 540.60877,496.00184 C 543.43333,499.77939 548.69709,499.86708 552.98807,500.08676 C 591.56049,500.05733 630.1378,500.12177 668.71091,500.03694 C 675.17656,456.84875 681.86112,413.69069 688.41318,370.51505 C 690.38712,358.57713 691.57892,346.47041 694.78965,334.77198 C 696.25407,329.66792 698.29245,324.54954 702.01298,320.64911 C 705.29062,317.10833 709.93375,314.88884 714.741,314.52173 C 728.90278,314.10881 743.11069,314.85085 757.25905,313.94885 C 767.59061,313.79794 777.93761,314.194 788.24468,313.25142 C 820.26683,310.40916 852.1446,301.14255 879.35831,283.73537 C 903.5632,268.34098 923.30242,245.96844 935.02786,219.74657 C 945.03962,197.83613 949.72903,173.81228 951.04378,149.85456 C 951.45889,140.18176 951.75858,130.43636 950.24672,120.83668 C 947.95104,104.33386 941.37085,88.121225 929.87185,75.877633 C 918.00581,62.974609 901.6839,54.963423 884.86303,50.720495 C 869.25823,46.743689 853.07509,45.540714 837.01461,45.7887 C 751.98367,45.785416 666.96186,45.773657 581.93124,45.763792 C 579.64881,45.730247 577.30364,45.638141 574.98189,45.689067 z M 724.67931,111.72033 C 743.51807,111.76698 762.35516,111.747 781.1957,111.74524 C 794.20928,112.53753 807.52228,111.85918 820.1519,115.70562 C 828.3494,118.04827 836.26235,122.69577 840.85053,130.07757 C 846.55524,138.79942 847.46851,149.61262 847.1771,159.76797 C 846.64586,177.32604 841.91237,195.88802 829.1188,208.61267 C 816.07001,222.273 796.61188,227.27184 778.28145,227.91642 C 754.08489,227.98386 729.89505,227.92795 705.69937,227.94132 C 709.04244,205.78873 712.86003,183.71604 716.36002,161.58626 C 719.19912,144.97998 721.48891,128.2613 724.67931,111.72033 z M 1020.4376,45.738884 C 1015.1733,46.021805 1009.5585,47.789058 1006.1653,52.040622 C 1004.0246,54.581034 1003.4647,57.946886 1002.6532,61.057339 C 1014.8752,66.781008 1028.1329,71.522889 1037.6989,81.481946 C 1043.9218,87.747302 1047.921,96.977428 1045.8687,105.84203 C 1021.9309,229.15082 997.92074,352.44696 973.95919,475.75159 C 972.87312,481.5964 972.04139,487.72569 973.41114,493.58576 C 974.68794,498.91383 980.91073,499.8982 985.5414,500.03694 C 1022.4251,500.12921 1059.322,500.06254 1096.2079,500.08676 C 1106.2152,448.44632 1116.2697,396.82025 1126.2968,345.18355 C 1127.9082,337.36986 1129.4671,329.1207 1134.3172,322.56703 C 1138.2532,317.04043 1145.114,313.97086 1151.8525,314.4221 C 1157.4861,314.44279 1162.3733,317.99341 1165.9006,322.11869 C 1172.7742,330.0425 1176.3164,340.08256 1180.4968,349.54246 C 1201.8153,399.7144 1223.1203,449.91296 1244.4357,500.08676 C 1288.296,500.10277 1332.1386,500.06394 1376.0001,500.08676 C 1381.3043,500.20207 1387.0878,500.47965 1391.6673,497.29706 C 1396.1622,494.7789 1398.3674,489.71998 1398.6415,484.7434 C 1389.3664,479.99797 1379.1361,477.06647 1370.5951,470.94433 C 1364.2942,466.69966 1359.1049,460.77314 1356.0737,453.78268 C 1336.1461,408.03337 1315.2269,362.70845 1295.0738,317.06235 C 1307.3864,313.29006 1318.6422,306.72463 1328.899,299.02892 C 1343.2731,288.25425 1355.5598,274.82075 1365.4889,259.87345 C 1388.9011,224.62104 1397.9975,181.72707 1398.4921,139.89134 C 1398.8963,121.69558 1395.3246,102.95499 1385.6893,87.310432 C 1377.1815,73.386442 1363.8626,62.789683 1348.9251,56.449348 C 1328.0103,47.521822 1304.8966,45.402111 1282.3707,45.7887 C 1195.0588,45.762809 1107.7466,45.833504 1020.4376,45.738884 z M 1212.1051,111.69542 C 1224.923,111.72086 1237.7396,111.93535 1250.5382,112.69174 C 1261.5344,113.88016 1273.2629,115.89155 1281.9473,123.30257 C 1289.2039,129.2926 1292.9638,138.56542 1293.8533,147.76229 C 1294.9253,158.40457 1294.1391,169.25686 1291.7112,179.66951 C 1288.6105,192.90352 1281.4745,205.46092 1270.5145,213.71882 C 1260.2009,221.69405 1247.3821,225.75405 1234.5473,227.16917 C 1226.2782,228.34051 1217.9027,227.83657 1209.5894,227.94132 C 1189.4389,227.93003 1169.2855,227.95688 1149.1375,227.91642 C 1156.4773,190.22856 1163.8179,152.55085 1171.1313,114.85874 C 1171.3946,113.51278 1171.6112,111.27327 1173.6471,111.77014 C 1186.4614,111.81821 1199.2872,111.66998 1212.1051,111.69542 z M 1707.6737,454.9991 C 1710.0893,437.35395 1725.5194,423.54088 1742.5877,420.2833 C 1748.8255,419.03617 1755.2141,419.60642 1761.5383,419.49439 C 1769.163,419.52264 1777.1989,418.84004 1784.3198,422.17065 C 1791.4189,425.16512 1796.8548,431.93677 1797.7729,439.65243 C 1798.5296,445.43144 1796.7044,451.06915 1795.6113,456.67761 C 1793.9407,463.75029 1793.2593,471.26789 1789.4624,477.63147 C 1783.7151,487.70039 1773.6543,494.96041 1762.6073,498.1725 C 1754.8297,500.49716 1746.6486,499.55088 1738.6689,499.7305 C 1732.9347,499.84252 1727.1889,499.84125 1721.5401,498.79895 C 1714.3934,496.54797 1707.6627,491.71932 1705.1281,484.41674 C 1701.4093,474.68706 1706.3064,464.69433 1707.6737,454.9991 z"
     id="rot"
     style="fill:#e2003b;fill-opacity:1;fill-rule:nonzero;stroke:none" />
  <path
     d="M 1631.0974,53.189625 C 1636.6106,48.526479 1643.6978,45.695225 1650.9671,45.769748 C 1665.9144,45.774355 1680.865,45.778642 1695.8171,45.76616 C 1700.814,45.740908 1706.4434,47.18723 1709.2589,51.698486 C 1713.1889,58.024272 1712.6604,65.947996 1711.6402,73.020567 C 1679.2059,215.24243 1646.9363,357.51665 1614.4949,499.74263 C 1581.1595,499.73515 1547.8249,499.70991 1514.4919,499.7577 C 1511.0381,499.8082 1507.1325,499.01733 1505.0988,495.95254 C 1502.1872,491.45712 1501.5101,485.71003 1502.791,480.55806 C 1519.2966,408.76862 1535.7418,336.96402 1552.2082,265.16507 C 1554.1591,255.38413 1557.8033,245.65504 1556.6997,235.53313 C 1556.0119,228.23085 1551.7781,221.11782 1545.0749,217.86252 C 1538.1314,214.19778 1530.0496,214.69616 1522.4586,214.69378 C 1510.8334,214.67925 1499.2102,214.74115 1487.5914,214.68037 C 1483.1577,214.4951 1477.8727,214.03777 1475.1187,210.05707 C 1473.118,206.74873 1473.9866,202.68438 1474.7151,199.1233 C 1477.7016,184.70502 1480.3222,170.21076 1483.228,155.77721 C 1484.845,147.87804 1492.6132,143.43237 1499.6805,141.07612 C 1508.8148,138.38441 1517.9578,135.69047 1526.926,132.45663 C 1541.9377,126.99931 1557.2423,121.45414 1570.2558,111.9512 C 1585.9871,101.08102 1599.8333,87.695053 1612.2433,73.19514 C 1618.2841,66.312905 1624.0804,59.129217 1631.0974,53.189625 z"
     id="blau"
     style="fill:#009ee0;fill-opacity:1;fill-rule:nonzero;stroke:none" />
</svg>
