<?xml version="1.0" encoding="UTF-8"?>
<!DOCTYPE svg PUBLIC "-//W3C//DTD SVG 1.1//EN" "http://www.w3.org/Graphics/SVG/1.1/DTD/svg11.dtd">
<svg xmlns="http://www.w3.org/2000/svg" version="1.1" width="381px" height="40px" style="shape-rendering:geometricPrecision; text-rendering:geometricPrecision; image-rendering:optimizeQuality; fill-rule:evenodd; clip-rule:evenodd" xmlns:xlink="http://www.w3.org/1999/xlink">
<g><path style="opacity:0.008" fill="#b8b8b8" d="M 204.5,-0.5 C 207.5,-0.5 210.5,-0.5 213.5,-0.5C 210.5,0.833333 207.5,0.833333 204.5,-0.5 Z"/></g>
<g><path style="opacity:0.008" fill="#fefffe" d="M 214.5,-0.5 C 215.167,-0.5 215.833,-0.5 216.5,-0.5C 215.833,0.833333 215.167,0.833333 214.5,-0.5 Z"/></g>
<g><path style="opacity:0.008" fill="#fefffe" d="M 217.5,-0.5 C 218.5,-0.5 219.5,-0.5 220.5,-0.5C 219.5,0.833333 218.5,0.833333 217.5,-0.5 Z"/></g>
<g><path style="opacity:0.008" fill="#fefffe" d="M 221.5,-0.5 C 227.167,-0.5 232.833,-0.5 238.5,-0.5C 235.359,0.321287 232.025,0.821287 228.5,1C 231.882,1.17636 235.215,1.67636 238.5,2.5C 238.333,2.83333 238.167,3.16667 238,3.5C 231.898,2.37563 225.398,2.37563 218.5,3.5C 218.167,3.16667 217.833,2.83333 217.5,2.5C 220.785,1.67636 224.118,1.17636 227.5,1C 225.292,0.809116 223.292,0.309116 221.5,-0.5 Z"/></g>
<g><path style="opacity:0.008" fill="#fefffe" d="M 239.5,-0.5 C 240.167,-0.5 240.833,-0.5 241.5,-0.5C 240.833,0.833333 240.167,0.833333 239.5,-0.5 Z"/></g>
<g><path style="opacity:0.008" fill="#fefffe" d="M 242.5,-0.5 C 246.833,-0.5 251.167,-0.5 255.5,-0.5C 255.082,0.221579 254.416,0.721579 253.5,1C 291.5,1.66667 329.5,1.66667 367.5,1C 364.635,0.817095 361.969,0.317095 359.5,-0.5C 365.167,-0.5 370.833,-0.5 376.5,-0.5C 374.031,0.317095 371.365,0.817095 368.5,1C 372.486,1.49885 376.486,1.66551 380.5,1.5C 380.5,1.83333 380.5,2.16667 380.5,2.5C 333.214,2.91746 287.381,3.25079 243,3.5C 242.833,3.16667 242.667,2.83333 242.5,2.5C 245.785,1.67636 249.118,1.17636 252.5,1C 248.975,0.821287 245.641,0.321287 242.5,-0.5 Z"/></g>
<g><path style="opacity:0.008" fill="#fefffe" d="M 256.5,-0.5 C 257.167,-0.5 257.833,-0.5 258.5,-0.5C 257.833,0.833333 257.167,0.833333 256.5,-0.5 Z"/></g>
<g><path style="opacity:0.008" fill="#fefffe" d="M 259.5,-0.5 C 267.167,-0.5 274.833,-0.5 282.5,-0.5C 274.833,0.833333 267.167,0.833333 259.5,-0.5 Z"/></g>
<g><path style="opacity:0.008" fill="#fefffe" d="M 283.5,-0.5 C 296.167,-0.5 308.833,-0.5 321.5,-0.5C 308.833,0.833333 296.167,0.833333 283.5,-0.5 Z"/></g>
<g><path style="opacity:0.008" fill="#fefffe" d="M 322.5,-0.5 C 323.167,-0.5 323.833,-0.5 324.5,-0.5C 323.833,0.833333 323.167,0.833333 322.5,-0.5 Z"/></g>
<g><path style="opacity:0.008" fill="#fefffe" d="M 325.5,-0.5 C 326.167,-0.5 326.833,-0.5 327.5,-0.5C 326.833,0.833333 326.167,0.833333 325.5,-0.5 Z"/></g>
<g><path style="opacity:0.008" fill="#fefffe" d="M 328.5,-0.5 C 329.167,-0.5 329.833,-0.5 330.5,-0.5C 329.833,0.833333 329.167,0.833333 328.5,-0.5 Z"/></g>
<g><path style="opacity:0.008" fill="#fefffe" d="M 331.5,-0.5 C 332.167,-0.5 332.833,-0.5 333.5,-0.5C 332.833,0.833333 332.167,0.833333 331.5,-0.5 Z"/></g>
<g><path style="opacity:0.008" fill="#fefffe" d="M 334.5,-0.5 C 335.833,-0.5 337.167,-0.5 338.5,-0.5C 337.167,0.833333 335.833,0.833333 334.5,-0.5 Z"/></g>
<g><path style="opacity:0.008" fill="#fefffe" d="M 339.5,-0.5 C 340.167,-0.5 340.833,-0.5 341.5,-0.5C 340.833,0.833333 340.167,0.833333 339.5,-0.5 Z"/></g>
<g><path style="opacity:0.008" fill="#fefffe" d="M 342.5,-0.5 C 343.167,-0.5 343.833,-0.5 344.5,-0.5C 343.833,0.833333 343.167,0.833333 342.5,-0.5 Z"/></g>
<g><path style="opacity:0.008" fill="#fefffe" d="M 345.5,-0.5 C 345.833,-0.5 346.167,-0.5 346.5,-0.5C 346.315,0.170143 345.981,0.170143 345.5,-0.5 Z"/></g>
<g><path style="opacity:0.008" fill="#fefffe" d="M 347.5,-0.5 C 349.167,-0.5 350.833,-0.5 352.5,-0.5C 350.833,0.833333 349.167,0.833333 347.5,-0.5 Z"/></g>
<g><path style="opacity:0.008" fill="#fefffe" d="M 353.5,-0.5 C 354.167,-0.5 354.833,-0.5 355.5,-0.5C 354.833,0.833333 354.167,0.833333 353.5,-0.5 Z"/></g>
<g><path style="opacity:0.008" fill="#fefffe" d="M 356.5,-0.5 C 357.167,-0.5 357.833,-0.5 358.5,-0.5C 357.833,0.833333 357.167,0.833333 356.5,-0.5 Z"/></g>
<g><path style="opacity:0.008" fill="#fefffe" d="M 377.5,-0.5 C 378.5,-0.5 379.5,-0.5 380.5,-0.5C 380.5,-0.166667 380.5,0.166667 380.5,0.5C 379.209,0.737305 378.209,0.403972 377.5,-0.5 Z"/></g>
<g><path style="opacity:0.008" fill="#000000" d="M 207.5,1.5 C 207.5,1.83333 207.5,2.16667 207.5,2.5C 206.503,3.71251 205.503,3.54585 204.5,2C 205.448,1.51722 206.448,1.35055 207.5,1.5 Z"/></g>
<g><path style="opacity:0.008" fill="#fefffe" d="M 207.5,2.5 C 207.5,2.16667 207.5,1.83333 207.5,1.5C 209.604,1.2011 211.604,1.53443 213.5,2.5C 211.654,3.45915 209.654,3.45915 207.5,2.5 Z"/></g>
<g><path style="opacity:0.008" fill="#fefffe" d="M 214.5,1.5 C 217.001,1.51092 217.168,2.17759 215,3.5C 214.536,2.90558 214.369,2.23891 214.5,1.5 Z"/></g>
<g><path style="opacity:0.008" fill="#fefffe" d="M 239.5,1.5 C 242.001,1.51092 242.168,2.17759 240,3.5C 239.536,2.90558 239.369,2.23891 239.5,1.5 Z"/></g>
<g><path style="opacity:1" fill="#aa4994" d="M 2.5,3.5 C 22.8333,3.5 43.1667,3.5 63.5,3.5C 63.5,14.5 63.5,25.5 63.5,36.5C 43.1667,36.5 22.8333,36.5 2.5,36.5C 2.5,25.5 2.5,14.5 2.5,3.5 Z"/></g>
<g><path style="opacity:1" fill="#29a736" d="M 138.5,3.5 C 158.5,3.5 178.5,3.5 198.5,3.5C 198.5,14.5 198.5,25.5 198.5,36.5C 178.5,36.5 158.5,36.5 138.5,36.5C 138.5,25.5 138.5,14.5 138.5,3.5 Z"/></g>
<g><path style="opacity:0.008" fill="#000000" d="M 204.5,5.5 C 205.251,4.42654 206.251,4.25988 207.5,5C 206.552,5.48278 205.552,5.64945 204.5,5.5 Z"/></g>
<g><path style="opacity:0.008" fill="#fefffe" d="M 208.5,5.5 C 209.946,4.38705 211.613,4.22039 213.5,5C 211.866,5.49351 210.199,5.66018 208.5,5.5 Z"/></g>
<g><path style="opacity:0.008" fill="#fefffe" d="M 214.5,5.5 C 214.897,4.47498 215.563,4.30831 216.5,5C 215.906,5.46434 215.239,5.63101 214.5,5.5 Z"/></g>
<g><path style="opacity:0.008" fill="#fefffe" d="M 217.5,5.5 C 217.897,4.47498 218.563,4.30831 219.5,5C 218.906,5.46434 218.239,5.63101 217.5,5.5 Z"/></g>
<g><path style="opacity:0.008" fill="#fefffe" d="M 220.5,5.5 C 220.897,4.47498 221.563,4.30831 222.5,5C 221.906,5.46434 221.239,5.63101 220.5,5.5 Z"/></g>
<g><path style="opacity:0.008" fill="#fefffe" d="M 223.5,5.5 C 224.251,4.42654 225.251,4.25988 226.5,5C 225.552,5.48278 224.552,5.64945 223.5,5.5 Z"/></g>
<g><path style="opacity:0.008" fill="#fefffe" d="M 227.5,4.5 C 228.833,5.16667 228.833,5.16667 227.5,4.5 Z"/></g>
<g><path style="opacity:0.008" fill="#fefffe" d="M 229.5,5.5 C 230.251,4.42654 231.251,4.25988 232.5,5C 231.552,5.48278 230.552,5.64945 229.5,5.5 Z"/></g>
<g><path style="opacity:0.008" fill="#fefffe" d="M 233.5,5.5 C 234.946,4.38705 236.613,4.22039 238.5,5C 236.866,5.49351 235.199,5.66018 233.5,5.5 Z"/></g>
<g><path style="opacity:0.008" fill="#fefffe" d="M 239.5,5.5 C 239.897,4.47498 240.563,4.30831 241.5,5C 240.906,5.46434 240.239,5.63101 239.5,5.5 Z"/></g>
<g><path style="opacity:0.008" fill="#fefffe" d="M 242.5,5.5 C 242.897,4.47498 243.563,4.30831 244.5,5C 243.906,5.46434 243.239,5.63101 242.5,5.5 Z"/></g>
<g><path style="opacity:0.008" fill="#fefffe" d="M 245.5,5.5 C 245.897,4.47498 246.563,4.30831 247.5,5C 246.906,5.46434 246.239,5.63101 245.5,5.5 Z"/></g>
<g><path style="opacity:0.008" fill="#fefffe" d="M 248.5,5.5 C 248.897,4.47498 249.563,4.30831 250.5,5C 249.906,5.46434 249.239,5.63101 248.5,5.5 Z"/></g>
<g><path style="opacity:0.008" fill="#fefffe" d="M 252.5,4.5 C 253.833,5.16667 253.833,5.16667 252.5,4.5 Z"/></g>
<g><path style="opacity:0.415" fill="#fefefe" d="M 380.5,4.5 C 380.5,6.5 380.5,8.5 380.5,10.5C 378.34,9.99027 376.34,9.99027 374.5,10.5C 376.289,12.0332 378.289,13.0332 380.5,13.5C 380.5,14.8333 380.5,16.1667 380.5,17.5C 379.167,17.8333 379.167,18.1667 380.5,18.5C 380.5,18.8333 380.5,19.1667 380.5,19.5C 379.167,19.8333 379.167,20.1667 380.5,20.5C 380.5,20.8333 380.5,21.1667 380.5,21.5C 379.167,22.1667 379.167,22.8333 380.5,23.5C 380.5,23.8333 380.5,24.1667 380.5,24.5C 377.833,24.8333 377.833,25.1667 380.5,25.5C 380.5,25.8333 380.5,26.1667 380.5,26.5C 376.5,26.8333 376.5,27.1667 380.5,27.5C 380.5,28.1667 380.5,28.8333 380.5,29.5C 355.543,29.55 330.71,29.2167 306,28.5C 304.933,29.1905 303.766,29.6905 302.5,30C 309.833,30.3333 317.167,30.6667 324.5,31C 314.5,31.3333 304.5,31.6667 294.5,32C 301.856,32.1687 309.189,32.6687 316.5,33.5C 316.167,33.8333 315.833,34.1667 315.5,34.5C 308.124,33.9187 300.957,33.9187 294,34.5C 292.513,33.7471 292.346,32.9138 293.5,32C 291.866,31.5065 290.199,31.3398 288.5,31.5C 288.649,32.552 288.483,33.552 288,34.5C 283.667,34.1667 279.333,33.8333 275,33.5C 274.751,34.624 274.251,35.624 273.5,36.5C 273.704,35.4706 273.204,34.4706 272,33.5C 270.855,33.6191 269.688,33.9524 268.5,34.5C 267.238,34.0934 265.905,33.76 264.5,33.5C 272.145,32.6685 279.812,32.1685 287.5,32C 276.992,31.8303 266.659,31.3303 256.5,30.5C 255.527,30.9867 254.527,31.4867 253.5,32C 256.882,32.1764 260.215,32.6764 263.5,33.5C 263.167,33.8333 262.833,34.1667 262.5,34.5C 256.901,33.7279 250.901,33.5612 244.5,34C 242.122,33.0255 242.456,32.3589 245.5,32C 244.5,31.6667 243.5,31.3333 242.5,31C 245.482,30.502 248.482,30.3354 251.5,30.5C 247.435,29.8067 243.268,29.1401 239,28.5C 232.105,29.6741 224.938,29.6741 217.5,28.5C 218.641,27.5745 218.641,26.7412 217.5,26C 220.553,25.8214 223.553,25.3214 226.5,24.5C 227.297,20.8598 226.297,20.5264 223.5,23.5C 221.284,23.7357 219.118,23.7357 217,23.5C 216.5,24 216,24.5 215.5,25C 216.38,26.3561 216.714,27.8561 216.5,29.5C 213.346,28.9054 210.346,28.9054 207.5,29.5C 207.5,28.8333 207.5,28.1667 207.5,27.5C 208.873,27.6567 210.207,27.49 211.5,27C 209.167,26.6667 206.833,26.3333 204.5,26C 206.727,25.879 208.56,25.0456 210,23.5C 210.333,24.1667 210.667,24.8333 211,25.5C 211.667,24.1667 211.667,22.8333 211,21.5C 209.855,22.6843 208.688,22.6843 207.5,21.5C 207.5,21.1667 207.5,20.8333 207.5,20.5C 210.167,20.1667 210.167,19.8333 207.5,19.5C 207.5,19.1667 207.5,18.8333 207.5,18.5C 208.873,18.6567 210.207,18.49 211.5,18C 209.942,17.79 208.609,17.29 207.5,16.5C 207.5,16.1667 207.5,15.8333 207.5,15.5C 210.167,15.1667 210.167,14.8333 207.5,14.5C 207.5,14.1667 207.5,13.8333 207.5,13.5C 208.873,13.6567 210.207,13.49 211.5,13C 209.167,12.6667 206.833,12.3333 204.5,12C 207.371,11.8823 210.038,11.2156 212.5,10C 210.82,10.7712 209.153,10.6045 207.5,9.5C 207.5,9.16667 207.5,8.83333 207.5,8.5C 208.239,8.63101 208.906,8.46434 209.5,8C 207.833,7.66667 206.167,7.33333 204.5,7C 207.5,6.33333 210.5,6.33333 213.5,7C 212.5,7.33333 211.5,7.66667 210.5,8C 212.076,8.43963 213.41,9.27296 214.5,10.5C 214.833,9.83333 215.167,9.16667 215.5,8.5C 216.167,9.16667 216.833,9.83333 217.5,10.5C 218.696,10.1543 218.696,9.65431 217.5,9C 224.167,8.33333 224.167,7.66667 217.5,7C 224.5,6.33333 231.5,6.33333 238.5,7C 237.833,7.33333 237.167,7.66667 236.5,8C 237.897,9.3103 238.897,10.8103 239.5,12.5C 241.202,14.8002 241.868,17.4669 241.5,20.5C 248.531,20.4812 248.864,19.9812 242.5,19C 247.794,18.1822 247.794,17.6822 242.5,17.5C 242.5,16.1667 242.5,14.8333 242.5,13.5C 247.794,13.3178 247.794,12.8178 242.5,12C 244.577,11.8078 246.577,11.3078 248.5,10.5C 247.078,10.4116 245.578,10.4116 244,10.5C 243.5,10 243,9.5 242.5,9C 249.167,8.33333 249.167,7.66667 242.5,7C 246.982,7.06306 251.148,6.22973 255,4.5C 256.77,6.41813 258.937,6.91813 261.5,6C 260.833,5.66667 260.167,5.33333 259.5,5C 263.167,4.33333 266.833,4.33333 270.5,5C 267.833,5.33333 265.167,5.66667 262.5,6C 268.167,6.66667 273.833,6.66667 279.5,6C 278.304,5.34569 278.304,4.84569 279.5,4.5C 282.833,5.83333 286.167,7.16667 289.5,8.5C 290.696,8.15431 290.696,7.65431 289.5,7C 291.902,6.3221 294.068,6.8221 296,8.5C 297.762,8.05563 297.595,7.55563 295.5,7C 302.667,6.83333 309.833,6.66667 317,6.5C 324.569,6.51862 331.903,7.18529 339,8.5C 346.23,6.71815 353.73,5.88482 361.5,6C 360.833,5.66667 360.167,5.33333 359.5,5C 363.5,4.33333 367.5,4.33333 371.5,5C 360.027,5.77784 359.861,6.27784 371,6.5C 373.833,6.33333 376.667,6.16667 379.5,6C 378.288,4.89318 378.621,4.39318 380.5,4.5 Z M 232.5,10.5 C 230.981,11.3783 230.147,12.3783 230,13.5C 228.278,13.3893 228.112,12.8893 229.5,12C 227.833,11.6667 226.167,11.3333 224.5,11C 225.025,10.3076 225.692,9.80762 226.5,9.5C 228.443,9.46473 230.443,9.79807 232.5,10.5 Z M 266.5,10.5 C 263.976,11.8003 261.309,11.8003 258.5,10.5C 260.831,10.1644 263.498,10.1644 266.5,10.5 Z M 277.5,9.5 C 278.688,10.6843 279.855,10.6843 281,9.5C 282.119,10.5521 282.619,11.7188 282.5,13C 281.085,12.366 279.085,11.6993 276.5,11C 277.056,10.6174 277.389,10.1174 277.5,9.5 Z M 294.5,10.5 C 293.048,11.3019 291.382,11.8019 289.5,12C 290.167,12.3333 290.833,12.6667 291.5,13C 290.333,13.5 289.5,14.3333 289,15.5C 288.626,14.5838 288.126,13.7504 287.5,13C 287.381,11.7188 287.881,10.5521 289,9.5C 290.829,9.56488 292.662,9.89822 294.5,10.5 Z M 305.5,9.5 C 307.527,10.1247 309.36,10.1247 311,9.5C 312.779,11.0174 312.279,11.8508 309.5,12C 310.5,12.3333 311.5,12.6667 312.5,13C 310.833,13.6667 309.167,13.6667 307.5,13C 307.833,12.6667 308.167,12.3333 308.5,12C 306.881,11.7645 305.881,10.9311 305.5,9.5 Z M 319.5,9.5 C 321.242,9.65182 323.076,9.65182 325,9.5C 325.49,10.7932 325.657,12.1266 325.5,13.5C 318.469,13.4812 318.136,12.9812 324.5,12C 322.5,11.6667 320.5,11.3333 318.5,11C 319.056,10.6174 319.389,10.1174 319.5,9.5 Z M 330.5,9.5 C 333.384,10.5977 336.217,10.5977 339,9.5C 340.119,10.5521 340.619,11.7188 340.5,13C 339.874,13.7504 339.374,14.5838 339,15.5C 336.52,13.8339 333.687,13.0006 330.5,13C 331.5,12.6667 332.5,12.3333 333.5,12C 331.881,11.7645 330.881,10.9311 330.5,9.5 Z M 344.5,9.5 C 347.259,10.7376 350.093,10.7376 353,9.5C 353.667,11.5 353.667,13.5 353,15.5C 350.544,13.6787 347.711,13.012 344.5,13.5C 344.5,12.1667 344.5,10.8333 344.5,9.5 Z M 358.5,9.5 C 359.397,10.5981 360.23,10.5981 361,9.5C 361.456,10.7441 360.956,11.5774 359.5,12C 360.167,12.3333 360.833,12.6667 361.5,13C 360.167,13.6667 358.833,13.6667 357.5,13C 357.619,11.8552 357.952,10.6885 358.5,9.5 Z M 261.5,13.5 C 262.386,12.2241 263.386,12.2241 264.5,13.5C 263.767,14.087 262.767,14.087 261.5,13.5 Z M 216.5,14.5 C 217.404,15.209 217.737,16.209 217.5,17.5C 219.199,17.3398 220.866,17.5065 222.5,18C 220.567,18.2511 218.734,18.7511 217,19.5C 216.5,19 216,18.5 215.5,18C 216.337,16.9887 216.67,15.8221 216.5,14.5 Z M 255.5,17.5 C 255.56,16.9569 255.893,16.6236 256.5,16.5C 259.109,17.2305 261.776,17.7305 264.5,18C 261.408,18.7358 258.408,18.5691 255.5,17.5 Z M 295.5,16.5 C 298.041,17.6489 300.541,17.6489 303,16.5C 303.75,17.1258 304.584,17.6258 305.5,18C 301.833,18.6667 298.167,18.6667 294.5,18C 295.056,17.6174 295.389,17.1174 295.5,16.5 Z M 324.5,16.5 C 325.043,16.56 325.376,16.8933 325.5,17.5C 324.635,18.5827 323.635,18.7494 322.5,18C 323.416,17.7216 324.082,17.2216 324.5,16.5 Z M 330.5,16.5 C 333.838,16.8361 337.171,17.1694 340.5,17.5C 338.833,17.8333 337.167,18.1667 335.5,18.5C 333.36,18.4439 331.694,17.7773 330.5,16.5 Z M 358.5,16.5 C 362.373,18.1539 362.04,18.6539 357.5,18C 358.056,17.6174 358.389,17.1174 358.5,16.5 Z M 368.5,16.5 C 370.602,16.5702 372.602,17.0702 374.5,18C 371.5,18.6667 368.5,18.6667 365.5,18C 366.737,17.7679 367.737,17.2679 368.5,16.5 Z M 366.5,20.5 C 368.288,19.3775 370.288,19.2109 372.5,20C 371.044,20.4226 370.544,21.2559 371,22.5C 372.183,21.269 373.349,21.269 374.5,22.5C 372.026,25.1352 369.026,25.9685 365.5,25C 365.833,24 366.167,23 366.5,22C 367.738,22.0773 368.738,21.9106 369.5,21.5C 368.675,20.6143 367.675,20.281 366.5,20.5 Z M 243.5,21.5 C 244.586,21.62 245.253,22.2867 245.5,23.5C 245.167,24.1667 244.833,24.8333 244.5,25.5C 244.624,24.3895 244.291,23.0562 243.5,21.5 Z M 249.5,22.5 C 252.645,21.4575 255.312,22.2909 257.5,25C 255.167,25.6667 252.833,25.6667 250.5,25C 252.167,24.6667 253.833,24.3333 255.5,24C 253.292,23.8091 251.292,23.3091 249.5,22.5 Z M 266.5,22.5 C 269.035,21.5855 272.035,21.5855 275.5,22.5C 275.5,23.5 275.5,24.5 275.5,25.5C 272.065,25.6883 269.065,24.6883 266.5,22.5 Z M 280.5,21.5 C 281.376,21.3691 282.043,21.7025 282.5,22.5C 281.897,23.6348 281.564,24.6348 281.5,25.5C 280.571,24.3112 280.238,22.9778 280.5,21.5 Z M 288.5,21.5 C 289.249,22.531 289.915,23.6976 290.5,25C 289.5,25.6667 288.5,25.6667 287.5,25C 287.619,23.8552 287.952,22.6885 288.5,21.5 Z M 304.5,22.5 C 302.553,25.4345 299.886,26.1012 296.5,24.5C 296.137,23.8165 295.804,23.1499 295.5,22.5C 298.764,21.5348 301.764,21.5348 304.5,22.5 Z M 310.5,21.5 C 311.376,21.3691 312.043,21.7025 312.5,22.5C 311.897,23.6348 311.564,24.6348 311.5,25.5C 309.824,24.2724 309.491,22.9391 310.5,21.5 Z M 317.5,21.5 C 320.157,22.2598 321.157,23.7598 320.5,26C 321.5,26.3333 322.5,26.6667 323.5,27C 321.833,27.6667 320.167,27.6667 318.5,27C 319.634,25.984 319.301,25.3173 317.5,25C 318.167,24.6667 318.833,24.3333 319.5,24C 318.244,23.5831 317.577,22.7498 317.5,21.5 Z M 330.5,21.5 C 333.384,22.5977 336.217,22.5977 339,21.5C 339.5,22 340,22.5 340.5,23C 339.167,23.6667 339.167,24.3333 340.5,25C 338.251,25.8632 336.418,25.3632 335,23.5C 333.951,25.1066 332.451,25.7733 330.5,25.5C 330.5,24.1667 330.5,22.8333 330.5,21.5 Z M 344.5,21.5 C 347.337,21.5654 350.17,21.5654 353,21.5C 353.49,22.7932 353.657,24.1266 353.5,25.5C 350.813,25.3359 348.146,25.5026 345.5,26C 349.226,27.0432 348.893,27.5432 344.5,27.5C 344.5,25.5 344.5,23.5 344.5,21.5 Z M 357.5,21.5 C 358.833,21.5 360.167,21.5 361.5,21.5C 361.5,22.8333 361.5,24.1667 361.5,25.5C 360.127,25.6567 358.793,25.49 357.5,25C 358.171,24.0138 358.171,22.8471 357.5,21.5 Z M 256.5,30.5 C 257.878,29.7656 259.378,29.0989 261,28.5C 263.588,28.8109 266.421,29.3109 269.5,30C 265.179,30.499 260.846,30.6657 256.5,30.5 Z M 277.5,28.5 C 282.335,29.7862 287.168,29.7862 292,28.5C 293.734,29.2489 295.567,29.7489 297.5,30C 289.833,30.6667 282.167,30.6667 274.5,30C 275.737,29.7679 276.737,29.2679 277.5,28.5 Z M 251.5,30.5 C 252.043,30.56 252.376,30.8933 252.5,31.5C 250.579,32.641 248.579,32.8077 246.5,32C 248.382,31.8019 250.048,31.3019 251.5,30.5 Z"/></g>
<g><path style="opacity:0.008" fill="#fefffe" d="M 256.5,5.5 C 256.897,4.47498 257.563,4.30831 258.5,5C 257.906,5.46434 257.239,5.63101 256.5,5.5 Z"/></g>
<g><path style="opacity:0.008" fill="#fefffe" d="M 272.5,5.5 C 272.897,4.47498 273.563,4.30831 274.5,5C 273.906,5.46434 273.239,5.63101 272.5,5.5 Z"/></g>
<g><path style="opacity:0.008" fill="#fefffe" d="M 275.5,5.5 C 275.897,4.47498 276.563,4.30831 277.5,5C 276.906,5.46434 276.239,5.63101 275.5,5.5 Z"/></g>
<g><path style="opacity:0.008" fill="#fefffe" d="M 281.5,5.5 C 281.897,4.47498 282.563,4.30831 283.5,5C 282.906,5.46434 282.239,5.63101 281.5,5.5 Z"/></g>
<g><path style="opacity:0.008" fill="#fefffe" d="M 284.5,4.5 C 285.833,5.16667 285.833,5.16667 284.5,4.5 Z"/></g>
<g><path style="opacity:0.008" fill="#fefffe" d="M 286.5,5.5 C 286.897,4.47498 287.563,4.30831 288.5,5C 287.906,5.46434 287.239,5.63101 286.5,5.5 Z"/></g>
<g><path style="opacity:0.008" fill="#fefffe" d="M 289.5,5.5 C 289.897,4.47498 290.563,4.30831 291.5,5C 290.906,5.46434 290.239,5.63101 289.5,5.5 Z"/></g>
<g><path style="opacity:0.008" fill="#fefffe" d="M 292.5,5.5 C 292.897,4.47498 293.563,4.30831 294.5,5C 293.906,5.46434 293.239,5.63101 292.5,5.5 Z"/></g>
<g><path style="opacity:0.008" fill="#fefffe" d="M 295.5,4.5 C 296.833,5.16667 296.833,5.16667 295.5,4.5 Z"/></g>
<g><path style="opacity:0.008" fill="#fefffe" d="M 297.5,5.5 C 297.897,4.47498 298.563,4.30831 299.5,5C 298.906,5.46434 298.239,5.63101 297.5,5.5 Z"/></g>
<g><path style="opacity:0.008" fill="#fefffe" d="M 300.5,5.5 C 300.897,4.47498 301.563,4.30831 302.5,5C 301.906,5.46434 301.239,5.63101 300.5,5.5 Z"/></g>
<g><path style="opacity:0.008" fill="#fefffe" d="M 303.5,5.5 C 303.897,4.47498 304.563,4.30831 305.5,5C 304.906,5.46434 304.239,5.63101 303.5,5.5 Z"/></g>
<g><path style="opacity:0.008" fill="#fefffe" d="M 306.5,5.5 C 306.897,4.47498 307.563,4.30831 308.5,5C 307.906,5.46434 307.239,5.63101 306.5,5.5 Z"/></g>
<g><path style="opacity:0.008" fill="#fefffe" d="M 309.5,5.5 C 310.946,4.38705 312.613,4.22039 314.5,5C 312.866,5.49351 311.199,5.66018 309.5,5.5 Z"/></g>
<g><path style="opacity:0.008" fill="#fefffe" d="M 315.5,5.5 C 317.288,4.37753 319.288,4.21086 321.5,5C 319.527,5.49546 317.527,5.66212 315.5,5.5 Z"/></g>
<g><path style="opacity:0.008" fill="#fefffe" d="M 322.5,5.5 C 322.897,4.47498 323.563,4.30831 324.5,5C 323.906,5.46434 323.239,5.63101 322.5,5.5 Z"/></g>
<g><path style="opacity:0.008" fill="#fefffe" d="M 325.5,4.5 C 326.833,5.16667 326.833,5.16667 325.5,4.5 Z"/></g>
<g><path style="opacity:0.008" fill="#fefffe" d="M 328.5,5.5 C 328.897,4.47498 329.563,4.30831 330.5,5C 329.906,5.46434 329.239,5.63101 328.5,5.5 Z"/></g>
<g><path style="opacity:0.008" fill="#fefffe" d="M 331.5,5.5 C 331.897,4.47498 332.563,4.30831 333.5,5C 332.906,5.46434 332.239,5.63101 331.5,5.5 Z"/></g>
<g><path style="opacity:0.008" fill="#fefffe" d="M 334.5,4.5 C 335.833,5.16667 335.833,5.16667 334.5,4.5 Z"/></g>
<g><path style="opacity:0.008" fill="#fefffe" d="M 336.5,5.5 C 336.897,4.47498 337.563,4.30831 338.5,5C 337.906,5.46434 337.239,5.63101 336.5,5.5 Z"/></g>
<g><path style="opacity:0.008" fill="#fefffe" d="M 339.5,5.5 C 339.897,4.47498 340.563,4.30831 341.5,5C 340.906,5.46434 340.239,5.63101 339.5,5.5 Z"/></g>
<g><path style="opacity:0.008" fill="#fefffe" d="M 342.5,5.5 C 342.897,4.47498 343.563,4.30831 344.5,5C 343.906,5.46434 343.239,5.63101 342.5,5.5 Z"/></g>
<g><path style="opacity:0.008" fill="#fefffe" d="M 345.5,4.5 C 346.833,5.16667 346.833,5.16667 345.5,4.5 Z"/></g>
<g><path style="opacity:0.008" fill="#fefffe" d="M 347.5,5.5 C 347.897,4.47498 348.563,4.30831 349.5,5C 348.906,5.46434 348.239,5.63101 347.5,5.5 Z"/></g>
<g><path style="opacity:0.008" fill="#fefffe" d="M 350.5,5.5 C 350.897,4.47498 351.563,4.30831 352.5,5C 351.906,5.46434 351.239,5.63101 350.5,5.5 Z"/></g>
<g><path style="opacity:0.008" fill="#fefffe" d="M 353.5,5.5 C 353.897,4.47498 354.563,4.30831 355.5,5C 354.906,5.46434 354.239,5.63101 353.5,5.5 Z"/></g>
<g><path style="opacity:0.008" fill="#fefffe" d="M 357.5,4.5 C 358.833,5.16667 358.833,5.16667 357.5,4.5 Z"/></g>
<g><path style="opacity:0.008" fill="#fefffe" d="M 372.5,5.5 C 372.897,4.47498 373.563,4.30831 374.5,5C 373.906,5.46434 373.239,5.63101 372.5,5.5 Z"/></g>
<g><path style="opacity:0.008" fill="#fefffe" d="M 375.5,4.5 C 376.833,5.16667 376.833,5.16667 375.5,4.5 Z"/></g>
<g><path style="opacity:0.008" fill="#fefffe" d="M 214.5,7.5 C 214.897,6.47498 215.563,6.30831 216.5,7C 215.906,7.46434 215.239,7.63101 214.5,7.5 Z"/></g>
<g><path style="opacity:0.008" fill="#fefffe" d="M 239.5,7.5 C 239.897,6.47498 240.563,6.30831 241.5,7C 240.906,7.46434 240.239,7.63101 239.5,7.5 Z"/></g>
<g><path style="opacity:0.008" fill="#000000" d="M 207.5,8.5 C 207.5,8.83333 207.5,9.16667 207.5,9.5C 207.565,9.93822 207.399,10.2716 207,10.5C 203.59,9.12587 203.757,8.4592 207.5,8.5 Z"/></g>
<g><path style="opacity:0.008" fill="#fefffe" d="M 239.5,9.5 C 240.077,8.22671 240.743,8.22671 241.5,9.5C 241.03,10.463 240.363,10.463 239.5,9.5 Z"/></g>
<g><path style="opacity:1" fill="#f9f4f8" d="M 32.5,23.5 C 29.7131,22.5233 26.7131,22.19 23.5,22.5C 23.5,24.8333 23.5,27.1667 23.5,29.5C 22.1667,29.5 20.8333,29.5 19.5,29.5C 19.5,23.1667 19.5,16.8333 19.5,10.5C 26.9209,10.1095 34.2542,10.6095 41.5,12C 44.7523,16.8154 43.7523,20.482 38.5,23C 41.1277,24.6255 43.461,26.6255 45.5,29C 43.5,29.6667 41.5,29.6667 39.5,29C 37.5779,26.5705 35.2446,24.7372 32.5,23.5 Z"/></g>
<g><path style="opacity:0.008" fill="#fefffe" d="M 239.5,12.5 C 239.897,11.475 240.563,11.3083 241.5,12C 240.906,12.4643 240.239,12.631 239.5,12.5 Z"/></g>
<g><path style="opacity:0.008" fill="#fefffe" d="M 380.5,11.5 C 380.5,11.8333 380.5,12.1667 380.5,12.5C 377.833,12.1667 377.833,11.8333 380.5,11.5 Z"/></g>
<g><path style="opacity:0.008" fill="#000000" d="M 207.5,13.5 C 207.5,13.8333 207.5,14.1667 207.5,14.5C 207.5,14.8333 207.5,15.1667 207.5,15.5C 207.5,15.8333 207.5,16.1667 207.5,16.5C 206.425,17.5624 205.425,17.5624 204.5,16.5C 205.641,15.5745 205.641,14.7412 204.5,14C 205.448,13.5172 206.448,13.3505 207.5,13.5 Z"/></g>
<g><path style="opacity:1" fill="#af5299" d="M 23.5,14.5 C 28.5111,14.3341 33.5111,14.5007 38.5,15C 39.8333,16.3333 39.8333,17.6667 38.5,19C 33.5111,19.4993 28.5111,19.6659 23.5,19.5C 23.5,17.8333 23.5,16.1667 23.5,14.5 Z"/></g>
<g><path style="opacity:0.008" fill="#000000" d="M 207.5,18.5 C 207.5,18.8333 207.5,19.1667 207.5,19.5C 207.5,19.8333 207.5,20.1667 207.5,20.5C 207.5,20.8333 207.5,21.1667 207.5,21.5C 206.521,21.542 205.521,21.542 204.5,21.5C 206.991,20.4593 206.991,19.6259 204.5,19C 205.448,18.5172 206.448,18.3505 207.5,18.5 Z"/></g>
<g><path style="opacity:1" fill="#582583" d="M 70.5,3.5 C 90.8333,3.5 111.167,3.5 131.5,3.5C 131.5,14.5 131.5,25.5 131.5,36.5C 111.167,36.5 90.8333,36.5 70.5,36.5C 70.5,25.5 70.5,14.5 70.5,3.5 Z"/></g>
<g><path style="opacity:1" fill="#fbfafc" d="M 113.5,11.5 C 113.5,12.5 113.5,13.5 113.5,14.5C 109.833,14.5 106.167,14.5 102.5,14.5C 102.5,19.5 102.5,24.5 102.5,29.5C 101.167,29.5 99.8333,29.5 98.5,29.5C 98.5,24.5 98.5,19.5 98.5,14.5C 95.1667,14.5 91.8333,14.5 88.5,14.5C 88.5,13.5 88.5,12.5 88.5,11.5C 96.8333,11.5 105.167,11.5 113.5,11.5 Z"/></g>
<g><path style="opacity:1" fill="#c6b9d7" d="M 113.5,11.5 C 105.167,11.5 96.8333,11.5 88.5,11.5C 88.5,12.5 88.5,13.5 88.5,14.5C 87.5655,13.4324 87.2322,12.099 87.5,10.5C 96.3494,10.1736 105.016,10.507 113.5,11.5 Z"/></g>
<g><path style="opacity:1" fill="#c789ba" d="M 32.5,23.5 C 29.8333,23.5 27.1667,23.5 24.5,23.5C 24.7947,25.7354 24.4614,27.7354 23.5,29.5C 23.5,27.1667 23.5,24.8333 23.5,22.5C 26.7131,22.19 29.7131,22.5233 32.5,23.5 Z"/></g>
<g><path style="opacity:0.008" fill="#303030" d="M 204.5,24.5 C 205.601,23.4017 206.934,23.235 208.5,24C 207.207,24.49 205.873,24.6567 204.5,24.5 Z"/></g>
<g><path style="opacity:0.008" fill="#fefffe" d="M 223.5,23.5 C 224.239,23.369 224.906,23.5357 225.5,24C 224.563,24.6917 223.897,24.525 223.5,23.5 Z"/></g>
<g><path style="opacity:0.008" fill="#000000" d="M 207.5,27.5 C 207.5,28.1667 207.5,28.8333 207.5,29.5C 203.711,28.4039 203.711,27.7373 207.5,27.5 Z"/></g>
<g><path style="opacity:1" fill="#c9e8ce" d="M 161.5,25.5 C 167.833,25.5 174.167,25.5 180.5,25.5C 180.5,26.8333 180.5,28.1667 180.5,29.5C 172.5,29.5 164.5,29.5 156.5,29.5C 156.5,23.1667 156.5,16.8333 156.5,10.5C 158.167,10.5 159.833,10.5 161.5,10.5C 161.5,15.5 161.5,20.5 161.5,25.5 Z"/></g>
<g><path style="opacity:1" fill="#fefefe" d="M 161.5,25.5 C 167.346,26.1666 173.346,26.8332 179.5,27.5C 172.197,28.4973 164.863,28.8306 157.5,28.5C 157.5,22.8333 157.5,17.1667 157.5,11.5C 158.5,11.5 159.5,11.5 160.5,11.5C 160.181,16.3633 160.514,21.03 161.5,25.5 Z"/></g>
<g><path style="opacity:0.008" fill="#000000" d="M 207.5,30.5 C 207.5,30.8333 207.5,31.1667 207.5,31.5C 206.167,31.8333 206.167,32.1667 207.5,32.5C 207.5,33.1667 207.5,33.8333 207.5,34.5C 206.244,34.5386 205.244,34.0386 204.5,33C 205.833,32.3333 205.833,31.6667 204.5,31C 205.448,30.5172 206.448,30.3505 207.5,30.5 Z"/></g>
<g><path style="opacity:0.008" fill="#fefffe" d="M 207.5,31.5 C 207.5,31.1667 207.5,30.8333 207.5,30.5C 209.527,30.3379 211.527,30.5045 213.5,31C 212.167,31.6667 212.167,32.3333 213.5,33C 208.379,34.4232 208.379,35.4232 213.5,36C 211.126,36.7432 209.126,36.2432 207.5,34.5C 207.5,33.8333 207.5,33.1667 207.5,32.5C 211.5,32.1667 211.5,31.8333 207.5,31.5 Z"/></g>
<g><path style="opacity:0.008" fill="#fefffe" d="M 224.5,34.5 C 223.833,33.1667 223.167,33.1667 222.5,34.5C 219.833,34.1667 217.167,33.8333 214.5,33.5C 214.281,32.325 214.614,31.325 215.5,30.5C 216.696,30.8457 216.696,31.3457 215.5,32C 219.5,32.6667 223.5,32.6667 227.5,32C 224.167,31.6667 220.833,31.3333 217.5,31C 224.5,30.3333 231.5,30.3333 238.5,31C 225.167,31.6667 225.167,32.3333 238.5,33C 237.128,33.4017 235.795,33.9017 234.5,34.5C 231.287,33.5958 227.954,33.5958 224.5,34.5 Z"/></g>
<g><path style="opacity:0.008" fill="#fefffe" d="M 239.5,31.5 C 239.897,30.475 240.563,30.3083 241.5,31C 240.906,31.4643 240.239,31.631 239.5,31.5 Z"/></g>
<g><path style="opacity:0.008" fill="#fefffe" d="M 325.5,31.5 C 325.897,30.475 326.563,30.3083 327.5,31C 326.906,31.4643 326.239,31.631 325.5,31.5 Z"/></g>
<g><path style="opacity:0.008" fill="#fefffe" d="M 328.5,31.5 C 328.897,30.475 329.563,30.3083 330.5,31C 329.906,31.4643 329.239,31.631 328.5,31.5 Z"/></g>
<g><path style="opacity:0.008" fill="#fefffe" d="M 380.5,30.5 C 380.5,30.8333 380.5,31.1667 380.5,31.5C 376.5,31.8333 376.5,32.1667 380.5,32.5C 380.5,32.8333 380.5,33.1667 380.5,33.5C 376.607,33.5943 372.774,33.9276 369,34.5C 368.5,34 368,33.5 367.5,33C 370.5,32.6667 373.5,32.3333 376.5,32C 362.833,31.3333 349.167,31.3333 335.5,32C 336.624,32.2492 337.624,32.7492 338.5,33.5C 338.333,33.8333 338.167,34.1667 338,34.5C 331.101,33.9766 324.268,33.6432 317.5,33.5C 323.138,32.6701 328.804,32.1701 334.5,32C 333.5,31.6667 332.5,31.3333 331.5,31C 347.83,30.5001 364.163,30.3334 380.5,30.5 Z"/></g>
<g><path style="opacity:0.008" fill="#fefffe" d="M 239.5,32.5 C 241.337,32.6395 241.67,33.3061 240.5,34.5C 239.702,34.0431 239.369,33.3764 239.5,32.5 Z"/></g>
<g><path style="opacity:0.008" fill="#fefffe" d="M 289.5,32.5 C 291.337,32.6395 291.67,33.3061 290.5,34.5C 289.702,34.0431 289.369,33.3764 289.5,32.5 Z"/></g>
<g><path style="opacity:0.008" fill="#fefffe" d="M 339.5,32.5 C 341.337,32.6395 341.67,33.3061 340.5,34.5C 339.702,34.0431 339.369,33.3764 339.5,32.5 Z"/></g>
<g><path style="opacity:0.008" fill="#fefffe" d="M 343.5,34.5 C 343.389,33.8826 343.056,33.3826 342.5,33C 345.882,32.1764 349.216,32.343 352.5,33.5C 349.356,34.1594 346.356,34.4927 343.5,34.5 Z"/></g>
<g><path style="opacity:0.008" fill="#fefffe" d="M 353.5,32.5 C 356.898,32.1796 360.232,32.513 363.5,33.5C 360.546,33.3328 357.38,33.6662 354,34.5C 353.536,33.9056 353.369,33.2389 353.5,32.5 Z"/></g>
<g><path style="opacity:0.008" fill="#fefffe" d="M 364.5,32.5 C 366.337,32.6395 366.67,33.3061 365.5,34.5C 364.702,34.0431 364.369,33.3764 364.5,32.5 Z"/></g>
<g><path style="opacity:0.008" fill="#fefffe" d="M 222.5,35.5 C 222.5,35.1667 222.5,34.8333 222.5,34.5C 223.167,34.5 223.833,34.5 224.5,34.5C 224.918,35.2216 225.584,35.7216 226.5,36C 225.072,36.5791 223.738,36.4124 222.5,35.5 Z"/></g>
<g><path style="opacity:0.008" fill="#fefffe" d="M 268.5,34.5 C 269.263,35.2679 270.263,35.7679 271.5,36C 268.5,36.6667 265.5,36.6667 262.5,36C 264.586,35.6847 266.586,35.1847 268.5,34.5 Z"/></g>
<g><path style="opacity:0.008" fill="#fefffe" d="M 343.5,34.5 C 344.952,35.3019 346.618,35.8019 348.5,36C 345.5,36.6667 342.5,36.6667 339.5,36C 340.901,35.5899 342.234,35.0899 343.5,34.5 Z"/></g>
<g><path style="opacity:0.008" fill="#000000" d="M 204.5,36.5 C 205.251,35.4265 206.251,35.2599 207.5,36C 206.552,36.4828 205.552,36.6495 204.5,36.5 Z"/></g>
<g><path style="opacity:0.008" fill="#fefffe" d="M 214.5,36.5 C 214.897,35.475 215.563,35.3083 216.5,36C 215.906,36.4643 215.239,36.631 214.5,36.5 Z"/></g>
<g><path style="opacity:0.008" fill="#fefffe" d="M 217.5,36.5 C 217.897,35.475 218.563,35.3083 219.5,36C 218.906,36.4643 218.239,36.631 217.5,36.5 Z"/></g>
<g><path style="opacity:0.008" fill="#fefffe" d="M 222.5,35.5 C 222.103,36.525 221.437,36.6917 220.5,36C 221.094,35.5357 221.761,35.369 222.5,35.5 Z"/></g>
<g><path style="opacity:0.008" fill="#fefffe" d="M 235.5,39.5 C 235.167,39.5 234.833,39.5 234.5,39.5C 232.5,38.1667 230.5,38.1667 228.5,39.5C 228.167,39.5 227.833,39.5 227.5,39.5C 227.167,38.1667 226.833,38.1667 226.5,39.5C 226.167,39.5 225.833,39.5 225.5,39.5C 223.031,38.6829 220.365,38.1829 217.5,38C 221.332,38.0382 224.832,37.2049 228,35.5C 231.168,37.2049 234.668,38.0382 238.5,38C 237.263,38.2321 236.263,38.7321 235.5,39.5 Z"/></g>
<g><path style="opacity:0.008" fill="#fefffe" d="M 229.5,36.5 C 232.304,35.3622 235.304,35.1955 238.5,36C 235.518,36.498 232.518,36.6646 229.5,36.5 Z"/></g>
<g><path style="opacity:0.008" fill="#fefffe" d="M 239.5,36.5 C 239.897,35.475 240.563,35.3083 241.5,36C 240.906,36.4643 240.239,36.631 239.5,36.5 Z"/></g>
<g><path style="opacity:0.008" fill="#fefffe" d="M 242.5,36.5 C 243.946,35.3871 245.613,35.2204 247.5,36C 245.866,36.4935 244.199,36.6602 242.5,36.5 Z"/></g>
<g><path style="opacity:0.008" fill="#fefffe" d="M 248.5,36.5 C 248.897,35.475 249.563,35.3083 250.5,36C 249.906,36.4643 249.239,36.631 248.5,36.5 Z"/></g>
<g><path style="opacity:0.008" fill="#fefffe" d="M 253.5,39.5 C 253.167,39.5 252.833,39.5 252.5,39.5C 252.167,38.1667 251.833,38.1667 251.5,39.5C 251.167,39.5 250.833,39.5 250.5,39.5C 249.833,38.1667 249.167,38.1667 248.5,39.5C 248.167,39.5 247.833,39.5 247.5,39.5C 247.167,38.1667 246.833,38.1667 246.5,39.5C 246.167,39.5 245.833,39.5 245.5,39.5C 245.167,38.1667 244.833,38.1667 244.5,39.5C 244.167,39.5 243.833,39.5 243.5,39.5C 243.389,38.8826 243.056,38.3826 242.5,38C 246.332,38.0382 249.832,37.2049 253,35.5C 261.908,37.2924 271.074,38.1257 280.5,38C 271.324,38.1703 262.324,38.6703 253.5,39.5 Z"/></g>
<g><path style="opacity:0.008" fill="#fefffe" d="M 254.5,35.5 C 255.833,36.1667 255.833,36.1667 254.5,35.5 Z"/></g>
<g><path style="opacity:0.008" fill="#fefffe" d="M 256.5,36.5 C 256.897,35.475 257.563,35.3083 258.5,36C 257.906,36.4643 257.239,36.631 256.5,36.5 Z"/></g>
<g><path style="opacity:0.008" fill="#fefffe" d="M 259.5,36.5 C 259.897,35.475 260.563,35.3083 261.5,36C 260.906,36.4643 260.239,36.631 259.5,36.5 Z"/></g>
<g><path style="opacity:0.008" fill="#fefffe" d="M 275.5,36.5 C 276.946,35.3871 278.613,35.2204 280.5,36C 278.866,36.4935 277.199,36.6602 275.5,36.5 Z"/></g>
<g><path style="opacity:0.008" fill="#fefffe" d="M 281.5,36.5 C 287.319,35.3475 293.319,35.1808 299.5,36C 293.509,36.4995 287.509,36.6662 281.5,36.5 Z"/></g>
<g><path style="opacity:0.008" fill="#fefffe" d="M 300.5,36.5 C 301.946,35.3871 303.613,35.2204 305.5,36C 303.866,36.4935 302.199,36.6602 300.5,36.5 Z"/></g>
<g><path style="opacity:0.008" fill="#fefffe" d="M 306.5,36.5 C 311.316,35.3503 316.316,35.1837 321.5,36C 316.511,36.4993 311.511,36.6659 306.5,36.5 Z"/></g>
<g><path style="opacity:0.008" fill="#fefffe" d="M 322.5,35.5 C 323.833,36.1667 323.833,36.1667 322.5,35.5 Z"/></g>
<g><path style="opacity:0.008" fill="#fefffe" d="M 325.5,36.5 C 326.946,35.3871 328.613,35.2204 330.5,36C 328.866,36.4935 327.199,36.6602 325.5,36.5 Z"/></g>
<g><path style="opacity:0.008" fill="#fefffe" d="M 331.5,36.5 C 333.628,35.3709 335.961,35.2042 338.5,36C 336.19,36.4966 333.857,36.6633 331.5,36.5 Z"/></g>
<g><path style="opacity:0.008" fill="#fefffe" d="M 350.5,36.5 C 350.897,35.475 351.563,35.3083 352.5,36C 351.906,36.4643 351.239,36.631 350.5,36.5 Z"/></g>
<g><path style="opacity:0.008" fill="#fefffe" d="M 353.5,36.5 C 353.897,35.475 354.563,35.3083 355.5,36C 354.906,36.4643 354.239,36.631 353.5,36.5 Z"/></g>
<g><path style="opacity:0.008" fill="#fefffe" d="M 356.5,36.5 C 356.897,35.475 357.563,35.3083 358.5,36C 357.906,36.4643 357.239,36.631 356.5,36.5 Z"/></g>
<g><path style="opacity:0.008" fill="#fefffe" d="M 359.5,36.5 C 361.966,35.3659 364.633,35.1993 367.5,36C 364.854,36.4974 362.187,36.6641 359.5,36.5 Z"/></g>
<g><path style="opacity:0.008" fill="#fefffe" d="M 368.5,36.5 C 369.946,35.3871 371.613,35.2204 373.5,36C 371.866,36.4935 370.199,36.6602 368.5,36.5 Z"/></g>
<g><path style="opacity:0.008" fill="#fefffe" d="M 380.5,35.5 C 380.5,35.8333 380.5,36.1667 380.5,36.5C 373.833,36.1667 373.833,35.8333 380.5,35.5 Z"/></g>
<g><path style="opacity:0.008" fill="#b8b8b8" d="M 204.5,38.5 C 207.304,37.3622 210.304,37.1955 213.5,38C 210.518,38.498 207.518,38.6646 204.5,38.5 Z"/></g>
<g><path style="opacity:0.008" fill="#fefffe" d="M 216.5,39.5 C 215.833,39.5 215.167,39.5 214.5,39.5C 215.167,36.8333 215.833,36.8333 216.5,39.5 Z"/></g>
<g><path style="opacity:0.008" fill="#fefffe" d="M 239.5,38.5 C 239.897,37.475 240.563,37.3083 241.5,38C 240.906,38.4643 240.239,38.631 239.5,38.5 Z"/></g>
<g><path style="opacity:0.008" fill="#fefffe" d="M 298.5,39.5 C 298.167,39.5 297.833,39.5 297.5,39.5C 297.167,38.1667 296.833,38.1667 296.5,39.5C 296.167,39.5 295.833,39.5 295.5,39.5C 292.167,38.1667 288.833,38.1667 285.5,39.5C 285.167,39.5 284.833,39.5 284.5,39.5C 284.167,38.1667 283.833,38.1667 283.5,39.5C 283.167,39.5 282.833,39.5 282.5,39.5C 282.389,38.8826 282.056,38.3826 281.5,38C 287.5,37.3333 293.5,37.3333 299.5,38C 298.944,38.3826 298.611,38.8826 298.5,39.5 Z"/></g>
<g><path style="opacity:0.008" fill="#fefffe" d="M 300.5,38.5 C 310.325,37.3417 320.325,37.1751 330.5,38C 320.506,38.4998 310.506,38.6665 300.5,38.5 Z"/></g>
<g><path style="opacity:0.008" fill="#fefffe" d="M 357.5,38.5 C 354.287,38.19 351.287,38.5233 348.5,39.5C 348.167,39.5 347.833,39.5 347.5,39.5C 347.167,38.1667 346.833,38.1667 346.5,39.5C 346.167,39.5 345.833,39.5 345.5,39.5C 342.167,38.1667 338.833,38.1667 335.5,39.5C 335.167,39.5 334.833,39.5 334.5,39.5C 334.167,38.1667 333.833,38.1667 333.5,39.5C 333.167,39.5 332.833,39.5 332.5,39.5C 332.389,38.8826 332.056,38.3826 331.5,38C 340.343,37.1764 349.01,37.3431 357.5,38.5 Z"/></g>
<g><path style="opacity:0.008" fill="#fefffe" d="M 358.5,38.5 C 365.648,37.5084 372.981,37.175 380.5,37.5C 380.5,37.8333 380.5,38.1667 380.5,38.5C 373.167,38.5 365.833,38.5 358.5,38.5 Z"/></g>
<g><path style="opacity:0.008" fill="#fefffe" d="M 357.5,38.5 C 357.833,38.5 358.167,38.5 358.5,38.5C 358.5,38.8333 358.5,39.1667 358.5,39.5C 358.167,39.1667 357.833,38.8333 357.5,38.5 Z"/></g>
</svg>
