<?xml version="1.0" encoding="UTF-8" standalone="no"?>
<!DOCTYPE svg PUBLIC "-//W3C//DTD SVG 1.1//EN" "http://www.w3.org/Graphics/SVG/1.1/DTD/svg11.dtd">
<svg width="100%" height="100%" viewBox="0 0 192 102" version="1.1" xmlns="http://www.w3.org/2000/svg" xmlns:xlink="http://www.w3.org/1999/xlink" xml:space="preserve" xmlns:serif="http://www.serif.com/" style="fill-rule:evenodd;clip-rule:evenodd;stroke-linecap:round;stroke-linejoin:round;stroke-miterlimit:10;">
    <g>
        <path d="M18.2,31.1C13.3,33.8 10,39.1 10,45.2L10,78.1C10,86.9 17.1,94.1 25.8,94.1L57.5,94.1C63.4,94.1 68.5,90.8 71.3,86C70.1,94.4 62.9,100.9 54.2,100.9L19.6,100.9C10.1,100.9 2.3,93.1 2.3,83.4L2.3,48.5C2.4,39.4 9.3,31.9 18.2,31.1Z" style="fill:white;"/>
        <path d="M53.2,49.6L52.5,1.2C87.7,-1 95.8,21.1 93.2,51.8C91.6,26.9 78.8,17.2 60.8,18.8L61.5,56.4C61.5,56.7 61.6,57 61.6,57.4L61.6,72.9C61.6,77.2 58.2,80.6 54,80.6L28.6,80.6C24.4,80.6 21,77.1 21,72.9L21,57.3C21,53 24.4,49.6 28.6,49.6L53.2,49.6Z" style="fill:white;stroke:rgb(243,241,241);stroke-width:0.02px;"/>
        <path d="M99,30.4L99,51C99,51.2 99.1,51.3 99.3,51.3L103,51.3C103.2,51.3 103.3,51.2 103.3,51L103.3,43.7C103.3,43.5 103.4,43.4 103.6,43.4L107.2,43.4C108,43.5 108.6,44.1 108.9,45.2L110.7,50.4C110.7,50.5 110.8,50.7 111,50.9C111.1,51.1 111.3,51.2 111.4,51.2L115.4,51.2C115.5,51.2 115.6,51.2 115.6,51.1C115.6,51.1 115.5,51 115.4,50.8C115.3,50.7 115.2,50.5 115.2,50.4L113.6,45.4C113.4,44.9 113.3,44.5 113.1,44C112.9,43.6 112.6,43 112.1,42.4L112.1,42.3L112.1,42.2L112.2,42.1C112.7,41.8 113.1,41.5 113.4,41.2C113.7,40.9 114,40.5 114.3,40.1C114.7,39.3 114.9,38 114.9,36.3L114.9,35.6C114.8,33.7 114.4,32.3 113.5,31.4C113,30.9 112.5,30.5 111.9,30.3C111.4,30.1 110.8,30 110.3,30L99.3,30C99.1,30.1 99,30.2 99,30.4ZM109.3,33.9C109.7,34 110.1,34.3 110.4,35C110.5,35.2 110.6,35.4 110.6,35.6L110.6,36.4C110.6,37 110.5,37.5 110.4,37.9C110.3,38.4 110,38.7 109.8,38.9C109.5,39.2 109.2,39.3 108.9,39.3L103.6,39.3C103.4,39.3 103.3,39.2 103.3,39L103.3,34.2C103.3,34 103.4,33.9 103.6,33.9L109.3,33.9Z" style="fill:white;fill-rule:nonzero;stroke:white;stroke-width:0.02px;stroke-linecap:butt;"/>
        <path d="M118.2,51.2C118.2,51.3 118.3,51.4 118.4,51.4L122.2,51.4C122.4,51.4 122.5,51.3 122.6,51.1L124.2,46C124.3,45.8 124.4,45.7 124.6,45.7L131.5,45.7C131.7,45.7 131.8,45.8 131.9,46L133.5,51.1C133.6,51.3 133.7,51.4 133.9,51.4L137.7,51.4C137.8,51.4 137.9,51.3 137.9,51.2L132,31.8C131.8,31 131.3,30.5 130.7,30.3C130.1,30.1 129.2,30 128.1,30C127,30 126.2,30.1 125.5,30.3C124.9,30.5 124.4,31 124.2,31.8L118.2,51.2ZM130.4,41.2C130.4,41.3 130.4,41.3 130.4,41.2L130.4,41.3C130.4,41.4 130.3,41.5 130.2,41.5L125.8,41.5C125.6,41.5 125.6,41.4 125.6,41.3L125.6,41.2L125.6,41.1L127.7,34.3C127.8,33.9 127.9,33.8 128,33.8C128.1,33.8 128.2,33.8 128.2,33.9C128.2,34 128.3,34.1 128.3,34.3L130.4,41.2Z" style="fill:white;fill-rule:nonzero;stroke:white;stroke-width:0.02px;stroke-linecap:butt;"/>
        <path d="M141.1,51.3L151.1,51.3C152.2,51.3 153.2,51.1 154,50.7C154.8,50.3 155.5,49.8 156,49.1C156.5,48.4 156.9,47.7 157.2,46.9C157.4,46.1 157.6,45.3 157.6,44.5L157.6,37.4C157.6,36.5 157.5,35.6 157.2,34.7C157,33.8 156.6,33 156,32.3C155.5,31.6 154.8,31 154,30.6C153.2,30.2 152.2,29.9 151.1,29.9L141.1,29.9C140.9,29.9 140.8,30 140.8,30.2L140.8,51C140.8,51.2 140.9,51.3 141.1,51.3ZM145.1,34.2C145.1,34 145.2,33.9 145.4,33.9L150.4,33.9C150.8,33.9 151.1,34 151.4,34.2C151.7,34.4 152,34.6 152.3,34.9C152.6,35.2 152.8,35.5 153,35.8C153.2,36.1 153.3,36.5 153.3,36.9L153.3,44.8C153.3,45.1 153.2,45.5 153.1,45.8C152.9,46.1 152.7,46.4 152.5,46.7C152.2,47 152,47.2 151.6,47.4C151.3,47.6 151,47.7 150.6,47.7L145.4,47.7C145.2,47.7 145.1,47.6 145.1,47.4L145.1,34.2Z" style="fill:white;fill-rule:nonzero;stroke:white;stroke-width:0.02px;stroke-linecap:butt;"/>
        <path d="M161.6,30.4L161.6,51C161.6,51.2 161.7,51.3 161.9,51.3L165.6,51.3C165.8,51.3 165.9,51.2 165.9,51L165.9,30.4C165.9,30.2 165.8,30.1 165.6,30.1L161.9,30.1C161.7,30.1 161.6,30.2 161.6,30.4Z" style="fill:white;fill-rule:nonzero;stroke:white;stroke-width:0.02px;stroke-linecap:butt;"/>
        <path d="M170,40.9L170,43.9C170,44.8 170.1,45.4 170.2,46C170.4,46.8 170.5,47.5 170.7,48.1C170.9,48.7 171.1,49.2 171.4,49.6C171.8,50.1 172.3,50.6 172.9,51C173.5,51.4 174.1,51.7 174.8,51.8C175.3,51.9 175.9,52 176.6,52L182,52C182.8,52 183.4,51.9 183.8,51.8C184.5,51.6 185.1,51.4 185.7,51C186.3,50.6 186.8,50.2 187.2,49.6C187.5,49.2 187.7,48.7 187.9,48.1C188.1,47.5 188.2,46.8 188.4,46C188.5,45.5 188.6,44.8 188.6,43.9L188.6,40.9L188.6,40.7L188.6,37.7C188.6,36.8 188.5,36.2 188.4,35.6C188.2,34.8 188.1,34.1 187.9,33.5C187.7,32.9 187.5,32.4 187.2,32C186.8,31.5 186.3,31 185.7,30.6C185.1,30.2 184.5,29.9 183.8,29.8C183.3,29.7 182.7,29.6 182,29.6L176.6,29.6C175.8,29.6 175.2,29.7 174.8,29.8C174.1,30 173.5,30.2 172.9,30.6C172.3,31 171.8,31.4 171.4,32C171.1,32.4 170.9,32.9 170.7,33.5C170.5,34.1 170.4,34.8 170.2,35.6C170.1,36.1 170,36.8 170,37.7L170,40.9ZM179.4,33.7L181.1,33.7C181.6,33.7 182.1,33.8 182.5,33.9C183.2,34.1 183.7,34.4 184,35C184.3,35.5 184.4,36.3 184.4,37.4L184.4,44.2C184.4,45.2 184.3,46 184,46.6C183.7,47.1 183.2,47.5 182.5,47.7C182.1,47.8 181.6,47.9 181.1,47.9L177.7,47.9C177.2,47.9 176.7,47.8 176.3,47.7C175.6,47.5 175.1,47.2 174.8,46.6C174.5,46.1 174.4,45.3 174.4,44.2L174.4,37.4C174.4,36.4 174.5,35.6 174.8,35C175.1,34.5 175.6,34.1 176.3,33.9C176.7,33.8 177.2,33.7 177.7,33.7L179.4,33.7Z" style="fill:white;fill-rule:nonzero;stroke:white;stroke-width:0.02px;stroke-linecap:butt;"/>
        <path d="M83,68.6C83.4,68.6 83.7,68.6 84,68.7C84.3,68.8 84.5,68.9 84.7,69.1C84.9,69.3 85,69.6 85,69.8L85,71.1C85,71.3 84.9,71.4 84.9,71.6C84.8,71.8 84.7,72 84.5,72.2C84.3,72.4 84.1,72.5 83.9,72.5L76.5,72.5C76.3,72.5 76.3,72.6 76.3,72.7L76.3,75.2C76.3,75.4 76.4,75.4 76.5,75.4L84.8,75.4C85.1,75.4 85.5,75.3 85.9,75.1C86.3,74.9 86.6,74.7 86.8,74.5C87.7,73.7 88.1,72.7 88.3,71.3L88.3,70.4C88.3,70 88.3,69.7 88.2,69.3C88.2,68.9 88.1,68.5 88,68.2C87.9,67.8 87.7,67.5 87.6,67.2C87.4,66.9 87.2,66.6 86.9,66.4C86.5,66 86,65.8 85.5,65.6C85,65.5 84.5,65.4 84,65.4L81.4,65.4L80.4,65.4C80.1,65.4 79.9,65.3 79.7,65.1C79.5,64.9 79.4,64.7 79.4,64.4L79.4,63.1C79.4,62.9 79.5,62.8 79.5,62.6C79.6,62.4 79.7,62.2 79.9,62.1C80.1,61.9 80.3,61.8 80.5,61.8L87.1,61.8C87.3,61.8 87.3,61.7 87.3,61.6L87.3,59.1C87.3,58.9 87.2,58.9 87.1,58.9L79.5,58.9C79.1,58.9 78.8,59 78.4,59.2C78,59.4 77.7,59.6 77.4,59.8C76.5,60.5 76,61.6 75.9,62.9L75.9,63.7C75.9,64.1 75.9,64.4 76,64.8C76.1,65.2 76.1,65.5 76.3,65.9C76.4,66.2 76.6,66.6 76.7,66.9C76.9,67.2 77.1,67.5 77.4,67.7C77.8,68.1 78.3,68.3 78.9,68.4C79.4,68.5 79.9,68.6 80.4,68.6L83,68.6Z" style="fill:white;fill-rule:nonzero;stroke:white;stroke-width:0.36px;stroke-linecap:butt;"/>
        <path d="M90.4,70.5C90.4,70.9 90.4,71.3 90.5,71.6C90.6,71.9 90.7,72.1 90.7,72.3C91,73 91.4,73.6 91.8,74C92.3,74.5 92.8,74.8 93.4,75.1C93.7,75.2 94,75.3 94.3,75.4C94.7,75.5 95.1,75.5 95.5,75.5L101.4,75.5C101.6,75.5 101.6,75.4 101.6,75.3L101.6,72.8C101.6,72.6 101.5,72.6 101.4,72.6L95.5,72.6C95,72.6 94.6,72.4 94.3,72.1C94,71.8 93.8,71.4 93.8,70.8L93.8,64.9C93.8,64.1 93.9,63.4 94.2,62.9C94.5,62.4 94.9,62.1 95.5,62L101.4,62C101.6,62 101.6,61.9 101.6,61.8L101.6,59.3C101.6,59.1 101.5,59.1 101.4,59.1L95.3,59.1C94.6,59.1 93.9,59.3 93.2,59.6C92.5,59.9 92,60.3 91.5,60.9C91.3,61.1 91.2,61.3 91,61.6C90.8,61.8 90.7,62.1 90.6,62.5C90.4,63.1 90.3,63.7 90.3,64.4L90.3,70.5L90.4,70.5Z" style="fill:white;fill-rule:nonzero;stroke:white;stroke-width:0.36px;stroke-linecap:butt;"/>
        <path d="M104,75.2C104,75.4 104.1,75.4 104.2,75.4L107.1,75.4C107.3,75.4 107.3,75.3 107.3,75.2L107.3,68.8C107.3,68.6 107.4,68.6 107.5,68.6L112.9,68.6C113.1,68.6 113.1,68.7 113.1,68.8L113.1,75.2C113.1,75.4 113.2,75.4 113.3,75.4L116.2,75.4C116.4,75.4 116.4,75.3 116.4,75.2L116.4,59.1C116.4,58.9 116.3,58.9 116.2,58.9L113.3,58.9C113.1,58.9 113.1,59 113.1,59.1L113.1,65.4C113.1,65.6 113,65.6 112.9,65.6L107.5,65.6C107.3,65.6 107.3,65.5 107.3,65.4L107.3,59.1C107.3,58.9 107.2,58.9 107.1,58.9L104.2,58.9C104,58.9 104,59 104,59.1L104,75.2Z" style="fill:white;fill-rule:nonzero;stroke:white;stroke-width:0.36px;stroke-linecap:butt;"/>
        <path d="M129.2,72.5L123,72.5C122.4,72.5 122.1,72.2 122.1,71.7L122.1,59.1C122.1,58.9 122,58.9 121.9,58.9L119,58.9C118.8,58.9 118.8,59 118.8,59.1L118.8,71.4C118.8,72.7 119.1,73.7 119.6,74.3C120.1,74.9 121,75.3 122.3,75.4L129.2,75.4C129.4,75.4 129.4,75.3 129.4,75.2L129.4,72.7C129.5,72.5 129.4,72.5 129.2,72.5Z" style="fill:white;fill-rule:nonzero;stroke:white;stroke-width:0.36px;stroke-linecap:butt;"/>
        <path d="M130.6,75.3C130.6,75.4 130.7,75.4 130.8,75.4L133.8,75.4C134,75.4 134.1,75.3 134.1,75.2L135.3,71.2C135.3,71 135.4,70.9 135.6,70.9L141,70.9C141.2,70.9 141.3,71 141.3,71.1L142.5,75.1C142.5,75.2 142.6,75.3 142.8,75.3L145.8,75.3C145.9,75.3 146,75.3 146,75.2L141.4,60.1C141.2,59.5 140.9,59.1 140.4,59C139.9,58.8 139.2,58.8 138.4,58.8C137.6,58.8 136.9,58.9 136.4,59C135.9,59.2 135.6,59.5 135.4,60.1L130.6,75.3ZM140.1,67.6L140.1,67.7C140.1,67.8 140,67.9 139.9,67.9L136.5,67.9C136.4,67.9 136.3,67.8 136.3,67.7L136.3,67.6L137.9,62.3C138,62 138.1,61.9 138.2,61.9C138.3,61.9 138.3,61.9 138.4,62C138.4,62.1 138.5,62.2 138.5,62.3L140.1,67.6Z" style="fill:white;fill-rule:nonzero;stroke:white;stroke-width:0.36px;stroke-linecap:butt;"/>
        <path d="M155.7,58.9L151,58.9C150.4,58.9 149.9,59 149.4,59.3C148.9,59.6 148.5,60 148.1,60.4C147.7,60.9 147.4,61.4 147.2,61.9C147,62.5 146.9,63 146.9,63.5L146.9,70.1C146.9,70.7 147,71.3 147.2,71.9C147.4,72.5 147.7,73.1 148.1,73.6C148.5,74.1 149,74.5 149.5,74.9C150.1,75.2 150.7,75.4 151.4,75.4L155.4,75.4C156.3,75.4 157.1,75.2 157.7,74.9C158.3,74.6 158.8,74.2 159.2,73.7C159.6,73.2 159.8,72.7 160,72.2C160.2,71.7 160.2,71.2 160.2,70.9L160.2,65.7C160.2,65.5 160.1,65.5 160,65.5L152.9,65.5C152.7,65.5 152.7,65.6 152.7,65.7L152.7,68.2C152.7,68.4 152.8,68.4 152.9,68.4L156.6,68.4C156.8,68.4 156.8,68.5 156.8,68.6L156.8,70.8C156.8,70.9 156.8,71.1 156.7,71.3C156.6,71.5 156.5,71.6 156.4,71.8C156.3,72 156.1,72.1 155.9,72.2C155.7,72.3 155.4,72.4 155.1,72.4L152.3,72.4C151.7,72.4 151.2,72.1 150.8,71.6C150.4,71.1 150.2,70.4 150.2,69.5L150.2,63.5C150.2,63.4 150.3,63.2 150.4,63C150.5,62.8 150.7,62.6 150.8,62.4C151,62.2 151.1,62.1 151.3,62C151.5,61.9 151.6,61.8 151.8,61.8L158.8,61.8C159,61.8 159,61.7 159,61.6L159,59.1C159,58.9 158.9,58.9 158.8,58.9L155.7,58.9Z" style="fill:white;fill-rule:nonzero;stroke:white;stroke-width:0.36px;stroke-linecap:butt;"/>
        <path d="M162.2,73C162.2,73.3 162.3,73.6 162.4,73.9C162.5,74.2 162.7,74.4 162.9,74.7C163.1,74.9 163.4,75.1 163.6,75.3C163.9,75.4 164.1,75.5 164.4,75.5L173.3,75.5C173.5,75.5 173.5,75.4 173.5,75.3L173.5,72.8C173.5,72.6 173.4,72.6 173.3,72.6L165.7,72.6C165.5,72.6 165.5,72.5 165.5,72.4L165.5,69C165.5,68.8 165.6,68.8 165.7,68.8L172.7,68.8C172.9,68.8 172.9,68.7 172.9,68.6L172.9,65.9C172.9,65.7 172.8,65.7 172.7,65.7L165.7,65.7C165.5,65.7 165.5,65.6 165.5,65.5L165.5,62.4C165.5,62.2 165.6,62.1 165.7,62.1L173.3,62.1C173.5,62.1 173.5,62 173.5,61.9L173.5,59.4C173.5,59.2 173.4,59.2 173.2,59.2L165.4,59.2C164.3,59.2 163.5,59.5 163,60.2C162.4,60.9 162.2,61.7 162.2,62.8L162.2,73Z" style="fill:white;fill-rule:nonzero;stroke:white;stroke-width:0.36px;stroke-linecap:butt;"/>
        <path d="M175.8,59.1L175.8,75.2C175.8,75.4 175.9,75.4 176,75.4L178.9,75.4C179.1,75.4 179.1,75.3 179.1,75.2L179.1,69.5C179.1,69.3 179.2,69.3 179.3,69.3L182.1,69.3C182.8,69.4 183.2,69.9 183.4,70.7L184.8,74.8C184.8,74.9 184.9,75 185,75.2C185.1,75.4 185.2,75.4 185.3,75.4L188.5,75.4C188.6,75.4 188.6,75.4 188.6,75.3C188.6,75.3 188.6,75.2 188.5,75.1C188.4,75 188.4,74.9 188.3,74.8L187,70.9C186.9,70.5 186.7,70.2 186.6,69.8C186.5,69.5 186.2,69 185.9,68.6L185.9,68.5L185.9,68.4C185.9,68.4 185.9,68.3 186,68.3C186.4,68.1 186.7,67.8 186.9,67.6C187.1,67.3 187.3,67.1 187.6,66.8C187.9,66.2 188.1,65.2 188.1,63.8L188.1,63.3C188.1,61.8 187.7,60.7 187,60C186.6,59.6 186.2,59.3 185.8,59.1C185.4,58.9 185,58.8 184.5,58.8L176,58.8C175.9,58.9 175.8,58.9 175.8,59.1ZM183.9,61.9C184.2,61.9 184.5,62.2 184.8,62.7C184.9,62.9 184.9,63 184.9,63.2L184.9,63.8C184.9,64.2 184.8,64.6 184.7,65C184.6,65.4 184.4,65.6 184.2,65.8C183.9,66 183.7,66.1 183.5,66.1L179.4,66.1C179.2,66.1 179.1,66 179.1,65.9L179.1,62.1C179.1,61.9 179.2,61.9 179.3,61.9L183.9,61.9Z" style="fill:white;fill-rule:nonzero;stroke:white;stroke-width:0.36px;stroke-linecap:butt;"/>
        <path d="M76.3,83.3L76.3,99.2C76.3,99.4 76.4,99.4 76.5,99.4L79.4,99.4C79.6,99.4 79.6,99.3 79.6,99.2L79.6,93.9C79.6,93.7 79.7,93.7 79.8,93.7L83.8,93.7C84.7,93.7 85.4,93.6 86,93.3C86.6,93 87.1,92.7 87.4,92.2C87.8,91.7 88,91.2 88.2,90.5C88.4,89.8 88.5,89.1 88.5,88.3C88.5,87.5 88.4,86.8 88.2,86.1C88,85.4 87.8,84.9 87.4,84.4C87,83.9 86.6,83.5 86,83.3C85.4,83 84.7,82.9 83.8,82.9L76.5,82.9C76.3,82.9 76.3,83 76.3,83.1L76.3,83.3ZM84.2,85.9C84.5,85.9 84.7,86 84.9,86.2C85.1,86.4 85.2,86.6 85.3,86.9C85.4,87.2 85.4,87.4 85.4,87.7L85.4,88.9C85.4,89.2 85.3,89.4 85.3,89.7C85.2,90 85.1,90.2 84.9,90.4C84.7,90.6 84.5,90.7 84.2,90.7L79.8,90.7C79.6,90.7 79.6,90.6 79.6,90.5L79.6,86.1C79.6,85.9 79.7,85.9 79.8,85.9L84.2,85.9Z" style="fill:white;fill-rule:nonzero;stroke:white;stroke-width:0.36px;stroke-linecap:butt;"/>
        <path d="M88.7,99.3C88.7,99.4 88.8,99.4 88.9,99.4L91.9,99.4C92.1,99.4 92.2,99.3 92.2,99.2L93.4,95.2C93.4,95 93.5,94.9 93.7,94.9L99.1,94.9C99.3,94.9 99.4,95 99.4,95.1L100.6,99.1C100.6,99.2 100.7,99.3 100.9,99.3L103.9,99.3C104,99.3 104.1,99.3 104.1,99.2L99.5,84.1C99.3,83.5 99,83.1 98.5,83C98,82.8 97.3,82.8 96.5,82.8C95.7,82.8 95,82.9 94.5,83C94,83.2 93.7,83.5 93.5,84.1L88.7,99.3ZM98.3,91.6L98.3,91.7C98.3,91.8 98.2,91.9 98.1,91.9L94.7,91.9C94.6,91.9 94.5,91.8 94.5,91.7L94.5,91.6L96.1,86.3C96.2,86 96.3,85.9 96.4,85.9C96.5,85.9 96.5,85.9 96.6,86C96.6,86.1 96.7,86.2 96.7,86.3L98.3,91.6Z" style="fill:white;fill-rule:nonzero;stroke:white;stroke-width:0.36px;stroke-linecap:butt;"/>
        <path d="M106.6,83.1L106.6,99.2C106.6,99.4 106.7,99.4 106.8,99.4L109.7,99.4C109.9,99.4 109.9,99.3 109.9,99.2L109.9,93.5C109.9,93.3 110,93.3 110.1,93.3L112.9,93.3C113.6,93.4 114,93.9 114.2,94.7L115.6,98.8C115.6,98.9 115.7,99 115.8,99.2C115.9,99.4 116,99.4 116.1,99.4L119.3,99.4C119.4,99.4 119.4,99.4 119.4,99.3C119.4,99.3 119.4,99.2 119.3,99.1C119.2,99 119.2,98.9 119.1,98.8L117.8,94.9C117.7,94.5 117.5,94.2 117.4,93.8C117.3,93.5 117,93 116.7,92.6L116.7,92.5L116.7,92.4C116.7,92.4 116.7,92.3 116.8,92.3C117.2,92.1 117.5,91.8 117.7,91.6C117.9,91.3 118.1,91.1 118.4,90.8C118.7,90.2 118.9,89.2 118.9,87.8L118.9,87.3C118.9,85.8 118.5,84.7 117.8,84C117.4,83.6 117,83.3 116.6,83.1C116.2,82.9 115.8,82.8 115.3,82.8L106.8,82.8C106.7,82.9 106.6,82.9 106.6,83.1ZM114.6,85.9C114.9,85.9 115.2,86.2 115.5,86.7C115.6,86.9 115.6,87 115.6,87.2L115.6,87.8C115.6,88.2 115.5,88.6 115.4,89C115.3,89.4 115.1,89.6 114.9,89.8C114.6,90 114.4,90.1 114.2,90.1L110.1,90.1C109.9,90.1 109.8,90 109.8,89.9L109.8,86.1C109.8,85.9 109.9,85.9 110,85.9L114.6,85.9Z" style="fill:white;fill-rule:nonzero;stroke:white;stroke-width:0.36px;stroke-linecap:butt;"/>
        <path d="M121.8,99.3C121.8,99.4 121.9,99.4 122,99.4L125,99.4C125.2,99.4 125.3,99.3 125.3,99.2L126.5,95.2C126.5,95 126.6,94.9 126.8,94.9L132.2,94.9C132.4,94.9 132.5,95 132.5,95.1L133.7,99.1C133.7,99.2 133.8,99.3 134,99.3L137,99.3C137.1,99.3 137.2,99.3 137.2,99.2L132.6,84.1C132.4,83.5 132.1,83.1 131.6,83C131.1,82.8 130.4,82.8 129.6,82.8C128.8,82.8 128.1,82.9 127.6,83C127.1,83.2 126.8,83.5 126.6,84.1L121.8,99.3ZM131.4,91.6L131.4,91.7C131.4,91.8 131.3,91.9 131.2,91.9L127.8,91.9C127.7,91.9 127.6,91.8 127.6,91.7L127.6,91.6L129.2,86.3C129.3,86 129.4,85.9 129.5,85.9C129.6,85.9 129.6,85.9 129.7,86C129.7,86.1 129.8,86.2 129.8,86.3L131.4,91.6Z" style="fill:white;fill-rule:nonzero;stroke:white;stroke-width:0.36px;stroke-linecap:butt;"/>
        <path d="M139.9,99.5L147.7,99.5C148.6,99.5 149.3,99.3 149.9,99C150.5,98.7 151,98.3 151.5,97.8C151.9,97.3 152.2,96.7 152.4,96.1C152.6,95.5 152.7,94.9 152.7,94.3L152.7,88.7C152.7,88 152.6,87.3 152.4,86.6C152.2,85.9 151.9,85.3 151.5,84.7C151.1,84.2 150.6,83.7 149.9,83.4C149.3,83.1 148.5,82.9 147.6,82.9L139.8,82.9C139.6,82.9 139.6,83 139.6,83.1L139.6,99.2C139.7,99.4 139.8,99.5 139.9,99.5ZM143,86.1C143,85.9 143.1,85.9 143.2,85.9L147.1,85.9C147.4,85.9 147.6,86 147.9,86.1C148.2,86.2 148.4,86.4 148.6,86.6C148.8,86.8 149,87 149.1,87.3C149.2,87.6 149.3,87.8 149.3,88.1L149.3,94.3C149.3,94.6 149.2,94.8 149.1,95.1C149,95.4 148.8,95.6 148.6,95.8C148.4,96 148.2,96.2 147.9,96.3C147.6,96.4 147.4,96.5 147.2,96.5L143.1,96.5C142.9,96.5 142.9,96.4 142.9,96.3L142.9,86.1L143,86.1Z" style="fill:white;fill-rule:nonzero;stroke:white;stroke-width:0.36px;stroke-linecap:butt;"/>
        <path d="M155.6,83.1L155.6,99.2C155.6,99.4 155.7,99.4 155.8,99.4L158.7,99.4C158.9,99.4 158.9,99.3 158.9,99.2L158.9,83.1C158.9,82.9 158.8,82.9 158.7,82.9L155.8,82.9C155.7,82.9 155.6,82.9 155.6,83.1Z" style="fill:white;fill-rule:nonzero;stroke:white;stroke-width:0.36px;stroke-linecap:butt;"/>
        <path d="M162,97C162,97.3 162.1,97.6 162.2,97.9C162.3,98.2 162.5,98.4 162.7,98.7C162.9,98.9 163.2,99.1 163.4,99.3C163.7,99.4 163.9,99.5 164.2,99.5L173.1,99.5C173.3,99.5 173.3,99.4 173.3,99.3L173.3,96.8C173.3,96.6 173.2,96.6 173.1,96.6L165.5,96.6C165.3,96.6 165.3,96.5 165.3,96.4L165.3,93C165.3,92.8 165.4,92.8 165.5,92.8L172.5,92.8C172.7,92.8 172.7,92.7 172.7,92.6L172.7,89.9C172.7,89.7 172.6,89.7 172.5,89.7L165.5,89.7C165.3,89.7 165.3,89.6 165.3,89.5L165.3,86.4C165.3,86.2 165.4,86.1 165.5,86.1L173.1,86.1C173.3,86.1 173.3,86 173.3,85.9L173.3,83.4C173.3,83.2 173.2,83.2 173,83.2L165.2,83.2C164.1,83.2 163.3,83.5 162.8,84.2C162.2,84.9 162,85.7 162,86.8L162,97Z" style="fill:white;fill-rule:nonzero;stroke:white;stroke-width:0.36px;stroke-linecap:butt;"/>
        <path d="M183.2,92.6C183.6,92.6 183.9,92.6 184.2,92.7C184.5,92.8 184.7,92.9 184.9,93.1C185.1,93.3 185.2,93.6 185.2,93.8L185.2,95.1C185.2,95.3 185.1,95.4 185.1,95.6C185,95.8 184.9,96 184.7,96.2C184.5,96.4 184.3,96.5 184.1,96.5L176.7,96.5C176.5,96.5 176.5,96.6 176.5,96.7L176.5,99.2C176.5,99.4 176.6,99.4 176.7,99.4L185,99.4C185.3,99.4 185.7,99.3 186.1,99.1C186.5,98.9 186.8,98.7 187,98.5C187.9,97.7 188.3,96.7 188.5,95.3L188.5,94.4C188.5,94 188.5,93.7 188.4,93.3C188.4,92.9 188.3,92.5 188.2,92.2C188.1,91.8 187.9,91.5 187.8,91.2C187.6,90.9 187.4,90.6 187.1,90.4C186.7,90 186.2,89.8 185.7,89.6C185.2,89.5 184.7,89.4 184.2,89.4L181.6,89.4L180.6,89.4C180.3,89.4 180.1,89.3 179.9,89.1C179.7,88.9 179.6,88.7 179.6,88.4L179.6,87.1C179.6,86.9 179.7,86.8 179.7,86.6C179.8,86.4 179.9,86.2 180.1,86.1C180.3,85.9 180.5,85.8 180.7,85.8L187.3,85.8C187.5,85.8 187.5,85.7 187.5,85.6L187.5,83.1C187.5,82.9 187.4,82.9 187.3,82.9L179.7,82.9C179.3,82.9 179,83 178.6,83.2C178.2,83.4 177.9,83.6 177.6,83.8C176.7,84.5 176.2,85.6 176.1,86.9L176.1,87.7C176.1,88.1 176.1,88.4 176.2,88.8C176.3,89.2 176.3,89.5 176.5,89.9C176.6,90.2 176.8,90.6 176.9,90.9C177.1,91.2 177.3,91.5 177.6,91.7C178,92.1 178.5,92.3 179.1,92.4C179.6,92.5 180.1,92.6 180.6,92.6L183.2,92.6Z" style="fill:white;fill-rule:nonzero;stroke:white;stroke-width:0.36px;stroke-linecap:butt;"/>
    </g>
</svg>
