<?xml version="1.0" encoding="UTF-8" standalone="no"?>
<!-- Created with Inkscape (http://www.inkscape.org/) -->

<svg
   version="1.0"
   width="645.97998"
   height="309.13"
   id="svg2"
   inkscape:version="1.1.1 (3bf5ae0d25, 2021-09-20)"
   sodipodi:docname="ServusTV HD Deutschland.svg"
   xmlns:inkscape="http://www.inkscape.org/namespaces/inkscape"
   xmlns:sodipodi="http://sodipodi.sourceforge.net/DTD/sodipodi-0.dtd"
   xmlns="http://www.w3.org/2000/svg"
   xmlns:svg="http://www.w3.org/2000/svg"
   xmlns:rdf="http://www.w3.org/1999/02/22-rdf-syntax-ns#"
   xmlns:cc="http://creativecommons.org/ns#"
   xmlns:dc="http://purl.org/dc/elements/1.1/">
  <metadata
     id="metadata16">
    <rdf:RDF>
      <cc:Work
         rdf:about="">
        <dc:format>image/svg+xml</dc:format>
        <dc:type
           rdf:resource="http://purl.org/dc/dcmitype/StillImage" />
      </cc:Work>
    </rdf:RDF>
  </metadata>
  <sodipodi:namedview
     pagecolor="#ffffff"
     bordercolor="#ffffff"
     borderopacity="1"
     objecttolerance="10"
     gridtolerance="10"
     guidetolerance="10"
     inkscape:pageopacity="0"
     inkscape:pageshadow="2"
     inkscape:window-width="1920"
     inkscape:window-height="1017"
     id="namedview14"
     showgrid="false"
     inkscape:zoom="1.1058567"
     inkscape:cx="273.54359"
     inkscape:cy="145.13635"
     inkscape:window-x="-8"
     inkscape:window-y="-8"
     inkscape:window-maximized="1"
     inkscape:current-layer="svg2"
     inkscape:pagecheckerboard="0" />
  <defs
     id="defs4" />
  <g
     transform="translate(208.13167,-288.36736)"
     id="layer1">
    <g
       id="g3221">
      <path
         d="M -5.5115819,478.04384 C 8.9389262,473.36488 17.38446,469.26504 26.810335,460.09067 31.671156,455.36715 38.034488,448.96604 40.166313,441.69004 43.775839,429.35895 31.280655,414.9778 24.99937,408.33787 17.031459,399.92984 5.4168052,392.91238 -5.4295344,385.25462 -19.860588,375.0483 -33.883378,364.38354 -32.594584,340.0098 c 0.28336,-5.4329 4.545318,-13.9712 6.972909,-17.75187 7.559647,-11.73927 18.4059865,-17.52517 32.6106341,-23.95645 5.7664439,-2.59705 12.2617289,-4.3457 19.1351099,-5.65959 6.30807,-1.20844 15.387992,-2.32778 21.921058,-2.26349 5.923209,0.0499 11.985419,1.33137 16.311379,2.5398 8.766394,4.91609 10.841265,4.49034 9.614782,17.09069 -3.370714,9.47747 -8.992518,15.67699 -18.368487,20.66441 -5.689754,3.03012 -9.374278,4.67191 -15.687706,6.53278 -3.037448,0.8983 -6.206568,2.5525 -9.955095,3.26358 -5.602349,1.06238 -7.067644,0.62931 -15.75199,0.39585 -1.16389,-0.77367 -0.534577,-2.77354 -0.534577,-2.77354 l -6.1050664,-3.77193 1.9107761,-3.89288 c 5.0122273,0.3014 8.9231573,0.53486 18.9656573,-2.45804 8.94797,-2.66669 14.495056,-5.37764 22.184682,-11.06739 4.527556,-3.35831 6.470474,-1.6167 5.684397,-6.45271 -0.967935,-5.92857 -6.44538,-5.94802 -13.224307,-6.16907 -10.595122,-0.35131 -16.995954,1.6167 -23.120475,4.20134 -6.124802,2.58463 -12.7537319,4.31355 -16.8090207,7.85344 -1.8608708,0.28899 -3.75388401,2.44027 -6.0746155,2.29592 -1.7111554,2.12477 -2.9875436,4.34569 -6.0675669,5.17463 -1.0071258,4.12464 -4.0693859,7.57205 -6.0622099,10.35631 -2.099682,2.91254 0.07472,7.72346 1.144436,14.82127 1.069437,7.09443 7.0870983,12.24397 11.9104191,17.709 8.2992021,5.28883 14.4310539,11.08544 22.4361819,17.0157 2.445635,1.81096 5.21213,3.26893 7.652126,5.07482 4.552649,3.36338 8.049959,8.75201 11.853748,13.05316 2.646948,2.9819 6.042473,6.13157 8.035297,11.33834 0.554313,1.4402 1.969703,3.77334 2.333419,4.86618 1.848465,5.48477 3.156713,14.35605 3.037167,21.02248 -0.445482,25.58049 -27.304051,43.99184 -41.086337,50.186 -6.7484767,3.0428 -25.706804,9.06216 -32.774447,10.2689 -7.062287,1.21408 -24.461148,4.67925 -40.779858,2.58464 -15.707159,-2.01961 -44.419556,-9.37597 -53.638476,-22.05301 -4.13733,-5.68412 -10.52576,-13.81584 -12.8589,-23.20957 -0.25122,-6.86633 -2.76114,-17.68955 -0.60957,-23.80167 3.96055,-22.13477 20.0709,-37.67276 37.829809,-47.60841 3.106808,-2.9929 6.753833,-4.36881 11.997824,-5.50084 6.570283,-1.40975 12.694804,-5.6985 22.460993,-4.76637 -0.377813,1.97337 -0.484672,4.18724 -0.390219,6.60243 -8.577487,1.77882 -15.600301,5.02294 -21.291746,9.53809 -5.206773,3.01235 -14.104837,11.77142 -17.197548,15.74635 -3.094403,3.96083 -7.413313,11.35639 -9.012253,14.16743 -2.96076,5.31363 -3.36902,9.15464 -4.87323,19.45569 -0.0375,1.42074 1.35816,10.67181 3.59148,14.45614 8.426083,18.78916 21.625296,29.64988 44.130838,33.38403 3.647025,0.55431 6.395757,0.27828 8.179937,0.28336 24.669509,-2.16905 33.000853,-6.07462 47.4516431,-10.75189 l 0,0 z"
         id="path2391"
         style="fill:#efeeec"
         inkscape:connector-curvature="0" />
      <path
         d="m 401.08391,518.67285 17.15469,7.20665 -6.21192,0.67358 6.21192,4.47596 c 0,0 -45.11851,-11.87856 -48.41958,-12.51323 -2.78425,-0.53458 -10.71438,-2.3884 -7.49536,-2.868 -4.28874,0.30845 -13.41857,-3.03012 -18.99583,-1.43851 -8.61498,-1.39734 -19.84618,-4.43479 -28.02076,-3.50971 -15.8143,-1.94997 -50.68872,-3.93546 -52.27328,-3.50775 -1.36548,0.37077 -16.74642,-0.83062 -25.85144,1.71652 -1.05703,0.28871 -2.61678,1.42582 -3.79843,1.54001 -2.25137,0.20667 -4.31356,-1.09453 -6.53984,-0.95553 -1.6542,0.10714 -3.30135,1.30853 -4.88591,1.46529 -4.0801,0.41532 -7.50777,-1.82337 -11.62706,-1.79856 -1.5527,0.0127 -2.99826,1.2888 -4.51515,1.49011 -1.83606,0.24445 -3.65238,-0.50243 -5.4828,-0.41531 -1.95561,0.0998 -4.02484,1.17658 -5.9858,1.38325 -11.2938,1.19434 -23.55017,-1.36352 -34.11315,-0.75394 -2.10165,0.1249 -4.32793,1.35815 -6.3529,1.35815 -1.72187,0 -3.19421,-1.15684 -5.04268,-1.30824 -3.28866,-0.25122 -7.11726,1.92515 -10.80348,1.93756 -1.10524,0.005 -2.59704,-0.81286 -3.62193,-0.73617 -1.13739,0.0998 -2.28182,1.16219 -3.38876,1.12469 -1.99987,-0.0747 -16.84624,-0.55967 -20.56798,-0.1889 -5.8358,0.59181 -12.099607,0.4029 -17.343598,0.98231 -2.490183,0.27631 -4.803866,1.58992 -7.117549,1.76106 -13.992339,0.99275 -22.594638,1.52028 -37.786956,4.01046 -5.199443,0.85036 -10.211952,2.61678 -15.331039,3.42767 -12.406088,1.98042 -23.6553339,2.65428 -35.6728943,5.09258 -8.5007967,1.73625 -16.9587367,3.19619 -24.5984577,4.56675 -2.950044,0.52048 -5.880351,2.18173 -8.614704,2.09996 -1.327985,-0.0375 -2.736044,-0.87348 -3.987339,-0.76126 -1.885964,0.16945 -3.49026,1.8682 -5.326319,2.34582 -1.58456,0.42067 -3.162071,-0.19426 -5.144181,0.0747 -8.525608,1.15684 -18.618013,4.29579 -28.767371,6.08195 -4.540243,0.79143 -9.269111,2.20682 -13.866026,3.53283 -4.942868,1.4278 -10.010636,3.61686 -13.871386,3.54017 -3.77362,-0.075 -6.81078,0.41531 -10.4454,1.96237 -2.20147,0.45986 0.25855,-1.76106 -1.35111,-1.4777 -15.79654,2.99995 -29.74968,8.30653 -44.04343,13.63257 -13.99093,5.22623 -44.81541,14.26865 -45.30008,10.80377 -0.48495,-3.45812 7.84103,-5.21383 11.59492,-7.38315 4.11929,-2.38868 7.69695,-4.82332 11.89096,-6.44566 8.84111,-3.41329 18.17958,-5.72162 27.41119,-7.56472 18.13504,-3.61489 36.5836,-9.17974 54.81337,-15.12268 17.903265,-5.82876 36.742326,-10.04786 55.51372,-14.60023 18.662561,-4.5346 37.6034073,-9.20116 56.4672808,-12.70918 38.8868442,-7.212 67.6294042,-10.77867 108.0954492,-16.41852 19.86395,-2.77354 50.64417,-4.86787 70.76667,-6.26916 42.18058,-2.94271 84.80355,-0.59153 128.49933,6.0873 22.78918,0.36372 51.68315,7.73418 72.3157,15.12804 10.88384,3.89993 44.58872,17.4826 44.58872,17.4826 l -32.76204,-8.23859 0,0 z"
         id="path2393"
         style="fill:#ffffff"
         inkscape:connector-curvature="0" />
      <path
         d="m 292.53029,472.21875 c -2.10673,0 -6.10676,1.02658 -6.56493,0.81822 l -2.80568,-0.0127 -1.09425,-0.59689 c 0.50976,-1.5527 4.85546,-4.2566 11.72856,-6.66671 1.01248,-0.35103 2.70418,-1.14951 3.94307,-1.73427 l 0.89294,-0.42236 c 6.79669,-3.157 17.58777,-9.727 25.18999,-16.7126 l 0.1249,-0.11419 0.057,-0.15141 c 0.56701,-1.4901 1.41539,-2.69685 2.23361,-3.86102 0.62734,-0.89294 1.13711,-1.62206 1.57751,-2.43831 l 0.0499,-0.0944 0.0248,-0.11419 c 1.76106,-10.96053 -6.10507,-17.3811 -11.92113,-24.53051 -3.44036,-4.23178 -6.99265,-8.59525 -8.98547,-13.94102 l -0.62396,-1.66661 -0.77902,1.60966 c -1.93052,3.95547 -3.79844,8.09958 -5.44559,11.75901 -5.51494,12.21182 -10.88553,23.60035 -19.40578,33.69981 -0.69163,0.80384 -1.6043,1.3511 -2.24432,2.11237 -1.15656,1.3652 -2.55419,0.66117 -3.10146,2.25109 l -0.44548,0.50976 -0.16409,0.12491 c -4.1816,3.3084 -6.57029,5.76108 -10.47558,6.45271 -2.76649,0.48298 -9.58997,1.0497 -9.58997,1.0497 -1.33841,-0.67922 -1.14415,-1.2888 -3.89824,-2.10673 -0.71643,-0.20696 -2.20654,-1.04999 -2.20654,-1.04999 -4.41534,3.51508 -8.88594,4.50247 -16.1298,4.50247 -4.70942,0 -8.73426,-1.19406 -11.65216,-3.46517 -9.56487,-7.43813 -10.96758,-24.54292 -8.22448,-37.28255 1.94827,-9.07992 7.28164,-20.03509 11.16748,-28.02584 l 0.48467,-1.00713 c 0.28167,-0.58476 0.51512,-1.14979 0.74689,-1.69706 0.34595,-0.87517 0.66653,-1.6291 1.08917,-2.37768 0.35836,-0.61691 0.83598,-1.15684 1.28146,-1.6793 0.46522,-0.52217 0.93777,-1.06239 1.23889,-1.65392 l 0.057,-0.0998 0.0127,-0.10714 0.0124,-0.59181 0.30845,-1.58992 c 1.69142,-2.7789 6.25112,-7.91772 7.94254,-8.67701 0.90562,-0.40996 1.86115,-0.61691 2.8288,-0.61691 1.16953,0 2.16933,0.28872 2.9805,0.52245 l 0.1765,0.0499 0.21372,0.0623 0.139,0.15141 c 0.73448,0.77903 0.87348,2.00523 0.99303,3.07494 0.0694,0.60958 0.12659,1.13175 0.25826,1.57216 l 0.1125,0.40262 -0.32086,0.28167 c -4.32624,3.78067 -7.43841,10.2066 -7.75391,15.98545 l -0.0124,0.32621 -0.29408,0.20132 c -1.9948,1.35307 -3.51507,4.20669 -3.79843,4.76636 l -0.214,0.40996 0.32622,0.34595 c 0.46521,0.50807 1.01248,1.32601 0.2904,2.63454 -1.5042,2.68445 -4.08179,9.62014 -5.37058,15.26704 -3.96253,17.29369 -1.97506,27.94577 6.0749,32.56073 l 0.58984,0.34031 0.41531,-0.50976 c 5.18873,-6.46512 8.7038,-11.61466 11.61465,-20.0351 1.17658,-3.40116 4.57746,-12.63785 5.34578,-14.01574 0.45281,-0.80581 0.31916,-5.03732 0.46521,-5.7859 0.68458,-3.57033 3.72908,-9.45097 5.37595,-13.17976 1.11229,-2.51527 1.54001,-1.7416 2.27618,-3.96788 0.74153,-2.20683 1.16417,-3.6397 1.5527,-5.99793 0.63636,-3.86807 3.41526,-6.27621 5.7859,-9.91083 l 0.15141,-0.2264 0.26926,-0.0818 c 1.44725,-0.43336 0.72376,0.90534 1.30825,-0.62226 0.79143,-2.11406 3.1694,-4.20134 5.45263,-5.46504 l 0.80384,-0.37077 0.18919,-0.075 0.20667,0.0251 c 2.69149,0.38853 2.83585,2.45804 2.76818,4.72887 -0.0268,0.80384 -1.48474,2.58999 -1.32798,3.20662 0.47762,1.9556 -0.77903,3.91093 -0.80384,6.0498 l -0.007,0.2515 c -0.0127,1.05506 -0.0251,2.14959 -0.1249,3.25652 -0.49201,6.29398 -2.00692,9.50257 -3.47758,16.26712 -0.42236,1.98211 -0.85036,3.94279 -1.23888,5.8733 -0.58477,2.8429 -2.08728,7.137 -2.93031,9.791 -0.81822,2.55982 -2.42083,8.17458 -2.5525,8.79656 -0.18919,0.81286 -2.85023,6.33317 -3.01263,6.92498 -0.66118,2.40813 -1.74838,4.65951 -2.80541,6.83419 -0.45281,0.93748 -0.88589,1.83578 -1.28174,2.72364 l -1.86257,2.20654 2.55419,-0.38317 1.50787,-0.15677 0.27095,-0.0445 c 0.76663,-0.1266 2.15692,-0.48496 3.44036,-1.3012 0.89829,-0.57941 2.11942,-1.3903 2.94271,-1.78616 l 0.14464,-0.082 0.0998,-0.1139 c 12.25638,-14.75192 18.28644,-28.02613 26.45567,-45.6263 5.50254,-11.85911 7.65917,-17.56296 14.85144,-29.12066 l 0.18919,-0.29576 0.3654,-0.0445 c 0.70403,-0.0944 1.39566,-0.2016 2.06754,-0.30141 1.59189,-0.25121 3.09441,-0.49003 4.61666,-0.49003 1.6026,0 2.99994,0.27632 4.26365,0.84839 l 0.4779,0.21936 -0.0499,0.48467 c -0.54191,4.97501 -0.54191,5.77885 -1.9948,9.23161 -0.89294,2.11209 0.214,0.46522 -0.52217,2.9554 l -0.0677,0.24587 0.11221,0.23176 c 1.17658,2.41518 0.38317,4.80386 -0.38317,7.11755 -0.52245,1.5792 -1.00712,3.04449 -0.87348,4.44015 0.12491,1.15684 2.84855,5.81071 6.29933,10.31881 1.27808,1.66125 2.58464,3.13162 3.85539,4.55941 2.868,3.24412 7.92336,5.93054 9.84119,10.53817 l 0.0499,0.13196 0.10179,0.1015 c 0.58448,0.57236 1.1371,1.06943 1.98013,1.27103 l 0.32086,0.0801 0.14972,0.28336 c 1.42243,2.59197 1.9181,4.71646 2.54713,7.40091 0.22641,0.93777 0.47255,1.98211 0.78072,3.157 1.70947,6.45778 0.9733,13.77129 -1.87497,18.63944 -3.67747,6.26183 -8.87156,10.43103 -16.69483,13.62524 l -0.71136,0.29069 c -2.2243,0.91775 -4.62003,3.19957 -8.11029,3.81619 -4.37051,0.76634 -8.43285,3.42767 -10.35096,3.42767 -0.66117,0 -1.50956,0.42067 -2.33313,0.87348 l -0.14436,0.082 c -3.13726,1.07479 -1.16925,1.15684 -6.04276,1.15684 l -4.31355,-1.23353 0,0 z"
         id="path2395"
         style="fill:#ffffff"
         inkscape:connector-curvature="0" />
      <path
         d="m 418.17573,406.46516 -8.23154,26.51797 c -1.08212,3.2444 -1.35843,6.41352 -2.07487,9.64524 l -0.18355,0 c -0.81653,-3.16207 -1.26934,-6.32612 -2.44563,-9.49524 l -8.13709,-26.66797 -44.48919,0 0,10.31176 10.58272,0 0,45.23242 13.47552,0 0,-45.23242 9.62183,0 16.05312,45.23242 11.03017,0 18.90137,-55.54418 -14.10286,0 0,0 z"
         id="path2397"
         style="fill:#ffffff;fill-rule:nonzero"
         inkscape:connector-curvature="0" />
      <path
         d="m 168.60193,464.17471 -0.19596,-0.0623 c -6.18711,-1.90542 -7.37581,-8.9928 -8.13003,-16.71992 -2.56659,-26.30933 -0.69867,-50.41212 5.11768,-66.12126 l 0.11926,-0.33326 0.36005,-0.0998 c 0.62762,-0.18891 1.1997,-0.28336 1.75401,-0.28336 1.23889,0 2.14987,0.46522 3.03745,0.91239 l 0.84134,0.41362 0.55967,0.24614 -0.14971,0.55967 -0.14436,0.50272 c -0.86812,3.06931 -2.49018,8.78388 1.07479,9.72869 l 0.54727,0.14436 0,0.52753 c 0.005,1.20674 0.10686,2.34582 0.20667,3.45812 0.14436,1.64179 0.30309,3.34562 0.15169,5.31363 l 0.0499,0.007 1.1763,0.49736 0.2264,0.78607 c 0.40827,2.72195 0.27632,5.3314 0.15677,7.85372 -0.12631,2.52036 -0.24586,4.89832 0.19454,7.14941 l 0.65413,1.59725 c 0.34031,0.65948 0.69162,1.34575 0.79848,2.13718 0.37077,2.62919 0.082,5.26373 -0.19426,7.81622 -0.32086,2.95541 -0.64708,5.98722 0.0178,9.08162 1.82535,-3.65408 3.4474,-8.3009 4.11929,-11.89801 l 0.0197,-0.0874 0.0426,-0.082 c 2.27647,-4.52727 4.3832,-9.24373 6.62217,-14.2365 7.86077,-17.53787 15.98516,-35.6729 31.68724,-46.81726 l 0.20132,-0.14436 0.25685,0 2.89817,0 1.08212,0 -0.37076,0.93777 c -0.66681,1.72356 -0.0375,2.55249 0.83598,3.69693 l 0.54163,0.72348 0.18918,0.27631 -0.10178,0.3155 c -1.33334,3.96084 -3.57738,7.1246 -5.74671,10.17446 -2.07487,2.92326 -4.22615,5.9483 -5.50254,9.64495 -1.01248,2.03765 -2.03201,3.95548 -3.0569,5.8733 -1.77882,3.3459 -3.60952,6.79866 -5.18704,10.38845 0.28336,1.00008 0.0945,2.99995 -0.58476,4.11225 -0.48467,0.79312 -1.11399,1.03193 -1.59697,1.07479 0.0375,3.71103 -2.13182,7.351 -4.07474,10.58976 l -0.78608,1.33335 c -1.55974,3.76629 -2.87335,7.87317 -4.13733,11.84641 -2.6915,8.44526 -5.47745,17.17415 -11.17425,23.53072 l -1.49011,0.57207 -0.6544,-0.0874 -0.16382,0.2515 c -0.49736,0.73589 -1.00543,1.49715 -1.81096,2.06218 l -0.15705,0.10686 -0.20131,0.0321 c -2.32609,0.27096 -4.07474,0.30141 -5.6094,0.33862 -1.55975,0.0251 -2.78623,0.0519 -4.11957,0.31551 l -0.19962,0.0428 0,0 z"
         id="path2399"
         style="fill:#ffffff"
         inkscape:connector-curvature="0" />
      <path
         d="m 113.0352,379.84456 c -9.8536,-0.082 -18.544991,10.11749 -24.644701,22.97104 10.445407,-5.30123 19.607381,-13.23136 24.644701,-22.97104 l 0,0 z m 15.28649,88.93355 -1.08889,-0.72348 c -1.7168,-1.15684 -3.96789,-1.93587 -6.14257,-2.6915 l -1.66125,-0.58476 -0.34595,-0.12491 -0.0998,-0.32086 c -2.54714,-7.56472 -2.27619,-17.85872 -0.88053,-25.22917 -2.13183,2.12646 -5.74671,9.08697 -7.94085,11.62705 -7.97496,9.23162 -17.017379,19.69479 -31.888839,19.69479 -1.679013,0 -3.420619,-0.13731 -5.174349,-0.40094 -4.490338,-0.68626 -7.074693,-3.37804 -9.540064,-6.30835 -2.124777,-2.53304 -3.363384,-7.01041 -3.786027,-10.08536 -1.520275,-11.28843 1.748655,-26.75142 4.30848,-32.39663 -1.698749,-0.18891 -3.388759,-0.62396 -4.388554,-1.84311 -0.855718,-1.01953 -1.076767,-2.42054 -0.691623,-4.26901 l 0.08007,-0.39754 0.422644,-0.13196 c 1.383247,-0.42772 2.728995,-0.94284 4.037244,-1.43315 1.721869,-0.66117 3.502666,-1.33334 5.445584,-1.84847 6.381096,-13.43266 13.147617,-26.48583 24.120552,-35.39122 2.967807,-2.40814 10.828582,-5.75911 18.865852,-5.75911 2.62213,0 5.26175,0.42771 7.85908,1.2761 2.40813,1.25863 4.07474,3.45276 4.69136,6.06757 0.66682,2.82345 0.007,5.77885 -1.79122,8.09986 -8.64178,16.64465 -21.30613,23.71934 -41.314724,31.51075 l -0.753935,1.58456 c -4.835727,10.14231 -13.117166,31.35229 -2.144231,40.21285 8.047985,-0.45281 13.003258,-3.20126 19.147516,-10.67181 1.848465,-2.24404 4.490054,-5.21185 6.363334,-7.94084 0.51512,-0.74858 1.03758,-1.50251 1.55975,-2.24602 7.04255,-10.0924 15.62511,-25.93151 21.4237,-36.38228 2.42759,-4.3956 4.36346,-8.06208 6.87338,-13.07459 l 0.0372,-0.0747 0.0499,-0.0572 c 7.40091,-8.85352 18.60025,-22.22218 36.40907,-24.1152 1.28879,-0.13731 2.64723,-0.20667 4.03019,-0.20667 3.56695,0 6.85562,0.44548 9.60238,0.88053 l 0.30309,0.0499 0.17453,0.22641 c 0.88786,1.0996 2.32102,1.95532 3.70398,2.7789 2.44028,1.44725 5.20142,3.08707 5.15151,6.37573 l -0.0197,0.82555 -0.87319,-0.14633 c -1.73625,-0.28872 -3.13191,-0.9482 -4.47765,-1.58992 -1.54735,-0.73617 -3.00531,-1.42779 -4.79851,-1.42779 l -0.33863,0.007 c -1.18898,0.0553 -2.27618,0.53317 -3.43499,1.03757 -0.81625,0.35808 -1.66464,0.72885 -2.57731,0.95525 l -1.6542,0.39586 c -3.42062,0.82358 -6.65233,1.59697 -9.77155,3.23171 -1.11934,0.59153 -2.15692,1.3153 -3.14966,2.02469 -1.53466,1.07676 -2.98755,2.0946 -4.72887,2.66132 -1.28344,1.65956 -2.78087,3.27626 -4.23884,4.83404 -2.48313,2.67373 -5.05508,5.43318 -6.79669,8.65953 -3.67381,6.77865 -5.47744,15.32399 -7.21369,23.58034 -0.56503,2.69149 -1.1498,5.47773 -1.79856,8.16217 l -0.1765,0.76803 -0.80384,-0.25826 -0.97499,-0.54022 c -1.44556,6.0749 -2.08727,13.10476 -2.70418,19.92655 -0.48467,5.31363 -0.97498,10.79812 -1.85551,15.67163 l -0.0124,0.0747 -0.0305,0.075 c -0.3155,0.72885 -0.78608,1.27075 -1.23861,1.79321 -0.62226,0.70938 -1.15148,1.33334 -1.24594,2.36359 l -0.11249,1.2386 0,0 z"
         id="path2401"
         style="fill:#ffffff"
         inkscape:connector-curvature="0" />
      <path
         d="m -20.522043,499.53972 c -7.060313,1.20872 -24.460866,4.67924 -40.784932,2.58463 -15.714491,-2.02468 -44.426885,-9.38104 -53.644115,-22.05808 -4.13875,-5.6844 -10.52717,-13.80907 -12.86059,-23.2169 -0.25658,-6.86634 -2.75916,-17.68758 -0.61493,-23.79998 3.96788,-22.14182 20.07795,-37.67981 37.842215,-47.61545 3.105117,-2.9929 6.746785,-4.3708 11.997824,-5.50254 6.570284,-1.41342 12.695087,-5.70216 22.461275,-4.76637 -0.377813,1.97506 -0.484954,4.18893 -0.390501,6.60412 -8.577205,1.77882 -15.6003,5.02294 -21.291746,9.53809 -5.206491,3.01235 -14.110194,11.77142 -17.204597,15.74635 -3.087072,3.96788 -7.41331,11.36174 -9.01028,14.17279 -2.96273,5.31335 -3.37071,9.15661 -4.87351,19.45033 -0.0375,1.42779 1.35844,10.68252 3.59007,14.46319 8.432849,18.78916 21.625014,29.64819 44.137886,33.38938 3.532835,-0.53457 4.677271,1.18899 8.124675,0.72913 -4.245887,-2.66471 -8.226177,-3.6896 -11.823297,-6.89115 -8.154843,-7.2636 -15.946253,-22.75168 -16.430925,-35.6602 -1.082125,-28.35939 16.298973,-49.36242 37.170049,-55.76354 0.201595,1.28175 1.049982,7.62732 1.654202,8.52561 -1.716513,0.81822 -1.276389,4.64175 -3.11414,5.34578 0.574051,4.51515 -7.022813,5.41344 -6.199237,10.16204 -5.318989,6.9481 -7.759268,9.84627 -11.097839,18.66256 0.112216,0.96258 -1.101579,3.91065 -1.843108,4.05698 0.609576,5.80902 -0.88053,12.02828 1.226201,16.83186 5.062414,20.77691 26.963737,31.73208 57.9700746,23.53072 C 6.7571961,474.80959 17.372055,469.28224 26.803005,460.10758 31.658468,455.37871 38.015033,448.97591 40.153907,441.7016 43.76879,429.37051 31.268249,414.98231 24.986682,408.34238 17.019053,399.93435 5.4043994,392.91689 -5.4422222,385.25744 -19.880324,375.05281 -33.903114,364.381 -32.619677,340.00895 c 0.288717,-5.4329 4.552367,-13.97288 6.980239,-17.75186 7.557673,-11.74125 18.404295,-17.53251 32.6159913,-23.96548 5.7608047,-2.6024 12.2617297,-4.34372 19.1348277,-5.6593 5.914468,-1.13203 14.268932,-2.1854 20.675121,-2.26209 l 1.39227,0 c 5.87866,0.0696 11.88025,1.34039 16.165329,2.54009 8.771468,4.91072 10.848313,4.48836 9.62183,17.09041 -3.370714,9.48282 -8.992518,15.68234 -18.368487,20.66976 -5.696803,3.0304 -9.381327,4.67191 -15.694754,6.53278 -3.037449,0.89322 -6.206569,2.54742 -9.955378,3.2585 -5.596992,1.06775 -7.067362,0.62734 -15.751708,0.39558 -1.169247,-0.76803 -0.534859,-2.76621 -0.534859,-2.76621 l -6.1050661,-3.78067 1.911058,-3.88584 c 5.0122271,0.29577 8.9231581,0.53458 18.9656571,-2.45804 8.955018,-2.66669 14.500414,-5.38328 22.184683,-11.07472 4.527555,-3.35098 6.477522,-1.60965 5.691445,-6.44369 -0.974984,-5.93731 -6.44538,-5.95535 -13.231356,-6.17612 -10.595122,-0.35131 -16.995954,1.61671 -23.120475,4.20106 -6.126494,2.58999 -12.7590888,4.31384 -16.8160692,7.85372 -1.8608709,0.29605 -3.75388407,2.44028 -6.0675668,2.30128 -1.7165124,2.11942 -2.9929007,4.3457 -6.0675669,5.17632 -1.0124831,4.1176 -4.0693861,7.57008 -6.0695401,10.34898 -2.099683,2.91818 0.07669,7.7291 1.144435,14.8286 1.069437,7.09979 7.0944294,12.24228 11.9107016,17.70732 8.3008938,5.28854 14.4310534,11.09248 22.4361814,17.01569 2.452684,1.81096 5.218897,3.27598 7.652127,5.08187 4.559697,3.36338 8.055033,8.75201 11.865871,13.05316 2.641873,2.98021 6.044447,6.13693 8.030222,11.33834 0.559671,1.44556 1.968012,3.7787 2.333419,4.87323 1.848183,5.48308 3.156714,14.35605 3.037167,21.02079 -0.445481,25.58782 -27.304051,43.99916 -41.086337,50.19304 -6.7538336,3.04281 -25.714134,9.06047 -32.781778,10.27427 l 0,0 z"
         id="path2403"
         style="fill:#bd141d;fill-opacity:1"
         inkscape:connector-curvature="0" />
      <path
         d="m -49.776061,382.70015 c -2.723638,-1.57216 -6.77357,-1.00713 -6.77357,-1.00713 -8.577205,1.77347 -15.6003,5.01759 -21.291746,9.53978 -5.206773,3.00531 -14.104837,11.76466 -17.197548,15.73959 -3.094403,3.9676 -7.420365,11.36315 -9.012255,14.1742 -2.96781,5.31194 -3.37579,9.15492 -4.87858,19.45399 -0.0375,1.4278 1.35815,10.67886 3.59712,14.4632 8.425795,18.78915 21.61796,29.64987 44.136189,33.39135 3.527478,-0.53486 4.678963,1.18165 8.124393,0.72912 -4.251244,-2.66668 -8.231534,-3.69157 -11.821323,-6.89819 -8.161892,-7.26191 -15.947945,-22.74999 -16.437974,-35.66049 -1.082125,-28.35939 16.298973,-49.36242 37.170049,-55.76353 0,0 -2.885759,-6.59679 -5.614755,-8.16189 l 0,0 z"
         id="path2405"
         style="fill:#eceded"
         inkscape:connector-curvature="0" />
    </g>
  </g>
  <rect
     style="fill:#000000;fill-opacity:1;stroke:none"
     id="rect3004"
     width="126.28543"
     height="65.060974"
     x="519.21991"
     y="244.04184" />
  <g
     transform="matrix(1.0163754,0,-0.12700434,0.98388844,0,0)"
     style="font-size:70.56472015px;font-style:normal;font-weight:normal;line-height:125%;letter-spacing:0px;word-spacing:0px;fill:#ffffff;fill-opacity:1;stroke:none;font-family:Sans"
     id="text3006">
    <path
       d="m 606.94438,304.74075 -12.23168,0 0,-19.57068 -17.64118,0 0,19.57068 -12.23167,0 0,-47.03166 12.23167,0 0,18.15801 17.64118,0 0,-18.15801 12.23168,0 z"
       style="font-variant:normal;font-weight:bold;font-stretch:normal;fill:#ffffff;font-family:Aharoni;-inkscape-font-specification:Aharoni Bold"
       id="path2995" />
    <path
       d="m 658.04179,281.20769 c -5e-5,4.89269 -1.47589,9.42358 -4.42753,13.59267 -2.95172,4.16911 -6.72458,7.05763 -11.31861,8.66554 -2.43487,0.8499 -4.91566,1.27485 -7.44237,1.27485 l -18.05464,0 0,-47.03166 18.05464,0 c 4.41027,5e-5 8.49898,1.22896 12.26613,3.68673 3.69818,2.38895 6.53501,5.58182 8.5105,9.57861 1.60787,3.30775 2.41183,6.71884 2.41188,10.23326 z m -12.71406,0 c -3e-5,-3.23878 -0.90736,-6.06412 -2.72198,-8.47603 -2.41191,-3.19284 -6.00675,-4.78927 -10.78455,-4.78931 l -2.79089,0 0,26.56514 2.79089,0 c 4.80077,10e-6 8.39561,-1.59642 10.78455,-4.7893 1.81462,-2.43484 2.72195,-5.27166 2.72198,-8.5105 z"
       style="font-variant:normal;font-weight:bold;font-stretch:normal;fill:#ffffff;font-family:Aharoni;-inkscape-font-specification:Aharoni Bold"
       id="path2997" />
  </g>
  <path
     style="fill:#ffffff;stroke-width:0"
     d="m 279.5876,180.50443 c -4.37133,-1.6287 -6.63931,-3.68701 -9.07913,-8.23979 -1.67932,-3.13366 -1.93443,-5.06744 -1.90866,-14.46842 0.0279,-10.17566 0.31785,-12.05252 3.66722,-23.73725 0.47156,-1.64511 0.22288,-2.03463 -1.29899,-2.03463 -1.76196,0 -3.75438,-2.34339 -3.75438,-4.41572 0,-0.50463 2.24744,-1.62596 4.99432,-2.49184 4.98186,-1.57039 5.00519,-1.59497 9.34936,-9.8468 11.88368,-22.573311 21.44944,-31.34933 35.61191,-32.671842 3.4593,-0.323035 7.08862,-0.126123 8.94058,0.485078 3.38307,1.116517 6.21847,4.952119 6.20083,8.388216 -0.025,4.869148 -8.96265,17.235838 -16.71822,23.132388 -5.14673,3.91305 -22.2418,12.85835 -24.6263,12.88614 -0.61331,0.007 -2.08272,1.94589 -3.26536,4.30831 -6.74687,13.47745 -8.59805,28.90594 -4.2982,35.82291 2.10137,3.38036 2.30173,3.47734 6.10676,2.9558 12.74813,-1.74732 23.58401,-15.2084 45.97718,-57.11601 6.48758,-12.14117 8.07416,-14.380094 15.3727,-21.693446 5.91255,-5.924558 9.7461,-8.930972 14.01628,-10.99209 11.70141,-5.648006 23.17441,-6.097013 30.31191,-1.186284 7.36757,5.069024 7.70205,7.486608 0.68676,4.963948 -4.35016,-1.564298 -4.36872,-1.562595 -13.38212,1.228624 -10.32222,3.196523 -16.41119,6.941162 -22.53422,13.85828 -6.08762,6.877108 -8.31045,11.806678 -11.74989,26.057758 -1.67255,6.9301 -3.69313,13.25231 -4.49018,14.04936 -0.79704,0.79704 -1.45802,1.92876 -1.46884,2.51492 -0.0108,0.58617 -0.79183,8.04941 -1.73558,16.58498 -1.15793,10.47263 -2.20052,16.25881 -3.20616,17.7936 -1.48991,2.2739 -1.4911,2.27407 -5.51825,0.7815 -3.50378,-1.29859 -4.15543,-1.96608 -5.00704,-5.12872 -0.53847,-1.99972 -0.82578,-7.77581 -0.63848,-12.83576 0.18731,-5.05996 0.0142,-8.99823 -0.38464,-8.75172 -0.39887,0.24651 -2.52064,3.1735 -4.71507,6.50442 -5.41596,8.22092 -16.26997,18.58768 -22.39928,21.39378 -6.17611,2.82751 -14.37417,3.64502 -19.05682,1.90031 z m 22.91345,-68.89528 c 5.96518,-3.8949 12.74863,-10.31741 16.33583,-15.466649 3.20656,-4.602832 3.22109,-4.810592 0.33664,-4.810592 -5.67089,0 -14.02355,7.033745 -19.80288,16.675911 -4.82673,8.05288 -4.41418,8.52749 3.13041,3.60133 z"
     id="path75" />
  <path
     style="fill:#ffffff;stroke-width:0"
     d="m 373.68409,173.14026 c -3.18759,-3.18759 -4.04289,-6.55799 -5.28575,-20.82905 -1.61066,-18.49436 0.25714,-42.63648 4.24109,-54.817938 1.47798,-4.519107 2.62712,-5.481148 5.05698,-4.233604 1.24461,0.639013 1.42546,1.670401 1.00583,5.736206 -0.41968,4.066356 -0.2455,5.059226 0.96931,5.525396 1.1184,0.42916 1.48092,1.7621 1.48092,5.44505 0,2.68223 0.379,4.87677 0.84223,4.87677 0.86248,0 1.78433,10.94239 2.20926,26.22402 0.13138,4.72484 0.32477,8.99755 0.42975,9.4949 0.29735,1.40875 1.88311,-1.77563 4.18566,-8.40527 2.96325,-8.53195 14.31853,-32.756 19.26692,-41.1018 5.08376,-8.574123 11.09755,-15.974122 16.37264,-20.14663 4.6966,-3.714934 6.42874,-3.966378 6.42874,-0.933223 0,1.214028 0.40543,2.457894 0.90096,2.764148 1.03391,0.638991 -0.65603,4.280757 -4.7902,10.322721 -4.2854,6.262986 -14.19629,26.275634 -14.19629,28.665984 0,1.18686 -0.40692,2.15792 -0.90427,2.15792 -0.49735,0 -0.90553,0.71211 -0.90706,1.58248 -0.002,0.87037 -1.40334,4.36303 -3.11511,7.76147 -1.71178,3.39845 -4.7664,11.13001 -6.78805,17.18125 -3.93217,11.76987 -8.21243,20.22793 -10.71053,21.16467 -0.84606,0.31726 -1.94522,1.08921 -2.44258,1.71545 -0.49735,0.62623 -3.35048,1.40515 -6.34029,1.73092 -5.09653,0.55531 -5.59054,0.43778 -7.91016,-1.88184 z"
     id="path114" />
  <path
     style="fill:#ffffff;stroke-width:0"
     d="m 491.47418,183.43298 c 0,-0.70773 10.9612,-6.19482 12.37496,-6.19482 1.33283,0 16.45423,-8.90618 21.69586,-12.7784 2.67544,-1.97646 6.29226,-5.50509 8.03738,-7.84138 2.81749,-3.77194 3.13657,-4.75435 2.84823,-8.7692 -0.44182,-6.15166 -2.21234,-9.47325 -10.12218,-18.9898 -3.72044,-4.47617 -7.97095,-10.37657 -9.44558,-13.11201 l -2.68114,-4.97352 -2.6722,5.8778 c -14.92035,32.81892 -19.89148,40.1866 -34.0705,50.49565 -1.50244,1.09238 -5.19818,2.38335 -8.21275,2.86883 -4.68853,0.75507 -5.9821,0.63897 -8.94649,-0.80293 -3.40907,-1.6582 -3.51599,-1.65582 -6.57015,0.14618 -2.05813,1.21433 -5.31934,1.97394 -9.67458,2.25344 -11.27081,0.72332 -16.52415,-2.22592 -20.91933,-11.74418 -2.45114,-5.30821 -2.62392,-6.41678 -2.57795,-16.54084 0.0421,-9.28108 0.39077,-11.83272 2.40933,-17.63339 2.89899,-8.33075 11.86891,-27.559306 13.25606,-28.416608 0.55795,-0.344834 1.01445,-1.418153 1.01445,-2.385155 0,-2.321885 8.22367,-10.798802 10.45901,-10.781101 4.0579,0.03213 5.83442,4.316526 2.87888,6.942916 -2.16314,1.922237 -6.08215,9.912788 -6.09484,12.426898 -0.005,0.96265 -0.89178,2.69012 -1.97094,3.83883 -1.07915,1.14871 -2.06933,3.41302 -2.2004,5.0318 -0.13106,1.61878 -1.55238,6.60556 -3.15848,11.08173 -2.48285,6.91962 -2.97748,9.69592 -3.30273,18.53766 -0.35535,9.66017 -0.22745,10.68836 1.79985,14.46842 1.20031,2.23809 3.25628,4.67416 4.56882,5.4135 2.73273,1.53932 2.75403,1.52153 8.42093,-7.03116 3.72126,-5.61625 12.11109,-27.19889 12.11109,-31.15548 0,-1.50509 1.79319,-6.52198 3.98486,-11.14865 2.19168,-4.62667 4.27531,-9.7603 4.63029,-11.40808 0.35499,-1.64777 1.18847,-4.059327 1.85219,-5.35901 1.76203,-3.450373 10.76516,-12.557498 12.41411,-12.557498 1.84005,0 2.78997,3.078881 1.62278,5.25978 -0.50363,0.941045 -1.17396,4.517004 -1.48962,7.946576 -1.50623,16.364722 -12.98129,54.855382 -18.19031,61.015502 -0.66396,0.78519 -1.2072,1.67519 -1.2072,1.97777 0,1.04097 6.78583,-0.47678 9.55477,-2.13706 3.12171,-1.8718 11.04492,-12.54863 16.37553,-22.06668 2.98756,-5.33443 14.49857,-29.05331 17.77359,-36.62319 0.53793,-1.24338 2.95481,-5.821279 5.37084,-10.173109 4.24852,-7.652566 4.50225,-7.915838 7.72622,-8.016549 4.00012,-0.124958 6.79987,0.13504 7.36674,0.684109 0.22891,0.221726 -0.3103,3.223303 -1.19823,6.670172 -0.88793,3.446868 -1.35261,6.690662 -1.0326,7.208432 0.31999,0.517769 0.0864,3.155168 -0.51912,5.860885 -1.08372,4.84255 -1.05287,4.99972 1.97282,10.05019 1.69056,2.82189 6.26693,8.43528 10.1697,12.4742 3.90277,4.03891 7.83799,8.15733 8.74493,9.15203 2.40914,2.64225 4.80851,11.82176 4.76833,18.24269 -0.0834,13.32063 -9.34029,21.72988 -33.35437,30.30002 -6.91195,2.46674 -9.3667,2.88937 -17.32202,2.9823 -5.09786,0.0595 -9.26884,-0.19628 -9.26884,-0.56851 z"
     id="path153" />
  <path
     style="fill:#ffffff;stroke-width:0"
     d="m 571.95478,151.01415 v -22.60691 h -5.42566 -5.42566 v -4.9896 -4.98959 l 21.9091,0.24214 21.9091,0.24215 4.87168,16.27697 c 6.32304,21.12618 6.10635,20.58602 6.89224,17.18125 0.3444,-1.49205 2.72349,-9.73227 5.28689,-18.31159 l 4.66071,-15.59877 h 6.54689 6.5469 l -9.29766,27.35436 -9.29767,27.35436 -5.03754,0.26794 -5.03753,0.26795 -3.78292,-10.66713 c -2.0806,-5.86691 -5.69022,-16.05692 -8.02137,-22.64445 l -4.23846,-11.97733 -5.19958,-0.004 -5.19959,-0.004 v 22.60691 22.60691 h -6.32994 -6.32993 z"
     id="path192" />
  <path
     style="fill:#ffffff;stroke-width:0"
     d="m 0.45213816,285.808 c 0,-0.58079 2.74673934,-2.33213 6.10386524,-3.89188 3.3571259,-1.55974 8.0039336,-3.99462 10.3262386,-5.41083 5.936052,-3.61998 17.709418,-7.41417 34.620858,-11.15722 16.53304,-3.65929 30.43152,-7.46683 52.48868,-14.37945 24.47664,-7.67088 84.30709,-22.29559 114.39095,-27.96126 37.06226,-6.9799 105.53496,-16.71358 136.99787,-19.47482 41.96637,-3.68304 50.28796,-4.11657 78.2199,-4.07508 29.80435,0.0443 44.2313,0.92486 72.79424,4.44321 9.44969,1.164 20.64011,2.39335 24.8676,2.73188 17.39143,1.39266 41.15418,6.55705 60.58652,13.16734 13.26163,4.51121 37.95262,14.30045 36.17105,14.34075 -0.74603,0.0169 -5.20859,-0.95817 -9.9168,-2.16677 -4.70821,-1.2086 -8.73861,-2.01922 -8.95644,-1.80139 -0.21783,0.21782 1.39626,1.17777 3.58686,2.13321 11.77631,5.13627 11.36764,4.89938 9.12973,5.2922 -1.79122,0.31442 -1.91953,0.57061 -0.90427,1.80552 1.49114,1.81377 2.28898,1.98337 -26.84944,-5.7075 -29.66991,-7.83115 -32.53255,-8.46183 -38.57827,-8.49934 -2.81602,-0.0175 -8.3095,-0.64791 -12.20773,-1.40099 -3.89822,-0.75307 -12.98809,-1.77051 -20.19969,-2.26099 -7.21161,-0.49047 -18.40203,-1.32781 -24.8676,-1.86076 -15.30925,-1.2619 -46.83317,-1.12243 -51.54375,0.22805 -1.98941,0.57034 -5.75629,0.98166 -8.37084,0.91403 -2.61456,-0.0676 -5.79342,0.27234 -7.06416,0.75548 -1.53617,0.58405 -3.61706,0.5494 -6.20954,-0.10339 -2.89251,-0.72834 -6.43818,-0.68232 -13.7342,0.17828 -10.04697,1.1851 -12.21669,1.25022 -34.25054,1.02805 -6.96293,-0.0702 -15.7118,0.01 -19.44194,0.17752 -3.73014,0.16784 -14.92056,0.58504 -24.8676,0.92711 -17.87098,0.61457 -26.19088,1.22629 -42.95313,3.15815 -4.72484,0.54454 -14.0841,1.62151 -20.79835,2.39327 -6.71425,0.77176 -15.59089,2.20629 -19.72586,3.18784 -4.13497,0.98155 -14.715,2.75845 -23.51118,3.94865 -8.79619,1.1902 -23.52116,3.67079 -32.72217,5.51243 -9.20102,1.84163 -18.99888,3.43959 -21.77303,3.55101 -2.77415,0.11143 -5.90107,0.66132 -6.9487,1.222 -1.04762,0.56067 -3.16403,1.0194 -4.70314,1.0194 -4.09277,0 -31.07467,5.93304 -45.59336,10.02551 -6.90465,1.94625 -14.101067,3.53864 -15.992035,3.53864 -1.890968,0 -4.454809,0.38654 -5.69742,0.85898 -1.490229,0.56659 -2.364411,0.54365 -2.568091,-0.0674 -0.583095,-1.74928 -20.566542,4.05169 -45.477684,13.20167 -19.601453,7.1997 -43.85740184,12.99518 -43.85740184,10.47886 z"
     id="path231" />
</svg>
