<?xml version="1.0" encoding="UTF-8" standalone="no"?>
<svg
   xmlns:dc="http://purl.org/dc/elements/1.1/"
   xmlns:cc="http://creativecommons.org/ns#"
   xmlns:rdf="http://www.w3.org/1999/02/22-rdf-syntax-ns#"
   xmlns:svg="http://www.w3.org/2000/svg"
   xmlns="http://www.w3.org/2000/svg"
   viewBox="0 0 1404.0133 160"
   height="160"
   width="1404.0133"
   xml:space="preserve"
   id="svg2"
   version="1.1"><metadata
     id="metadata8"><rdf:RDF><cc:Work
         rdf:about=""><dc:format>image/svg+xml</dc:format><dc:type
           rdf:resource="http://purl.org/dc/dcmitype/StillImage" /></cc:Work></rdf:RDF></metadata><defs
     id="defs6"><clipPath
       id="clipPath18"
       clipPathUnits="userSpaceOnUse"><path
         id="path16"
         d="M 0,120 H 1053.009 V 0 H 0 Z" /></clipPath><clipPath
       id="clipPath74"
       clipPathUnits="userSpaceOnUse"><path
         id="path72"
         d="m 199.66,120 c -4.419,0 -8,-3.581 -8,-8 V 112 8 c 0,-4.419 3.581,-8 8,-8 v 0 h 382.547 c 4.418,0 8,3.581 8,8 v 0 104 c 0,4.419 -3.582,8 -8,8 v 0 z" /></clipPath><linearGradient
       id="linearGradient84"
       spreadMethod="pad"
       gradientTransform="matrix(398.54807,0,0,-398.54807,191.65912,60)"
       gradientUnits="userSpaceOnUse"
       y2="0"
       x2="1"
       y1="0"
       x1="0"><stop
         id="stop80"
         offset="0"
         style="stop-opacity:1;stop-color:#ff0031" /><stop
         id="stop82"
         offset="1"
         style="stop-opacity:1;stop-color:#9b001f" /></linearGradient><clipPath
       id="clipPath94"
       clipPathUnits="userSpaceOnUse"><path
         id="path92"
         d="M 0,120 H 1053.009 V 0 H 0 Z" /></clipPath><clipPath
       id="clipPath102"
       clipPathUnits="userSpaceOnUse"><path
         id="path100"
         d="M 191.659,120 H 590.207 V 54.2446 H 191.659 Z" /></clipPath><clipPath
       id="clipPath106"
       clipPathUnits="userSpaceOnUse"><path
         id="path104"
         d="m 197.417,60.462 c 0.006,0 0.262,0.022 0.757,0.04 23.661,0.841 386.056,13.48 386.056,13.48 3.01,0.107 5.973,2.338 5.974,6.078 l 0.003,31.94 c 0,4.418 -3.582,8 -8,8 H 199.659 c -4.418,0 -8,-3.582 -8,-8 V 54.245 c -0.006,0.633 0.188,5.686 5.758,6.217" /></clipPath><clipPath
       id="clipPath110"
       clipPathUnits="userSpaceOnUse"><path
         id="path108"
         d="M -32768,32767 H 32767 V -32768 H -32768 Z" /></clipPath><linearGradient
       id="linearGradient118"
       spreadMethod="pad"
       gradientTransform="matrix(-2.0868974,59.760922,59.760922,2.0868974,391.55679,65.336617)"
       gradientUnits="userSpaceOnUse"
       y2="0"
       x2="1"
       y1="0"
       x1="0"><stop
         id="stop112"
         offset="0"
         style="stop-opacity:1;stop-color:#ffffff" /><stop
         id="stop114"
         offset="0.5145727"
         style="stop-opacity:0.25000381;stop-color:#ffffff" /><stop
         id="stop116"
         offset="1"
         style="stop-opacity:0.25000381;stop-color:#ffffff" /></linearGradient><mask
       id="mask120"
       height="1"
       width="1"
       y="0"
       x="0"
       maskUnits="userSpaceOnUse"><g
         id="g130"><g
           id="g128"
           clip-path="url(#clipPath110)"><g
             id="g126"><g
               id="g124"><path
                 id="path122"
                 style="fill:url(#linearGradient118);stroke:none"
                 d="M -32768,32767 H 32767 V -32768 H -32768 Z" /></g></g></g></g></mask><linearGradient
       id="linearGradient138"
       spreadMethod="pad"
       gradientTransform="matrix(-2.0868974,59.760922,59.760922,2.0868974,391.55679,65.336617)"
       gradientUnits="userSpaceOnUse"
       y2="0"
       x2="1"
       y1="0"
       x1="0"><stop
         id="stop132"
         offset="0"
         style="stop-opacity:1;stop-color:#ffffff" /><stop
         id="stop134"
         offset="0.5145727"
         style="stop-opacity:1;stop-color:#ffffff" /><stop
         id="stop136"
         offset="1"
         style="stop-opacity:1;stop-color:#ffffff" /></linearGradient><clipPath
       id="clipPath168"
       clipPathUnits="userSpaceOnUse"><path
         id="path166"
         d="M 0,113.075 H 173.7 V 45.8695 H 0 Z" /></clipPath><clipPath
       id="clipPath172"
       clipPathUnits="userSpaceOnUse"><path
         id="path170"
         d="m 35.32,66.446 -12.404,2.302 c -3.965,0.691 -6.455,1.612 -6.455,3.867 0,2.116 2.628,3.866 8.945,3.866 6.225,0 11.666,-0.645 15.17,-0.645 4.565,0 9.314,1.935 9.314,10.91 0,1.196 -0.138,2.302 -0.368,3.452 -6.779,0.828 -19.136,2.071 -29.28,0.966 C 6.824,89.691 0,81.636 0,72.016 0,67.075 2.246,62.314 6.557,58.929 c 3.277,-2.148 6.601,-2.98 9.957,-3.558 2.755,-0.474 9.136,-0.901 13.876,-0.728 1.47,0.054 12.419,0.437 14.798,0.517 5.549,0.187 8.556,-4.547 8.247,-9.29 0.006,0.064 0.01,0.125 0.016,0.19 10e-4,0.018 0.003,0.037 0.005,0.055 0.051,0.614 0.077,1.239 0.077,1.874 0,8.883 -5.487,16.111 -18.213,18.457 m 36.409,46.629 c -10.881,0 -12.771,-5.801 -12.771,-11.371 V 51.546 c 0,2.016 1.553,4.149 4.145,4.239 1.806,0.064 6.911,0.242 8.424,0.295 1.66,0.058 4.226,1.186 4.262,4.279 v 52.301 c -1.293,0.277 -2.676,0.415 -4.06,0.415 m 69.738,-56.171 -20.792,33.8 c -1.384,0.416 -4.751,1.012 -7.194,1.012 -7.562,0 -11.757,-2.761 -16.138,-7.501 L 76.594,61.566 78.251,58.962 c 0.707,-0.968 2.129,-2.573 4.908,-2.476 0.986,0.035 11.01,0.384 11.828,0.414 2.594,0.092 4.237,-1.022 5.24,-2.346 l -0.003,0.004 -3.711,5.583 14.248,15.096 9.571,-15.001 h 0.001 c 1.738,-2.261 4.339,-2.3 4.894,-2.281 0.501,0.017 13.042,0.455 13.6,0.475 0.871,0.03 1.879,-0.449 2.64,-1.526 M 173.7,89.645 161.395,62.247 c -0.358,-0.741 -1.727,-3.089 -5.128,-3.208 -0.799,-0.028 -11.242,-0.393 -11.242,-0.393 -2.048,-0.071 -2.718,-2.006 -2.742,-2.04 l 0.004,0.014 10.618,25.016 c 3.689,8.837 9.499,9.712 13.832,9.621 2.491,-0.047 5.58,-0.875 6.963,-1.612" /></clipPath><clipPath
       id="clipPath176"
       clipPathUnits="userSpaceOnUse"><path
         id="path174"
         d="M -32768,32767 H 32767 V -32768 H -32768 Z" /></clipPath><linearGradient
       id="linearGradient184"
       spreadMethod="pad"
       gradientTransform="matrix(-1.4035056,40.191143,40.191143,1.4035056,87.683052,56.832901)"
       gradientUnits="userSpaceOnUse"
       y2="0"
       x2="1"
       y1="0"
       x1="0"><stop
         id="stop178"
         offset="0"
         style="stop-opacity:1;stop-color:#ffffff" /><stop
         id="stop180"
         offset="0.5145727"
         style="stop-opacity:0.25000381;stop-color:#ffffff" /><stop
         id="stop182"
         offset="1"
         style="stop-opacity:0.25000381;stop-color:#ffffff" /></linearGradient><mask
       id="mask186"
       height="1"
       width="1"
       y="0"
       x="0"
       maskUnits="userSpaceOnUse"><g
         id="g196"><g
           id="g194"
           clip-path="url(#clipPath176)"><g
             id="g192"><g
               id="g190"><path
                 id="path188"
                 style="fill:url(#linearGradient184);stroke:none"
                 d="M -32768,32767 H 32767 V -32768 H -32768 Z" /></g></g></g></g></mask><linearGradient
       id="linearGradient204"
       spreadMethod="pad"
       gradientTransform="matrix(-1.4035056,40.191143,40.191143,1.4035056,87.683052,56.832901)"
       gradientUnits="userSpaceOnUse"
       y2="0"
       x2="1"
       y1="0"
       x1="0"><stop
         id="stop198"
         offset="0"
         style="stop-opacity:1;stop-color:#ffffff" /><stop
         id="stop200"
         offset="0.5145727"
         style="stop-opacity:1;stop-color:#ffffff" /><stop
         id="stop202"
         offset="1"
         style="stop-opacity:1;stop-color:#ffffff" /></linearGradient></defs><g
     transform="matrix(1.3333333,0,0,-1.3333333,0,160)"
     id="g10"><g
       id="g12"><g
         clip-path="url(#clipPath18)"
         id="g14"><g
           transform="translate(1045.0146,0.001)"
           id="g20"><path
             id="path22"
             style="fill:#ffffff;fill-opacity:1;fill-rule:nonzero;stroke:none"
             d="m 0,0 h -465.656 c -4.415,0 -7.993,3.579 -7.993,7.994 v 104.011 c 0,4.415 3.578,7.994 7.993,7.994 H 0 c 4.415,0 7.994,-3.579 7.994,-7.994 V 7.994 C 7.994,3.579 4.415,0 0,0" /></g><g
           transform="translate(976.2461,83.0957)"
           id="g24"><path
             id="path26"
             style="fill:#b2002b;fill-opacity:1;fill-rule:nonzero;stroke:none"
             d="m 0,0 v -44.336 c 0,-1.953 -0.977,-3.027 -4.004,-3.027 -1.367,0 -2.637,0.195 -3.613,0.39 v 20.411 H -32.91 v -17.774 c 0,-1.953 -0.977,-3.027 -4.004,-3.027 -1.465,0 -2.93,0.195 -3.613,0.39 v 44.336 c 0,1.856 0.976,3.028 4.101,3.028 1.367,0 2.735,-0.196 3.516,-0.391 v -19.727 h 25.195 v 17.09 c 0,1.856 1.074,3.028 4.199,3.028 C -2.148,0.391 -0.781,0.195 0,0" /></g><g
           transform="translate(1020.415,59.6582)"
           id="g28"><path
             id="path30"
             style="fill:#b2002b;fill-opacity:1;fill-rule:nonzero;stroke:none"
             d="m 0,0 c 0,9.961 -6.25,16.406 -16.113,16.406 h -9.961 v -32.91 h 9.961 C -6.25,-16.504 0,-10.059 0,0 m 7.715,0 c 0,-13.281 -9.277,-23.34 -23.828,-23.34 h -13.574 c -2.93,0 -4.004,1.172 -4.004,3.028 v 40.527 c 0,1.855 1.074,3.027 4.004,3.027 h 13.574 C -1.562,23.242 7.715,13.281 7.715,0" /></g><g
           transform="translate(908.3975,15.2075)"
           id="g32"><path
             id="path34"
             style="fill:#b2002b;fill-opacity:1;fill-rule:nonzero;stroke:none"
             d="m 0,0 c -0.884,0 -1.601,0.716 -1.601,1.6 v 86.386 c 0,0.884 0.717,1.6 1.601,1.6 0.884,0 1.601,-0.716 1.601,-1.6 V 1.6 C 1.601,0.716 0.884,0 0,0" /></g><g
           transform="translate(644.2559,38.2686)"
           id="g36"><path
             id="path38"
             style="fill:#b2002b;fill-opacity:1;fill-rule:nonzero;stroke:none"
             d="m 0,0 c -4.102,-1.953 -8.789,-3.223 -13.477,-3.223 -9.277,0 -14.843,5.469 -14.843,14.551 V 51.66 c 0,2.051 1.172,3.418 4.297,3.418 1.367,0 2.929,-0.293 3.711,-0.488 V 44.434 h 18.261 c 0.098,-0.684 0.293,-2.051 0.293,-3.223 0,-2.832 -1.172,-3.809 -2.929,-3.809 H -20.312 V 11.914 c 0,-5.469 2.539,-8.105 7.714,-8.105 4.688,0 7.325,2.05 9.571,2.05 C -0.684,5.859 0.488,3.906 0,0" /></g><g
           transform="translate(692.6523,63.8545)"
           id="g40"><path
             id="path42"
             style="fill:#b2002b;fill-opacity:1;fill-rule:nonzero;stroke:none"
             d="m 0,0 v -25.293 c 0,-1.855 -1.074,-3.027 -4.297,-3.027 -1.367,0 -2.93,0.195 -3.711,0.39 v 26.856 c 0,9.375 -4.59,13.867 -11.523,13.867 -5.371,0 -11.231,-3.711 -13.574,-8.106 v -29.98 c 0,-1.953 -1.075,-3.027 -4.297,-3.027 -1.368,0 -2.93,0.195 -3.711,0.39 v 60.743 c 0,1.855 1.074,3.027 4.297,3.027 1.367,0 2.929,-0.195 3.711,-0.391 V 12.5 c 3.418,4.102 8.496,7.422 15.625,7.422 C -7.91,19.922 0,13.867 0,0" /></g><g
           transform="translate(733.5771,79.3818)"
           id="g44"><path
             id="path46"
             style="fill:#b2002b;fill-opacity:1;fill-rule:nonzero;stroke:none"
             d="m 0,0 c 0,-3.223 -1.367,-3.906 -4.687,-3.906 -6.739,0 -12.403,-3.125 -15.918,-10.449 V -40.82 c 0,-1.953 -1.075,-3.028 -4.297,-3.028 -1.368,0 -2.93,0.196 -3.711,0.391 V 3.516 c 0.781,0.195 2.343,0.39 3.711,0.39 3.222,0 4.297,-1.172 4.297,-3.027 V -5.664 C -16.016,1.27 -9.082,4.785 -0.391,3.613 -0.293,2.93 0,1.465 0,0" /></g><g
           transform="translate(740.5098,35.9248)"
           id="g48"><path
             id="path50"
             style="fill:#b2002b;fill-opacity:1;fill-rule:nonzero;stroke:none"
             d="m 0,0 v 44.336 c 0,1.855 1.074,3.027 4.297,3.027 1.367,0 2.832,-0.195 3.613,-0.39 V 2.637 C 7.91,0.684 6.934,-0.391 3.711,-0.391 2.344,-0.391 0.781,-0.195 0,0 m -1.074,57.617 c 0,2.93 2.344,5.078 5.078,5.078 2.93,0 5.176,-2.148 5.176,-5.078 0,-2.637 -2.246,-5.078 -5.176,-5.078 -2.734,0 -5.078,2.441 -5.078,5.078" /></g><g
           transform="translate(761.0264,35.9248)"
           id="g52"><path
             id="path54"
             style="fill:#b2002b;fill-opacity:1;fill-rule:nonzero;stroke:none"
             d="m 0,0 v 60.742 c 0,1.856 1.074,3.028 4.297,3.028 1.367,0 2.93,-0.196 3.711,-0.391 V 2.637 C 8.008,0.684 6.934,-0.391 3.711,-0.391 2.344,-0.391 0.781,-0.195 0,0" /></g><g
           transform="translate(781.5908,35.9248)"
           id="g56"><path
             id="path58"
             style="fill:#b2002b;fill-opacity:1;fill-rule:nonzero;stroke:none"
             d="m 0,0 v 60.742 c 0,1.856 1.074,3.028 4.297,3.028 1.367,0 2.93,-0.196 3.711,-0.391 V 2.637 C 8.008,0.684 6.934,-0.391 3.711,-0.391 2.344,-0.391 0.781,-0.195 0,0" /></g><g
           transform="translate(807.8398,62.7803)"
           id="g60"><path
             id="path62"
             style="fill:#b2002b;fill-opacity:1;fill-rule:nonzero;stroke:none"
             d="M 0,0 H 28.809 C 28.516,8.008 23.34,14.258 15.039,14.258 7.812,14.258 1.27,9.277 0,0 M 36.328,-6.25 H 0 c 1.074,-9.082 7.324,-14.16 16.602,-14.16 4.003,0 7.128,0.781 10.058,1.758 2.051,0.683 2.93,0.976 3.711,0.976 2.246,0 3.711,-1.855 3.32,-6.152 -4.199,-1.856 -10.644,-3.906 -17.382,-3.906 -14.649,0 -24.512,9.863 -24.512,24.511 0,14.063 10.449,24.219 23.242,24.219 14.453,0 21.582,-11.23 21.582,-22.558 0,-1.368 -0.098,-3.028 -0.293,-4.688" /></g><g
           transform="translate(883.0918,79.3818)"
           id="g64"><path
             id="path66"
             style="fill:#b2002b;fill-opacity:1;fill-rule:nonzero;stroke:none"
             d="m 0,0 c 0,-3.223 -1.367,-3.906 -4.687,-3.906 -6.739,0 -12.403,-3.125 -15.918,-10.449 V -40.82 c 0,-1.953 -1.075,-3.028 -4.297,-3.028 -1.368,0 -2.93,0.196 -3.711,0.391 V 3.516 c 0.781,0.195 2.343,0.39 3.711,0.39 3.222,0 4.297,-1.172 4.297,-3.027 V -5.664 C -16.016,1.27 -9.082,4.785 -0.391,3.613 -0.293,2.93 0,1.465 0,0" /></g></g></g><g
       id="g68"><g
         clip-path="url(#clipPath74)"
         id="g70"><g
           id="g76"><g
             id="g78"><path
               id="path86"
               style="fill:url(#linearGradient84);stroke:none"
               d="m 199.66,120 c -4.419,0 -8,-3.581 -8,-8 V 112 8 c 0,-4.419 3.581,-8 8,-8 v 0 h 382.547 c 4.418,0 8,3.581 8,8 v 0 104 c 0,4.419 -3.582,8 -8,8 v 0 z" /></g></g></g></g><g
       id="g88"><g
         clip-path="url(#clipPath94)"
         id="g90"><g
           id="g96"><g
             id="g98" /><g
             id="g156"><g
               style="opacity:0.30000299"
               id="g154"
               clip-path="url(#clipPath102)"><g
                 id="g152"><g
                   id="g150"
                   clip-path="url(#clipPath106)"><g
                     id="g148"><g
                       id="g140" /><g
                       id="g146"
                       mask="url(#mask120)"><g
                         id="g144"><path
                           id="path142"
                           style="fill:url(#linearGradient138);stroke:none"
                           d="m 197.417,60.462 c 0.006,0 0.262,0.022 0.757,0.04 23.661,0.841 386.056,13.48 386.056,13.48 3.01,0.107 5.973,2.338 5.974,6.078 l 0.003,31.94 c 0,4.418 -3.582,8 -8,8 H 199.659 c -4.418,0 -8,-3.582 -8,-8 V 54.245 c -0.006,0.633 0.188,5.686 5.758,6.217" /></g></g></g></g></g></g></g></g><g
           transform="translate(53.5337,47.9893)"
           id="g158"><path
             id="path160"
             style="fill:#ff0031;fill-opacity:1;fill-rule:nonzero;stroke:none"
             d="m 0,0 c 0,-10.31 -6.733,-17.813 -20.427,-19.288 -9.913,-1.058 -24.254,0.185 -31.078,0.969 -0.23,1.103 -0.414,2.484 -0.414,3.589 0,8.976 4.841,11.047 9.405,11.047 4.75,0 12.22,-0.828 17.753,-0.828 6.132,0 7.977,2.071 7.977,4.049 0,2.579 -2.445,3.637 -7.193,4.559 L -36.98,6.583 c -10.791,2.07 -16.554,9.527 -16.554,17.443 0,9.62 6.825,17.676 20.242,19.148 10.144,1.106 22.501,-0.137 29.28,-0.966 0.23,-1.149 0.368,-2.255 0.368,-3.452 0,-8.975 -4.749,-10.909 -9.314,-10.909 -3.504,0 -8.944,0.645 -15.169,0.645 -6.317,0 -8.946,-1.75 -8.946,-3.866 0,-2.255 2.49,-3.176 6.455,-3.867 l 12.404,-2.302 C -5.488,16.11 0,8.883 0,0 m 22.255,-11.047 c 0,-5.523 -2.169,-8.7 -12.958,-8.7 -1.429,0 -2.673,0.093 -3.872,0.275 v 73.187 c 0,5.57 1.889,11.371 12.771,11.371 1.383,0 2.766,-0.138 4.059,-0.416 z m 44.101,-28.309 c 1.43,-0.735 4.334,-1.61 7.977,-1.703 6.271,-0.137 9.684,2.255 12.22,7.872 l 33.614,74.842 c -1.384,0.738 -4.473,1.566 -6.963,1.613 -4.334,0.09 -10.144,-0.784 -13.833,-9.622 L 88.49,8.009 67.141,42.715 c -1.383,0.415 -4.75,1.012 -7.194,1.012 -7.561,0 -11.757,-2.761 -16.138,-7.501 L 23.061,13.577 39.751,-12.659 c 3.09,-4.786 7.147,-7.225 13.743,-7.225 4.334,0 7.929,1.011 9.589,1.793 L 42.979,12.152 57.227,27.248 80.604,-9.391 Z" /></g><g
           id="g162"><g
             id="g164" /><g
             id="g222"><g
               style="opacity:0.30000299"
               id="g220"
               clip-path="url(#clipPath168)"><g
                 id="g218"><g
                   id="g216"
                   clip-path="url(#clipPath172)"><g
                     id="g214"><g
                       id="g206" /><g
                       id="g212"
                       mask="url(#mask186)"><g
                         id="g210"><path
                           id="path208"
                           style="fill:url(#linearGradient204);stroke:none"
                           d="m 35.32,66.446 -12.404,2.302 c -3.965,0.691 -6.455,1.612 -6.455,3.867 0,2.116 2.628,3.866 8.945,3.866 6.225,0 11.666,-0.645 15.17,-0.645 4.565,0 9.314,1.935 9.314,10.91 0,1.196 -0.138,2.302 -0.368,3.452 -6.779,0.828 -19.136,2.071 -29.28,0.966 C 6.824,89.691 0,81.636 0,72.016 0,67.075 2.246,62.314 6.557,58.929 c 3.277,-2.148 6.601,-2.98 9.957,-3.558 2.755,-0.474 9.136,-0.901 13.876,-0.728 1.47,0.054 12.419,0.437 14.798,0.517 5.549,0.187 8.556,-4.547 8.247,-9.29 0.006,0.064 0.01,0.125 0.016,0.19 10e-4,0.018 0.003,0.037 0.005,0.055 0.051,0.614 0.077,1.239 0.077,1.874 0,8.883 -5.487,16.111 -18.213,18.457 m 36.409,46.629 c -10.881,0 -12.771,-5.801 -12.771,-11.371 V 51.546 c 0,2.016 1.553,4.149 4.145,4.239 1.806,0.064 6.911,0.242 8.424,0.295 1.66,0.058 4.226,1.186 4.262,4.279 v 52.301 c -1.293,0.277 -2.676,0.415 -4.06,0.415 m 69.738,-56.171 -20.792,33.8 c -1.384,0.416 -4.751,1.012 -7.194,1.012 -7.562,0 -11.757,-2.761 -16.138,-7.501 L 76.594,61.566 78.251,58.962 c 0.707,-0.968 2.129,-2.573 4.908,-2.476 0.986,0.035 11.01,0.384 11.828,0.414 2.594,0.092 4.237,-1.022 5.24,-2.346 l -0.003,0.004 -3.711,5.583 14.248,15.096 9.571,-15.001 h 0.001 c 1.738,-2.261 4.339,-2.3 4.894,-2.281 0.501,0.017 13.042,0.455 13.6,0.475 0.871,0.03 1.879,-0.449 2.64,-1.526 M 173.7,89.645 161.395,62.247 c -0.358,-0.741 -1.727,-3.089 -5.128,-3.208 -0.799,-0.028 -11.242,-0.393 -11.242,-0.393 -2.048,-0.071 -2.718,-2.006 -2.742,-2.04 l 0.004,0.014 10.618,25.016 c 3.689,8.837 9.499,9.712 13.832,9.621 2.491,-0.047 5.58,-0.875 6.963,-1.612" /></g></g></g></g></g></g></g></g><g
           transform="translate(214.2046,59.3418)"
           id="g224"><path
             id="path226"
             style="fill:#ffffff;fill-opacity:1;fill-rule:nonzero;stroke:none"
             d="m 0,0 c 0,16.846 12.369,29.332 28.743,29.332 7.657,0 14.725,-2.12 19.672,-4.477 0.825,-5.3 -0.824,-7.42 -3.181,-7.42 -4.123,0 -7.656,3.416 -16.137,3.416 -10.603,0 -19.32,-7.893 -19.32,-20.851 0,-12.84 8.717,-20.85 19.32,-20.85 8.481,0 12.014,3.534 15.784,3.534 2.474,0 4.241,-2.238 3.534,-7.539 C 43.468,-27.329 36.4,-29.449 28.743,-29.449 12.369,-29.449 0,-16.727 0,0" /></g><g
           transform="translate(273.6343,30.9531)"
           id="g228"><path
             id="path230"
             style="fill:#ffffff;fill-opacity:1;fill-rule:nonzero;stroke:none"
             d="m 0,0 v 53.48 c 0,2.238 1.296,3.652 5.184,3.652 1.648,0 3.416,-0.236 4.358,-0.472 V 3.181 C 9.542,0.824 8.364,-0.472 4.477,-0.472 2.827,-0.472 0.942,-0.236 0,0 m -1.296,69.5 c 0,3.534 2.827,6.126 6.126,6.126 3.534,0 6.243,-2.592 6.243,-6.126 0,-3.18 -2.709,-6.125 -6.243,-6.125 -3.299,0 -6.126,2.945 -6.126,6.125" /></g><g
           transform="translate(347.9761,64.6426)"
           id="g232"><path
             id="path234"
             style="fill:#ffffff;fill-opacity:1;fill-rule:nonzero;stroke:none"
             d="m 0,0 v -30.509 c 0,-2.238 -1.295,-3.652 -5.183,-3.652 -1.649,0 -3.534,0.235 -4.476,0.472 v 32.394 c 0,11.309 -5.536,16.727 -13.901,16.727 -6.478,0 -13.545,-4.476 -16.374,-9.778 v -36.163 c 0,-2.238 -1.295,-3.652 -5.182,-3.652 -1.65,0 -3.534,0.235 -4.477,0.472 v 56.66 c 0.943,0.236 2.827,0.471 4.477,0.471 3.887,0 5.182,-1.414 5.182,-3.651 v -4.83 c 4.123,5.065 10.368,9.07 18.731,9.07 C -9.659,24.031 0,16.728 0,0" /></g><g
           transform="translate(369.4155,63.3477)"
           id="g236"><path
             id="path238"
             style="fill:#ffffff;fill-opacity:1;fill-rule:nonzero;stroke:none"
             d="M 0,0 H 34.75 C 34.396,9.659 28.153,17.198 18.141,17.198 9.424,17.198 1.531,11.19 0,0 M 43.82,-7.539 H 0 c 1.295,-10.955 8.834,-17.081 20.025,-17.081 4.829,0 8.599,0.942 12.133,2.12 2.474,0.825 3.534,1.178 4.477,1.178 2.709,0 4.476,-2.238 4.005,-7.421 -5.066,-2.238 -12.84,-4.712 -20.968,-4.712 -17.67,0 -29.568,11.897 -29.568,29.567 0,16.963 12.605,29.214 28.037,29.214 17.433,0 26.033,-13.547 26.033,-27.211 0,-1.649 -0.118,-3.652 -0.354,-5.654" /></g><g
           transform="translate(504.3657,68.1768)"
           id="g240"><path
             id="path242"
             style="fill:#ffffff;fill-opacity:1;fill-rule:nonzero;stroke:none"
             d="m 0,0 v -34.043 c 0,-2.356 -1.296,-3.652 -5.184,-3.652 -1.649,0 -3.534,0.235 -4.475,0.471 v 36.046 c 0,8.246 -3.888,13.075 -11.309,13.075 -6.244,0 -11.427,-4.358 -13.547,-8.834 v -37.106 c 0,-2.356 -1.296,-3.652 -5.183,-3.652 -1.65,0 -3.534,0.235 -4.477,0.471 v 36.046 c 0,8.246 -3.887,13.075 -11.308,13.075 -6.244,0 -11.426,-4.358 -13.547,-8.834 v -37.106 c 0,-2.356 -1.295,-3.652 -5.183,-3.652 -1.649,0 -3.534,0.235 -4.476,0.471 v 56.661 c 0.942,0.236 2.827,0.471 4.594,0.471 3.652,0 4.948,-1.414 4.948,-3.887 v -3.887 c 3.651,4.829 9.305,8.363 16.138,8.363 7.539,0 13.429,-3.769 16.373,-10.248 3.888,5.89 9.778,10.248 18.142,10.248 C -6.361,20.497 0,11.427 0,0" /></g><g
           transform="translate(554.8306,47.4443)"
           id="g244"><path
             id="path246"
             style="fill:#ffffff;fill-opacity:1;fill-rule:nonzero;stroke:none"
             d="M 0,0 V 10.72 C -16.257,11.897 -29.803,9.777 -29.803,0 c 0,-4.947 4.122,-9.424 11.544,-9.424 7.539,0 14.136,3.77 18.259,9.424 m 9.659,19.79 v -36.281 c -0.942,-0.237 -2.709,-0.472 -4.358,-0.472 -3.534,0 -5.184,1.296 -5.184,3.652 v 4.948 c -5.065,-5.773 -11.661,-9.189 -20.025,-9.189 -12.605,0 -19.555,8.246 -19.555,17.198 0,13.666 14.608,19.673 39.463,18.024 v 2.003 c 0,9.306 -2.827,13.193 -13.547,13.193 -4.476,0 -10.484,-1.296 -13.665,-2.121 -1.885,-0.471 -3.298,-0.942 -4.475,-0.942 -2.71,0 -4.477,2.356 -3.535,7.303 5.772,2.121 14.136,4.123 22.146,4.123 16.61,0 22.735,-7.42 22.735,-21.439" /></g></g></g></g></svg>