<?xml version="1.0" encoding="UTF-8" standalone="no"?>
<svg
   width="989.48"
   height="513.02"
   viewBox="0 0 989.48 513.02"
   version="1.1"
   id="svg6"
   sodipodi:docname="VH1.svg"
   inkscape:version="1.1.1 (3bf5ae0d25, 2021-09-20)"
   xmlns:inkscape="http://www.inkscape.org/namespaces/inkscape"
   xmlns:sodipodi="http://sodipodi.sourceforge.net/DTD/sodipodi-0.dtd"
   xmlns="http://www.w3.org/2000/svg"
   xmlns:svg="http://www.w3.org/2000/svg"
   xmlns:rdf="http://www.w3.org/1999/02/22-rdf-syntax-ns#"
   xmlns:cc="http://creativecommons.org/ns#"
   xmlns:dc="http://purl.org/dc/elements/1.1/">
  <metadata
     id="metadata12">
    <rdf:RDF>
      <cc:Work
         rdf:about="">
        <dc:format>image/svg+xml</dc:format>
        <dc:type
           rdf:resource="http://purl.org/dc/dcmitype/StillImage" />
      </cc:Work>
    </rdf:RDF>
  </metadata>
  <defs
     id="defs10" />
  <sodipodi:namedview
     pagecolor="#ffffff"
     bordercolor="#666666"
     borderopacity="1"
     objecttolerance="10"
     gridtolerance="10"
     guidetolerance="10"
     inkscape:pageopacity="0"
     inkscape:pageshadow="2"
     inkscape:window-width="1920"
     inkscape:window-height="1017"
     id="namedview8"
     showgrid="false"
     inkscape:zoom="1.6807972"
     inkscape:cx="463.47055"
     inkscape:cy="264.45784"
     inkscape:window-x="-8"
     inkscape:window-y="-8"
     inkscape:window-maximized="1"
     inkscape:current-layer="svg6"
     inkscape:pagecheckerboard="0" />
  <path
     d="m 70.64005,93.51 h 90.09 a 8.7,8.7 0 0 1 7.82,5.79 l 50.66,164.14 a 2.25,2.25 0 0 0 2.12,1.46 2.33,2.33 0 0 0 2.10995,-1.46 L 274.1,99.3 a 8.66,8.66 0 0 1 7.8,-5.79 h 185.71 a 6.07,6.07 0 0 1 6.05,6.09 v 108.32 h 78.61 a 6.06,6.06 0 0 0 6,-6 V 99.55 a 6.1,6.1 0 0 1 6.05,-6 h 85.00001 a 6.11,6.11 0 0 1 6.1,6 v 102.33 a 6.07,6.07 0 0 0 6,6 h 88.53 v -62 a 11.83,11.83 0 0 1 4.92,-9.54 L 807.53002,97 a 19.11,19.11 0 0 1 11.08,-3.47 h 77.31 a 6.06,6.06 0 0 1 6,6.09 v 313.85 a 6.07,6.07 0 0 1 -6,6 h -85.12 a 6.06,6.06 0 0 1 -6,-6 V 214 a 6.1,6.1 0 0 0 -6,-6.05 h -48.72001 v 91.14 a 6.07,6.07 0 0 1 -6.1,6 h -82.48 a 6.07,6.07 0 0 0 -6,6.1 v 102.28 a 6.11,6.11 0 0 1 -6.1,6 H 564.4 a 6.07,6.07 0 0 1 -6.05,-6 V 311.2 a 6.11,6.11 0 0 0 -6,-6.1 h -78.69 v 108.37 a 6.07,6.07 0 0 1 -6.05,6 h -85.09999 a 6,6 0 0 1 -6.00001,-6 v -303 a 2.35,2.35 0 0 0 -2.16,-2.06 2.26,2.26 0 0 0 -2.17,1.56 L 263.42,413.82 a 9.27,9.27 0 0 1 -8.11,5.7 h -67.99995 a 9.24,9.24 0 0 1 -8.1,-5.7 L 66.67005,99.25 c -1.16,-3.17 0.65,-5.74 4,-5.74"
     id="path31"
     inkscape:connector-curvature="0" />
  <path
     style="opacity:1;fill:#ffffff;stroke-width:0.594956"
     d="m 183.24033,418.10517 c -1.08179,-0.73626 -2.44642,-2.00798 -3.03253,-2.82604 C 178.78147,413.28831 66.586572,99.541076 66.509084,97.326559 c -0.03972,-1.135124 0.405079,-2.110709 1.288475,-2.82604 1.283299,-1.039152 3.618176,-1.092462 47.847791,-1.092462 44.1188,0 46.60378,0.05638 48.55258,1.101527 1.12965,0.60584 2.52207,1.743693 3.09426,2.528562 0.5722,0.784869 12.51364,38.624224 26.53656,84.087464 17.30738,56.11169 25.81716,82.86287 26.4955,83.29076 0.70414,0.44416 1.29585,0.44328 2.00332,-0.003 0.68465,-0.43187 9.11223,-26.92564 26.49452,-83.29077 14.01977,-45.46159 25.9591,-83.299609 26.53183,-84.084478 0.57273,-0.784869 1.96977,-1.925065 3.10453,-2.533768 1.99029,-1.067622 5.41313,-1.101292 96.85875,-0.952788 l 94.79555,0.153938 1.73603,1.942993 1.73602,1.942993 v 55.02402 55.02403 h 40.50275 40.50277 l 1.73909,-1.73911 1.73911,-1.7391 v -52.42098 c 0,-43.9591 0.13649,-52.747657 0.84556,-54.444704 1.69196,-4.049421 -0.30333,-3.887619 47.94081,-3.887619 48.24414,0 46.24885,-0.161802 47.94081,3.887619 0.70907,1.697047 0.84556,10.485604 0.84556,54.444704 v 52.42098 l 1.73911,1.7391 1.73909,1.73911 h 45.5599 45.55987 v -32.4488 c 0,-31.54413 0.0339,-32.51548 1.22032,-34.8408 1.01178,-1.9832 5.86697,-5.86706 28.40913,-22.72539 14.95386,-11.18336 28.78527,-21.140159 30.73643,-22.126216 l 3.5476,-1.79283 h 42.10169 42.10163 l 1.64969,1.649633 1.64976,1.649633 0.15201,159.19339 0.15201,159.19339 -2.02612,2.02612 -2.02613,2.02612 h -44.11579 c -47.31629,0 -46.6061,0.0434 -48.20373,-2.94182 -0.4132,-0.77215 -0.61257,-33.96191 -0.61257,-101.99003 0,-61.40304 -0.21846,-101.41993 -0.55848,-102.31437 -0.30718,-0.80795 -1.16088,-2.03016 -1.89708,-2.71603 -1.31574,-1.22583 -1.77195,-1.24705 -26.80948,-1.24705 h -25.47089 v 45.84114 c 0,50.30849 0.14011,48.32578 -3.55028,50.23415 -1.51255,0.78218 -7.45569,0.9025 -44.57843,0.9025 h -42.83317 l -1.66931,1.43568 -1.6693,1.43569 -0.29748,53.9442 -0.29747,53.9442 -1.9553,1.74686 -1.9553,1.74687 -44.83521,-0.15973 c -43.0913,-0.15353 -44.88379,-0.2037 -46.08405,-1.2901 -0.68685,-0.6217 -1.51656,-2.09421 -1.8438,-3.27226 -0.37565,-1.35232 -0.5962,-21.29434 -0.59829,-54.09755 l -0.003,-51.95566 -1.73911,-1.73909 -1.73909,-1.73911 H 514.08755 473.5848 v 54.76548 c 0,59.48185 0.12562,57.21464 -3.25564,58.75524 -1.16427,0.53048 -12.6532,0.71079 -45.2908,0.71079 -47.47254,0 -46.19758,0.087 -47.72057,-3.25563 -0.54516,-1.19649 -0.71078,-37.03413 -0.71078,-153.79819 0,-137.60508 -0.0899,-152.32805 -0.93494,-153.17312 -1.05247,-1.05248 -1.42353,-1.11918 -2.48307,-0.44634 -0.40739,0.25871 -25.25578,68.99431 -55.21864,152.74579 -29.96286,83.75148 -54.95466,152.94474 -55.53732,153.7628 -0.58266,0.81806 -1.94449,2.08978 -3.02627,2.82604 l -1.96689,1.33865 h -36.11633 -36.11633 z"
     id="path1040" />
</svg>
