<?xml version="1.0" encoding="UTF-8" standalone="no"?>
<svg
   xmlns:svg="http://www.w3.org/2000/svg"
   xmlns="http://www.w3.org/2000/svg"
   version="1.1"
   width="533.70905"
   height="307.59296"
   id="svg3147">
  <defs
     id="defs3149" />
  <g
     transform="translate(-178.85974,-401.4228)"
     id="layer1">
    <path style="opacity:1" fill="#9c9e9f" 
       d="m 646.87477,649.3741 19.82416,-59.73376 c 1.30223,-4.69476 2.35159,-8.87115 2.35159,-11.22274 0,-4.42925 -2.0903,-5.73147 -9.39372,-5.73147 l -9.12821,0 0,-17.47678 61.0402,0 0,17.47678 -5.22154,0 c -10.16915,0 -11.21852,1.04094 -18.51772,22.17153 l -27.90722,79.55793 -35.21907,0 -29.21366,-79.55793 c -7.30342,-21.13059 -8.35279,-22.17153 -19.5713,-22.17153 l -4.68633,0 -26.15828,0 0,60.77891 c 0,13.81876 0,12.77782 0.77965,15.90906 1.04515,4.43768 4.43347,7.04213 9.39793,7.04213 9.64658,0 10.68752,-3.6496 10.68752,-37.03966 l 18.26064,0 c 0.52679,8.86693 0.52679,12.78203 0.52679,16.95421 0,28.17694 -10.95723,41.73862 -33.65555,41.73862 -14.5984,0 -26.08242,-5.74412 -31.8139,-15.91327 -3.65803,-7.04634 -4.1806,-9.91629 -4.1806,-28.69109 l 0,-60.77891 -20.5701,0 0,-17.47678 8.37386,0 c 10.17336,0 11.2143,-1.04516 18.51772,-22.17154 l 3.05959,-8.71521 3.89825,0 2.11559,0 14.60261,0 0,30.88675 26.15828,0 23.63391,0 44.19135,0 0,17.47678 -6.00119,0 c -6.26669,0 -8.87114,1.56773 -8.61407,5.73147 0.26129,2.87838 1.04515,6.52798 2.61288,11.22274 l 19.81994,59.73376 z"
       id="path22"
       style="fill:#9c9e9f;fill-opacity:1;fill-rule:nonzero;stroke:none" />
    <path style="opacity:1" fill="#fabb00" 
       d="m 458.05978,515.3583 c 0,6.08548 -2.59181,9.60444 -7.65742,9.60444 l -1.82059,0 0,-18.82537 1.3233,0 c 5.28897,0 8.15471,2.9121 8.15471,9.22093 m 5.60083,-0.11395 c 0,-8.21371 -4.52618,-13.24139 -12.25946,-13.24139 l -8.15471,0 0,27.02221 6.76399,0 c 9.31786,0 13.65018,-5.18361 13.65018,-13.78082 m -28.17694,13.78082 0,-4.21432 -8.88379,0 0,-22.76575 -5.33533,0 0,26.98007 14.21912,0 z m -29.86688,-10.43887 -6.92413,0 3.59481,-12.01924 3.32932,12.01924 z m 8.42863,10.43887 -8.70678,-26.98007 -5.86633,0 -9.006,26.98007 5.21732,0 1.93016,-6.38469 9.11979,0 1.78266,6.38469 5.52918,0 z m -27.4015,-26.98007 -4.72425,0 -3.8561,20.40995 -3.94461,-20.40995 -6.41419,0 -3.79289,20.40995 -3.71281,-20.40995 -5.21733,0 5.60083,26.98007 6.26669,0 4.01625,-21.96082 4.02467,21.96082 6.33834,0 5.4154,-26.98007 z m -43.44542,7.8007 c 0,2.05238 -1.39072,3.79289 -3.98253,3.79289 l -2.38952,0 0,-7.61527 2.3558,0 c 2.54967,0 4.01625,1.38651 4.01625,3.82238 m 6.57012,19.17937 -3.12281,-9.6255 c -0.8555,-2.62974 -1.7068,-3.40517 -3.28717,-3.79289 3.16917,-0.81336 5.25526,-3.00902 5.25526,-6.41419 0,-3.75075 -1.88801,-7.14749 -8.11678,-7.14749 l -8.85007,0 0,26.98007 5.3269,0 0,-11.36602 0.96929,0 c 1.85009,0 2.9416,0.58158 3.66646,2.97531 l 2.55809,8.39071 5.60083,0 z m -26.84942,0 0,-4.13846 -9.81937,0 0,-7.68692 8.85007,0 0,-4.13846 -8.85007,0 0,-6.92413 9.32208,0 0,-4.13424 -14.58155,0 0,27.02221 15.07884,0 z m -22.95962,-22.76997 0,-4.2101 -17.35878,0 0,4.2101 5.99698,0 0,22.76997 5.36904,0 0,-22.76997 5.99276,0 z m -23.53276,14.84284 c 0,-3.17338 -1.51294,-5.37326 -4.5641,-6.95784 l -1.93438,-1.00301 c -3.35881,-1.7363 -4.01203,-2.62974 -4.01203,-4.17639 0,-1.96809 1.50451,-3.28296 3.8561,-3.28296 1.86273,0 3.79289,0.57736 5.06562,1.27694 l 0.15576,-4.29439 c -1.70259,-0.69536 -3.89825,-1.00722 -5.83684,-1.00722 -4.90968,0 -8.65621,2.62973 -8.65621,7.42563 0,3.47681 1.08308,5.60083 5.71883,7.83863 3.82239,1.86273 4.6779,2.82781 4.6779,4.76218 0,1.93016 -1.34858,3.55268 -4.25225,3.55268 -2.08609,0 -4.40396,-0.9693 -5.60504,-1.66045 l -0.23601,4.71583 c 1.40337,0.5015 3.7086,1.12101 6.41841,1.12101 5.76098,0 9.20408,-3.2071 9.20408,-8.31064 m -23.76455,7.92713 0,-4.13846 -9.81937,0 0,-7.68692 8.85429,0 0,-4.13846 -8.85429,0 0,-6.92413 9.32208,0 0,-4.13424 -14.58155,0 0,27.02221 15.07884,0 z m -22.26425,-26.98007 -4.71582,0 -3.86032,20.40995 -3.94882,-20.40995 -6.41419,0 -3.78868,20.40995 -3.7086,-20.40995 -5.21311,0 5.60083,26.98007 6.26248,0 4.02046,-21.96082 4.02046,21.96082 6.33412,0 5.41119,-26.98007 z m -50.53812,-62.85236 c 0,-20.30881 16.46113,-36.76994 36.76572,-36.76994 l 232.06993,0 c 20.30459,0 36.76151,16.46113 36.76151,36.76994 l 0,116.016 -54.52065,0 0,17.47678 7.04213,0 c 4.96446,0 7.31184,1.8248 7.31184,5.74412 0,2.08609 0,2.86574 -2.09452,11.73688 l -17.47678,60.51341 -18.77901,-60.51341 c -2.86995,-10.43887 -3.13124,-11.21852 -3.13124,-12.52496 0,-3.13124 3.39675,-4.95604 8.34436,-4.95604 l 7.86813,0 0,-17.47678 -63.32015,0 0,17.47678 7.20649,0 c 5.73569,0 8.86271,2.08609 8.60142,6.51955 -0.26128,2.61288 -0.26128,2.61288 -2.60866,10.96145 l -17.48521,60.51341 -18.77479,-60.51341 c -2.87417,-10.43887 -3.12703,-11.21852 -3.12703,-12.52496 0,-3.13124 3.3841,-4.95604 8.35278,-4.95604 l 6.9157,0 0,-17.47678 -63.79215,0 0,17.47678 8.61828,0 c 5.73569,0 8.86271,2.08609 8.60143,6.51955 -0.26567,2.61288 -0.26567,2.61288 -2.61288,10.96145 l -17.46836,60.51341 -19.57551,-60.51341 c -3.12281,-9.65079 -3.12281,-9.65079 -3.12281,-11.99817 0,-3.65803 3.12281,-5.48283 9.12822,-5.48283 l 5.51233,0 0,-17.47678 -65.2461,0 0,17.47678 6.51955,0 c 6.00119,0 10.43466,2.61288 12.52075,7.56892 l 0.52257,1.28115 c 0.45515,1.12944 0.83022,2.29681 4.43347,13.32568 l 26.09085,79.55371 34.69649,0 19.29315,-65.20817 21.12639,65.20817 32.88012,0 19.30158,-65.20817 21.11796,65.20817 33.65134,0 25.03727,-79.55371 c 6.26248,-19.3058 8.09571,-22.17575 15.13783,-22.17575 l 7.30342,0 0,98.57715 c 0,20.30459 -16.45692,36.75308 -36.76151,36.75308 l -232.06993,0 c -20.30459,0 -36.76572,-16.44849 -36.76572,-36.75308 l 0,-232.06993 z"
       id="path26"
       style="fill:#fabb00;fill-opacity:1;fill-rule:nonzero;stroke:none" />
  </g>
</svg>
